<svg width="212" height="58" viewBox="0 0 212 58" fill="none" xmlns="http://www.w3.org/2000/svg">
<path d="M189.6 25.7L190.2 26.8L190.7 27.3L191.4 27.4L191.6 27.3L192 26.7L192.3 26.5L192.6 26.3H192.9L193.1 26.4L193.4 26.7L193.7 27L193.8 27.3L194 27.5999L194.1 28L194 28.0999V28.5V28.5999V28.9H194.1V28.8H194.4L194.8 28.7H195.1L195.4 28.5L195.5 28.2L195.6 28L195.5 27.7V27.5V27.4L195.7 27.0999L195.8 27V26.4L196 26.2V26.0999H196.1L196.3 26L196.9 25.5L197.3 25L197.4 24.9L197.5 24.7L197.6 24L197.9 22.9V22.5H198.2L199.2 22.4L200.1 22.3L200.9 22L202.2 21.0999V21L202.3 20.8L202.5 20.4L202.6 20.2L204 19.8L204.1 19.7L204.6 19.2L205.3 19L205.6 18.9L206.2 18.7L206.7 18.3L207.1 18.0999L207.2 18.5999L206.9 19.3V19.5999L207 19.9L207.2 20.2L207.4 20.3L207.7 20.4H208.1L208.3 20.3L208.8 20L209.8 19.5999L210 19.3L210.1 19.2L210.2 18.8L210.3 18.7L210.5 18.5999H210.6V18.8L210.8 18.9L211.1 19.0999L211.5 19.4L211.8 19.7L212 20.0999L211.9 20.5L211.6 21.8V22L211.7 22.2L211.8 22.3V22.4L211.7 22.5999H211.6H211.1H210.9L210.6 22.8L210.4 23L210.2 23.0999H209.9L209.8 23L209.6 22.7L209.4 22.5999H209.3H208.9L208.2 22.7L207.9 23.0999L207.8 23.7L208 24.4L208.1 24.7L208.2 25L208.7 25.4L209.1 25.5999L209.2 25.8V25.9V26.2V26.4L209.7 27.0999V27.4L210 28.5999L209.3 29L208.8 29.5999L208.5 30.4L208.3 31.9L208.2 32.0999L206.3 33.4L205.7 33.9L204 35.9L203.8 36.5999L203.5 36.9L202.4 37.5L201.6 38L201 38.5999L200 39.2L199.7 39.5999L199.3 40.5999L199.1 40.8L198.8 41.2L197.9 41.9L197.2 42.2L196.5 42.3L194.3 42.2L192.9 42.4L192.2 42.5H192L191.6 42.4H191.4L191.1 42.5999L190.7 43.4L190.5 43.5999L190.1 43.7L189.9 43.9L189.8 44.2L189.6 44.5L189.4 44.5999L187.6 44.8L185.5 46.2L185 46.4L184.8 46.3L184.6 46.0999L184.2 46.2L183.4 46.4L183 46.3L182.6 46.0999L182.2 45.9L181.8 46L181.4 46.3L181.1 46.2L180.5 45.7L180.2 45.5999H179.8L179.4 45.7L179.1 46L178.9 46.2L178.7 46.3L178.5 46.2V46.0999V45.8L178.8 45.4L178.9 45L179 44.5999L178.9 43.8L179.1 43.5L179.4 43.2L180 42.7L181 42.3L181.3 42.0999L181.5 42L182.2 41.9L182.4 41.8L184 40.9L184.3 40.4L183.9 39.9L183.5 39.7L183.1 39.5L182.7 39.4H182.2L181.8 39.5L181.2 40L180.8 39.9L180.6 39.5999V39.2L180.7 37.8L180.9 37.5L181.6 37L182 36.7L182.2 36.3L182.3 35.9V35.4L182.2 35.2L182 34.8L181.9 34.5999L182 34.4L182.1 34.3L182.2 34.2L182.3 34.0999L182.4 33.7L182.5 31.9L182.6 31.5L182.8 31.0999L183.3 30.7L184 30.4L184.1 30.2L184.7 29.4L184.9 29.2H185L185.2 29.0999H185.4L185.5 29L185.7 28.7L185.8 28.5999H185.9L186.2 28.7L186.3 28.5999L186.9 27.7L187.1 27.5L187.2 27.4L188.1 26.5999L188.6 26L188.8 25.8L189.2 25.7H189.6ZM172.1 7.39996L172.5 7.49997L172.7 7.69995V8.09995L172.4 8.29996L171.6 8.59995L169.9 8.69995L169.3 8.99997L168.3 10.5999L167.8 10.9L167.5 11L167.3 10.9L166.9 10.5L167.4 9.09995L169.2 7.79996H169.4L169.5 7.89996H169.8H170L170.7 7.59995H170.9L171.3 7.69995L171.5 7.59995H171.6L172 7.39996H172.1ZM125.5 38.0999L125.9 38.5999L126.3 39.2L126.5 39.9L126.2 40.7L126 41L125.4 41.4L124.5 42.3L124.2 42.9L123.9 43.0999L122.7 43.4L122.5 43.5999L122.3 43.7L121 43.5L120.7 43.5999L119.8 44.0999L119.6 44.3L119.5 44.5999L119.4 45L119.2 45.0999H118.8L118.4 44.9L117.9 44.3L117.6 44.2L114.6 43.8H114.4L114.2 43.7L112.9 43.3L112.8 43.2L112.6 42.8L112.5 42.7L111.7 42.3L111.6 42.2L111 41.3L110.8 41.2H110.6H110.5L110.4 40.3L110.1 39.8L109.4 38.8L109.2 38.5999L109 38.4H108.8H108.5L108.3 38.3L108.1 38.0999L108 37.9L107.8 38L107.7 37.9L107.6 37.7L107.5 37.5999L107.1 37.4L106.9 37.3L106.1 37.2L105.8 37.0999L105.1 36.5999L103.9 36L103.7 35.7L103.6 35.2L103.4 34.9L102.6 34.7V34.5999V34.3H102.5H102.4L102.3 34.4H102.2L101.7 34.3L100.8 34.2L99.9001 33.9H99.5001H99.2001L98.8 34L98.4001 34.0999L98.3 34.3L98.1001 34.7L97.7001 34.5999L96.9001 34H96.8L96.6001 34.0999H96.4001H96.2001L95.7001 33.7L95.2001 33.8H94.4001L93.6001 33.7L92.8 33.4L92.0001 33.2L91.7001 33.0999L90.8 32.4L90.6001 32.0999L90.2001 31.4L90.0001 31.2L89.8 31L89.2001 30.5999L88.9001 30.3L88.8 29.9L88.9001 29.4L89.2001 28.9L89.7001 28.4L90.6001 27.5999L91.1001 27.4L91.6001 27.2L92.3 27.0999H92.5001L93.1001 26.7L93.4001 26.5999L94.2001 26.5L94.8 26.4H94.9001L95.2001 26.2H95.4001H96.1001L97.7001 26.4H97.9001L98.1001 26.2L99.1001 26L99.5001 26.0999L100.3 26.4H100.5L100.9 26.0999L101.4 26L102.5 25.7H102.9L103.2 25.8L103.3 26.0999L103.5 26.3L105.9 26.5L106.3 26.4L108.8 24.5999L109 24.7L109.1 25.0999L109.3 25.3L110.1 26L111.3 27.7L111.7 28.0999L112 28.3L112.4 28.4L112.8 28.5L113.1 28.3L113.5 28.2L113.9 28.4L114.4 28.7L114.7 29.0999V29.9L114.8 30.4L114.9 31.2L115 31.5L115.2 31.7L116.4 32.3H116.7L116.8 32L117.1 31.8L117.6 31.5999L118.5 31.5H118.9L119.3 31.7L119.6 32L119.7 32.5999L119.9 32.8L121.3 33.5999L121.9 34.3L122.6 35.9L123.1 36.5999L123.6 37L125 37.7L125.5 38.0999ZM104.4 11.3L104.7 11.2H105.3L105.7 11.3V11.7L105.1 12.0999L104.9 12.3V12.5999H104.6H104.3L104.1 12.7L104 13V13.3L104.4 13.7V14.0999L104.3 14.3L104 14.7L103.9 14.9L103.7 14.8L103.5 14.7L103.3 14.5L103.2 14.3L103 14.2L102.8 14.3L102.6 14.4L102.4 14.5L102.2 14.4L102.1 14.2L102.2 13.5999L102.3 13.5L102.6 13.4L102.5 13.2V13.0999L102.8 13L103.1 12.8V12.5999L102.8 12.4L102.9 12L102.5 11.2L102.6 10.8L103 11.0999L103.1 11.2L103.2 11.4L103.3 11.8L103.4 12L103.8 12.2L104.1 12L104.3 11.7L104.4 11.3ZM101.1 9.19995L101.2 9.49997L101.3 9.69995L101.5 9.79996L101.7 10.0999L101.4 10.2V10.4V10.5999L101.3 10.7H100.7H100.5L100.3 10.3L100.1 10.2L99.8 10.3L99.6001 10.7L99.4001 10.8H99.1001L99.2001 11L99.4001 11.2L99.5001 11.0999L99.6001 10.9L99.8 11.0999L99.6001 11.5999L99.4001 11.8H99.3L99.1001 11.7L98.9001 11.9L98.8 12.4V12.7L98.9001 13L99.1001 13.4L99.4001 13.7L98.9001 13.8L98.0001 13.4L97.6001 13.7L97.5001 13.5H97.6001L97.5001 13.3L97.6001 13L98.0001 12.4V12.2V11.7V11.5H97.8H97.7001L97.6001 11.4V10.9V10.3V10.2L97.7001 9.99997H97.9001H98.2001H98.3V9.89996L98.4001 9.59995V9.39996L98.3 8.69995L98.5001 8.59995V8.29996L98.3 7.69995H98.4001L99.1001 7.39996L99.2001 7.69995V8.09995L99.3 8.39996L99.6001 8.59995L100.5 8.39996L100.9 8.49997H101L101.2 8.59995L101.3 8.79996L101.4 8.99997V9.09995L101.2 9.19995H101.1ZM176.1 4.19995V4.49997L176 4.59995L175.9 4.69995L175.8 4.79996L175.7 6.19995L175.5 6.59995L174.9 6.89996H174L172.4 6.69995L170.8 6.99997L170 7.09995L169.6 6.69995V5.99997L169.9 5.49997L171.7 3.99997L172 3.89996L172.3 3.69995L172.9 3.59995L173.2 3.49997H173.9L174.4 3.59995L174.9 3.79996L175.4 4.09995L175.5 3.99997L175.7 3.89996L175.9 3.99997L176.1 4.19995ZM169.7 4.59995V4.79996V5.29996L169.6 5.49997L169.2 5.69995H168.1L167.6 5.79996L167.3 6.09995L167.2 6.59995L167.3 7.39996V7.79996L167.2 8.09995H166.8L166.3 7.89996L165.8 7.69995L165.6 7.59995V7.39996H165.4L165.3 7.59995L165.2 7.89996L165.3 8.19995V8.39996L165.4 8.59995L166.2 9.89996V10.5L165.4 11.0999H165.2L164.2 11.3H164.1L163.8 11.5L163.7 11.5999L163 11.5H162.8L162.4 11.8L162.3 11.9H162L160.6 12.2L160.4 12.4L159.8 13L159.6 13.0999L158.3 13.5L157.5 13.7L155.4 13.5999L155.1 13.7L154.7 13.8H154.4L153.9 13.5999L152.6 13.4L151.7 13.5L150.9 13.9L150.3 14.5L149.5 14.9L147 15.5999L146.1 16L145.3 16.5L145.1 16.5999H144.9H144.7L144.4 16.5H144.1L143.8 16.3L143.5 16L143.3 15.9L143 16.0999L142.7 16.8L142.4 17L142.3 16.8L142.1 15.9L141.9 15.5999L141.1 15.2H140.3H139.5L138.7 15.0999L137.9 14.8L137.5 14.7L137.1 14.8L136.9 15.3V15.7L137.1 16.0999L137 16.5L136.4 17.2H135.5L133.8 16.7L132.9 16.8L132.2 17L131 17.7H130.6H129.5L128.9 17.4H128.8H128.3H128.1L127.8 17.0999L126.9 16.2L126.8 15.9L126.6 15.4L126.3 15.2H125.9L125.5 15.3L125.3 15.5999L125.1 15.9L125 16.2L124.6 16.3L124.2 16.2L123.9 16L123.7 15.9L123.4 15.7H123.2L122.7 15.8L122.5 15.7L122.2 15.4L122.1 15.3L121.7 14.9L121.6 14.8L121.4 14.7H121.3L120.9 14.5999L120.4 14.7L119.6 14.9H119.2L118.5 14.8H118.3H118L117.8 14.9H117.6L117.4 14.8L116.2 15.5L115.4 15.4L114.7 15.3L114.3 15.0999L113.5 14.4L113.1 14.2H112.7L112.4 14.3L111.7 14.5999L111 14.9L109.4 15.0999L108.8 15.5H108.7L108.6 15.5999V15.7L108.7 15.9V16L108.5 16.0999L108.3 16.3H108L107.9 16.0999L107.7 15L107.6 14.9H107.3H107.1L106.7 14.7L106.4 14.5L106.1 14.0999L106 13.7V10.8V10.3L106.3 9.79996L107.3 8.69995L107.4 8.29996L107.2 7.79996V7.09995L107.8 7.69995L108.3 8.09995L108.5 7.99997H108.6L109.1 7.59995H109.3H109.4H109.5L109.7 7.79996L109.9 7.59995L110 7.29996L110.2 6.99997V6.89996L110.3 6.59995L110.5 6.49997L110.7 6.59995H110.8L111 6.69995L111.1 6.59995H111.2H111.4H111.5L111.6 6.79996H111.7L112 6.69995L112.1 6.49997V6.19995L112.2 5.89996H112.3L112.6 6.09995L112.7 6.29996H112.8L113 5.89996L113.7 5.19995L113.9 4.79996L114.1 4.69995L115.3 4.19995L117.3 4.39996L117.6 4.19995L118 3.59995L118.2 3.39996L118.5 3.49997L118.6 3.79996L118.7 4.09995L118.9 4.39996H119.4L120.2 3.99997L120.6 4.19995L120.8 4.29996L121.1 4.49997H121.4H121.6L121.7 4.19995V3.99997L121.6 3.49997L122.4 3.79996L122.8 4.09995L123 4.39996L123.2 4.69995L124.2 5.29996L124.6 5.39996L125.9 5.29996L126.3 5.39996L126.6 5.49997L127.1 5.59995L127.8 5.69995L128.7 5.59995H129.2L129.5 5.79996L130 6.39996L130.2 6.69995L130.7 6.99997L131.7 7.29996L132.1 7.39996H132.5H132.7L132.9 7.59995L133.1 7.69995L133.6 7.59995H133.8L133.9 7.69995L134 7.89996L134.2 7.99997L134.4 8.09995H134.6H135L135.2 8.19995L135.4 8.39996L135.9 9.09995L136.3 9.39996L137.2 10.3L137.7 10.5L138 10.4L138.3 10.3L138.5 10.2H138.9L139.3 10.4L139.4 10.5L139.5 10.7L139.6 10.9H139.7L140 10.8L140.1 10.7L140.8 10.2H141V9.79996V9.59995H141.2L141.7 9.69995L141.5 9.29996V8.79996L141.7 8.39996L142 8.19995L142.3 8.29996L143.1 9.09995H143.4L144.5 8.69995L144.9 8.59995H145.1L145.3 8.69995H145.4H145.6H145.7L146.1 8.29996L146.5 8.49997L146.9 8.69995H147.3L148.1 8.29996L148.2 8.19995L148.3 7.99997L148.4 7.89996L149.1 7.79996L149.3 7.69995L149.4 7.49997L149.6 7.39996H149.8L150 7.49997L150.1 7.69995L150.2 7.79996L149.9 8.09995L149.8 8.39996L149.9 8.79996L150.2 9.09995L150.4 9.19995L150.8 9.09995H151L151.2 9.19995L151.6 9.49997L151.9 9.59995L152.2 9.69995L154 11.2L154.5 11.5H155.1L158.3 10.9L158.8 10.8L159.3 10.4L159.6 9.89996L159.5 9.39996L159.4 9.29996L159.1 9.19995L159 9.09995L158.9 8.99997V8.89996L159 8.69995V8.49997L159.2 8.39996L160.2 7.89996L160.5 7.69995L161.2 6.79996L161.6 6.59995L162.3 6.49997L162.7 6.39996L163 6.49997L163.3 6.39996L163.6 6.19995L164 6.09995H164.4L164.7 5.89996L165.1 5.29996L165.6 4.99997L166.8 4.59995L168.1 3.19995L168.2 2.89996L168 2.69995L167.5 2.59995H166.7L166.3 2.69995L165.8 2.89996L165.4 3.19995L165 3.49997L164.9 3.39996L164.2 3.49997H164.1V3.29996V2.99997L164.7 2.09995L164.8 1.79996L164.9 1.29996L165.1 1.09995L165.9 0.599945L166.3 0.299957H166.5L166.7 0.199951L166.9 0.399963L167.1 0.699951L167.2 0.799957L167.6 0.899963L167.9 1.09995L168.5 1.49997L168.8 1.79996V2.09995L168.7 2.79996L169.3 4.09995L169.6 4.39996L169.7 4.59995ZM176.9 50.8L177.4 51.0999L177.5 51.4L177.4 52.2L177.3 52.5999H176.9L176.4 52.5H176.1L175.7 52.5999L174.7 53.5L174.5 53.5999L174.2 53.7H174L173.9 53.9V54.4L173.8 54.5999V54.8L173.3 55.3L172.7 55.4L172 55.5L168.9 56.3L168.5 56.5L168.3 56.8L168.6 57V57.0999L166.8 57.5L166.1 57.4L165.6 56.9L165.5 55.0999L165.4 54.7L165.5 54.5999L165.9 54.5L166.3 54.0999L167.6 53.7H168H168.4H168.7L168.8 53.5999L169.1 53.5L169.3 53.4H169.5H169.7L170.2 53.2L171.1 52.2L171.5 52L172.4 51.5999L172.7 51.4L172.8 51.2V50.7L173 50.5L173.1 50.4L173.3 50.5H173.4L173.5 50.2L173.6 49.8L174 49.5L174.7 49.0999L175.8 48.8L176.2 48.5L176.6 47.8L176.8 47.5999L177 47.9V48.2L176.9 48.5L176.6 48.9L177 49.0999L176.9 49.5999L176.6 49.9V50.0999L176.7 50.2L176.5 50.4L176.3 50.5999H176.2L176.3 50.8H176.5H176.7H176.9ZM148.2 47.5999L148.6 47.8L149 47.7L149.3 47.8L149.5 48.3L149.4 49.0999L149.2 49.4L148.5 50L148 50.3L147.8 50.5H147.7H147.6H147.4L147.3 50.5999L147.2 50.7L147.1 50.9L146.6 51.0999L145.4 50.9L144.5 51L144.1 50.9L143.7 50.7L143.5 50.5L143.4 50.4L143.3 50.3L143.6 50L146 48.8L146.7 47.8L147 47.5L147.5 47.4H147.9L148.2 47.5999ZM178.4 41.9L178.6 42.2L179.2 42.4V42.7L179 42.9L178.3 43.2L178.1 43.4L178 43.7L177.8 43.8L177.5 43.7L177.3 43.3L177 43.5L177.5 44.4L177.6 44.9L177.3 45.0999L177.4 45.4V45.5999H177.2H176.9L176.8 45.4L176.7 45.2L176.4 45L176.3 45.0999L176.2 45.4L175.9 45.7H175.5L175.4 45.2V44.5999L175.5 44.3L175.8 44L176.2 43.5999L176.5 43.3L176.9 42.4L177.2 42.0999L177.4 41.9L177.9 41.7H178.2L178.4 41.9ZM187.5 3.39996L187.8 3.49997V3.69995L187.7 4.19995L187.6 4.29996L187.4 4.39996L186.5 4.59995H185.2L184.8 4.69995L184.5 4.99997L184.3 5.29996L184 5.99997L183.6 6.69995L182.8 7.59995H182.6L182.4 7.39996L182.3 7.09995L182.2 6.99997L181.9 7.09995L181.5 7.39996L181.2 7.79996L181.1 7.99997L181 8.09995L180.7 8.19995L180.5 8.29996L180.4 8.49997L180.5 8.69995L181.2 9.59995L181 9.99997L180.7 10.2H180.4H179.9L179.7 10.0999L179.3 9.49997L179.1 9.29996L178.2 10.2L178 10.3L177.7 10.5999L177.5 10.7L177.2 10.5999H177.1L176.8 10.2L176 9.69995L175.6 9.49997L175.3 9.79996L175.2 9.89996L175 9.99997H174.8H174.7L174.5 9.79996H174.4L174.3 9.69995H174.1L174 9.79996H173.9L173.7 9.39996L174.2 8.79996L175.4 7.89996L176.3 7.09995L176.6 6.99997L176.8 6.89996L178.4 6.19995L178.7 5.99997L178.8 5.89996V5.49997L178.5 5.29996L177.8 5.19995H176.5L176.4 4.89996L176.7 4.59995L177.1 4.29996L177.4 4.19995L177.6 4.29996L177.9 4.39996H178.2L178.4 4.19995H178.7L179.1 3.79996L179.4 3.69995H179.9L180.4 3.79996L180.3 3.99997V4.29996V4.49997L180.1 4.69995L179.6 5.19995L179.4 5.59995V5.89996L179.6 6.09995L180 6.29996L180.4 6.39996L180.8 6.29996L181.1 6.09995L181.2 5.69995L181.1 5.39996L180.8 5.19995L180.7 4.99997L181.1 4.79996L181.3 4.99997H181.6L181.8 4.69995L181.9 4.39996L181.8 4.09995L181.7 3.89996L181.6 3.79996V3.49997L181.7 3.39996L181.9 3.29996H182H182.2L182.4 3.39996V3.49997V3.69995V3.79996L182.7 3.89996H183.1L183.3 3.79996L183.1 3.49997V3.39996L183.6 3.29996L184 2.99997L184.4 2.69995L184.7 2.59995L184.8 2.49997H185L185.1 2.39996L185.2 2.49997L185.3 2.59995V2.69995H185.4L185.5 2.79996L185.8 2.99997L186 3.09995L186.3 3.19995L186.7 3.29996L187.5 3.39996ZM195.1 3.29996L194.8 3.99997L194.7 4.49997L194.8 4.79996L194.9 5.19995L194.6 5.59995L193.8 6.09995L193.6 6.49997L193.3 6.89996L193.1 7.29996L192.9 8.19995L192.8 8.59995L192.5 9.09995L192.2 9.39996L191.9 9.59995L191.5 9.79996L191.1 9.89996L190.6 9.99997L190.1 9.89996L190 9.59995V8.89996V8.49997L189.6 7.99997L189.5 7.69995L189.3 7.49997H189L188.5 7.59995L187.8 7.99997L187.6 8.09995H187.4L187.1 7.89996L187.2 7.69995L187.5 7.49997L187.6 7.39996L188.3 6.09995L188.7 5.59995L189.4 5.09995L189.8 4.99997H190.1L190.3 5.19995L190.4 5.29996L190.6 5.89996V5.99997L190.9 6.39996L191 6.49997L191.1 6.59995V6.09995L191.4 5.79996L191.9 5.39996L192.6 4.29996L193 3.89996L193.5 2.99997L193.8 2.79996L193.9 2.59995L194.1 2.49997L194.3 2.39996L194.6 2.49997L194.8 2.69995L195.1 3.29996ZM211.4 3.19995L211.5 3.49997V5.29996L211.4 5.59995L211.2 5.89996L210.7 5.99997H210.3L209.2 6.29996L207.4 6.39996L204.1 6.99997H203.3L202.2 6.89996H202L201.8 6.99997L201.6 7.09995L201.2 7.29996L200.8 7.39996L200.4 7.59995L200 7.69995L199.8 7.79996H199.7H199.6L199.4 7.59995L199.3 7.49997L198.9 7.39996L198.8 7.49997H198.6L198.1 7.79996H198L197.9 7.89996L197.7 7.99997L197.6 8.09995L197.4 8.19995L197.2 8.09995L197 7.89996L196.8 7.79996H196.7L196.3 7.99997V8.09995L196 7.99997L195.9 7.79996L195.8 7.59995L195.7 7.39996L195.6 7.09995L195.8 6.79996L196.4 6.29996L196.6 5.99997L197 5.29996L197.1 4.99997L198.3 4.19995L198.9 4.09995H199.1L199.2 3.99997L199.5 3.69995L199.7 3.59995L199.8 3.49997V3.29996H199.6L199.2 3.39996L198.7 3.49997L197.3 4.19995H196.7L196.8 3.29996L197 3.09995L197.3 2.89996L197.5 2.69995L197.6 2.39996L197.7 2.09995L197.9 1.79996L198.1 1.59995L198.4 1.49997L198.8 1.59995L199.8 1.49997H200.2L200.5 1.79996L200.6 2.69995L200.9 2.99997L201.7 2.49997L202.1 2.19995H202.6L204.3 1.99997L206.7 2.19995L207.5 1.99997L207.7 1.89996H207.8H208.1H208.2L208.3 1.99997L208.4 2.09995L208.7 2.19995L209.7 1.99997H210.3H210.5L210.6 2.09995L210.8 2.29996L211.2 2.99997L211.4 3.19995ZM156.5 7.49997L157.1 7.59995L157.5 7.69995L157.7 8.09995L157.5 8.59995L156.9 8.89996L156.4 8.49997L156.2 7.79996L156.5 7.49997ZM143.7 4.59995L144.1 4.69995L144.4 5.09995V5.49997L144.1 5.89996H143.7L143.4 5.69995L143 4.99997L143.2 4.89996L143.3 4.79996L143.4 4.69995L143.7 4.59995ZM141.8 51H141.9L142.2 51.0999L142.1 51.3L141.8 51.5L141.4 51.7L141 51.8H140.6L140.1 51.7V51.5999L140.3 51.3L140.8 51H141.4H141.8Z" fill="#C8A668"/>
<path d="M63.6999 1.79999L63.7999 1.89999L63.9999 2L64.1999 2.19998L64.2999 2.39999L64.1999 2.5L64.0999 2.59998L63.6999 2.79999L63.1999 3.29999L62.7999 3.89999L61.6999 6.09998L61.4999 6.39999L61.0999 6.59998L60.8999 6.5L60.2999 6.09998L60.0999 5.89999V5.69998L60.2999 5.39999L60.5999 4.79999V4.5L60.3999 4.19998L60.1999 4H60.0999V3.89999L59.9999 3V2.79999L60.0999 2.5L60.2999 2.39999L61.3999 1.79999H61.6999H63.6999ZM43.2999 4.39999L43.9999 4.59998L44.6999 5.19998L45.2999 5.89999L45.3999 6.69998L45.2999 7L44.5999 8L44.3999 8.19998L44.2999 8.5L44.1999 10L43.9999 10.3L43.1999 11.1L42.9999 11.5L42.5999 12.2L42.1999 12.8L41.6999 13.8L40.9999 14.4L40.5999 14.9L40.7999 15.5L40.6999 15.8L40.7999 16H40.9999L41.1999 15.7L41.3999 15.6L41.5999 15.8H41.7999L41.9999 16L42.3999 16.1L41.8999 16.8L41.0999 16.9L40.7999 16.8L40.0999 17.3H39.5999L39.2999 17.1L39.6999 16.6L39.7999 16.1L40.0999 15.6L39.7999 15.5L39.0999 15.6L38.5999 16V16.5L38.6999 17.2V17.9L38.3999 17.8V17.6V17.3L38.1999 17.1H38.0999L37.8999 17.3L37.6999 17.4L37.5999 17.3L37.4999 17.1L37.3999 16.9L37.1999 16.8L36.8999 16.9L36.0999 17.2L35.7999 17.3L35.6999 17.2L35.4999 17H35.3999H35.1999L34.8999 17.2L34.7999 17.3L34.5999 17.1L34.2999 16.6L33.9999 16.4H33.7999L32.7999 16.3L32.6999 16.6L32.4999 16.8L32.2999 16.7L31.9999 16.5L32.1999 16.4L32.3999 16.3V16.2L32.2999 16H32.0999H31.8999L31.6999 16.1H31.4999V16.3V16.5V16.9L31.2999 17H31.0999L30.8999 16.9L30.7999 16.8L30.6999 16.7L30.4999 16.2L30.3999 16L30.0999 15.8L29.9999 15.9L29.8999 16H29.5999H29.2999L28.0999 15.3L27.5999 15.2L27.3999 14.7V14.2L27.4999 13.8L27.6999 13.3L28.0999 13.5L28.3999 13.3L28.4999 13.5V13.8L28.5999 13.9H29.0999L29.5999 14L29.7999 13.9L30.0999 13.8L30.3999 13.6L30.5999 13.7H30.7999L30.9999 13.8H31.1999L31.2999 13.7L31.3999 13.6L31.5999 13.5H31.6999L31.7999 13.6L31.8999 13.9L31.9999 14.1L32.2999 13.7L32.4999 13.6V13.4L31.8999 13.1L31.9999 12.3L32.0999 11.6L32.1999 10.4L31.9999 9.29999L31.4999 8.89999L31.2999 7.79999L31.6999 7.09998L32.0999 7H32.6999H32.7999L32.8999 6.79999L33.0999 6.5L33.1999 6.29999L33.4999 6.09998L34.0999 5.79999L34.2999 5.59998L36.0999 3.79999L36.3999 3.59998L38.1999 2.89999H38.4999L39.0999 3.19998L40.5999 3.59998L41.3999 3.69998L41.6999 3.89999L42.0999 4.09998L42.3999 4.19998L43.2999 4.39999ZM91.7999 1.5L92.2999 1.79999L92.6999 2.19998L92.7999 2.69998L92.5999 3.29999L92.3999 3.59998L92.0999 3.89999L91.5999 4.09998H91.0999L90.4999 3.5V2.59998L90.8999 1.79999L91.7999 1.5ZM94.0999 11.1H93.9999L93.8999 11.2H93.7999L93.8999 11.4L93.7999 11.5L93.6999 11.6L93.4999 11.8V12.1L93.5999 12.3L93.6999 12.6L93.7999 12.9H93.6999L93.5999 13V13.1L93.6999 13.3L93.2999 13.5L93.0999 13.7L92.7999 13.8L92.4999 13.5L92.3999 13.8L92.1999 13.9H92.0999L91.7999 13.7L91.5999 13.6L91.3999 13.7L91.0999 13.8L89.8999 14L89.4999 13.9L88.9999 13.5L88.5999 12.8L88.3999 12.7L88.0999 12.6L87.8999 12.7V12.9L87.6999 13.1L87.1999 13.3L86.3999 13.1L85.8999 13.3L85.3999 13.1L85.0999 13.2L84.6999 13.5L84.1999 13.8L84.3999 13.9L84.6999 14.2L84.8999 14.3L85.0999 14.4H86.5999L88.1999 14.6L88.5999 14.8L88.7999 15V15.1L88.9999 15.4L89.0999 15.5L88.9999 15.7L88.6999 15.8L88.2999 15.9H87.9999L87.5999 15.8L87.3999 15.7L87.0999 15.6H86.9999V15.7L86.7999 15.8L86.6999 15.9L86.4999 15.7L85.6999 15.1L85.2999 14.9H84.3999L83.4999 15L79.4999 16.2L78.4999 15.9L77.9999 14.8V14.3L78.2999 13.9L78.5999 13.5L78.8999 13L78.9999 12.7V12.3V12L78.8999 11.8L78.7999 11.4L78.5999 11.2L78.4999 10.9V10.5L78.1999 10.8L78.0999 11.2L78.1999 12.1L78.0999 12.3L77.6999 12.5L77.2999 12.6L76.9999 12.7L76.4999 13.4L76.1999 14L76.0999 14.2L75.9999 14.3H75.6999L73.3999 16.2L73.0999 16.3L72.6999 16.1L72.1999 15.9L71.8999 15.7L71.6999 15.8L70.9999 16H71.0999L70.9999 15.9H70.8999H70.7999L70.5999 16.1L70.4999 16.2L70.2999 16.5L68.0999 17.6L67.8999 17.4H67.7999L67.5999 17.5H67.4999L67.3999 17.4L67.1999 17.1L67.0999 17H66.7999L66.6999 17.1L66.5999 17.2L66.3999 17.4L66.2999 17.5H66.0999H65.7999H65.6999L65.4999 17.4L65.2999 17.3L65.0999 17.1H64.8999L64.5999 17.2L64.4999 17.3L63.6999 17.6L61.5999 18.9L60.7999 19.2L59.8999 19.5L58.1999 19.9L57.0999 20L56.4999 19.8L55.8999 19.7L54.9999 19.3H54.2999L53.8999 19.5L53.5999 20.1L53.2999 20.4L52.9999 20.7L51.8999 20.9L50.6999 21L50.2999 20.6L49.8999 20.3L49.4999 20.1H49.0999H48.6999L47.5999 19.8L47.0999 19.7L46.6999 19.6L45.9999 19.1L45.7999 19.2L45.6999 18.9L45.4999 18.5L45.0999 18.1L45.1999 17.8L45.4999 17.3L45.3999 17L45.2999 16.5V16.3L45.6999 15.9L46.0999 15.4L46.8999 15.2L46.9999 14.8V14.6L46.7999 14.5L46.6999 14.4V14.3L46.5999 14.1L46.4999 13.9L46.3999 13.8H45.9999L45.8999 13.6L45.9999 13V12.5L45.4999 12.2L46.3999 10.5L47.1999 10.3L47.2999 9.89999V9L47.6999 9.29999L47.8999 9.39999H48.0999H48.2999L50.1999 8.79999L51.1999 8.19998L52.2999 7.39999L52.9999 7L52.7999 6.5L53.2999 6.29999L53.8999 6.19998L54.3999 6L54.7999 6.59998H54.9999L55.6999 6.69998L55.8999 6.79999L56.1999 7L56.7999 7.19998L57.4999 7.79999L59.0999 8.5L58.9999 8.19998V7.89999L59.1999 7.69998V7.39999L59.2999 7.09998L59.3999 7L59.4999 7.09998L59.7999 7.19998H60.7999L61.2999 7.09998L61.5999 7L61.6999 7.29999L61.8999 8.59998L62.1999 9.09998L62.2999 8.69998L62.3999 7.79999L62.5999 7.5L62.7999 7.59998L62.9999 8L63.0999 9.39999L63.1999 9.69998L63.3999 9.89999L64.2999 10.4L64.5999 10.3L64.7999 10.2H64.9999H65.1999L65.0999 10.4V10.5L65.2999 10.6H65.4999L65.5999 10.8L65.7999 10.9L65.6999 11L65.5999 11.1V11.3H65.7999L65.9999 11.4H66.0999V11.5L66.1999 11.6H65.9999H65.7999L65.5999 11.7L65.4999 11.8L65.6999 12.1L65.8999 12.8L66.0999 13.1L66.3999 13.3L66.7999 13.2L68.0999 12.8L68.1999 12.9L68.2999 13L68.3999 13.2V13.3V13.4H68.6999H68.9999L69.3999 13.6L69.6999 13.8L70.0999 13.5L70.8999 12.6L71.1999 12.4H71.2999L71.3999 12.2L71.4999 12.1H71.5999V12L71.7999 11.9H71.9999L72.6999 11.8H73.3999H73.5999L73.8999 12H74.0999H75.1999L75.4999 11.9L75.8999 11.7L76.0999 11.3L75.9999 11L75.8999 10.6L75.5999 10.3L75.2999 10.2L75.1999 10.1L75.0999 10L74.8999 9.79999L74.7999 9.89999V10L74.6999 10.1L74.3999 10.4L74.0999 9.79999L73.1999 9.09998L72.8999 8.59998H72.7999L72.5999 8.79999L72.2999 8.59998L71.7999 8L71.3999 7.89999L70.9999 8L70.3999 8.29999H70.0999L69.6999 8.09998L69.3999 7.89999L69.0999 7.5L67.9999 6.79999L66.7999 5.89999L66.4999 5.69998L66.0999 5L65.7999 4.59998L65.1999 4.19998L64.9999 3.89999L64.7999 3.69998H64.5999L64.4999 3.39999L64.5999 2.89999L64.7999 2.39999L64.8999 2L65.1999 1.79999H65.2999H65.4999H65.5999L66.0999 1.39999H66.1999L66.5999 1.29999L68.1999 0.699982L68.6999 0.599976L69.4999 0.5L69.5999 0.599976L69.6999 0.899994L69.8999 1H69.9999L70.1999 0.899994H70.3999H70.7999L71.6999 1L72.5999 1.09998L73.2999 1.5L73.5999 2.29999L73.6999 3.09998L73.7999 3.5L73.9999 3.69998V3.79999L74.6999 4.59998L75.0999 5.39999L75.2999 5.69998H75.3999H75.4999L75.5999 5.59998L76.2999 6.19998L76.4999 6.29999L76.7999 6.19998L77.1999 6L77.4999 5.69998L77.9999 5.19998L78.1999 5V4.79999H78.2999L78.5999 4.69998L78.7999 4.5L79.0999 4L79.4999 3.79999H79.8999H80.2999L80.3999 3.89999L80.7999 4.19998H80.9999H81.7999L81.9999 4.29999H82.0999L82.1999 4.39999L82.2999 4.5L82.8999 4.59998H83.0999L83.3999 5L84.0999 6.29999L83.8999 6.59998L83.7999 7.09998V8L83.2999 9.39999L83.1999 9.69998L83.4999 9.79999L83.7999 9.5L84.0999 9.09998L84.1999 8.89999V8.79999L84.3999 8.29999L84.6999 7.89999V7.69998L84.5999 7.5L84.4999 7.19998V6.39999L84.7999 5.79999L85.1999 5.39999L85.6999 5L86.3999 4.79999L87.2999 4.59998H88.2999L89.0999 4.79999L89.4999 4.89999L89.7999 5L89.9999 5.29999L90.1999 5.69998V6.29999L90.4999 7.19998L91.0999 8.29999L90.9999 9L90.6999 9.79999L90.7999 10.5V11L90.8999 11.4L91.0999 11.8L91.5999 11.9L91.8999 11.8L92.2999 11.7L92.5999 11.5L92.8999 11.3V11.2L92.7999 11L92.6999 10.8L93.0999 10.7L93.1999 10.6L93.2999 10.4V10.2L93.3999 10L93.6999 10.3L93.8999 10.7L94.0999 11.1Z" fill="#C8A668"/>
<path d="M21.8 12.2L22.3 12.3L22.6 12.8L22.8 13.2L23.1 13.6L23.3 14.2L23 14.6L22.6 15L22.1 14.8L21 14.1L20.6 13.7L20.3 13.6L20.2 13.5L20.3 13.3L21 12.4L21.2 12.3H21.5L21.8 12.2ZM23.2 4.59998L23.9 5.19998L24.6 5.69998L25.1 6.39999L24.8 7.19998L24.6 7.39999L24 8L23.6 8.19998L23.1 8.69998L22.9 8.89999L21.5 9L21.3 9.09998L21.2 9.5L20.8 9.79999L18.2 10.8L17.3 11.3L16.7 12L16.3 12.8L16 13.1L15.5 13.3L15.2 13.4L15 13.8V14.2L15.3 14.6L15.5 14.5L15.4 14.4L15.2 14.1L15.6 13.9L15.7 14.3L15.6 15.2L15.5 15.5L15.2 15.7L14.8 15.8L14.5 15.9H14.1H13.6L13.2 15.8L12.8 15.5V15.2L13.2 14.9L14.1 14.5L14.3 14.2L14.6 13.8V13.3L14.5 12.9L14.4 12.8L14 12.1L13.9 12H13.7L13.6 11.9L13 11.4L12.7 11.1L12.6 10.9L12.5 10.6L12.1 10.3L11.4 9.79999L10 8.59998L9.5 8.19998L6.90002 7L6.10001 6.79999H3.80002L3.10001 6.59998L2.5 6.09998L2 5.5L0.400024 3.19998L0 1.29999L0.100006 0.799988L0.700012 0.599976L1.20001 0.699982L1.40002 0.899994L1.60001 1.09998L1.90002 1.39999L2.20001 1.5L2.5 1.39999L3 1.09998L3.30002 1.29999L3.70001 1.39999L4.5 1.5L4.90002 1.59998L8.10001 2.69998L8.80002 2.5H10.7L11.4 2.29999L12.2 1.69998L13.6 0.299988L14.4 0H14.8H15.2L15.6 0.199982L15.9 0.399994L16.3 0.599976L17.6 0.899994L20.9 2.29999L21.5 2.69998L22.1 3.29999L23.2 4.59998Z" fill="#C8A668"/>
</svg>
