<svg width="214" height="61" viewBox="0 0 214 61" fill="none" xmlns="http://www.w3.org/2000/svg">
<path d="M163.7 54.2L163.9 54.3L164.1 54.6V54.9L164 55H163.8L163.3 55.1H161.7L161.5 55L161.4 54.7L161.5 54.4L161.8 54.2L161.7 54L161.6 53.9L162.6 54.1L163.7 54.2ZM129.7 20L130.1 20.4L130.5 20.7L131 21L132.3 21.3L133.2 21.4L133.5 21.5H133.8L134.2 21.4L134.9 21L135.3 20.9L135.7 21L136.3 21.7L137.5 23.2L137.8 23.4L138.2 23.5H139.1L139.9 23.4L140.6 23.2L140.8 23.1H141.6H142L142.8 22.8L143.3 22.7L144 22.9L144.3 23L144.5 22.9L144.6 22.8L144.7 22.7L145.1 22.8L145.4 23.1L145.7 23.3L146 23.5L146.5 23.7H146.9L147.1 23.5L147.3 23.1L147.2 22.8L147.3 22.7L147.4 22.6L147.7 22.7L147.8 22.8L147.9 23L148 23.2L148.1 23.4L148 23.8L147.7 24.6V25.1V25.3L148.2 26L148.4 26.1L148.6 26.2L148.9 26.1H149.1L149.3 26.4L148.7 26.6L148.3 26.7L148.2 26.9L148.3 27.1L148.4 27.5L148.6 27.8L148.8 27.9L149.1 28.1L149.5 28.4L149.7 28.8L149.6 29.2L149.3 29.3L148.1 29.2L148.4 29.6L148.9 29.9L150 30.4L150.3 30.1L150.6 29.7L150.9 29.4L151.3 29.3L151.6 29.4L151.9 29.7L152.1 30L152.4 30.5L152.5 30.9V31.2L152.3 31.9V32.2V33L152.1 33.4L151.4 33.9L151.2 34.3V35.9L152.8 37.1L155.4 38.2L155.7 38.3H156.2L156.6 38.4L157 38.5L157.4 38.8L158.1 39.5L158.5 39.8L159.2 40L159.6 40.2H159.9H160L160.4 40.1H160.7L161.1 40.3L161.5 40.9L161.8 41H162.3L162.7 40.8L163.4 40.4L164.1 40L164.5 39.9L164.9 39.8L165.3 39.7L165.9 39.3H166.4L168.9 39.7L169.2 39.6L169.6 39.5L169.7 39.4H170.2L171 39.7L171.4 39.8L171.8 39.7L172.1 39.5L172.5 39L172.8 38.8H173.1L173.4 38.9L173.9 39L174.3 38.9L174.6 38.8L176 37.6L176.6 37.5L177.2 37.9L178 38.9L178.5 39.3L179.1 39.5L179.6 39.6L180.4 39.3H180.8L181.1 39.4L181.8 40.1L182.1 40.3H182.3L182.6 40.4L183 40.3L183.2 40.4H183.4L183.7 40.7L184.5 41.2L184.8 41.5L184.9 41.9V42.3L184.8 43.2L184.7 43.3L184.5 43.7L184.4 43.9V44.1V44.3L184.5 44.5V44.6V45.5L183.7 48.4L182.9 52.4V53L182.8 53.4V53.6V53.9L183 54.3L183.1 55.2V55.6L183.4 55.8L183.6 55.6L183.7 55.1V54.2L184.1 54.6V55.2V56.5L184.2 56.9L184.5 57.3L184.8 57.6L185.1 57.7L185.5 57.8H185.8L186.3 58.2L187.3 58.5L187.5 58.8L187.6 59L187.9 59.3L188.1 59.6L188 60.1L187.5 60.8H186.7L184.9 60.2L184.5 60.1L183.4 60.2L182.9 60.1L183 59.8L183.4 59.3L183.3 58.5L182.6 57.9L181.7 57.5H180.9L180.1 58L179.6 58.2L179.4 57.9L179.1 57.6L178.6 57.7L177.7 58H177.6L176.9 57.9L176.7 57.8L176.5 57.4L176.3 57.3L175.9 57.4L175.6 57.6L175.3 57.7L175.1 57.3V57.1L175.2 56.8V56.6L175 56.5H174.8L174.4 56.7L174.2 56.8L173.8 56.7L173.3 56.6L172.8 56.4L172.5 56.1L172.4 56.2H172.3L172.2 56.3V56.4L172.1 56.1L172 55.4L171.9 55.3H171.5L171.2 55.4L170.9 55.6L170.8 55.8H170.6H170.2L170.1 55.7L170.2 55.4V55.3L169.9 55.1H169.7L169.5 55.2L169.2 55.1L168.9 55L168.6 54.4L168.3 54.3L167.7 54.2L167.6 54.1L167.4 53.8H167.2L166.6 53.9L166.3 53.8L165.6 53.4L165.5 53.3L165.4 53.1L165.2 52.9L165.1 52.8H164.7L164.4 52.9L164.1 53.1L163.7 52.9L162.7 51.7L162.3 51.4L161.5 51.1L160.7 50.9L159.8 50.8L157.3 51.1L156.4 51.3L155.7 51.7L154.7 52.9L154 53.3L153.3 53.1H153.1L152.6 52.8L152.5 52.9V53.1L152.3 53.2H152.1H151.9L151.7 53H151.6L151.3 53.2L151.1 53.4L150.9 53.5L150.6 53.6H150.3L150 53.7L149.8 53.8L149.4 54.2L149.1 54L148.2 53.6L147.5 53.5L146.4 53.1H144.9L144.6 53L144.3 52.8L144 52.7H143.6L143.7 52.5V52.4L143.4 52.1L142.9 51.9L142.4 51.8H142L141.8 51.9L141.2 52.1H141L140.8 52L140.7 51.9L140.6 51.8L140.3 51.7L136.6 51.4L136.2 51.2L135.5 50.8H135.4L134.9 51.2H134.8L134.7 51.3H134.5L134.1 51.2L133.7 50.7L133.4 50.6L132.8 50.7L132.6 50.6L132.4 50.5L132.2 50.4H132L131.8 50.5L131.6 50.9V51.3V51.6L131.2 51.7L131.1 51.6L131 51.4L130.9 51.1L130.7 51L130.5 51.1L130.4 51.3L130.3 51.7L130.2 51.8L130.1 52V52.2L130.4 52.3V52.5L130.3 52.6L130.1 52.7L129.7 52.6L129.3 52.4L129 52.1L128.8 51.7H128.7L128.5 52L128.1 51.9L127.5 51.6H127.2L126.9 51.8H126.6L125.2 51.5L125.1 51.2V51V50.8L124.8 50.6H124.6L124.3 50.7L124.1 50.8L123.9 50.7L123.7 50.5H123.5H122.5H122.3H122.2L122 50.3L121.8 50.2H121.6L121.4 50.3V50.4L119.7 50.9H119.6L119.5 50.7L119.4 50.5L119.3 50.3L119.1 50.2H118.9L118.6 50.1L118.5 49.8V49.6L118.4 49.4H118.2L118.1 49.6V49.8L118 49.9L117.8 50.2L117.7 50.3H117.5H116.7H116.3L115.2 49.8H115.3V49.6L115.6 48.7V48.5V48.4V47.9V47.8L115.7 47.6L116 47.3L116.3 46.9L117.1 46.5L118.3 45.4L119.3 44.8L119.8 44.6L120.2 44.4L120.6 44.1L120.9 44L121 44.1L121.2 44.2L121.4 44.3H121.6L121.8 44.2L121.9 44L122 43.4L122.3 42.5L122.4 42L122.5 41.2L122.4 41L122.3 40.7L122.1 40.5L121.6 39.9L121.4 39.7L121.1 39.6H120.5L120.1 39.4V39.1V38.7L120 38.6V38.4V38.3V38.1L120.5 37.8L120.7 37.5L120.4 37.3L120.3 36.9L120 35.9L120.3 33.4L120.4 33L120.3 32.4V31.5L120.4 30.6L120.7 30.3L121.2 30.4L121.6 30.6L121.9 30.7H122.1L122.2 30.6H122.4H122.5L122.8 30.8L123.1 30.9L124.3 31.4L125.1 31.5V31.3L125.2 31.1L125.3 30.9L125.4 30.8L125.5 30.7L125.7 30.6L126.1 30.3L126.7 29.9L127 29.6L127.3 29.3L128.1 28.6L128.4 28.4V28.2V28L128.2 27.2V26.9L128.3 26.2L128.2 24.5L128.3 24L128.6 22.2V21.8L128.8 21.3L129.6 20.1L129.7 20ZM206.7 23.4L206.8 23.9L206.5 24.1H205.6L205.4 24L205 23.9L204.7 23.8L204.5 23.7L204.4 23.6L204.2 23.5L204.1 23.6L204 23.7H203.9L203.8 23.8H203.6L203.5 23.7H203.4L203.3 23.6L203 23.5L202.4 23.9H202.3V24.1L202.5 24.2L202.7 24.3L203 24.4L203.2 24.5L203.3 24.6L203.4 24.8L202.9 25.1L202.5 25L201.7 24.4L201.5 24.6L201.4 24.8V24.9H201.5V25L201.6 25.2V25.3L201.5 25.4L201.4 25.5H201.3L201.2 25.4H201.1L200.7 25V24.8L200.9 24.1L200.2 24.2L199.8 24.1L199.7 23.9L199.8 23.4L200 23.1L200.2 22.9L200.5 22.6L200.3 22.3L200.5 22.1L200.9 22H201.3H203L204.6 22.2L205 22.4L206.4 23.1L206.7 23.4ZM150 0L150.3 0.199997L150.5 0.399994L150.7 0.699997L150.8 1.2L150.7 1.59999L150.6 2L150.3 2.3L150 2.39999H149.8H149.3L149.1 2.3V2.2H148.9L148.6 2.39999H148.1L147.9 2.09999V1.8L147.7 1.3L147.8 1.09999L148.4 0.699997V0.599991L148.9 0.0999908L149.1 0.199997L149.4 0.0999908L149.7 0H150ZM176.6 23.6L177 23.8L177.5 24L177.9 24.3L178.2 24.9L177.6 25L176.7 25.5L175.3 25.7L174.8 26.2L174.4 26.3H173.9L173.5 26.5L173.1 27.2L173.4 27.3L173.6 27.5V27.7L173.2 27.9H172.4L171.3 27.8L169.9 27.6H169.5L169.1 27.5L168.7 27.9H168L167.6 28.1L167.4 28.4L167.3 28.7L167.2 28.9L167.1 29.2L167 29.5L166.8 30L166.5 30.1L166.1 30.2L165.9 30.1L165.7 29.9L165.3 29.7L164.3 29.8L161.2 29.6L160.9 29.5L160.5 29.4L159.6 29.8L159.2 29.7L159 29L158.9 28.8L158.8 28.7V28.6L159 28.5V28.3H158.8L158.3 28.1H158.2L158.1 28.3V28.7L158 28.9L158.2 29.1L158.6 29.4L158.8 29.6V29.8L158.4 29.9L152.3 28.5H151.5H150.8H150.5L150.4 28.3L150.3 27.7V27.4L150.5 27.1L150.4 27L150.2 27.3L150 27.1L149.9 26.8L149.8 26.5L149.9 26.1L150 26H150.2L150.6 25.9L151.2 25.5L151.8 25L152.8 23.8V23.5L153.4 23.3L154.2 23.2L154.8 23.1H155.5L157.2 22.9L158.8 23.2H161.3L164.7 23L166.3 23.2L169.2 22.9L171.6 23L174.2 22.6L175.1 22.7L175.5 22.9L175.9 23.1L176.2 23.3L176.6 23.6ZM187.4 27.9H187.6H187.8L188 28V28.3V28.6H187.9L186.2 28.5H185.8H185.6L185.5 28.4V28.2L185.6 28.1L185.7 28L186.4 27.7L186.6 27.6L186.7 27.7L187.2 27.9H187.4ZM183 27.1L183.3 27.6L183.5 27.9V28.5L183.4 28.9H183.2L182.7 28.6L182.2 28.5L182.1 28.3H181.7L181.5 28.2L181.3 27.8L181.1 27.3L181 26.9L181.5 26.4L182.1 26.3L182.5 26.4L182.8 26.7L183 27.1ZM213.1 27.4V27.5L213.2 27.8L213.1 28.6L212.8 29L212 29.2L211.2 29.1L210.4 28.7L210.2 28.3L210.4 28.1H210.5L210.6 28.2L210.7 28.1L210.9 27.6H211L211.1 27.8L211.2 28.1L211.3 28.2L211.4 28.3H211.7L212.1 28.5H212.7H212.9V28.4H212.8L212.7 28.2L212.6 28L212.7 27.9L212.8 27.8H212.9L213 27.9V27.8V27.6L213.1 27.4Z" fill="#C8A668"/>
<path d="M129.7 19.9998L129.6 20.0999L128.8 21.2999L128.6 21.7999V22.1999L128.3 23.9998L128.2 24.4998L128.3 26.1999L128.2 26.8999V27.1999L128.4 27.9998V28.1999V28.3999L128.1 28.5999L127.3 29.2999L127 29.5999L126.7 29.8999L126.1 30.2999L125.7 30.5999L125.5 30.6999L125.4 30.7999L125.3 30.8999L125.2 31.0999L125.1 31.2999V31.4998L124.3 31.3999L123.1 30.8999L122.8 30.7999L122.5 30.5999H122.4H122.2L122.1 30.6999H121.9L121.6 30.5999L121.2 30.3999L120.7 30.2999L120.4 30.5999L120.3 31.4998V32.3999L120.4 32.9998L120.3 33.3999L120 35.8999L120.3 36.8999L120.4 37.2999L120.7 37.4998L120.5 37.7999L120 38.0999V38.2999V38.3999V38.5999L120.1 38.6999V39.0999V39.3999L120.5 39.5999H121.1L121.4 39.6999L121.6 39.8999L122.1 40.4998L122.3 40.6999L122.4 40.9998L122.5 41.1999L122.4 41.9998L122.3 42.4998L122 43.3999L121.9 43.9998L121.8 44.1999L121.6 44.2999H121.4L121.2 44.1999L121 44.0999L120.9 43.9998L120.6 44.0999L120.2 44.3999L119.8 44.5999L119.3 44.7999L118.3 45.3999L117.1 46.4998L116.3 46.8999L116 47.2999L115.7 47.5999L115.6 47.7999V47.8999V48.3999V48.4998V48.6999L115.3 49.5999V49.7999H115.2L115 49.6999L113.3 49.2999L113.1 47.8999H113H112.9L112.8 47.9998H112.6L112.4 47.8999V47.6999L112.3 44.1999L112.1 43.6999V42.6999V42.4998L112 42.2999L111.9 42.0999L111.5 41.8999L110.5 41.7999L110.2 41.6999H109.5H109.1H108L107.2 41.4998L106.6 40.8999L106.3 40.3999L106 39.6999L105.3 36.6999L105.2 36.4998L104.7 37.0999L102.5 38.6999L102.3 38.8999L101.9 39.3999L101.7 39.5999L101.6 39.4998V39.2999L101.5 38.7999L101.4 38.6999H101.3L101.2 38.7999H101.1H100.9L99.7 38.5999L99.3 38.7999L99.1 38.9998V39.1999V39.7999L99 40.0999L98.9001 40.4998L97.9001 41.9998L97.5 42.3999V42.5999L97.4001 42.9998H97.2L95.2 42.3999L94.7 41.9998L94.3 42.1999L93.6 41.9998L92.8 41.6999L91.7 41.4998L89.8 40.8999L86.4001 40.4998L85.6 40.6999L85.2 40.7999L85 40.5999V40.3999H84.9001L84.7 40.2999L84.6 40.1999L84.7 40.0999L84.8 39.8999V39.7999L84.7 39.6999L84.1 39.4998L80.7 39.1999L78.7 38.9998L77.7 39.2999L77.4001 39.6999L77.2 39.8999H77.1L76.5 39.3999L76.3 39.2999H76H75.6L75.2 39.1999L74.8 39.0999L74.6 38.7999L74.5 37.8999L74.3 37.4998L74 37.5999L73.9001 37.6999L73.4001 37.8999L73.2 37.9998L73 38.3999L72.8 38.5999L71.7 37.5999L71.6 37.4998L71.5 37.3999V37.0999L71.6 36.8999L71.7 36.5999V36.2999V35.9998L71.3 34.5999L71.2 33.6999L71.1 33.3999V33.1999L71 33.0999L70.7 32.9998L70.5 32.8999H70.4001L70.3 32.3999L70.2 32.1999L70.1 32.0999H69.9001L69.4001 32.2999L69.2 32.1999L69.1 32.0999L68.9001 31.6999L68.5 31.5999L68 31.4998L67.8 30.8999L68.3 29.2999V28.8999L68.4001 28.5999L68.6 28.2999L68.8 28.0999L69.2 27.9998H69.5L70.3 28.0999H70.8L71 27.9998L71.2 27.8999L71.7 27.4998L72 27.2999L72.2 26.9998L72.5 26.7999L72.6 26.4998L72.7 26.2999V25.8999L72.6 25.2999L72.8 24.2999L72.9001 23.9998L73.3 23.1999L74.7 21.5999L74.9001 21.7999L75.1 21.9998L75.3 22.1999L75.7 22.2999H76.2L76.5 22.1999L76.6 21.8999V21.3999L76.8 21.0999H77.2L77.6 21.1999L77.9001 21.3999L78.6 21.9998L79.1 22.0999L79.6 22.3999L79.8 22.4998L80.3 22.3999L83.8 22.7999L85.5 22.4998L86.5 21.3999L87.3 21.9998L91.1 22.5999L94.5 23.6999L95.4001 23.7999H96.3L98.8 23.3999L99.3 23.2999L99.5 23.0999L99.6 22.9998L99.9001 22.4998L100.1 22.3999L100.3 22.4998L100.4 22.6999V22.8999L100.5 23.0999L100.8 23.2999L101.7 23.6999L102.4 23.8999L103.2 24.4998L103.6 24.7999H104.1L104.5 24.6999L104.8 24.4998L105.2 24.3999L105.6 24.2999L105.9 24.1999L106.2 24.0999L107 23.1999L107.9 21.9998L109.3 19.0999L109.6 18.1999L109.7 17.4998V16.6999L109.8 16.2999L110 15.9998L110.1 15.7999L109.8 15.3999L110.3 15.2999L110.5 15.0999L110.8 14.6999L111 14.4998L112 14.0999L112.6 13.9998L112.8 13.8999L113.1 13.7999L113.2 13.6999L114.4 13.5999L114.9 13.3999L115 13.5999L115.6 13.8999L115.8 13.9998H116.2H116.4L116.5 13.8999L116.6 13.7999L116.7 13.8999L116.9 14.0999L117.2 14.2999L117.4 14.4998L117.5 14.7999L117.6 15.4998L118 16.1999L118.7 18.2999L119.1 18.9998L119.2 19.1999H119.3H119.5L123.1 19.5999H123.6L124.4 19.3999L124.8 19.2999L125.1 19.0999L125.8 18.0999L126.1 17.7999L126.6 18.0999L127.8 18.3999L128.4 18.5999L128.6 18.7999L129.3 19.6999L129.7 19.9998ZM77.2 40.3999L77.3 40.4998H77.6L77.7 40.5999L77.6 40.7999L77.5 40.8999L77.3 40.7999L76.8 40.6999L75.7 40.3999L74.5 40.0999L74.3 39.9998L74 39.8999L73.1 39.9998L72.8 39.8999L72.7 39.6999L72.8 39.2999L73 38.9998L73.3 38.7999L74.3 39.2999L75.3 39.4998L76 39.6999L77 40.2999L77.2 40.3999ZM105.1 2.19986L105.7 2.09985L105.8 2.19986L105.7 2.59985L105.5 2.89986L105.2 2.99986L105.1 2.89986L105 2.69986L104.9 2.39986V2.29987L105.1 2.19986Z" fill="#C8A668"/>
<path d="M74.6999 21.5999L73.2999 23.2L72.8999 23.9999L72.7999 24.3L72.5999 25.3L72.6999 25.9V26.3L72.5999 26.4999L72.4999 26.8L72.1999 26.9999L71.9999 27.3L71.6999 27.4999L71.1999 27.9L70.9999 27.9999L70.7999 28.0999H70.2999L69.4999 27.9999H69.1999L68.7999 28.0999L68.5999 28.3L68.3999 28.5999L68.2999 28.9V29.3L67.7999 30.9L67.9999 31.4999L68.4999 31.5999L68.8999 31.7L69.0999 32.0999L69.1999 32.2L69.3999 32.3L69.8999 32.0999H70.0999L70.1999 32.2L70.2999 32.4L70.3999 32.9H70.4999L70.6999 32.9999L70.9999 33.0999L71.0999 33.2V33.4L71.1999 33.7L71.2999 34.5999L71.6999 35.9999V36.3V36.5999L71.5999 36.9L71.4999 37.0999V37.4L71.5999 37.4999L71.6999 37.5999L72.7999 38.5999L72.5999 38.7L72.0999 39.0999L71.5999 38.8H71.3999L71.2999 38.7L71.0999 38.5999H70.8999L70.6999 38.7L70.4999 38.9L70.2999 39.0999L70.4999 39.4999L70.3999 39.5999L70.2999 39.7L69.8999 39.5999L69.7999 39.0999L69.6999 38.9999H69.3999H68.0999L67.6999 39.0999L67.0999 39.7L66.9999 40.5999L66.7999 41.0999L65.9999 41.5999H63.4999L59.6999 40.9999L56.0999 40.0999L55.0999 39.9999L54.2999 40.2L53.6999 39.9L53.5999 39.3L53.1999 38.9999L52.5999 38.9L51.3999 38.7L50.7999 38.4999L50.5999 38.0999L50.2999 37.5999L49.5999 37.2L48.8999 36.7L48.1999 36.4999L47.6999 36.3L46.7999 35.9999L46.4999 35.5999L46.1999 35.4999L45.7999 35.4H45.6999H45.4999L45.3999 35.2L44.3999 35.4L43.0999 35.2L42.0999 35.0999L41.3999 34.9999L40.7999 34.8L40.0999 34.5999L39.3999 34.4L34.6999 33.9999H33.0999L29.4999 33.5999L27.7999 33.4999L26.9999 32.8L26.4999 32.5999L25.9999 32.4999L25.4999 32.8L25.2999 32.9V32.4999L25.3999 31.9999L24.8999 31.4999L24.9999 30.5999V30.2L25.0999 29.9L25.2999 29.4999L25.6999 29.0999L25.9999 28.9H26.3999L26.6999 28.8L26.7999 28.5999L26.4999 28.2L26.7999 27.9L27.5999 26.9L28.1999 26.4V25.5999L28.0999 24.9999L27.5999 24.5999L26.9999 24.7L26.3999 24.4L25.7999 24.5999L25.4999 25.0999L25.3999 24.9L25.2999 24.7V24.4L25.3999 23.9L25.5999 23.4L26.3999 21.9999L27.4999 20.9999V20.7L27.0999 20.3L26.8999 20.2L26.1999 19.9999L26.0999 19.7L25.8999 19.3L25.4999 15.8L25.5999 15.2L25.7999 14.5999L25.9999 14.0999V13.5999L25.8999 13.0999L25.7999 12.8L25.9999 12.4L26.1999 12.2L26.3999 12.0999H26.5999L26.6999 12.3L26.7999 12.5999L26.9999 12.8L27.0999 12.9L27.3999 12.8L27.6999 12.5999L27.9999 12.4L28.4999 12.4999L28.8999 12.5999L29.2999 12.9L29.8999 13.0999H32.0999L32.5999 12.8L32.4999 12.4999V11.4L32.7999 11.5999L32.8999 11.7L32.9999 11.9L33.0999 11.9999L33.2999 12.2L33.5999 12.4H33.7999L33.8999 12.3L34.2999 12.0999L34.9999 12.4L35.6999 12.9999L36.0999 12.8L36.2999 12.3L36.6999 10.9L36.7999 10.5999L36.8999 10.4V10.0999V9.39996L36.9999 8.29996V6.99995H37.0999L37.2999 6.79996L37.3999 6.49995L37.4999 6.19995V5.99995L37.2999 5.69995L37.1999 5.49995L37.2999 5.19995L37.6999 4.59995V3.89995L38.0999 3.69995L38.7999 3.79996L39.4999 4.19995L39.6999 4.39995L39.8999 4.59995L40.1999 4.89995L40.5999 4.99995H40.9999H41.2999L42.7999 4.49995L43.5999 4.69995L44.1999 4.89995L44.6999 5.59995L45.3999 6.69995L46.0999 7.49995L46.4999 8.29996L47.2999 8.69995L48.3999 9.09995H49.4999L50.1999 9.89996L50.6999 10.0999L51.0999 9.89996L51.3999 10.0999L51.6999 9.99994L51.9999 9.79996L52.3999 9.59995L52.4999 9.49994H52.6999H52.8999L53.0999 9.59995H53.2999V9.39996V9.19995L53.5999 9.09995L53.9999 9.19995V9.49994H54.2999L54.5999 9.19995L54.6999 9.09995L54.9999 9.59995V9.99994L55.9999 10.5999L56.7999 10.9999L57.9999 11.5999L58.4999 11.7L58.8999 11.9H59.2999H59.5999L59.7999 11.8L60.1999 11.5999L60.5999 11.3H60.6999L60.8999 11.0999L60.9999 10.9L61.0999 10.5999V10.4L60.8999 10.2L60.6999 9.99994L60.8999 9.89996L61.2999 10.0999L61.8999 10.3L63.1999 10.4L63.5999 10.5999L63.6999 10.4L64.0999 10.3L64.1999 10.8L64.3999 12.2L65.9999 14.2L66.3999 14.4L66.6999 14.4999L67.6999 15.0999L68.3999 18.7L68.9999 20.5999L70.0999 20.7L70.9999 21.2L71.7999 21.5999L72.6999 21.4999L73.4999 21.0999L73.6999 21.3L73.9999 21.4H74.2999L74.5999 21.4999L74.6999 21.5999Z" fill="#C8A668"/>
<path d="M37 6.99986V8.29987L36.9 9.39987V10.0999V10.3999L36.8 10.5999L36.7 10.8999L36.3 12.2999L36.1 12.7999L35.7 12.9998L35 12.3999L34.3 12.0999L33.9 12.2999L33.8 12.3999H33.6L33.3 12.1999L33.1 11.9998L33 11.8999L32.9 11.6999L32.8 11.5999L32.5 11.3999H32.4L32.1 11.0999L31.9 10.1999L31.3 9.59985L31 7.39986L31.2 7.09985L31.8 6.59985H31.9V6.69986L32.1 7.09985L32.3 7.29987L33.1 7.49986L34 7.39986L37 6.99986Z" fill="#C8A668"/>
<path d="M32.5 11.4V12.5L32.6 12.8L32.1 13.1H29.9L29.3 12.9L28.9 12.6L28.5 12.5L28 12.4L27.7 12.6L27.4 12.8L27.1 12.9L27 12.8L26.8 12.6L26.7 12.3L26.6 12.1H26.4L26.2 12.2L26 12.4L25.8 12.8L25.9 13.1L26 13.6V14.1L25.8 14.6L25.6 15.2L25.5 15.8L25.9 19.3L26.1 19.7L26.2 20L26.9 20.2L27.1 20.3L27.5 20.7V21L26.4 22L25.6 23.4L25.4 23.9L25.3 24.4V24.7L25.4 24.9L25.5 25.1L25.4 25.2L25 25.3L24.5 25.4L24 25.3L23.8 25.2L23.6 25.1H23.4L23.2 25H23.1L22.9 24.7L22.8 24.6H22.5L22.4 24.5V24.4L22.3 24.2L22.2 24.1L21.4 23.6H20.8L19.9 23.2L18.5 22.1L17.6 21.8L17 21.7H16.7H16.3L15.9 21.8L15.5 21.9L15.4 22.2L15.2 22.3L15 22L14.6 22.1H14L13.4 22.2L13 22.3L12.6 22.2L12 22.1L11.6 22L9.5 22.3L8.7 22.4L8.3 22.8L7.5 22.5L7.3 22.7L7 22.4L6.8 22.2H6.39999L6.2 22.4L6 22.5L5.89999 22.4V22.2L5.8 22.1L5.7 22L5.59999 21.9L4.7 21.6L3.8 21.5L3.59999 21.6L3.5 22L3.39999 22.1L3.3 22.3H3.09999L2.7 22.2L2.59999 21.8L2.39999 21.1L2.09999 20.9L2 20.8V20.6H2.2L2.8 20.7L3.09999 20.6L3.5 20.3L4 19.7L4.2 19.4L4.3 19L4.5 18.8L4.89999 18.6L5.09999 18.7L5.39999 19L5.59999 19.2L5.8 19.5V19.7V19.9V20.1L6.3 20.9L6.39999 21.2L6.7 21.5L7 21.6L7.39999 21.5L7.59999 21.1L7.89999 20.2L8.09999 19.8L9.7 18.4L10 18L10.1 17.7L9.89999 16L10.4 15L10.7 14.8L11.1 14.9L11.2 15.6L11.5 15.8L11.8 16H12.3L13.2 15.6L13.7 14.9L14 14.1L13.9 13.4L14.1 9.99998L14.3 9.2L14.8 7.59999L15.2 6.8L16.6 5.39999L16.8 5.3L17 5.09999L17.4 3.8L17.9 3.3L18.5 3L19.1 3.09999L19.6 3.59999L19.7 4.89999L19.8 5.09999L20 5.2L20.6 5.59999L20.9 5.7L21.6 5.39999L22 4.7L22.5 4.2L23.4 4.3L24.6 5.3L25.1 5.39999L25.6 5.5L26.8 6.09999H27.3L27.6 5.89999L27.9 5.7L28.3 5.5L30.6 5.59999L31 5.7L31.4 5.8L31.7 6L31.9 6.39999V6.59999H31.8L31.2 7.09999L31 7.39999L31.3 9.59999L31.9 10.2L32.1 11.1L32.4 11.4H32.5ZM2.89999 15.9V16.4V17.2L2.7 17.9L2.39999 18.2L2.09999 18.3L1.7 18.8L1.5 18.9L1.3 18.8V18.4L1.5 18.1L1.7 17.8L1.39999 17.7L1.3 17.5L1.2 17L0.300003 17.9L0.0999908 18L0 17.6L0.399994 17.1L1.39999 16.3L1.59999 16.4L1.7 16.3L1.89999 16.1H2.09999H2.2L2.3 16L2.5 15.9H2.7H2.89999Z" fill="#C8A668"/>
<path d="M97.3999 42.9998L97.4999 42.5998V42.3998L97.8999 41.9998L98.8999 40.4998L98.9999 40.0998L99.0999 39.7998V39.1998V38.9998L99.2999 38.7998L99.6999 38.5998L100.9 38.7998H101.1H101.2L101.3 38.6998H101.4L101.5 38.7998L101.6 39.2998V39.4998L101.7 39.5998L101.9 39.3998L102.3 38.8998L102.5 38.6998L104.7 37.0998L105.2 36.4998L105.3 36.6998L106 39.6998L106.3 40.3998L106.6 40.8998L107.2 41.4998L108 41.6998H109.1H109.5H110.2L110.5 41.7998L111.5 41.8998L111.9 42.0998L112 42.2998L112.1 42.4998V42.6998V43.6998L112.3 44.1998L112.4 47.6998V47.8998L112.6 47.9998H112.8L112.9 47.8998H113H113.1L113.3 49.2998L110.7 49.0998H110.5L110.2 48.7998L110.1 48.6998H109.6L109.2 48.4998L108.5 48.1998V48.2998L107.4 47.7998L106.9 47.6998L106.4 47.5998L106 47.4998L104.7 46.7998H104.5H104.3L104.1 46.6998L104 46.5998L103.5 46.0998L103.4 45.9998L103.1 45.6998L102.9 45.5998H102.3L97.3999 42.9998Z" fill="#C8A668"/>
</svg>
