<svg width="205" height="183" viewBox="0 0 205 183" fill="none" xmlns="http://www.w3.org/2000/svg">
<path d="M178.5 4.6L179.2 4.7H180.1H181.5H182.6L182.7 5L182.8 5.9L183.1 6.7L182.4 7.1L182.2 7.2H181.9L181.2 7L180.8 6.5L179.7 5.8L179.2 5.2L178.5 4.6ZM196.5 43.5L196.1 43.1L195.8 42.8L195.6 42.4L195.4 41.8V41.3L195.8 41.1L196.1 41.4L196.7 41.8L196.9 42.1V42.3L196.6 42.1L196 41.7L195.8 41.6V41.7L195.9 41.8L196 42L196.3 42.6L196.7 43.2L197 43.5L197.3 43.7V43.8H196.9L196.5 43.5ZM174.8 21.9H174.6L174 21.8L173.8 21.9H173.6L173.3 22.1H173.2L172.9 21.9L172.8 21.6L172.9 21.3L173.2 21L173.5 20.8H173.9L174.3 20.9L174.6 21L174.9 21.2L175.1 21.4V21.6V21.9L174.9 22L174.8 21.9ZM178.1 20.2L178 20.6L177.8 21.1V22.3L177.7 22.6L177.4 22.8L177.2 22.7L177.1 22.3L177 22L175.9 21.5L175.6 21.1L175.4 20.6L175.2 20.1L175.1 19.7L175.3 19.2L175.8 19H177H177.3L177.6 19.1L177.9 19.2L178.1 19.4V19.7V20.2ZM181 17.9L180.8 17.5L180.2 17L180 16.6L180.1 16.1L180.5 15.9L181 16L181.4 16.3L181.7 16.6L182 17L182.2 17.4L182.3 17.8V18V18.4L182.2 18.6L182 18.5L181 17.9ZM170.3 17.8H170L169.7 17.6L169.4 17.4L169.2 17.3L169 17L168.9 16.8V16.6L169.1 16.3L169.2 16.2L169.5 16L169.7 15.9H169.9L170.1 16L170.5 16.3H170.7L172.4 16.4L172.7 16.6L173.2 17.3L173.6 17.4H173.8L174.2 17.6L174.6 17.7L174.8 17.8V18V18.2L174.4 18.6L173.6 18.5L172 17.8H170.3ZM180.1 11.4L179.8 11.2L179.3 10.7L179 10.5H179.2L179.6 10.4L179.7 10.3H179.8L180.2 10.5L180.6 10.7L181 11L181.3 11.3L181.5 11.6L181.4 11.8H181.1L180.7 11.7L180.1 11.4ZM179.5 6.3V6.8L179.3 7.3L178.6 8.1L177.8 8.2L176.9 7.5L176.4 6.6L176.7 5.7L177.4 5.1L177.7 4.9L177.9 5.1L178.4 5.6L179.3 6.1L179.5 6.3ZM184.3 38.7L183.3 39.2L183 39.8L181.9 39.6L181 39.8L180.6 40.4L180.3 41L179.5 40.8L178.6 39.8L178.3 39.2L178 38.4L177.7 38L177 37.2L176.2 37.1L175.6 36.8L175.2 37.5L174.6 37.1L173.9 36.8L173.6 37.4L173.2 37.2L172.7 36.2L172.1 36L171.7 37.1L170.9 37.4L170.5 37.7H169.7L168.8 37.5L168.4 37.1L168.8 36.6V35.9L168.1 36.5L166.9 37.1L166.1 36.9L165.5 36.6L165.1 37.1L164.8 38L164.6 38.9L163.4 38.6L163 37.7L161.9 37.5L160.6 37.8L159 39.3L158.3 39.8L157.4 39.5L156.8 38.9L156.2 38.3L155.1 38.1L154.5 38.3L154.4 39.3V39.9L154.7 40.5V41.1L154.2 41.9L152.4 42.3L151.4 41.9L150.5 42.3L150.8 43.5L152 44.1L152.3 45.2H151.4H150.3L150 45.8L149.6 46.7L149.3 47.5L149.1 47.8V48.2L149 48.7L148.8 49.4L148.7 50L148.5 50.9V51.2L148.4 51.5L148.1 52.1L147.9 52.3V52.7V53.3V53.5L147.5 53.8H146.7L146.4 53.9L146.3 54.2V54.5L146 55.4V56.2L145.4 56.5V56.8H144.9L144.6 57.1L143.8 57.5L143.2 58H142.9L142.6 58.1L142.5 58.6L142 58.7L141.7 59.2L141.4 60V60.3L141.1 60.4V60.6L141 61L140.2 61.6V62.2L139.9 62.7H139.3L138.9 61.8L138.3 61.6H137.8H137.7L136.8 62.2H135.9L135.4 62.4H134.5L133.8 62.5L133.3 63.1V63.6L133.2 64.2L133 64.5L132.3 64.9H132L131.5 64.6H131.2L130.7 64.3V64.2L130 64L129.7 63.9H129.4L129.2 63.7L128.6 63.6H127.9H127.4L126.7 63.7L126.5 63V62.2L126.1 61.6L125.8 61L125.6 60.6L124.7 60.4L124.6 60.1L124.3 59.5L123.2 59.2H122.9L122 59.3H121.6L121 59.5L120.7 60L120.5 60.4L120.4 60.6H120.2L119.9 61.2H119.3L119 61L118.9 60.4H118.4L118.1 59.8L116.6 59.5L115.1 59.2V59V58.6V58.5L115.2 58.6L115.6 58.7L116.1 58.6L116.4 58.3L116.5 58V57.5L116.4 57.1V56.6L116.6 56.3L117.3 55.7L117.6 55.4L118.1 54.6L118.5 53.5L118.7 52.1V51.5V51.3L118.6 51.1V51V50.8L118.7 50.6L118.9 50.4L119.1 50.3L119.3 50.2L120.4 50.1L121.5 49.6L121.7 49.4L121.8 49L121.7 48.6V48.3L121.8 47.9L121.9 47.5L122 47.3V47L121.9 46.7L121.7 46.6H121.3L121 46.8L120.7 46.7L120.5 46.3V46.1V45.5V45.3L120.3 45L120.2 44.8V44.4L120.4 43.3L120.7 42.6L121.3 42.2L122.8 42L123.3 41.8L123.5 41.6L123.4 41.3V40.9L123.5 40.5L123.8 40.3L124.5 40.4L124.9 40.1L125.7 39.4L126.1 39.3L126.4 39.1L127.1 38.2L127.6 38L128.5 37.9L128.9 37.7L129.1 37.4V37L128.9 36.5L128.6 36.1L128.3 35.8L128.1 35.6L127.8 35.5L127.6 35.4H127.3L127.1 35.5L126.7 35.7H126.5L126.2 35.4V35L126.4 34.6L126.5 34.2L126.4 34L126.2 33.6V33.4L126.3 33.1H126.5L126.7 33L126.9 32.9L127.1 32.4L127 32L126.5 31.3L126.4 31.1V31L126.6 30.9L126.9 30.7L127 30.4L127.1 30.2V30L127.2 29.8L127.5 29.4L127.8 29.1L128.9 28.3L129.2 28L129.5 27.3L129.8 26.8L130.1 26.9L130.6 27.7L131.2 27.9L131.8 27.8L133.1 27.3L133.9 27.2L134.2 27L134.4 26.7L134.5 25.8L134.6 25.5L135.3 24.5L135.2 24.4L134.9 24.3L134.6 23.9V23.6L135.3 20.6L135.7 19.7L136.1 19.2L136.3 19.3L136.5 19.4H136.6L136.8 19.3L137 19.1L136.9 18.9L136.8 18.5L136.5 17.9L136.4 17.7V17.5V17.1V16.9L135.9 15.7L135.8 15.2V14.4L135.9 13.6L136.7 11.3V10.7L136.4 10.4L136 10.2L135.7 9.9V9.4L135.9 9.3L136.6 8.9L136.7 8.7L137.1 7.9L137.4 7L137.6 5.3L137.7 4.9L137.9 4.5L138 4.3L138.4 4.2L138.6 4.1L138.7 3.9L139.6 3.1L139.7 3.2L139.8 3.3L140 3.4H140.3L140.4 3.2L140.5 2.9L141.2 2.3L141.3 1.7V1L141.5 0.400002L141.8 0.100002H142L142.2 0.299999L142.3 0.600002L142.4 0.900002L142.8 1H143.7L144.1 1.2L144.4 1.3L144.5 1.5L144.6 1.8L144.7 2.1L144.9 2.4L145.2 2.5L145.5 2.3L146.4 1.4L146.8 1.2L147 1L147.2 0.799999L147.3 0.299999L147.5 0.400002L147.7 0.5H148.2L149.1 0.700001L149.4 0.799999L149.9 0.600002L150.5 0.299999L151 0.200001L151.5 0.799999H151.6L151.8 0.700001L151.9 0.799999L152 0.900002L152.1 1.1L152.6 2L152.8 2.1H153H153.2L153.7 1.6H153.9L154.1 1.7L154.5 1.6L154.6 1.4V1.3L154.5 1.1V0.900002L154.6 0.600002L155 0.200001L155.2 0H155.4L156.2 1.3H156.5L157 1L157.5 1.2H157.9L158.3 1.1L158.9 0.600002H159.3L160 1.1L160.8 1.3L162.3 1H163.1L164.2 1.3L167.9 1.2L168.1 1.1L168.4 0.799999H168.6H168.9L169.1 1L169.2 1.2L169.3 1.4L170.1 1.9L171.7 2.7L172.8 3.9L173.3 4.2L173.8 4.3L174.5 4.4H174.8H175.3L175.7 4.5L175.8 4.7L175.6 4.8L175.1 5.3L174.9 5.4H174.7L172 4.5V4.6L172.1 4.8V4.9L172.3 5L172.5 5.1L172.6 5.2L172.7 5.4L172.6 5.5L172.5 5.7L172.4 5.9L172.7 6H173.1L173.5 6.1L173.8 6.3L174 6.5L173.9 6.8V7L174.1 7.1L174.3 7L174.5 6.9L174.7 6.8L174.9 6.9L176.8 8.7L177 8.9L177.7 9L178 9.2L178.3 9.4L178.2 9.6L177.9 9.9H177.5L177 9.8L176.3 9.3L175.9 9.2L175 9.1V9.2L175.5 9.3L176.1 9.5L176.6 9.9L176.9 10.3L177.2 10.4L177.5 10.3L177.8 10.2H178.1H178.3L178.8 10.6L179 10.8L180 11.8L180.1 12.1V12.2L180 12.3L179.7 12.4L178.5 12.2L178.8 12.5L179.1 12.8L180 13L180.8 13.2L181 13.4V13.7L180.8 13.9L180.2 14.2L180 14.4L179.7 14.9L179.4 15L177.5 15.2L177.1 15.1L176.2 14.8L175.9 14.7L175.4 14.5L175.2 14.1L175 13.6L174.7 13.1L174.6 12.9V12.4L174.5 12.3L174.3 12.2L173.9 12L174.1 12.4L174.2 12.5L174.3 13.6L174.5 13.9L174.8 14.3L175 14.8V15.3L174.7 15.6H174.4L173.5 15.2L173.1 15.1H170.6L169 14.8L166.4 14.9L165.7 15.1L165.2 15.9L165.7 15.6L166.3 15.4H166.9H168H168.6L168.9 15.7L168.7 16.2L168.6 16.7L168.8 17.2L169.1 17.7L169.4 17.9L169.6 18L170.4 18.2L170.6 18.4L170.8 18.5L171.1 19L171.4 18.8H172L172.6 18.9L173.1 19L173.2 19.1L173.4 19L173.5 19.2V19.8L173.4 20V20.3L173.2 20.4L173 20.5L172.8 20.6L172.6 20.8L172.4 21.2L172.3 21.3L172.1 21.5L171.9 21.6V21.8L171.8 22.6L171.7 22.8L171.4 23.1H171.2L170.8 22.7L170.2 22.4H170L169.9 22.5L169.8 22.6L169.9 22.8L170 23L170.2 23.2L171.6 24L171.9 24.1L172.3 24.2H173.1L173.6 24.3L173.7 24.5L173.6 24.8V25.1L174.1 25.7H174.9L175.8 25.6L176.6 25.8L176.8 26L176.9 26.1V26.2L177.1 26.4L177.2 26.6L177.1 26.8L176.9 27H176.7L176.5 27.2L176 27.8L175.8 28L176.1 28.1L176.5 28L176.9 27.9L177.2 27.8L177.6 27.7L178 27.9L178.2 28.2V28.4L177.8 28.5L177.1 28.8L176.7 28.9L175.4 29.1V29.2H175.8L177.3 29.5L179.2 29.6L179 29.9L178.5 30.1L178.1 30.2L177.8 30.4L177 30.9L176.9 31.1L177.1 31.4L177.9 31.6L178.7 31.7L179.5 31.9L180.1 32.4L180.3 32.8L180.4 33.1L180.5 34.4L180.6 34.8L180.8 35.2L181 35.4L181.8 36.1L182.1 36.5L184 38.2L184.2 38.4L184.3 38.7Z" fill="#C8A668"/>
<path d="M109.4 58.4998V58.7998L109.1 60.3998V60.6998V60.9998L109.3 61.3998L109.4 61.6998V62.0998V62.4998L109.3 62.7998L109.1 62.9998L108.9 63.0998L108.7 63.1998L108.2 63.6998L107.7 63.8998L107.5 64.0998L105.6 65.6998L105.4 65.7998L105.1 65.9998L104.9 66.0998L104.3 66.5998L103.3 66.9998L103 67.1998L102.7 67.4998L102.6 67.6998V67.8998V68.1998V68.3998L102.5 68.7998V68.9998L102.6 69.1998L102.7 69.2998H102.8H103L103.4 69.0998H103.6H103.8L104 69.1998L104.1 69.3998L104.2 69.5998L104.3 69.9998L104.2 70.3998L104 70.7998L103.8 71.1998V71.4998V71.9998L103.7 72.4998L103.5 72.7998L102.8 73.5998L102.3 74.2998L102.1 74.3998L101.7 74.5998L101.5 74.7998L101.2 75.0998L101.1 75.2998L100.9 75.9998L100.4 76.2998L100 76.6998L99.9 76.8998L99.6 76.9998L99.4 77.1998L99.1 77.8998L98.9 78.2998L98.6 78.5998L98.3 78.8998L98.1 79.1998V79.4998V80.1998L98 80.6998L97.8 80.8998L97.6 80.9998H97.4L97.2 81.0998L96.5 81.5998L96.3 81.7998H96H95.6H95.2H95L94.3 81.5998L94.1 81.4998H93.9L93.7 81.5998L93.4 81.6998L92.6 81.8998L91.9 82.1998L92.5 82.9998L92.8 83.5998L93 83.8998L93.8 84.3998L94 84.7998L94.5 85.6998L94.6 85.9998V86.1998V86.3998V86.5998L95 87.9998V88.2998V88.3998L94.9 88.5998L94.4 89.5998L94.1 90.2998L94 90.7998L93.9 90.8998L93.8 90.9998H93.6L93.5 91.0998L93.3 91.1998L93.1 91.4998L93 91.5998L92.9 91.6998H92.7H92.6L92.3 91.7998L92.2 91.8998H92.1L92 91.9998L90.9 93.1998L90.5 93.6998V93.8998L90.4 94.1998L90.5 94.2998L90.6 94.3998L90.7 94.4998L91 94.5998L91.1 94.7998L91.3 94.9998L91.5 95.3998V95.5998V95.8998L91.1 96.6998L90.7 97.6998L90.6 97.8998H90.2L90 97.7998L89.8 97.6998L89.6 97.4998L89.4 97.2998L89 96.5998L88.8 96.3998L88.7 96.2998H88.5L88.4 96.3998L88.1 96.4998L87.9 96.5998H87.7L87.6 96.6998H87.5L87.4 96.9998L87.3 97.1998L87.2 97.2998L86.7 97.3998L86.4 97.2998L86 97.1998L85.8 97.2998H85.6L84.5 97.6998L84 98.0998L83.4 98.3998L81.4 99.0998L81 99.2998L80.9 99.3998L80.7 99.5998L77.2 101H76.9H76.6L76 100.9L75.8 100.8L75.6 100.9L75.1 101.2L73.2 101.9L73 102H72.7L72.3 101.8H71.9H71.5L70.5 101.6H68.1H67.8L67.6 101.7L67.5 101.9L67.4 102.3L66.9 102.8L65.1 103.3L63 104.7L62.2 105.2H61.9L60.8 105.8L58.8 107.1L58.4 107.5L57.8 108.3L57.6 108.5V108.8V109.1L57.8 109.6V109.9L57.6 110.3L57.4 110.5L56.7 110.9L55.6 111.2L55.3 111.6L54.2 112.1L53.7 112.5L53.3 112.9L53.1 113L52.8 113.4L52.4 114.2L51.8 114.6L51.3 114.8L50.7 115.1L50.3 115.5L49.7 116.3L49.3 116.6L48.6 117.3L48.3 117.4H48.1L47.8 117.2H47.7H47.4L47.2 117.1H47H46.7L46.2 117.2L45.5 117.7L45.1 118L44.7 118.6L44.5 118.7L44.4 118.9L44.3 119.1L44.4 119.3L44.5 119.5L44.7 119.8L45 119.9L45.2 120L45.5 119.9L45.8 119.7H45.9H46H46.2L46.3 119.9L46.4 120.1V120.4L46.2 120.9V121L46.3 121.2L46.5 121.3L46.6 121.5L46.7 121.8L46.5 122.6V122.9V123.2L46.4 124L45.8 126.3V126.7L45.9 128L46 128.5L46.2 129.1L48.7 134.6V135L48.5 135.8V136.2V138L48.6 138.6L48.7 138.9L48.8 139.1L48.9 139.4L49.1 139.8L49.2 140.1L49.1 140.4L49 140.7L48.9 140.9L48.7 141.1L48.4 141.3L47.3 141.7L47 141.9L46.8 142.3L46.5 143.1L46.2 143.5L46.1 143.7L45.9 143.8L45.7 143.9L45.1 144.1V144L44.6 144.1L43.9 144.6L43.6 144.8L42.6 145.1H42.2L41.9 145.3L41.5 145.6L40 147.6L39.3 148L38.6 147.4V147.2H38.7L38.8 147.1L38.9 147V146.8L38.8 146.3L38.7 145.9L38.6 145.4L38.4 144.6L37.8 143.9L37 143.8L36.2 143.9L34.2 144.8L32.1 146.3L31.4 146.4L30.9 145.8L30.6 145L30.2 144.3L30.6 143.9L30.9 143.3L31.1 142.7L31 142.1L30.7 141.3L30.6 140.5L30.4 139.8V139.5L30.2 139.3L29.5 139.1L29.3 138.9V138.7L29.7 138.3L29.8 138L30.1 137.5L30.8 137.6H31.4L31.7 136.8L31.1 137.3L30.5 137.1L30.2 136.6L29.3 135.2V134.9L29.2 134L29 132.3L28.8 131.9L28.5 131.7L28.2 131.6L28.1 131.2V130.8V130.5L28.3 129.6L28.5 128.8L28.7 128L28.6 127.1L28.1 125.8L28 125.6L27.7 125H27.5L26.8 124.8L25.9 124.3L25.6 124.2L25.3 124.1L24.3 123.1H24.4L24.6 122.9H24.7L24.5 122.8L24.4 122.6V122.4V122.2L24.6 122L25.5 121.5L25.8 121.4L26.1 121.2L26.3 120.9L26.8 119.6L26.9 119.2L27 117.9L27.5 115.4L27.6 114.5L27.4 113.7L27 112.8L26.8 112.5L26.4 112.3L25.9 112.2L25.5 112.1L25.2 111.8V111.4L24.8 111.2L24.6 110.8L24.7 110.2L24.9 109.3V109L24.6 108.8H24.2L24.1 108.7L23.6 108.5H23.4H22.9L22.7 108.3L22.4 107.7L21.9 107.5L21.7 107.2L21.4 106.6L21 106.2L20.9 105.9V105.5V105.2L21.1 105L21.3 104.8L21.4 104.6L21.5 104.3V104.2L20.9 104.4L20.7 104.6L20.6 104.9V105.3L20.5 105.8L20.3 106L19.8 106.5L19.2 106.2L18.9 105.8H18.7L18.6 105.9H18.4L18.2 105.8L17.9 104.7L17.5 104.4L16.8 104.1L16.1 103.9L15.1 103.7L14.9 103.8H14.7L14.6 104V104.2L14.7 104.3L14.8 104.5L14.7 104.9L14.4 105L14.1 105.1L13.8 105L13 104.6L12.9 104.5H12.7L12 104.1L11.8 103.9L11.2 100.8L11.4 100.4L11.6 100.2L11.9 100.3L12.3 100.6L12.6 100.8H14L14.3 100.9L14.9 101.4L15.4 101.5L15.5 101.6H15.7H15.9L16.3 101.5L16.5 101.4L16.4 101.2L16.2 101.1L15.7 101.2L15.5 101.1L15.2 100.6L15 100.4L14.6 100.2L14.1 99.9998L13.9 99.8998H13.6L13.4 99.7998V99.6998H13.5L13.7 99.5998L13.6 99.4998L13.5 99.3998L13.4 99.2998V99.1998H13.8L14.4 99.2998H14.8V99.1998L14.3 98.7998L13.8 98.5998H13.2H11.9L11.6 98.6998H11.5L11.3 98.4998L11 98.3998V98.2998L10.9 98.1998L10.8 98.0998L10.6 97.9998V97.8998H10.5H10.3L10.1 97.9998H9.89999H9.79999L9.59998 97.8998L9.19998 97.4998L9 97.1998L8.79999 96.8998L8.39999 95.0998V94.2998V94.1998L8.59998 94.0998H9.09998L8.39999 93.1998L8.19998 92.6998L8.39999 92.1998V92.0998L8.19998 91.9998H7.89999L7.69998 92.0998V92.3998L7.39999 92.1998L7.29999 91.8998L7.39999 91.5998L7.59998 91.2998L7.79999 91.1998L8.09998 91.0998L8.69998 90.9998L9.29999 91.0998L9.89999 91.1998L10.4 91.3998L10.7 91.6998H10.8L10.7 91.3998L10.3 90.9998L10.2 90.7998L10.1 90.4998L10.2 89.6998L10.1 88.5998L9.89999 88.0998L9.59998 87.4998L9.5 87.1998V86.5998L9.59998 86.2998H9.79999L10.3 86.5998L12.3 86.7998L11.9 86.4998L11.1 85.8998L9.89999 84.8998L9.69998 84.7998L8.39999 82.1998L7.29999 81.2998L7.09998 81.1998L6.69998 81.0998H5.5L5 80.7998L4.79999 80.2998L5 79.4998L5.29999 78.8998V78.6998V78.1998L5.19998 77.7998L4.69998 76.9998L4.59998 76.4998L4.69998 76.2998L5 75.8998V75.5998V74.7998V74.2998L4.79999 73.8998L3.89999 72.8998L4 72.6998L4.09998 72.4998L4.19998 72.0998L4.09998 71.5998L3.5 70.9998V70.5998L3.69998 70.3998L4 70.0998L4.29999 69.8998L4.5 69.6998H4.89999L5.19998 69.4998L5.5 69.2998L5.69998 68.8998L6 68.0998V67.2998L5 64.4998L4.89999 63.9998L5.09998 63.6998L5.5 63.5998L6.19998 63.4998L7 63.2998L8.5 62.6998L9.19998 62.2998L9.5 61.9998L10.7 60.5998L10.9 60.0998L11.2 59.6998L11.7 59.3998V59.2998L11.2 59.1998L10.9 59.4998L10.7 59.8998L10.4 60.0998L10.1 60.2998L9.69998 61.2998L9.39999 61.4998L9.29999 61.5998V61.7998L9.09998 62.0998L8.89999 62.1998H8.59998L8.5 62.2998L8.09998 62.5998L7.69998 62.6998L6.59998 62.7998L6.09998 62.9998L6.19998 62.2998L6.5 61.7998L7.19998 60.8998L7.5 60.2998L7.59998 59.5998V57.3998L7.79999 56.6998L8.29999 56.1998L11.4 53.9998L11.8 53.4998L12.4 52.3998L12.7 51.7998L13.1 51.4998L13.2 51.3998V51.2998L13.3 51.1998V51.0998V50.9998H13.2H13.1L13 51.0998L12.1 51.7998V51.4998L12.3 51.2998L12.6 51.0998L12.9 50.7998L13 50.3998V50.0998V49.3998L13.1 48.6998L13.5 48.4998L14.8 48.2998L17.5 47.5998L17.8 47.4998L18.1 47.2998L18.4 46.9998L19 45.9998L19.2 45.7998L18.8 46.8998L18.3 47.7998L18 48.1998L17.8 48.4998L17 49.0998L16.9 49.2998L16.8 49.5998L17 50.2998V50.4998V50.5998L17.1 50.8998L17.2 51.0998L17.4 51.3998L17.6 51.5998L17.9 51.6998H18.7L19.1 51.7998L19.2 52.1998L19.1 53.6998V54.5998L19.2 54.9998L19.4 55.3998L19.8 55.8998L21.6 57.3998L21.7 57.5998V58.1998H21.9L22.2 57.9998L22.4 58.0998L22.7 58.9998L23.1 59.2998H23.5H23.9H24.2L24.6 59.3998L24.8 59.7998L25.2 60.8998L25.5 61.2998L25.7 61.4998L26.4 61.8998L26.8 62.1998L27.2 62.9998L27.6 63.2998L28 63.4998L29.2 63.5998L29.5 63.7998L29.8 64.1998L30.3 64.9998L31.2 66.4998L31.3 66.8998L31.4 67.3998H31.6L31.8 67.2998H32.1L33.1 67.4998L33.4 67.5998L33.7 67.8998L34.5 68.9998L35.3 69.5998L36.2 70.0998L37.1 70.1998L38 69.7998L38.2 69.4998V69.3998L38.3 69.2998L38.5 69.3998H38.7L38.8 69.5998L39 69.6998L39.3 69.7998L39.5 69.6998L39.9 69.2998L40.1 69.1998H40.2L40.4 69.2998H40.5L40.9 69.0998L41.2 68.8998V68.9998L41.4 69.0998L41.5 69.1998L41.7 69.0998V68.8998V68.4998L41.9 68.1998L43 67.2998L43.6 66.9998L44.2 66.8998H45.4L49.9 65.7998H50.3L52.9 66.9998L53.3 67.0998H53.8L54.2 66.9998L54.9 66.7998H55.3L55.5 66.9998L55.6 67.2998L55.7 67.5998L55.9 68.0998L56.1 67.8998L56.6 67.2998L58.3 66.5998H58.6H58.9L59.4 66.7998L60.5 67.1998L61 67.3998L62.2 67.0998L63.9 64.9998L65.2 64.5998H66.8L67.3 64.4998L67.6 64.3998L67.7 64.1998L68.7 61.1998L69.4 59.8998V59.6998V59.4998L69.3 59.2998H68.9L68.8 59.0998L68.9 58.5998L69.3 58.3998L71.6 57.2998L72 57.0998L73.3 56.9998L73.6 56.8998L74 56.5998L74.2 56.2998L74.5 56.0998L75 55.9998L80.9 56.2998L81.4 56.4998H81.6L81.8 56.3998L82 56.1998L82.1 55.9998L82.3 55.7998L82.6 55.6998L83 55.7998L83.3 55.8998L83.7 55.9998L84.6 55.8998L85 55.9998L85.4 56.1998L85.8 56.2998L86 56.5998V57.0998L85.9 57.4998L85.7 57.8998L85.3 58.1998L84.7 58.5998L84.6 58.8998L84.7 58.9998H85L85.7 58.7998L86.5 58.5998L87.3 58.6998L88 59.0998L88.6 59.5998H88.9L89.8 59.6998L91 59.8998L91.9 60.2998L93.4 61.3998L94.3 61.4998L95 61.0998L95.5 60.9998H95.9L96.3 61.2998L97.3 62.4998L97.9 62.6998L98.4 62.5998L101.5 60.4998L102.7 58.9998L103.1 58.5998L103.5 58.4998L106.4 57.9998H107.1L107.9 58.2998L108.1 58.3998L108.3 58.5998L108.5 58.7998L108.7 58.8998H108.9L109.3 58.5998L109.4 58.4998ZM0 120.9L0.299988 120.6L0.899994 120.5L1.59998 120.6L2 120.7L1.59998 121H0.899994L0 120.9ZM9.79999 111.9L10 112.1L9.89999 112.3L9.19998 113H9.09998V112.9L9 112.7H8.89999H8.79999H8.69998V112.8H8.5L8.39999 112.7V112.6L8.5 112.4L8.69998 112.3H8.79999H9L9.19998 112.2L9.59998 111.9H9.79999ZM11.4 110.1L11.6 110.3V110.5L11.5 110.8L11.4 111L11.3 111.1L11 111.2L10.8 111.3L10.7 111.2V110.9V110.7L10.8 110.6L11.2 110.2H11.3L11.4 110.1ZM5.69998 118.1L5.79999 118.4L5.69998 118.8L5.5 119.1L5.39999 119.3L5.09998 119.5L3.79999 119.9H3.59998H3.09998L3 119.8L2.89999 119.6V119.3V119.2L3 119L3.09998 118.8V118.6L3 118.4L2.89999 118.3L2.5 118.4L2.29999 118.3L2.59998 118L3.09998 117.8L3.89999 117.6L4.19998 117.5L4.29999 117.4L4.39999 117.3L4.69998 117.5L5 117.6L5.5 117.9L5.69998 118.1ZM21.4 108.9L21.5 109L21.6 109.1L21.8 109.2V109.4V109.6L21.6 109.7L21.2 109.9L20.2 110.6L20 110.7H19.7L18.3 111.3L17.7 111.7L17 111.9L16.3 112.6L15.9 112.7L15.6 112.6L15.2 112.4L14.8 112.1L14.6 111.8L14.7 111.4L15.2 110.1L15.3 106.9L15.5 106.5L15.8 106.3L16.1 106.4L16.8 106.6H17.2H17.4L17.8 106.3L18 106.2L18.4 106.3L19 106.7L19.4 106.9H19.7L20 106.7L20.1 106.6L20.3 106.5H20.7L21 106.8L21.3 107.1L21.4 107.4V108.9Z" fill="#C8A668"/>
<path d="M45.1001 144.1L45.7001 143.9L45.9001 143.8L46.1001 143.7L46.2001 143.5L46.5001 143.1L46.8001 142.3L47.0001 141.9L47.3001 141.7L48.4001 141.3L48.7001 141.1L48.9001 140.9L49.0001 140.7L49.1001 140.4L49.2001 140.1L49.1001 139.8L48.9001 139.4L48.8001 139.1L48.7001 138.9L48.6001 138.6L48.5001 138V136.2V135.8L48.7001 135V134.6L46.2001 129.1L46.0001 128.5L45.9001 128L45.8001 126.7V126.3L46.4001 124L46.5001 123.2V122.9V122.6L46.7001 121.8L46.6001 121.5L46.5001 121.3L46.3001 121.2L46.2001 121V120.9L46.4001 120.4V120.1L46.3001 119.9L46.2001 119.7H46.0001H45.9001H45.8001L45.5001 119.9L45.2001 120L45.0001 119.9L44.7001 119.8L44.5001 119.5L44.4001 119.3L44.3001 119.1L44.4001 118.9L44.5001 118.7L44.7001 118.6L45.1001 118L45.5001 117.7L46.2001 117.2L46.7001 117.1H47.0001H47.2001L47.4001 117.2H47.7001H47.8001L48.1001 117.4H48.3001L48.6001 117.3L49.3001 116.6L49.7001 116.3L50.3001 115.5L50.7001 115.1L51.3001 114.8L51.8001 114.6L52.4001 114.2L52.8001 113.4L53.1001 113L53.3001 112.9L53.7001 112.5L54.2001 112.1L55.3001 111.6L55.6001 111.2L56.7001 110.9L57.4001 110.5L57.6001 110.3L57.8001 109.9V109.6L57.6001 109.1V108.8V108.5L57.8001 108.3L58.4001 107.5L58.8001 107.1L60.8001 105.8L61.9001 105.2H62.2001L63.0001 104.7L65.1001 103.3L66.9001 102.8L67.4001 102.3L67.5001 101.9L67.6001 101.7L67.8001 101.6H68.1001H70.5001L71.5001 101.8H71.9001H72.3001L72.7001 102H73.0001L73.2001 101.9L75.1001 101.2L75.6001 100.9L75.8001 100.8L76.0001 100.9L76.6001 101H76.9001H77.2001L80.7001 99.5999L80.9001 99.3999L81.0001 99.2999L81.4001 99.0999L83.4001 98.3999L84.0001 98.0999L84.5001 97.6999L85.6001 97.2999H85.8001L86.0001 97.1999L86.4001 97.2999L86.7001 97.3999L87.2001 97.2999L87.3001 97.1999L87.4001 96.9999L87.5001 96.6999H87.6001L87.7001 96.5999H87.9001L88.1001 96.4999L88.4001 96.3999L88.5001 96.2999H88.7001L88.8001 96.3999L89.0001 96.5999L89.4001 97.2999L89.6001 97.4999L89.8001 97.6999L90.0001 97.7999L90.2001 97.8999H90.6001L90.7001 97.6999L91.1001 96.6999L91.5001 95.8999V95.5999V95.3999L91.3001 94.9999L91.1001 94.7999L91.0001 94.5999L90.7001 94.4999L90.6001 94.3999L90.5001 94.2999L90.4001 94.1999L90.5001 93.8999V93.6999L90.9001 93.1999L92.0001 91.9999L92.1001 91.8999H92.2001L92.3001 91.7999L92.6001 91.6999H92.7001H92.9001L93.0001 91.5999L93.1001 91.4999L93.3001 91.1999L93.5001 91.0999L93.6001 90.9999H93.8001L93.9001 90.8999L94.0001 90.7999L94.1001 90.2999L94.4001 89.5999L94.9001 88.5999L95.0001 88.3999V88.2999V87.9999L94.6001 86.5999V86.3999V86.1999V85.9999L94.5001 85.6999L94.0001 84.7999L93.8001 84.3999L93.0001 83.8999L92.8001 83.5999L92.5001 82.9999L91.9001 82.1999L92.6001 81.8999L93.4001 81.6999L93.7001 81.5999L93.9001 81.4999H94.1001L94.3001 81.5999L95.0001 81.7999H95.2001H95.6001H96.0001H96.3001L96.5001 81.5999L97.2001 81.0999L97.4001 80.9999H97.6001L97.8001 80.8999L98.0001 80.6999L98.1001 80.1999V79.4999V79.1999L98.3001 78.8999L98.6001 78.5999L98.9001 78.2999L99.1001 77.8999L99.4001 77.1999L99.6001 76.9999L99.9001 76.8999L100 76.6999L100.4 76.2999L100.9 75.9999L101.4 75.7999L102.4 75.6999L102.7 75.5999L103.5 75.1999H103.9L104.7 75.0999L105 74.9999L105.2 74.8999L105.4 74.5999L105.6 74.3999L106 74.1999H106.3H107.2L108 74.0999L108.9 74.1999H109.2L109.5 74.3999L110 74.6999L110.3 74.8999L110.6 74.9999L112.1 75.1999L112.4 75.2999L112.8 75.3999L118.4 74.6999L118.8 74.4999L119.2 74.0999L119.8 73.6999L120.8 73.3999L121.8 73.1999L122.2 73.0999L122.4 72.8999L122.6 72.5999L122.7 72.4999L122.9 72.3999H124H124.4L124.6 72.4999L124.7 72.5999L124.9 72.8999L125 73.0999H125.1L125.3 73.1999L125.4 73.2999L125.6 73.3999L125.7 73.5999L125.8 73.7999L125.9 73.9999L126.1 74.2999L126.2 74.3999L126.3 75.2999L126.4 75.4999L126.5 75.7999L126.6 75.9999V76.1999V76.4999L126.4 76.6999L126.2 76.9999L125.7 77.3999L125.6 77.4999L124.4 79.7999L124.2 80.4999L124.1 80.7999V81.3999L124.2 81.6999L124.3 81.8999L124.4 82.2999L124.5 82.5999V82.7999V83.2999V83.4999L124.6 83.6999L125.1 84.3999L125.3 84.8999L125.4 85.0999V85.3999L125.5 85.5999L125.4 85.8999L124.8 87.3999L124.5 88.3999L124.4 88.6999V88.8999L124.5 89.0999L124.6 89.2999V89.3999L124.7 89.5999L124.6 89.7999V90.0999V90.2999L124.8 90.5999H125L125.1 90.4999L125.8 89.7999L126 89.6999L126.6 89.4999L126.8 89.2999L126.9 89.1999L127 89.0999L127.2 88.6999L128.8 86.8999L129.3 86.4999H129.6H130L130.3 86.3999H130.5L131.1 86.5999L131.7 86.6999H131.8L131.9 86.7999V86.8999V86.9999L131.8 87.1999L131.7 87.5999L131.5 88.9999L131.4 89.1999L131.3 89.3999L130.8 90.2999L130.7 90.6999L130.5 91.3999V92.7999V93.1999L130.7 93.9999L130.8 94.2999L130.9 95.2999L131 95.6999L131.2 96.3999L131.6 97.0999L132.6 98.4999L132.7 98.7999L132.8 99.1999V99.9999L133.3 102.3L133.4 102.6L134 103.4L134.1 103.7L134.2 104L134.1 104.3L134.2 104.5L134.3 104.8L135.3 105.6L135.5 105.7L135.7 105.8L136.4 106L137 106.3H137.2H137.3L137.5 106.4L137.8 106.5L138 106.7L138.4 107.1L138.5 107.3L138.7 107.7L138.8 107.8L139.2 108.2L139.4 108.5L139.6 108.7L139.7 108.9H139.8H139.9H140.1L140.3 108.7L140.6 108.6L141 108.5L141.2 110.9L141.1 111.2L141 112.2L140.9 112.6L139.9 114.5L139.6 114.9L139.3 115.2L139 115.3H138.8L138.5 115.2L138.6 114.4V114.1L138.5 113.9H138.2L137.8 114L136 114.8L135.1 115H134.6L134.4 115.1L133.5 115.4L133.3 115.6L133.2 115.8L133.1 116.2L131.8 121.9L131.7 122.6L131.8 123.2L132.1 123.7L132.2 124.2L132.1 124.7L131.8 125.4L131.4 125.8L131.2 126.2V126.4L131.6 127.3L128.8 130L128.1 130.5L127.7 130.7L126.7 130.9L125.6 131.2L123.2 131.8L122.9 131.9L122.7 132V132.1V132.2V132.4V133V133.2L122.9 133.6L123 133.8L123.1 133.9L123.2 134V134.2V134.9V135.1L123.1 135.3L122.8 135.9L122.5 136.6V136.8L121.5 137.7L121.3 138.1L121.1 138.5L121 138.9L120.9 139.3V139.8L120.8 140.2L120.6 140.5L120.3 140.9L120.1 141L120 141.1L118.6 141.6L118.4 141.7L118.3 141.9L118.4 142.1L118.3 142.2L118.2 142.4L118 142.7L117.9 142.8L117.8 142.9L117.4 143L116 143.3H115.8L115.7 143.4L115.3 144L115.1 144.3L115 144.5L114.6 146.5L111.4 155L111 154.8L110.7 154.6L110.5 154.3V153.9L110.7 153.6L111.1 153.4L111.3 153.2L111.7 151.9L112.2 151.3L112.4 151L112.5 150.6L111.7 151.3L111 152.4L110.2 153.5L109 154L108.3 153.9L107.8 153.7L107.4 153.3L107.3 152.6L107.7 150.7L107.6 150.2L107.5 150.3L107.4 150.5L107.2 151.4V151.8L107.1 152L106.9 152.2L106.1 153.4L104.9 154L104.3 154.2L103 154.9L101.6 155.4L99.6001 155.7L98.0001 155.4L97.9001 154L98.1001 153.1L98.2001 152.3V151.5L97.8001 150.1L97.6001 149.8L97.2001 149.7H95.6001L95.1001 149.8L94.7001 150L94.4001 150.3L94.3001 150.8L94.2001 151.1L93.9001 151.3L92.7001 151.4L92.5001 151.3L92.3001 151.1V150.6L92.2001 150.3L92.0001 150L91.8001 149.7L91.5001 149.6L92.3001 151.3L92.4001 151.8L91.4001 150.6L91.1001 150.4L90.5001 150.1L90.3001 149.9L90.1001 149.6L89.9001 149.4L89.8001 149L89.7001 148.4L89.5001 148.2L89.1001 147.9L88.7001 147.7L88.0001 147.5L87.5001 147.2L86.2001 144.9V146.2L86.1001 146.6L86.0001 146.7L85.8001 147.1L85.7001 147.3H85.6001H85.3001L85.2001 147.4L85.0001 147.5L84.8001 147.7L84.5001 148.1L84.3001 148.5L84.5001 148.9L84.8001 149.1L84.9001 149.2L85.1001 149.3L85.3001 149.4H85.7001L85.9001 149.5V149.6L79.0001 154.1L78.3001 154.6L78.0001 154.8L77.2001 154.6L77.1001 154.7V154.9L76.9001 155.1H76.7001L76.5001 155.2L76.1001 155.1L73.5001 153.1L72.6001 152.8L71.7001 152.6L69.7001 152.9L68.0001 154L65.2001 156.8L64.4001 157.5L63.9001 157.7H63.5001L63.1001 157.5L62.2001 157.2L61.9001 156.9V156.5L62.4001 155.7L62.5001 155.2L62.6001 154V153.5L62.1001 150.2V149.2L62.4001 147.6L62.2001 146.7L61.0001 144.6L60.9001 143.8V142.9L60.8001 142.8H60.7001L60.5001 142.7V142.5V142.1L60.8001 141.6L60.9001 141.2L60.6001 141.4L60.3001 141.6L60.0001 141.9L59.9001 142.2L60.0001 143.1L60.1001 143.4L60.0001 143.6L59.8001 143.8L59.6001 143.9L59.5001 144V144.1L59.3001 144.2V144.3L59.2001 144.5L59.3001 144.6L59.4001 144.7H59.5001L59.7001 144.9L59.8001 145H59.9001V145.2V145.3H59.7001H59.6001L58.8001 145.6L57.5001 146.6L57.2001 146.7H56.9001L56.5001 146.6L56.3001 146.3V146L56.1001 145.7L55.6001 145.2L54.8001 145L53.1001 144.9H52.4001L51.8001 145.1L47.2001 147.6L45.7001 148.1L44.8001 148.2L44.1001 148L42.5001 147.1L42.1001 147H41.4001L41.1001 146.9V146.6L41.3001 146.3L41.5001 146.1L42.1001 145.6L42.7001 145.3L43.4001 145.1L45.1001 144.4H45.3001L45.1001 144.1Z" fill="#C8A668"/>
<path d="M111.4 155L114.6 146.5L115 144.5L115.1 144.3L115.3 144L115.7 143.4L115.8 143.3H116L117.4 143L117.8 142.9L117.9 142.8L118 142.7L118.2 142.4L118.3 142.2L118.4 142.1L118.3 141.9L118.4 141.7L118.6 141.6L120 141.1L120.1 141L120.3 140.9L120.6 140.5L120.8 140.2L120.9 139.8V139.3L121 138.9L121.1 138.5L121.3 138.1L121.5 137.7L122.5 136.8V136.6L122.8 135.9L123.1 135.3L123.2 135.1V134.9V134.2V134L123.1 133.9L123 133.8L122.9 133.6L122.7 133.2V133V132.4V132.2V132.1V132L122.9 131.9L123.2 131.8L125.6 131.2L126.7 130.9L127.7 130.7L128.1 130.5L128.8 130L131.6 127.3L131.2 126.4V126.2L131.4 125.8L131.8 125.4L132.1 124.7L132.2 124.2L132.1 123.7L131.8 123.2L131.7 122.6L131.8 121.9L133.1 116.2L133.2 115.8L133.3 115.6L133.5 115.4L134.4 115.1L134.6 115H135.1L136 114.8L137.8 114L138.2 113.9H138.5L138.6 114.1V114.4L138.5 115.2L138 115.3L137.7 115.4L137.5 115.6L137.1 116L136.3 117L137.2 117.1L137.5 117.2L137.8 117.3L137.9 117.6L138 118.2L138.1 118.5L138.2 118.8L138.6 119.2L138.7 119.4L138.8 119.8L138.9 120.3L139.7 122.3L139.8 124.7L139.7 125.1V125.3L139.6 125.7L139.7 126L139.9 126.6L140.2 126.9L140.5 127.1L141.1 127.2L141.3 127.3L141.5 127.5L141.3 128.4L141.1 129.8L141.2 130.2L141.7 131.6L141.9 132.8V132.9V133.1L142.1 133.4L142.2 133.5H142.3L142.8 133.4L143 133.3L143.1 133.1L143.2 132.8L143.3 132.7L143.7 132.6L143.9 132.4L144.3 132.1L144.5 132L144.7 131.9L145.3 132.2L145.7 132.3L147.4 132.4L148 132.5L152.6 132.8L154.1 133.1L156.1 133.7L156.2 133.8L155.5 136.7L155.1 137.5L154.4 137.7L154.2 137.4L154.1 137L154 136.6L153.6 136.4H153.1H152.9L152.8 136.5L152.6 136.7H152.5H152.4H152.2V136.6H152.1L151.4 136.7H151.2L151 136.8L150.9 137L150.8 137.2L150.9 137.3L151.2 137.4V137.8L150.7 138.6L151 138.8L151.6 137.8L152.1 137.6H152.4L152.6 137.9V138.2L152.2 139.1L152.1 139.5L152.2 142.9L152.1 143.6L151.8 144.3L151.5 144.9L150.5 146.1L150 146.5L149.7 146.6L149.4 146.4L149.2 146.1L149.1 145.2L149 145V144.9L148.8 144.7L148.5 144.6L148.3 144.5L148.1 144.2L148 143.8L147.9 143.3V142.9L147.8 142.7L147.7 142.8L147.6 142.9L147.5 143.1V143.2L147.6 143.6V143.8L147.4 144.2L147.2 144.6L147 145L147.3 145.5V145.7L147.2 145.9L147 146.1L146.9 146.3L147 146.5H147.2L147.5 146.3L148 146.5L148.2 146.7L148.1 147L148.4 147.4L148.6 147.6L149.9 148.5L150.1 148.8V149.1L149.2 149.3L148.4 149.6L148.1 149.5V149.8L148.5 150.5L148.6 151L148.4 151.5L148.2 151.6L147.8 151.7L147.3 151.9L147.4 151.6L147.5 151.4H147.7L147.9 151.5L148 151.4L148.1 151.2L148.2 150.9H147.9L147.3 151.1L147 151.3L146.8 151.6L146.5 152.5L145.3 154.5L145 155.3L144.8 157.1L144.6 157.9L144.2 158.4L143.8 158.5L142.5 158.6L142 158.7L141.6 158.9L140.8 159.6L140.1 160.2L136.6 161.8L131.3 163.9L126.3 165.9L122.6 167.6L119.4 169.6L118.4 169.8L117.6 169.6L117.3 168.8L117.4 168L117.8 166.5L117.4 164.7L117.2 163.3L117.4 159.9L117.1 159L115.9 157.5L115.6 156.7V155.8L116.2 153.3L115.7 153.5L115.4 153.7L115.2 154L114.9 156.1L114.7 156.3H114.2L113.4 156L112.6 155.5L111.4 155ZM141.8 181.4L141.9 181.6V181.7H142L141 182.5L140.6 182.6L140.4 182.4L140.8 181.8L141.9 180.9V181L141.8 181.2V181.4ZM152.7 154.2L152.8 153.8L153.1 153.9L153.4 154.5V155.2L153 156.7L152.8 157.8L152.7 158.5L152.6 158.9L152.5 159.1L152.2 158.7L151.4 157.5L151.3 157.2V156.9L151.4 156.5L151.9 155.5V155.1L152.1 154.9L152.6 154.4L152.7 154.2ZM150.8 160.6L151 160.7L151.3 160.9L151.4 161V161.2L151.2 161.4L151 161.9L150.8 162.2L150.6 162.5V163L150.7 163.3L150.9 163.8L151 164.1L150.9 164.3L150.7 164.4H150.5H150.3L150.1 164.6L150 164.7L149.9 164.9L149.7 165H149.4H149.2L149.1 165.1L149 165.2L148.9 165.3V165.6V165.7L148.8 165.8L148.5 165.9L148.4 166V166.1L148.2 166.3L147.9 166.6L147.7 166.7L147.3 166.8L147.1 166.9L146.8 167.4L146.6 167.5V167.2L146.5 166.9L146.2 166.8L146 167L145.8 166.6L145.9 166.2L146 165.7L146.1 165.3L146.2 165.2H146.4L146.6 165.1V164.9V164.7L146.3 164.4V164.3L146.2 163.9L146.4 162.7L146.3 162.2L146.1 162L145.7 161.6L145.3 161L145.2 160.7L145.1 159.3L145.2 158.8L145.6 157.6L145.8 156.2L145.9 155.9L146.8 154.3L147.2 153V152.8L147.3 152.7L148 152.4L148.2 152.3L149.4 151.2L149.7 151.1L149.9 151L150 150.8L150.1 150.7L150.3 151V151.2V151.5L150.2 151.7L150 153.6V154.4L150.6 155.2L150.9 155.5L151.1 155.9L151.2 156.2L150.3 156.6V156.9L150.4 157.3L150.6 157.6L150.7 158L150.8 158.3L150.7 159.2L150.8 159.7V159.9V160.6Z" fill="#C8A668"/>
<path d="M109.4 58.4999L112.3 57.2999L112.7 57.1999L113.2 57.2999L113.6 57.4999L115.1 58.4999V58.5999V58.9999V59.1999L116.6 59.4999L118.1 59.7999L118.4 60.3999H118.9L119 60.9999L119.3 61.1999H119.9L120.2 60.5999H120.4L120.5 60.3999L120.7 59.9999L121 59.4999L121.6 59.2999H122L122.9 59.1999H123.2L124.3 59.4999L124.6 60.0999L124.7 60.3999L125.6 60.5999L125.8 60.9999L126.1 61.5999L126.5 62.1999V62.9999L126.7 63.6999L127.4 63.5999H127.9H128.6L129.2 63.6999L129.4 63.8999H129.7L130 63.9999L130.7 64.1999V64.2999L131.2 64.5999H131.5L132 64.8999H132.3L133 64.4999L133.2 64.1999L133.3 63.5999V63.0999L133.8 62.4999L134.5 62.3999H135.4L135.9 62.1999H136.8L137.7 61.5999H137.8H138.3L138.9 61.7999L139.3 62.6999H139.9L140.2 62.1999V61.5999L141 60.9999L141.1 60.5999V60.3999L141.4 60.2999V59.9999L141.7 59.1999L142 58.6999L142.5 58.5999L142.6 58.0999L142.9 57.9999H143.2L143.8 57.4999L144.6 57.0999L144.9 56.7999H145.4V56.4999L146 56.1999V55.3999L146.3 54.4999V54.1999L146.4 53.8999L146.7 53.7999H147.5L147.9 53.4999V53.2999V52.6999V52.2999L148.1 52.0999L148.4 51.4999L148.5 51.1999V50.8999L148.7 49.9999L148.8 49.3999L149 48.6999L149.1 48.1999V47.7999L149.3 47.4999L149.6 46.6999L150 45.7999L150.3 45.1999H151.4H152.3L152 44.0999L150.8 43.4999L150.5 42.2999L151.4 41.8999L152.4 42.2999L154.2 41.8999L154.7 41.0999V40.4999L154.4 39.8999V39.2999L154.5 38.2999L155.1 38.0999L156.2 38.2999L156.8 38.8999L157.4 39.4999L158.3 39.7999L159 39.2999L160.6 37.7999L161.9 37.4999L163 37.6999L163.4 38.5999L164.6 38.8999L164.8 37.9999L165.1 37.0999L165.5 36.5999L166.1 36.8999L166.9 37.0999L168.1 36.4999L168.8 35.8999V36.5999L168.4 37.0999L168.8 37.4999L169.7 37.6999H170.5L170.9 37.3999L171.7 37.0999L172.1 35.9999L172.7 36.1999L173.2 37.1999L173.6 37.3999L173.9 36.7999L174.6 37.0999L175.2 37.4999L175.6 36.7999L176.2 37.0999L177 37.1999L177.7 37.9999L178 38.3999L178.3 39.1999L178.6 39.7999L179.5 40.7999L180.3 40.9999L180.6 40.3999L181 39.7999L181.9 39.5999L183 39.7999L183.3 39.1999L184.3 38.6999L184.4 38.8999L184.5 38.9999L184.9 39.8999L185.1 40.2999L185.3 39.8999L185.7 40.1999L186 40.7999L186.3 41.3999L186.4 41.9999L186.2 42.2999L185.5 43.0999L185.3 43.2999L183.9 43.6999L183.5 43.7999L183.2 44.1999V44.5999L183.1 44.9999L182.7 45.2999V45.5999H182.1L181 45.2999L181.3 45.6999L182.1 46.0999L182.4 46.4999L181.6 46.6999H180.9H180.3L179.5 46.4999L179.3 46.5999L179.5 46.7999L179.7 46.9999H180.5L180.8 47.0999L181.1 47.2999L181.3 47.5999L181.5 47.7999L181.8 47.5999H181.9V48.4999V48.8999L181.7 49.0999L181.6 49.1999V49.4999L181.7 49.6999L181.8 49.7999H182L182.1 49.6999V49.7999L182.3 49.9999L182.5 50.2999L182.7 50.6999L182.9 50.9999L183.3 51.1999H183.7L184 51.3999L184.3 51.5999L184.6 51.6999H185.1H185.3L185.4 51.8999V52.1999L185.3 52.3999V52.4999L185.5 52.6999L186.9 54.2999L188.1 54.6999L189.8 56.0999L190.6 56.4999L191.4 56.6999L191.7 56.8999L192.2 57.3999L192.6 57.4999L192.8 57.5999L192.7 57.8999L192.4 58.0999L192.3 58.2999L192.4 58.3999L192.6 58.4999H193.1L193.3 58.5999V58.7999L193.4 59.2999V59.3999H193.6L193.8 59.2999L194.1 59.3999L194.8 59.7999L195 59.8999L195.9 59.9999L196.5 60.2999L197.7 61.6999L198.5 61.9999L198.8 62.1999L199.3 62.6999L199.8 63.1999L199.9 63.5999L199.8 63.6999L199.7 63.7999H199.6L199.5 63.9999L200.2 64.2999L200.4 64.4999L200.7 64.8999L201.3 66.0999H201.6H201.8H202L202.1 65.9999L202.3 65.6999H202.5H202.9L203.9 66.0999L204.2 66.2999L204.3 66.4999L204.2 66.6999V66.9999L204.1 67.1999L204.2 67.2999H204.3L204.4 67.4999V67.6999L204.2 67.9999L203.6 68.4999L203.3 68.9999L203 69.1999L201.5 69.7999L201.2 70.0999L201 70.5999L200.8 70.7999L200.5 70.9999L200.2 71.0999H199.9H199.7L199.5 70.9999L199.1 70.7999L198.6 70.5999L198.4 70.4999L198 70.2999H197.5L197 70.3999L195.9 70.8999L195.8 70.9999L195.6 71.0999L195.4 70.9999L195.2 70.8999L195 70.7999H194.6L193.8 70.3999H192.9L192.7 70.4999L192.5 70.7999L192.4 70.8999L192.1 70.9999L192 71.0999L191.7 70.9999L191.4 70.6999L191.3 70.3999L191 70.1999L190.7 69.9999L188.1 69.6999L186.9 69.3999L186.3 68.9999L185.8 68.5999L185.3 68.0999L185 67.4999L184.5 66.1999L184.2 65.6999L183.9 65.4999L183.1 65.0999L183 64.8999L182.9 64.7999H182.7L182.4 64.8999L182.3 64.9999L182.2 65.1999L182.3 65.3999L182.4 65.6999L183.1 66.4999L183.2 66.5999L183.9 67.5999L184 67.8999L184.1 68.6999L184.3 68.9999V69.0999L184.5 69.2999V69.3999L184.7 69.4999L184.9 69.7999L185 69.9999L185.1 70.2999V70.7999L185 71.1999L184.8 71.3999H184.5H184.3H184.1L183.9 71.1999L183.7 70.8999L183.5 70.6999L183.4 70.5999L183.2 70.4999L183 70.3999H182.7L182.5 70.4999L182.3 70.5999H182.2L182.1 70.6999H181.4L181 70.7999L180.7 70.9999L180.2 71.2999L179.3 72.3999L179 72.8999V74.0999L178.8 74.3999L178.4 74.7999L178.2 74.9999V75.1999L178 75.6999V75.7999L176.9 77.0999L176.7 77.4999L176.8 77.6999L177 78.1999V78.3999L176.9 78.5999L176.6 78.7999L176.4 78.8999L176.2 78.9999L175.9 79.2999L175.6 80.0999L174.8 81.2999V81.4999V81.5999L174.9 81.6999L175 81.7999V82.1999V82.5999L174.8 82.7999L174.3 83.2999L174.2 83.4999L174.1 83.6999L174.2 83.9999H174.3H174.5L174.7 84.0999L174.8 84.1999L174.6 84.3999L174.2 84.5999L174 84.6999L173.9 84.8999V84.9999L174 85.0999V85.2999V85.4999V85.6999V85.8999H174.2H174.4V85.9999L174.3 86.2999L174.5 86.3999L174.7 86.4999L174.8 86.6999L175 86.9999L175.1 87.3999V87.6999L175 87.7999V87.8999L174.8 88.1999L174.7 88.3999L174.4 88.5999L174.3 88.6999L174.2 88.7999L173.9 89.5999L173.8 89.8999V90.6999L173.6 91.0999L173.2 91.7999V92.1999L173.4 92.5999L173.7 93.0999L174 93.5999L174.2 93.6999L174.4 93.5999V93.8999V94.3999L174.3 94.6999L173.9 95.1999L173.7 95.4999V95.6999L173.8 96.0999V96.4999L173.6 96.8999L173.3 97.2999V97.3999L174 97.0999L176.4 95.3999L176.8 95.1999L177.1 95.2999L177.3 95.6999L177.1 95.8999L176.9 95.9999L176.7 96.2999L176.6 96.3999L175.9 96.5999L175.7 96.6999L175.6 96.9999L176.3 97.0999L176.5 97.2999L176.4 98.0999V98.3999L176.1 98.6999V98.7999L176 98.8999H175.4H175.2L175.1 98.9999V99.1999L175.4 99.2999H175.8L176 99.4999L175.9 99.7999L175.7 99.9999L175.4 100.2L175.3 100.4L175.5 100.7L175.3 100.8L175.1 100.7H174.5H174.2V100.9L174.3 101L174.5 101.1H174.9L176 101.4L176.5 101.5H176.8L176.9 101.7L177 102V102.3L176.9 102.5L176.8 102.6L176.2 102.7H175.9H175.8L175.7 102.8L175.4 103L175.3 103.1L174.3 102.8L174.4 103.4L173.7 103.2L173.5 103.7L173.6 104.2L173.4 104.4H173.1L172.8 104.3L172.3 103.8L172.1 103.6L172 103.9L171.8 104.4L171.5 104.8H171.3L171.2 104.7V104.4V103.8L171.1 103.7L170.6 103.2L170.2 103L169.9 103.4L169.7 104V104.5L169.6 105L169.3 105.3L168.5 105.8L167.9 106.4L165.9 109.2L165.4 109.5L165.3 110L165.2 110.4L165.1 110.8L164.8 111.1L164.3 111.3L163.8 111.5L161.7 112L161.3 112.1L161.1 112L161 111.7V111.2L161.2 110.8L161.3 110.7L161 110.5L160.9 110.6L160.8 110.8L160.6 111.1L160.5 110.8V110.2L160.4 109.9L159.6 109L159.5 108.5L159.8 107.3H159.5L159.3 107.7L159.1 108.2L159 109.3L159.1 109.5L159.7 110.1L159.8 110.4V110.5V110.6L159.7 110.8L159.4 111.1V111.2L160.2 111.4V111.5H160.3H160.4L160.5 111.6V111.7L160.4 111.8L160.2 112.2L160 112.5L159.9 112.7L160 113.6L159.9 114L159.5 114.2L159.1 114.3L156.9 115.1L156.1 115.6L155.5 116.3V117.2L155.6 117.5L155.8 117.7L155.9 118L156 118.3L155.9 118.8L155.5 119.1L155.1 119.3L153.3 119.8L152.6 120.3L151.7 120.6L151.3 120.7L150.2 121.6L150 121.9L149.4 122.2L149.2 122.4L149.6 122.7L150 122.8H150.5L150.9 122.6L151.1 122.4L151.2 122.3L151.4 122.2L151.8 122.1H151.9L152.1 122.2H152.2L152.3 122V121.9H152.8L153.2 122L153.6 122.2L153.7 122.5L153.4 123.1L153 123.6L153.8 124.3L154.1 124.8L153.7 125.7L154 127L153.9 127.4L153.5 127.9L153.3 128.1L151.9 128.4L151.5 128.7L151 129.1L150.6 129.6L150.4 129.9H150.6L151.5 129.5L152.2 129.3L152.5 129.6L152.6 130.4L153 130.6L153.5 130.5L154.7 129.9H155.1H155.3L155.4 130.1V130.4L155.6 130.7H155.8L156 130.5L156.4 130.3L156.7 130.2L156.8 130.4V131L156.2 133.8L156.1 133.7L154.1 133.1L152.6 132.8L148 132.5L147.4 132.4L145.7 132.3L145.3 132.2L144.7 131.9L144.5 132L144.3 132.1L143.9 132.4L143.7 132.6L143.3 132.7L143.2 132.8L143.1 133.1L143 133.3L142.8 133.4L142.3 133.5H142.2L142.1 133.4L141.9 133.1V132.9V132.8L141.7 131.6L141.2 130.2L141.1 129.8L141.3 128.4L141.5 127.5L141.3 127.3L141.1 127.2L140.5 127.1L140.2 126.9L139.9 126.6L139.7 126L139.6 125.7L139.7 125.3V125.1L139.8 124.7L139.7 122.3L138.9 120.3L138.8 119.8L138.7 119.4L138.6 119.2L138.2 118.8L138.1 118.5L138 118.2L137.9 117.6L137.8 117.3L137.5 117.2L137.2 117.1L136.3 117L137.1 116L137.5 115.6L137.7 115.4L138 115.3L138.5 115.2L138.8 115.3H139L139.3 115.2L139.6 114.9L139.9 114.5L140.9 112.6L141 112.2L141.1 111.2L141.2 110.9L141 108.5L140.6 108.6L140.3 108.7L140.1 108.9H139.9H139.8H139.7L139.6 108.7L139.4 108.5L139.2 108.2L138.8 107.8L138.7 107.7L138.5 107.3L138.4 107.1L138 106.7L137.8 106.5L137.5 106.4L137.3 106.3H137.2H137L136.4 106L135.7 105.8L135.5 105.7L135.3 105.6L134.3 104.8L134.2 104.5L134.1 104.3L134.2 104L134.1 103.7L134 103.4L133.4 102.6L133.3 102.3L132.8 99.9999V99.1999L132.7 98.7999L132.6 98.4999L131.6 97.0999L131.2 96.3999L131 95.6999L130.9 95.2999L130.8 94.2999L130.7 93.9999L130.5 93.1999V92.7999V91.3999L130.7 90.6999L130.8 90.2999L131.3 89.3999L131.4 89.1999L131.5 88.9999L131.7 87.5999L131.8 87.1999L131.9 86.9999V86.8999V86.7999L131.8 86.6999H131.7L131.1 86.5999L130.5 86.3999H130.3L130 86.4999H129.6H129.3L128.8 86.8999L127.2 88.6999L127 89.0999L126.9 89.1999L126.8 89.2999L126.6 89.4999L126 89.6999L125.8 89.7999L125.1 90.4999L125 90.5999H124.8L124.6 90.2999V90.0999V89.7999L124.7 89.5999L124.6 89.3999V89.2999L124.5 89.0999L124.4 88.8999V88.6999L124.5 88.3999L124.8 87.3999L125.4 85.8999L125.5 85.5999L125.4 85.3999V85.0999L125.3 84.8999L125.1 84.3999L124.6 83.6999L124.5 83.4999V83.2999V82.7999V82.5999L124.4 82.2999L124.3 81.8999L124.2 81.6999L124.1 81.3999V80.7999L124.2 80.4999L124.4 79.7999L125.6 77.4999L125.7 77.3999L126.2 76.9999L126.4 76.6999L126.6 76.4999V76.1999V75.9999L126.5 75.7999L126.4 75.4999L126.3 75.2999L126.2 74.3999L126.1 74.2999L125.9 73.9999L125.8 73.7999L125.7 73.5999L125.6 73.3999L125.4 73.2999L125.3 73.1999L125.1 73.0999H125L124.9 72.8999L124.7 72.5999L124.6 72.4999L124.4 72.3999H124H122.9L122.7 72.4999L122.6 72.5999L122.4 72.8999L122.2 73.0999L121.8 73.1999L120.8 73.3999L119.8 73.6999L119.2 74.0999L118.8 74.4999L118.4 74.6999L112.8 75.3999L112.4 75.2999L112.1 75.1999L110.6 74.9999L110.3 74.8999L110 74.6999L109.5 74.3999L109.2 74.1999H108.9L108 74.0999L107.2 74.1999H106.3H106L105.6 74.3999L105.4 74.5999L105.2 74.8999L105 74.9999L104.7 75.0999L103.9 75.1999H103.5L102.7 75.5999L102.4 75.6999L101.4 75.7999L100.9 75.9999L101.1 75.2999L101.2 75.0999L101.5 74.7999L101.7 74.5999L102.1 74.3999L102.3 74.2999L102.8 73.5999L103.5 72.7999L103.7 72.4999L103.8 71.9999V71.4999V71.1999L104 70.7999L104.2 70.3999L104.3 69.9999L104.2 69.5999L104.1 69.3999L104 69.1999L103.8 69.0999H103.6H103.4L103 69.2999H102.8H102.7L102.6 69.1999L102.5 68.9999V68.7999L102.6 68.3999V68.1999V67.8999V67.6999L102.7 67.4999L103 67.1999L103.3 66.9999L104.3 66.5999L104.9 66.0999L105.1 65.9999L105.4 65.7999L105.6 65.6999L107.5 64.0999L107.7 63.8999L108.2 63.6999L108.7 63.1999L108.9 63.0999L109.1 62.9999L109.3 62.7999L109.4 62.4999V62.0999V61.6999L109.3 61.3999L109.1 60.9999V60.6999V60.3999L109.4 58.7999V58.4999Z" fill="#C8A668"/>
</svg>
