<svg width="210" height="218" viewBox="0 0 210 218" fill="none" xmlns="http://www.w3.org/2000/svg">
<path d="M77.7 215.9L77.8999 216.1L77.7999 216.3L77.4999 216.4L77.2999 216.5L76.7999 216.6L76.2 216.5H75.5999L75.2 216.4L75.0999 216.3L74.8999 216.1L74.7999 215.9L74.8999 215.7L74.9999 215.5L75.0999 215.3L75.2 215.1L75.4999 215L75.8999 215.2L76.4999 215.1L76.9999 214.9L77.3999 214.8L77.5999 215L77.7 215.6V215.9ZM93.4999 215L93.7 215.3L93.5999 215.6L93.4999 215.9L93.2999 216.1H93.0999H92.7999L92.4999 216L92.2999 215.7L91.8999 215.6L91.7 215.7L91.5999 215.8L91.2999 215.9L90.7 215.8L89.9999 215.3L89.7 214.9L90.2 214.6L90.7999 214.4L92.7 214.6L93.4999 215ZM68.0999 214L68.3999 214.3L68.7 214.7L68.5999 215.1L68.0999 215.3H67.7L66.9999 215.6L66.5999 215.7L66.2 215.6L65.7 215.1L65.2999 215L66.8999 214L67.2999 213.9H67.7L68.0999 214ZM57.7 211.4L57.8999 211.6L57.9999 211.9V212.3V212.6L57.7999 213L57.3999 213.1L56.3999 212.8V212.6L56.4999 212.4V211.8V211.6L56.7999 211.3L57.0999 211.2L57.3999 211.3L57.7 211.4ZM134.6 203.5L134.9 203.3L135 203.2L135.1 203.3L134.9 204.1L134.7 204.5L134.3 204.7L133.5 204.5L133.2 204.6L133.4 205.1H132.2L131.9 204.9L132.2 204.3L132.3 204.1L132.5 204L132.7 203.9H133.3L133.6 203.8L133.9 203.6L134 203.5H134.1V203.6H134.3H134.4L134.6 203.5ZM131.9 201.6H132L132.2 201.7L132.3 201.8L132.2 201.9L132.1 202L132 201.9L131.9 201.8L131.7 201.7L131.6 201.8L131.4 201.9L131.3 202H130.5L129.7 201.8L129.4 201.7V201.5V201.2L129.7 200.6L129.8 200.7L130.4 201.2L130.7 201L130.9 201.1L131.2 201.2L131.4 201.3L132.1 201.2H132.2L131.9 201.6ZM136 199L136.1 199.1V199.2L135.8 199.4L135 200.2L134.8 200.3L134.6 200.4L134.4 200.5L134.3 200.8L134.1 201H133.9H133.6V200.9L133.8 200.8V200.7L133.9 200.5H133.4L133 200.6H132.6L132.3 200.3L132.2 200L132.3 199.7L132.6 199.4L132.9 199.2L133 199.1L133.2 199.2H133.5H133.8L135 199.1L135.3 199H135.5L135.7 198.9H135.8L136 199ZM138.1 197.5L138.3 197.3H138.4V197.4V197.6L138.3 197.7L137.9 198L138 198.3L137 198.1L136.8 198L136.9 197.9L137.1 197.8L137.3 197.5L137.6 197L137.7 196.8L137.8 196.9L138.1 197.4V197.5ZM144.3 184.5L144.8 184.6L144.9 184.8V185.1L144.5 185.5L144.1 185.3L143.8 185.6L143.7 186L144.2 186.3L144 186.6L143.7 186.8L143.4 187L142.9 186.5L143.1 185.7L143.7 184.9L144.3 184.5ZM205.8 182.7L206.1 182.9L206.3 183L206.4 183.3V183.6L206.3 184.2L206.1 184.6L206 184.8L205.8 185.1L205.3 185.8L205.2 186.1L205.1 186.4L204.8 186.3L204.1 185.9L204.3 185.6V185.5V185.1L204.4 184.9L205 183.9L205.2 183.2L205.3 182.9L205.4 182.8L205.6 182.7H205.8ZM203.9 179.4L203.8 179.8L203.5 180.1L202.8 180.4L203 180.8L202.9 181.3L202.6 181.5L202 181.2L201.8 181L201.6 180.7V180.4V180.2L201.5 180L201 179.5H200.8H200.5H200.3L200.2 179.3L200.1 179.1L198.9 178.6L198.8 178.4L198.7 178.2L198.8 178L198.9 177.8L199.1 177.6L199.2 177.5L199.5 177.4L199.6 177.3L199.9 177L200 176.9L200.2 176.8L200.3 176.7H200.5H200.7H200.8L201 176.9L201.6 177.2L201.8 177.4L202.3 178L202.6 178.2L203 178.4L203.2 178.5L203.5 178.7L203.8 179.1L203.9 179.4ZM208.5 176.7L208.8 176.6L209.1 176.7L209.3 177L209.4 177.3V177.7L209.2 178.1L208.9 178.8L208.4 180.2L208.2 180.4L207.9 180.2L207.6 180L207.5 179.8L207.8 179.6V179.5L207.5 179L207.6 178.4L207.9 177.9L208.3 177.8V177.2L208.4 176.9L208.5 176.7ZM199.3 176.1H199.5L199.7 176.3L199.9 176.4L200.2 176.5V176.6L199.7 176.7L199.4 176.9L199.1 177.3L198.7 177.6H198.5V177.5L198.4 177.4L198.3 177.1L197.9 176.7L197.6 176.6L197.5 176.7L197.3 176.5L196.5 175.8L196.2 175.1L195.9 174.9L195.5 175.1L195.1 174.9V174.6L195.4 174.3L195.6 174L195.5 173.7H195.2L194.6 174.1L194.2 173.4L194.1 172.5L194.3 171.7L194.9 171.1V172L195 171.9L195.9 171.5H196.1L196.3 171.6L196.5 172.3L196.6 172.5H196.7L196.8 172.4L197.2 172.2L197.1 172.5L196.7 172.9L196.5 173.2V173.6L196.6 173.9L196.9 174.2L197.2 174.6L197.5 174.5L197.8 174.7L198.4 175.7L198.6 175.8H199L198.8 176L198.9 176.1H199.3ZM168.1 163.2L168 163.6L168.1 163.9L168.2 164.2L168.4 164.5L168.3 164.6L168.2 164.7H168.1L168 164.5L167.9 164.4L167.8 164.2V164.5L167.7 164.6L167.6 164.7L167.4 164.6L167.3 164.5L167 163.7V163.1L167.1 162.5L167.4 162L167.8 161.6L167.9 161.8V161.9V162.1L167.8 162.3L167.9 162.2L168.1 162.1H168.2L168.3 162.2V162.4L168.1 163.2ZM158.6 161.3L159.1 161.8L159.4 161.9L159.8 161.7V161.9L159.6 162.1L159.5 162.3L159.3 162.4L159 162.5H158.9L158.8 162.4L158.6 162.1L158.4 161.8V161.5L158.6 161.3ZM111.3 141.8L111.4 141.5L111.6 141.4L111.7 141.5V142.3L111.4 142.5H111.1L110.7 142.6L110.6 142.4L110.4 142.3H110.2H109.9L110.2 142.1L111.1 142L111.3 141.8ZM57.9999 127.7L58.2999 128L58.3999 128.3L58.4999 128.8L58.2999 129.1L58.2 129.3V129.5L57.8999 129.7L57.4999 129.6L57.2 129.5H56.7999L56.5999 129.3L56.2999 129L56.0999 128.7V128.3L56.7 127.6L56.9999 127.5H57.2999L57.9999 127.7ZM65.5999 117.6L65.7999 117.9L66.0999 118.2V118.5L65.7 118.6L65.2999 118.5L64.5999 118.2L63.7 118L63.3999 117.8L63.0999 117.6L62.8999 117.3H62.9999L63.4999 117V116.9L63.7 116.7L63.7999 116.6V116.5H63.8999H63.9999H64.5999L64.8999 116.8L65.5999 117.6ZM68.7 114.7L68.8999 114.8L68.9999 115.1V115.4L69.0999 115.7L68.8999 116.1L68.7999 116.3L68.5999 116.4L68.0999 116.3L66.7999 116.5L66.3999 116.3L66.0999 115.9L66.3999 115.5L66.9999 115L67.3999 114.6H68.0999L68.2999 114.5L68.3999 114.4L68.4999 114.5V114.6L68.5999 114.7H68.7ZM72.2999 109.8L72.5999 109.9L72.8999 110.1L73.0999 110.3L72.9999 110.4L72.7999 110.5L72.5999 110.9L72.4999 111L72.3999 111.2L72.2 111.7L72.0999 111.8L71.8999 112L71.5999 112.1H69.9999H69.7999L69.7 111.8L69.9999 111.5L70.2999 111.3L70.5999 111.2L70.7 111.1H70.7999L70.9999 110.8L71.0999 110.7H71.2L71.2999 110.8H71.3999L71.7 110.6L71.7999 110.4L71.8999 110.2L71.7 109.8H72.2999ZM74.9999 213.5L75.5999 213.9L75.7 214.1L75.4999 214.4L74.4999 215.3L74.2 215.4L73.9999 216L73.7 216.1L73.2999 216L73.0999 215.9L72.2 215.3L71.9999 215.2H71.7L70.4999 215.1L70.0999 215L69.7999 214.8L69.2999 214.4L69.0999 214.1L68.9999 213.7L68.8999 213.5L68.7 213.3L68.4999 213.2V213L68.7 212.9H68.8999H69.0999L69.8999 212.8L70.5999 213L71.9999 213.5L73.4999 213.7H74.2999L74.9999 213.5ZM134.7 213.5L135 213.4L135.3 213.3L135.7 213.2L136.1 213.4L135.7 213.9L135.1 214.2L134.5 214.4L133.7 215L132.3 215.6H132.1L131.6 215.5L130.6 215.8L130.4 215.9L130.5 216.5L130.4 216.8L130.1 217L129.2 217.6L129 217.8L128.8 217.9H127.8L128 217.5L128.9 216.6L129.3 216.2L129.4 215.9L129.6 215.7L129.9 215.5H130.1L130.6 215.2L130.8 215.1L131 214.8L130.9 214.6L130.8 214.4V214L130.9 213.7L131.1 213.5H131.3L131.6 213.7L132 213.8L132.8 212.8L133.3 212.5L133.5 212.7L134.2 213.4L134.1 213.5L134 213.7L134.1 213.8L134.3 213.9L134.4 213.8L134.6 213.5H134.7ZM109.6 208.4L109.9 208.5L110 208.8V209.2L109.9 209.5L109.7 209.8L109 210.5L108.4 211.8L108.3 212L108 211.9L106.7 211.6L106.6 211.4L104.7 209.3L104.5 208.9L104.6 207.6L104.8 207L105.5 206.8H107.3H107.4L108 207L108.1 207.1L108.3 207.2H109L109.2 207.3H109.4L109.6 207.5L109.7 207.6V207.8L109.5 208.3L109.6 208.4ZM50.2 205.4V205.7V205.8L50.0999 206L49.8999 206.1L49.7 206L49.4999 205.9L49.2999 205.8L48.3999 205.9L47.9999 206L47.7 205.8L46.0999 206.4L45.8999 206.5L45.3999 206.9L45.2999 207L44.8999 207.1L44.7 207.3L43.5999 208.6V208.8V208.9V209.1L43.4999 209.3L43.2999 209.5L42.9999 210L42.7999 210.2L42.5999 210L42.2 209.6L41.9999 209.5H40.9999L40.4999 209.4L39.5999 209.2L38.9999 209.1L37.3999 209.3L36.9999 209.2L36.7 208.9L36.2999 208.6L35.8999 208.5L35.3999 208.7L35.0999 208.5L34.7 208.6L33.5999 208.7L33.2 208.9L32.9999 209H32.5999H32.2999L32.0999 209.1V209.2V209.4L31.9999 209.5L31.8999 209.6H31.7H31.5999L29.8999 211L29.4999 211.2L29.2 211V210.7L29.3999 210.3L29.5999 209.9L29.7999 209.8V209.5V208.1L29.8999 207.9L30.2 207.6L30.3999 207.4L30.7 207.3L30.9999 207.2L31.2 206.8V206.3L31.2999 206L31.3999 205.9L31.7 205.8L31.7999 205.7L31.8999 205.6L32.0999 205.3L32.5999 204.4L32.7999 204.2L32.9999 204.1L33.2 204L33.4999 204.1L34.0999 204.4L34.2 204.5L34.2999 204.7H34.4999L37.5999 205.1H37.8999L38.4999 204.7L38.7999 204.6H39.2L39.5999 204.7L40.0999 204.8L40.4999 204.7L41.4999 203.7L42.5999 203.3L43.2 202.8L43.5999 202.7L45.5999 202.3L45.7999 202.1H45.9999L46.0999 202.2V202.6V202.8L46.2 203L46.3999 203.2L47.2999 203.6L47.4999 203.8L47.7 204L47.8999 204.2L48.2 204.3L49.3999 204.2H49.7L49.8999 204.5L49.9999 204.8L50.0999 205.1L50.2 205.4ZM62.7 201.4L62.9999 201.5L63.0999 201.8L62.9999 202.5L62.8999 202.7L62.5999 202.9L61.8999 203.1L61.7 203.2H61.5999L61.4999 203.3L61.2999 203.7L61.0999 203.9L60.7999 204H60.4999L60.2999 203.7V203.3V203.2L60.3999 203L60.5999 202.9H60.7L60.7999 202.8L60.8999 202.6L60.7999 202.3L60.5999 201.6V201.3L60.7999 201L60.9999 200.9L61.7 201L62.0999 201.3L62.3999 201.4H62.7ZM146.3 195.4H146L145.9 195.3L145.7 195.4L145.5 195.6L145.3 195.8L145.2 196L145.3 196.5V196.9V197.1L145.7 197.8L145.9 198.1L145.8 198.3L145.6 198.6L145.7 198.8L145.9 198.9L146.1 199L146.3 199.1V199.2L146.4 199.1H146.5V199.2V199.4H146.4H146.3V199.5L146 199.9V200.3L145.9 200.5L145.7 200.6H145.6L145.7 201.1L145.6 201.5L145.4 202L145.2 202.9L145 203.3L144.7 203.6L144.4 203.7L144.3 203.8L144 204.6L143.9 204.8L143.6 205L143.2 205.1L142.7 205.2L142.3 205.4L142.5 205.8L142.3 206L142.2 206.1L142 206.2L141.8 206.1L141.9 206.5L141.7 206.8L141.4 206.9L141.2 207L141.1 207.1L140.2 207.8L140.1 208.1L140 208.3V208.7L139.8 208.9L139.6 209.1L139.4 209.3L139.2 209.6H139.4L139.6 209.7V209.8L139.5 210L139.4 210.1V210.3V210.4L139.3 210.6L139.1 210.9L138.8 211.2L138.4 211.4L138.3 211.1L138.6 210.3L138.7 209.9L138.5 209.8L138.3 209.7L138.2 209.6H138.1L137.9 209.8L137.8 209.9L137.7 210.4L137.6 210.6L137.1 210.9L136.3 211L134.8 210.9L134.6 210.7L134.7 210.3L135 209.4V209.1L134.8 208.8L134.6 208.7H134.3L134.2 208.3L134.3 207.8L134.5 207.4L134.9 207.2H135.1L135.4 207.3H135.5L135.7 207.1V206.9L135.6 206.7L135.4 206.6L135.3 206.5V206.4H135.6V206.2L135.5 205.9V205.7L135.4 205.8L135.2 205.7V205.6L135.1 205.4H135V205.5H134.9L134.8 205L134.9 204.7L135.3 204.6L135.7 204.7L136.5 205.1L136.9 205.2L137.5 205L137.1 204.9L136.7 204.8L136.4 204.5L136.1 203.9V203.7L136.3 203.6V203.5L136.4 202.8L136.5 202.5L137 201.8V201.5L137.1 201L137.3 200.6L137.5 200.3L138.7 199.3L139 199.2L139.1 199.3L139.3 199.5L139.4 199.6H139.5L139.6 199.4L139.9 198.8L140 198.7L140.1 198.6L140.2 198.5L140.3 198.3H140.2V198.1V197.9L140.4 197.8L141.5 197.6V197.5L141.4 197.3V197.1L141.5 196.7L141.7 196.5L142.1 196V195.8L142.2 195.6L142.3 195.5L142.5 195.4H142.9H143.1L143.3 195.3L143 194.7V194.3L143.1 194L143.8 193.5L144.2 193.3L144.7 193.1H145.1L145.4 193.2L145.6 193.5L145.4 194.2L145.5 194.3L145.7 194.2L145.9 194.1L146.2 193.7L146.4 193.5L146.6 193.7V193.9L147.1 194.8H147.2L147.1 195L146.9 195.2L146.6 195.4H146.3ZM151.9 194.7L152 195.4L151.9 195.8L151.6 196L151.4 195.9L150.7 195.4L150.6 195.2L150.4 194.5L149.9 194.2L149.2 194.1L147.8 194.2L147.2 194.1L147 193.7L147.5 193.1L149.9 193L150.3 193.1L150.7 193L151 193.1L151.2 193.4L151.3 193.7L151.4 194L151.8 194.4L151.9 194.7ZM86.3999 193.6L86.2 193.8L86.3999 194.1L86.5999 194.3V194.5L85.7999 195.3L85.4999 195.1L84.7 194.5L83.9999 194.2L83.7 193.9L83.5999 193.5L83.7999 193.1L84.2999 192.7L84.8999 192.4L85.3999 192.2L85.5999 192.3L85.8999 192.6L86.0999 192.7L86.2 192.8H86.5999H86.7L86.9999 193.1V193.4L86.7999 193.6H86.3999ZM201.4 182.5L201.9 182.6L202.2 182.7L202 182.9L201.9 183.1L201.8 183.5L201.7 183.7L201.2 184.2L200.7 184.1L200.3 184L199.8 184.1V184.2H200.2L200.4 184.5L200.5 184.6L200.4 184.8L200.2 185L199.9 185.2L199.7 185.3L198.7 187L199 187.1L198.9 187.3L198 188.1L196.7 188.6L195.9 189.1L195.5 189.3L195 188.4L194.7 188.1L194.6 188L194.4 187.9L193.6 187.7L193.3 187.5L193.1 186.8L192.9 186.4V186.2V186L193.2 185.3L193.5 183.8L193.9 180.5L194 180.1L194.2 180V180.2L194.4 180.5L195.5 180.7L196 181.1V180.8L195.6 180.2V179.9L194.6 180L194.2 179.4L194.4 177.5L194.2 176.8L193.8 175.5V174.8L193.9 174.6L194.1 174.4H194.3L194.5 174.5L194.7 174.8L194.9 175L195.1 175.3L195.8 175.5L196.1 175.7L196.7 176.3L197.3 176.8L197.6 176.9H197.7L197.8 177.1V177.3L197.7 177.5L197.5 177.7V177.8L198 178.4L198.4 178.8L198.8 179L199.6 179.1L199.9 179.3L200.2 179.6L200.5 179.9H200.6L200.7 179.8L200.9 179.9L201 180V180.1V180.2V180.3L201.4 180.9V181.1H201.5V181.2L201.6 181.3L201.5 181.4H201.4L201.3 181.5V181.6L201.4 182.5ZM168.1 166.8L168.3 167L168.4 167.4L168.2 168.3L168.1 168.7L167.9 169.1L167.6 169.5L167.3 169.8L167 170L166.7 169.7L166.6 169.2L166.4 168.9L166.5 169.2L166.4 169.4L166.3 169.6H166.1H166L165.9 169.5L165.6 169.1V169.2L165.5 169V168.8V168.3V168.2L165.4 168.1V167.9V167.8H165.5H165.6V167.7V166.7V166.2H165.9L165.8 166L165.6 165.3H165.5H165.4L165.2 165.2L165.3 165.1V165L165.4 164.9V164.7V164.6H165.3H165.2H165V164.4V164V163.9L164.8 163.7L164.7 163.6L164.6 163.4L164.5 163.1L165.3 163.5H165.4L165.6 163.3L165.9 163.1L166.1 163L166.2 163.4L166.1 163.7L166 163.9L165.9 164L166.2 164.2H166.4L166.7 164.1H166.8L166.9 164.2L167 164.4V164.8L167.3 165.5V165.7L167.4 165.5V165.4H167.5L167.6 165.8L167.7 166.3L167.8 166.6L168.1 166.8ZM206.8 174.1V174.3V174.5L206.7 174.6L206.6 174.8V175L206.7 175.4L206.6 175.6L206.5 175.8L206.1 176.6L206 176.9L205.7 177.4L204.3 178L203.9 178.4L203.4 178L203.1 177.9L202.9 178.1H202.8L202.5 177.7H202.4V177.6L202.1 177.2H202L201.8 177L200.9 176.5L200.7 176.3H200.5L199.3 175.8L199.2 175.7L199.1 175.6V175.5V175.4H198.9H198.8V175.5H198.6L198.4 175.4L198.3 175.2L198.2 174.9L198.1 174.8L197.6 174.1L197.3 173.4V172.7L197.6 172.1L198 171.9L198.4 172H198.7L199.1 171.7V171.5H198.4L198 171.6L197.8 171.3L197.9 171L198.1 170.7L198.2 170.3L198 170.1L197.5 169.5L197.6 169.4L197.8 169.3L198 169.1L198.2 168.8V168.4L199 168L198.8 167.7V167.6L199.3 167.1V166.9L199 166.6L198.8 166.9L198.6 167.1H198.4L198.3 166.7L198.1 166.5L197.8 166.4H197.1L196.7 166.2L196.4 166.1L195.9 165.6L195.8 165.3L196.1 165L196.5 164.7L196.9 164.6L197.3 164.8L198 165.3L198.4 165.4L198.8 165.3L198.9 165.1L199 164.8L199.1 164.5L199.3 164.3L199.6 164.1L199.8 163.9L199.9 163.6L200 163.3L200.9 161.7L201 162.1L201.2 162.2L201.4 162.1L201.6 161.9L201.8 162V161.6V161.4V161.3L201.6 161.1V161V160V159.9L201.7 159.8L201.8 159.7H201.9H202H202.1L202.2 159.8L202.3 159.9H202.5L203.1 159.6H203.3L204.3 160L204.4 160.2L204.7 160.9L204.9 161.2L205.5 161.5L205.6 161.7L205.5 161.8L205.1 162L205.2 162.1L205.3 162.2V162.6H205.2V162.4L204.7 162.5L204.5 162.6L204.4 162.8H204.6H205.1L205.3 162.9L205.5 163L205.9 163.2L206.4 163.8L206.8 164.5L206.5 164.7L206.2 165.3L206.1 165.8L206 166.1H206.2L206.3 166.2H206.4L206.5 166.3V166.5L206.4 166.8L206.3 167.1L205.9 167.5L205.7 167.7L206.2 167.8L206.5 168L206.8 168.2L206.7 168.6H206.8L206.9 168.7L207 168.8L206.8 169L206.4 169.2L206.2 169.4L206.1 169L205.9 168.9L205.7 169.1L205.6 169.4L205.7 169.5L206.2 169.8L206.4 169.9H206.2L206.4 170.4H206.1L205.6 170.3L205.2 170L205.1 169.9L205 169.8L204.8 169.7L204.5 169.6L204.2 169.7L204 169.8L203.8 169.9L203.7 170H204.6L204.8 170.1L204.9 170.5L205.1 170.7L205.9 171.4L206.2 171.6L207 172.5L207.1 172.8L207 173.3L206.8 173.7L206.4 174.1L206 174.3L205.9 174.2L205.7 174.1V174.4L205.6 174.6L205.5 174.7L206.5 174.4L206.8 174.1ZM175.7 157.3L175.8 157.6V158L175.7 158.3L175.5 158.5L175.3 158.7L174.8 161.5L174.3 163L174.2 163.2L173.6 163.7L173.4 163.8H173.3L173 164L172.7 164.1L172.6 164.3L172.4 164.6L172 165L171.6 165.6L171.2 166.3L171.1 166.9V167.3L171.2 167.9V168.3L171.1 168.5L169.2 170.8L168.9 170.9V170.7L170.1 167.3L170.6 166.8L170.7 166.6V165.3V165L171.4 163.9H171.7L172 164.1L172.1 164L172.4 163.2V162.4L172.5 162L172.8 161.3L173.6 159L174 158.4L174.1 158.1L174.2 157.3L174.5 157L174.8 156.8L175.2 156.9L175.5 157L175.7 157.3ZM147 145L147.3 145.4L147.4 145.9L147.3 146.4L147.1 146.5L146.9 146.3L146.8 145.8L146.9 145.3L147 145ZM144.5 139.8L144.6 139.7H144.8L144.9 139.8H145L145.4 140.3L145.8 141L146 141.7L145.6 141.9L145.5 141.7L144.7 140.1L144.5 139.8ZM139.7 133.7L140.1 134.1L140.3 134.3L140.1 134.4L139.5 133.9L138.5 133.6L138.4 133.5L138.2 133.3L138.1 133.1V132.9V132.8V132.7V132.6H138.2L138.3 132.5L138.4 132.6L138.5 132.8L138.8 133L139.7 133.7ZM137.2 131L137.3 131.1L137.4 131.2V131.4L137.5 131.5V131.9L137.4 132.1L137.2 132.2L137 132.1L136.8 131.7L136.7 131.2L136.6 130.9L137.2 131ZM141.3 132L141.5 132.4L141.3 132.6L140.9 132.5L140.4 132.2L140.2 131.9L139.8 131L139.7 130.7L139.8 130.5L140 130.4L140.3 130.3L140.7 130.5L141 131L141.1 131.6L141.3 132ZM88.8999 124.2V124.4L88.9999 124.6L89.0999 124.7L89.2 124.9L88.8999 125.2L88.5999 125.4L88.2 125.3L87.9999 125L87.8999 124.6L88.2 124.2L88.4999 124.1L88.8999 124.2ZM83.5999 122L83.8999 122.3L84.2 122.8L84.2999 123.2L83.9999 123.4L83.5999 123.5L82.8999 123.7L82.0999 123.8L81.7 123.9L80.8999 124.2L80.7999 123.9L80.8999 123.5L81.0999 123.1L81.2 122.8V122.5L81.2999 122.2L81.3999 122L81.5999 121.8L82.2999 121.6L82.5999 121.8L83.2999 121.9L83.5999 122ZM79.7 121.6L80.0999 122L79.9999 122.2L79.7 122.5L79.5999 122.8L79.7 123.2L79.7999 123.6V123.9L79.2999 124.1L79.2 124L78.7999 123.8L78.4999 123.7H78.3999H78.2L78.0999 123.8V124L78.5999 124.7L78.7 124.8L78.5999 125L78.2 125.5L77.8999 125.8L77.3999 125.9L76.7999 126L76.3999 126.1L76.0999 126.4L75.7 126.7L75.0999 126.8L75.2 126.6L75.7 126.3L75.7999 126.2L76.2 125.4L77.2 124.7L77.4999 124.3L77.2 124.1L76.7999 124.3L75.9999 124.9L75.2999 125.2L74.7999 125.5L74.2999 125.6L73.9999 125.7L73.5999 126.1L73.2999 126.5L72.8999 126.8H72.2999L71.8999 126.6L71.7 126.3V125.9L71.3999 125.4L71.4999 125.2L72.3999 124.2L72.8999 123.8L73.8999 123.1H74.0999L74.3999 123L76.0999 123.1H76.2999L77.9999 121.8L78.8999 121.5L79.7 121.6ZM87.3999 121.9L87.4999 122.3L87.5999 123.7L87.0999 123.4L86.7999 123L86.3999 122.8L86.0999 123V123.2V123.4V123.6L85.8999 123.8H85.7999L85.5999 123.7L85.3999 123.5L85.2999 123.2H85.3999L85.0999 123L84.8999 122.7L84.7999 122.4L84.3999 121.9L84.2 121.6L84.2999 121.3L84.7 121.2H84.9999L85.2 121.3L85.4999 121.7L85.7 121.8L86.2 122L86.4999 122.2L86.7 121.7L86.8999 121.4H87.0999L87.3999 121.9ZM58.2 120.8V123.5L57.8999 124.2L57.4999 124.5L57.0999 124.6L56.7 124.4L56.2 124.3L55.7999 124.4L53.3999 125.6L53.2 125.7L52.9999 125.8L52.4999 126.5L52.2999 126.7L51.5999 127.1L49.9999 127.5L48.9999 128L48.2999 128.5L47.7999 128.4L47.3999 128.6L46.9999 128.2L46.5999 128L45.2999 127.7L44.7 127.2L43.9999 127.1L42.2999 126.3L41.0999 125.4L40.7999 125.3L39.9999 125.1L39.0999 124.6L38.7 124.2L38.3999 124H37.5999L37.0999 123.4L36.8999 122.7L36.5999 121.9L35.3999 121.1L34.9999 120.7L34.7 120.3L34.3999 119.8V119.7L33.7999 118.6L33.4999 116.4L33.9999 114.9L34.2999 114.5L34.8999 114.1L35.3999 113.7L35.7999 113.9L35.9999 114.4L36.2999 114.7L36.7999 114.9L37.2999 115.1H37.5999L38.0999 114.9V114.4L38.7 113.9L39.4999 113.6L41.9999 112.9L47.8999 112.7L50.2 112.9L50.5999 113.2L50.8999 113.6L51.2999 114L51.7999 113.8L52.0999 114.1L52.4999 114.2L52.9999 114.3L53.3999 114.4L54.0999 114.9L54.4999 115L55.0999 115.3L55.2 115.5L55.3999 115.6L55.4999 115.8L55.5999 116V116.7V116.9H55.4999H55.2L54.9999 116.8L54.7999 116.6H54.4999L54.2 116.9V117.2L54.2999 117.5L54.4999 117.9L54.5999 118.1H54.7999L54.9999 118.4L55.2999 118.7L55.7 118.8L55.8999 118.7L56.0999 118.2L56.2999 118.1L56.4999 118.2L57.2 118.5L58.0999 118.7L58.4999 118.8L58.7 119.1L58.5999 119.5L58.2999 120.4L58.2 120.8ZM130 122.9L130.1 123.1V123.3L130 123.7L129.9 123.9L129.6 124.3V124.4L129.5 124.6L129.2 125V125.2L129 127.8L129.2 128.1L129.4 128.4V128.6L128.9 128.7L128.5 128.6L127.9 128L127.6 127.9L127.2 127.8L125.2 127.1H124.9L124.7 126.9L123.9 126L123.6 125.8L123.3 125.6L122.9 125.5L122.5 125.4L122.2 125.3L121.9 125L121.6 124.5L121.3 124.3L121 124.1L120.6 124L120.2 123.9H119.8L118.9 123.2L115.2 122L114.8 121.7L114.7 121.6H114.5L113.5 121.2L112.8 120.9L112.4 120.6L112.2 120.3V120.2L112 120V119.8V119.2V119.1L111.4 118.4L110.6 118.1L103.7 117.4L103 117.5L102.9 118.1L103.9 119.5L104.1 120.2L103.4 120.7H102.6L100.9 119.9L99.9999 119.6L97.5999 119.4L96.7999 119.2L95.2 118.4L94.5999 118.2H94.0999L92.5999 118.4L92.2 118.5L91.7999 118.1L91.7 117.8L91.8999 117.4L92.5999 116.5L92.2999 116.1L91.9999 115.8L91.5999 115.7H91.2L90.7999 115.5H90.4999L90.3999 115.6V115.7L89.9999 116.2L88.7999 116.6L88.7 116.8L88.4999 117L86.8999 118.4L86.7 118.6V118.7L86.5999 118.8L86.4999 118.9V119.1V119.3L86.7 119.4L86.7999 119.5L86.8999 119.6L86.5999 120L85.7999 120.1H84.7999H83.9999L83.2 120.5L82.7999 120.6L82.3999 120.5L82.0999 120.3L81.3999 119.9L81.0999 119.6L78.7999 115.9L78.5999 115.7L77.7 115.6L77.3999 115.5L76.7999 115.3H76.7V114.8L76.8999 114.3L77.0999 113.7V113.3L76.7999 113L76.4999 112.8L75.8999 113L75.3999 113.5L74.9999 114.1L74.7 114.7L74.4999 115.4L74.2999 117.4L74.2 117.6L73.9999 117.9L73.7999 118.6L73.5999 118.8H73.4999L73.0999 118.9H72.8999L72.7999 119.1L72.7 119.5L72.3999 119.9L72.2 120.3L71.9999 121L71.8999 121.3V121.5L72.0999 121.7L71.9999 121.8L71.7999 122.2L71.7 122.4L71.2 121.9L71.2999 120.9L71.8999 119.2V118.3L71.7999 117.9L71.7 117.7L71.4999 117.6L70.8999 116.8L70.7 115.6L70.5999 115.3L70.0999 114.9V114.8L70.4999 114.6L70.7 114.5H71.0999L71.2999 114.4L71.4999 114.3L71.9999 113.7L72.2 113.6L72.4999 113.5L72.9999 113.1L73.2999 112.9L73.7 112.8H74.0999H74.4999L74.7999 112.9L75.2 112.8L74.9999 112.2V111.9L75.0999 111.7L75.3999 111.4L75.4999 111.2L75.2999 111H74.8999L74.5999 110.9L74.7 110.6H74.8999L75.3999 110.5L75.5999 110.4L75.8999 109.7V109.5V109.4H75.9999H76.0999H76.2999V109.2L76.3999 109L76.4999 108.8L76.5999 108.6H76.8999L77.3999 108.7H80.7L81.3999 108.5L82.2999 108.4L82.9999 108.2H83.3999L83.7999 108.3L84.5999 108.5L85.0999 108.6H88.9999L89.7999 108.8L90.2999 108.7L91.0999 108.6L91.8999 108.4L93.2999 107.8L93.9999 107.6L94.2999 107.9V108.6L94.2 109.4L94.4999 109.6L94.9999 110.4L95.3999 110.6H95.5999L95.9999 110.5H96.2H96.2999L96.3999 110.6H96.4999H96.5999V110.5L96.4999 110.3V110.2V110.1V110H96.7L96.7999 110.1H96.8999L97.0999 110.3H97.2999V110L97.4999 109.8L97.7999 109.6L98.3999 109.4L99.3999 108.8L99.9999 108.6L100.2 108.4V108L100.3 107.7L100.9 107.4L101.7 107.2H103.3L103.5 107.1H103.7V107.3V107.4L103.8 107.5H103.9L105.1 107.7L107.9 108.8L108.1 108.9L108.3 109L108.7 109.6L109 109.8H109.3H109.5L109.8 109.6H110H110.1L110.2 109.8V110L110.5 110.2L110.7 110L111 110.2L111.3 110.4L111.6 110.8L112 111L113.7 111.3H116.9L118.7 111H119.6L120.4 111.4L122.4 113.2L122.7 113.4L124.2 113.9L124.4 114V114.2L124.6 114.9V115L125 115.7L125.2 116.5V118.2L125.3 118.5L125.7 119L125.8 119.3L125.9 119.5H126.2H127H127.8L128.4 119.7L128.9 120.1L129.2 120.6L128.8 120.7V121.1L128.9 121.5L129.2 121.9L129.8 122.5L130 122.9ZM114 206.1L114.3 206.2L114.4 206.3L114.3 206.6H114L113.8 206.4H113.6H113.4L113.2 206.3L113.3 206.2V206.1H113.5H113.7H113.8H114ZM112.9 205.4L113 205.7L112.9 205.9L112.7 205.8H112.6V205.6L112.4 205.5L112.3 205.3V205.1L112.4 205L112.6 204.9L112.8 205V205.2L112.9 205.4ZM106.3 202.3L105.9 202.1V201.8L106 201.6H106.1L106.4 202L106.6 202.1L106.8 202H106.9H107.1L107 202.3L106.7 202.4H106.4L106.3 202.3ZM95.3999 190.8L95.2999 190.6V190.4L95.3999 190.2L95.5999 190.1L95.7999 190.2L95.9999 190.4L95.8999 190.7L95.7999 190.9H95.5999L95.3999 190.8ZM102.5 186V186.1H102.4V185.8L102.6 185.5L102.8 185.4H103H103.2H103.4L103.5 185.6L103.4 185.7L103.2 186.2L103.1 186.3H102.9L102.7 186.2L102.6 186.1V186H102.5ZM113 177.5H112.9L112.7 177.3V177.2L112.8 177.1L113.1 177.2L113.2 177.3V177.5H113ZM64.2999 161.3L64.3999 161.2L64.4999 161.4L64.2999 161.3ZM64.3999 160.9V161.1L64.2 161L64.3999 160.9ZM68.9999 159.3L69.2 159.1L69.2999 159.2L68.9999 159.3ZM68.7999 158.1V157.9L68.8999 158.1H68.7999ZM152 157.4L152.2 157.3H152.5L152.6 157.7L152.3 158.5L152.1 158.6H152L151.9 158.7L151.8 158.8L151.6 158.9L151.5 158.5V158L151.8 157.6L152 157.4ZM107.9 141.7L108 141.6L108.3 141.7L108.2 142L107.9 141.7ZM206.2 181L206.3 181.2L206.4 181.5L206.3 181.9L206 182H205.7H205.6L205.5 182.1L205.2 182.2L204.8 182.1L204.7 181.8L204.6 181.4L204.4 181.1L204.2 180.9V180.7L204.3 180.5L204.6 180.2L205 180.1H205.4L205.8 180.4L206.1 180.7L206.2 181ZM196 166.2L196.3 166.5H196.4L196.3 166.8L196.2 167.3L195.9 167.6H195.7H195.4L195.2 167.2V166.8V166.4L195.4 166.1H195.6H195.8L195.9 166.2H196Z" fill="#C8A668"/>
<path d="M1 90.9L1.29999 91.1L1.39996 91.5V92.5L1.20001 92.3L0.700012 91.8L0.5 91.7H0.299988L0.0999756 91.6L0 91.4L0.0999756 91.2L0.399963 91L0.700012 90.9H1ZM60.7 79.2L60.9 79.8V79.9L60.5 80L60.3 80.1L59.9 80.4L59.7 80.5L59 80.3V79.8L59.4 79.4L59.8 79.3V79.2L59.9 79.1V79V78.9H60.1L60.2 79.1H60.4H60.6L60.7 79.2ZM68.9 7.3H69.2H69.4L69.5 7.5V7.9L69.3 8.4H68.8L68.4 8.2L68.2 7.7L68.3 7.3L68.4 7.2L68.9 7.3ZM77 5.3V5.5L76.5 6.7L76.2 6.9L76 6.7L75.8 6.3L75.7 5.9V5.7V5.5L75.8 5.3L76 5.10001L76.1 4.8L76.2 4.60001L76.3 4.5L76.6 4.60001L77 5.3ZM35 99.3L35.1 99.7L35.3 100.1L35.4 100.4L35.1 100.8L34.5 101.1L33.9 100.8L33.3 100.2L32.9 99.6L32.8 99L32.7 97.7L32.6 97.1L32.4 96.8L31.9 96.4L31.7 96.3L31.6 96V95L31.4 94.5L31.1 94L30.9 93.4V92.7L31 92.4L31.2 92L31.7 91.4L32 91.2L32.1 91.1L32.3 91H32.5L32.7 91.1L33.3 91.6L33.5 91.8L33.6 92V92.2V92.8L33.2 93.8L33.1 94.4L33.2 95.3L34.9 98.9L35 99.3ZM40.1 88.1H40.4V88.3L40.3 88.5L39 89.1H38.7H38H37.6L37.4 89.2L37.3 89.3L37.2 89.4H36.9L36.5 89.3L34.8 89.5H34.6L34.1 89.7H33.4H33.2L32.6 90.2L32.2 90.3L31.8 90.2L31.4 89.9L31.1 89.8H30.8L29.4 90.1L26.1 90L25.7 90.1L24.8 90.4H24.3H23.4L23.1 90.5L22.4 90.7L22.5 90.3V90V89.6L22.4 89.3L22.2 89.2L21.4 88.8L21.2 88.9L21.1 89.3H20.9H20.7L20.6 89.1L20.5 88.9V88.7V88.3L20.7 87.9L21 87.8L21.3 87.7V87.5L21.4 87.4L21.6 87.3L21.8 87.2L21.9 87.3L22.2 87.6L22.4 87.7H22.5L22.9 87.6L23.2 87.4L23.4 87.3L23.5 87.4V87.5V87.7L23.6 87.8H23.7L24.9 87.7H25.5L25.9 88L26.2 87.9L27.7 88.1H27.9L28.2 88L28.4 87.9L28.8 87.6H29L29.4 87.7L30.2 87.8L32.6 87.4H33.5L35.9 87.8L39.3 88L40.1 88.1ZM20.1 87.3L20.2 87.6V89L20.1 89.4H19.9L19.3 89.2H18.8L17.6 89.3H17.4L17 89.2H16.8H16.6L16.2 89.5L16 89.6H15.6L15.2 89.5H14.8L14.5 89.7L14.3 90V90.4L14.1 90.6H13.6L13 90.1H12.8H12.2L11.7 90L10.9 89.6H10.4L9.59998 89.9L8.09998 90.7L7.29999 91.1L5.59998 91.6L5.20001 91.7L5 91.8H4.79999H4.20001L3 91.9H2.59998L2.09998 91.8L1.89996 91.5L1.79999 91.2L0.700012 89.5L0.599976 89.1V88.3L0.799988 87.9L1 87.5L1.39996 86.8V85.8L1.70001 85.1L2.5 84.9L2.79999 84.8L3.70001 84.7L4 84.5L4.29999 84.3H4.5V84.5V84.9L5.09998 84.6L5.79999 84.4H6.59998L7.70001 84.5L8.5 84.8L8.79999 84.9L9 85.1H10.2L11.3 85.6L12.6 85.8H12.7L12.9 85.7H13H13.1L13.2 85.9H13.3L13.8 86.1H14L14.3 86.2L14.5 86.8L14.8 87V86.9H14.9V86.8L15.2 86.9L15.5 87H15.7L16 86.9L15.8 86.8H15.7L15.9 86.5L16.1 85.6L16.2 85.4L16.4 85.5H16.6L16.7 85.6L16.8 85.7L17.5 85.8L17.7 86.2V86.6L17.6 87.4L17.7 87.5H18H18.2L18.3 87.4V87.2L18.4 87L18.6 86.6L18.9 86.4L19.2 86.3L19.5 86.4L19.7 86.6L19.8 86.8L19.6 87L19.5 87.2L19.4 87.4H19.5L19.9 87.3H20.1ZM76 83.6L76.3 84.5L76.2 85.1L75.7 85.6L75 85.9L74.2 86L71.9 85.4H71.5L70.7 85.6L70.3 85.7L67.3 85.6L66.9 85.7L66.6 85.9L66.4 86.1L66.2 86.2L64.6 86.4H63.9L63.2 86.1L62 85.5L60.9 84.4L61 84L61.3 83.2V82.9L61.2 82.6L61.3 82.3L61.6 82L61.4 81.6L61.5 81.3L61.7 80.9L61.8 80.6L61.9 80.1H62L62.5 80.4L62.9 80.8H63L63.2 80.7L63.5 80.2L63.6 80.1L63.7 79.8L65.7 78.4H65.9L67.5 78.7L68.1 78.9L68.5 79.2L68.7 79.5L68.9 79.9L69.3 80.2L69.8 80.4L70.2 80.5H70.4L70.7 80.3L70.9 80.2L71.2 80.3L71.6 80.7L71.8 80.8L73.3 81.9L73.7 82.4L73.9 82.6L74.1 82.7L74.6 82.9L74.8 83L74.9 83.1H75.1L75.3 83H75.4H75.7L75.8 83.2L76 83.6ZM67 76.1L67.2 76.5L67.1 76.8L66.9 77.1L66.6 77.3H66.2L65.1 76.7L64.3 76.6H63.9L63.7 76.8L63.6 77.1L63.3 77L62.9 76.8L62.6 76.7L62.5 76.6L62.8 76.2L63.3 75.6L63.6 75.4L63.9 75.3H64.2L65.5 75.7L65.8 76H66.7L67 76.1ZM59.3 66.8L59.7 67.5V67.8L58.9 68.1L58.7 68H58.6L58.4 67.7H58.3L57.7 67.6H57L56.5 67.4V66.6L56.7 66.2L57 65.8L57.1 65.5L57.2 64.7L57.4 64.4L57.6 64.3H58.2H58.4H58.5L58.6 64.4L58.3 64.7L58.4 65L58.7 65.2L58.8 65.4L58.9 65.5L59.2 65.9L59.3 66V66.2L59.2 66.6L59.3 66.8ZM71 67.2L71.2 67.3V67.4L71 67.7V68L70.7 68.3L69.8 69.1L69.7 69.2L69.5 69.3H69.2H69L68.5 69.6L68.3 69.7L68.2 69.6L67.8 69.3L67.6 69.2L67.1 69H66.9L66.8 68.9V68.8L66.7 68.7L66.5 68.6L66.3 68.5V68.2L66.4 67.8V67.6L66.3 67.4L66.1 67.2L66 67.1L65.8 67L65.7 67.1L65.6 67.2H65.4L65.1 67.3L64 67.9L62.7 68.3H62.4L62.3 68V67.8L62.1 67.4L62 66.5L62.1 66.3L62.7 65V64.8H62.6L62 64.6L61.8 64.5H61.5L61.3 64.4V64.3L61.2 64.1V64L61.1 63.9H60.8L60.7 63.8L60.4 63.3L60.3 63.1L60.2 62.9L59.6 62.4L59.4 62.2L59.2 61.9V61.6V61.2L59.3 60.9L59.6 60.7L59.8 60.4L59.9 60V59.5V59.3L59.7 58.8H59.9L60.3 58.6H60.5H60.8L61 58.8L61.3 59.1L61.4 59.2L61.5 59.3L61.6 59.4L61.7 59.8L61.8 60.1L62 60.3H62.2L62.5 60.2L62.7 59.8L62.8 59.3L62.9 59L63 58.9L63.2 58.8L63.4 58.7V58.6L63.5 58.5V58.3L63.6 58.1L63.8 58L63.9 58.1V58.2L64.6 58.4L64.8 58.5L64.9 58.9L65 59.1L65.5 59.4L65.6 59.6V59.8L65.7 60L65.8 60.2L65.9 60.3L66 60.4L66.2 60.3H66.3L66.4 60.6L66.6 60.7L66.9 61.2L67 61.6L66.8 62.1L65.6 63.5L65.4 63.9L65.3 64.3L65.4 64.6L65.5 64.7L65.7 64.8H66L66.2 64.9L66.3 65V65.7L66.2 65.9L66.3 66.1L66.6 66.3H66.8L67 66.2L67.3 66.1L67.4 66L67.7 65.8H69H69.3L70.2 66.2L70.4 66.4V66.5L70.7 66.8L70.8 67V67.2H70.9H71ZM58 61.8L57.6 62.3L57.3 62.4L56.9 62.5H55.7L55.8 62.4V62.3L55.9 62.2L55.5 62L55.6 61.8L55.9 61.7H56V61.4L55.9 61.2L55.8 60.9H55.7L55.4 60.8V60.6L55.6 60.1V59.6V59.4H55.7L55.8 59.3L55.9 59.2L55.8 58.8L55.7 58.3L55.6 57.8L55.8 57.6H55.9L56.4 57.4L56.6 57.3L56.9 57.2H57.4L57.6 57.1L57.8 57.2L57.9 57.1H58L58.2 57.2L58.3 57.3L58.4 57.6H58.6H59.2L59.3 57.7V57.9L59.2 58L59.1 58.2H59H58.6H58.5L58.4 58.5V58.8L58.6 59.1L58.8 59.3L58.9 59.5L59 59.8L58.9 60.1L58.6 60.3V60.6L58.7 61.1V61.3L58.5 61.6L58.4 62L58.3 61.9L58.1 61.8H58ZM103.6 54.8L104 55.3L104.2 55.6L104.3 55.9L104.2 56.1L104 56.2L103.8 56.4H103.6H103.4L103.2 56.2L102.9 55.9L102 54.4L100.3 53.7V53.4V53.1V52.8L100.1 52.7L99.6 52L99.5 51.9L99.1 51.6L98.9 51.5L98.8 51.4L98.7 51.3L98.8 51.2L98.9 51.1L99.1 51.2L102 53.7L103.1 54.4L103.6 54.8ZM62.5 52.2V52.6V52.9H62.4L62 52.7V52.5L61.9 52.3L62 52H61.9L61.6 51.7L61.5 51.8V51.9L61.4 52L61.3 52.1L61.1 51.6V51.1L61.3 50L61.5 49.2L62.1 49.4L62.3 49.3V49.5L62.1 49.7L62.5 52.2ZM61.3 44.6L61.7 45.1L61.6 45.9L61.2 46.6L60.5 46.5L60.3 46.3L60.1 45.9V45.5V45.2L60.2 45L60.5 44.8L60.9 44.7L61.3 44.6ZM60.9 39.8L60.8 39.6L60.6 39.3L60.5 39L60.8 38.3L61 37.1L61.2 37.2L61.4 37.3H61.5L61.7 37.1L61.8 37.2L61.9 37.3H62L62.1 37.4L62.2 37.7L62.3 38.1V38.6L62.2 38.9L62 39.2L61.5 39.6L61.1 39.9L60.9 39.8ZM60.7 36.6L60.5 37L60.3 37.1L59.9 37.2L59.6 37.1L59.4 37L59.2 36.6L59 36.3V36L59.1 35.6L59.4 35.2L59.8 35.1L60.6 35.5L60.8 35.8L60.9 36.1L60.7 36.6ZM66.6 56.3V55.8L66.9 55L67 54.6V52.3V52.1V51.8L67.2 51.4V51.2V50.7L66.9 50.2L66.8 49.8L66.9 48.9L67.5 46.6L67.6 46.3L67.5 45.9L67.4 45.6L67.2 45.4L67 45.3L66.5 45.4H66.4L65.5 44.6L65.4 44.5V44.4L65.3 44.3L64.9 44.1L64.8 43.9L64.7 43.8V43.6L64.6 43L64.5 42L64.4 41.8L64.3 41.6L64.1 41.5L64 41.4L63.8 41.2V41L63.9 40.1L64.1 38.9L64.2 38L64.4 37.5L65 37.1L65.4 36.6L65.6 36L65.7 35.7L65.5 35.2L64.8 34.9L64 34.8L63.4 34.6L63.2 34.2L63.3 33.9L63.5 33.5L63.6 33.2L63.5 33L63.4 32.6L63.3 32.5V32.4H63.1L63 32.3L63.1 32L63 31.9L63.1 31.7V31.5V31.3L62.9 31.1L62.7 31L62.6 31.1L62.4 31.3H62.3L61.9 31.4L61.6 31.5H61.4L61.3 31.1V30.8L61.4 30.6L61.5 30.5L61.7 30.2L61.8 30L61.9 29.8L61.8 29.4L61.7 29.1L61.5 28.9L61.3 28.6V28.2L61.4 27.8L62 26.9L62.6 26.1L63 24.8L63.8 23.7L64.1 22.9L63.9 22.3L63.7 21.8L63.8 21.3L64.4 20.5L64.2 20.2V20L64.1 19.9L64.2 19.6L64.4 19.5H64.6L64.7 19.4V19.2L64.8 19L64.7 18.8L64.5 18.7L64.4 18.6L64.5 18.5L64.7 18.2L64.9 17.5L65.9 15.8L66.3 15.2L66.8 14.4L67 14L68.2 13.1L68.6 12.4L70.4 10.5L71.1 10L71.2 9.8L71.3 9.5L71.5 9.10001L71.9 8.8L72.3 8.7H72.6L72.9 8.9L73.3 9L74.1 8.5L74.3 8.7V9.2L74.2 9.60001L73.7 10.4L73.5 10.7L73.3 10.9H73.2L73.1 11.1L72.9 11.3L72.5 11.5L72.4 11.7L72.3 12.2L72.1 12.9L71.9 13.3L71.7 13.4L71.3 13.5L71 13.6L70.7 13.8L70.5 14L70.3 14.3L70.2 14.9L70.1 15.5L70.2 16L70.7 16.4L72 16.5L72.3 16.7L72.5 17L73.3 17.7L73.5 18.1L73.3 19.6L73.2 19.8L73.1 19.9L73.2 20.2L73.3 20.3L73.5 20.5L73.6 20.6L73.7 20.9L73.9 21.7L73.8 22.1L73.5 23.2V23.7V24.3V24.5L73.4 24.6L73.3 24.7L73.1 24.8V25L73.2 25.4L73.5 26.1V26.3L73.3 26.4H72.8L72.7 26.5L72.6 26.6L72.4 27.1L72.2 27.3L71.8 27.7L71.6 28.1L71.2 28.9L71.1 29.1V29.2L71 29.3L70.8 29.4L70.6 29.5L70.1 29.4L69.9 29.5L68.3 30.8L66.7 31.7L66 32.3L65.7 33.2L65.8 33.6L66 33.9L66.2 34.3L66.4 34.5L66.7 34.7L67.3 35L67.7 35.3V35.4L67.9 35.8L68.1 35.9L68.2 36H68.4H68.6L69.1 36.3H69.5L69.9 36.2L70.2 36.1L70.7 35.8L71.3 35.3L71.7 34.9V34.6L71.8 32.9V32.5L71.9 32.2L73.1 30.7L73.5 30.4L73.9 30.1L74.3 30L74.7 29.9H76L76.4 29.7L76.7 29.3L77 28.8L77.1 28.5L76.9 28.1L76.7 27.7L76.3 27.6L75.4 27.8L75.1 27.7L75 27.3L75.3 26.9L76 26.4L76.2 26L76.6 25.3L76.9 24.9L77.2 24.6L78.1 24.1L78.4 23.8L78.8 23.6L79.6 23.3L80 23.1L80.1 22.9L80.2 22.5L80.4 22.4L80.5 22.3L81 22.2L81.4 21.8L81.8 21.7L82.3 21.6H82.7H82.8L82.9 21.7L83 21.8H83.2L83.4 21.7L83.6 21.6L83.8 21.2L84.1 21.1L85.1 20.9H86L87.4 21.1H87.5L87.6 21.3V21.5L87.5 21.6L87 22L86.8 22.4L86.7 22.8V23.5L86.8 23.7L86.9 23.8L87.3 24.1L87.5 24.3H87.8L87.9 24.5L87.8 24.7L87.9 25L88 25.5L87.9 26L87.8 26.2L87.4 26.3L87.3 26.7V27.5L87.1 28.5L87 29L87.2 30.3V30.6L87.1 30.9H87L86.7 31.1H86.6H86.3H86L85.9 31.3L84.3 32.2L84 32.4L83.9 32.6L83.7 32.7L82.6 33.1L82.1 33.5L81.9 33.7L81.5 33.8H81.2L79.4 34.3L79.1 34.4L79 34.7L78.9 35.2L79 35.6L79.1 35.8L79 35.9H78.7L78.3 35.7H78.1L77.8 35.8L77.5 36L77.4 36.4V36.8L77.5 37.1L77.8 37.4L78.5 38L79 38.6L79.4 38.9L80 39.1L80.4 39.4L80.6 39.5L81.3 39.4L81.8 39.5H81.9L82.1 39.7L82.4 40L82.6 40.2L82.8 40.3L83.5 40.4L83.8 40.5L84.5 40.8L84.8 40.9L85 40.8H85.4L85.6 40.9L85.9 41L86.1 41.1L86.4 40.9L86.6 41.2L86.7 41.4L86.6 42V42.1L86.5 42.2V42.4L86.7 42.6V42.8V43V44.6L86.8 45.3L87.1 45.6L88.2 45.8L88.4 45.9L89.5 46L90 46.4L90.6 47.1L91 47.7V48L90.2 47.3L89.9 47.2L89.7 47.1L87 46.4L86.6 46.5L86.2 46.2L85.6 46L85 45.9L84.4 45.8L83.8 45.7L83.3 45.3L82.6 44.5L82.3 44.3H82.1H81.5H81.1L80.6 44.2H80.3L79 44.4H78.4L77.8 43.9L77.3 44.1L76.9 43.8L76.5 43.4L76.2 43.1L74.6 43H74.3L73.8 42.8H72.8L72.4 42.6L72 42.9L71.7 43.2L71.4 43.5L71.1 45.1L70.9 45.5L70.8 45.7V46.2L71.3 46.7L71.4 47.1L71.6 49.2V49.5L71.4 49.8L71.1 50.1L71 50.4L70.9 50.8V51.7L71 52.5L71.3 53.1L71.9 54.2L72.3 55.4L72.6 56L72.7 56.9L72.8 57.3L73 57.7L73.5 58.3L73.6 58.6L73.7 59L73.9 60L74 60.3L74.8 61.6L75.1 62.4L75.7 62.9L75.9 63.2L77.7 66.2L78.8 67.3L79.9 68.2L80 68.4L80.5 69L80.8 69.3L81.5 69.6L81.8 69.8L81.9 70.1H81.7L81.2 69.8L80.5 69.6L78.8 69.5L78.4 69.4L78.1 69.3L77.9 69.1L77.7 68.7L77.8 68.5H78.1L78.4 68.6H78.5L78.1 67.9L77.2 67.3L74.1 66.2L73.8 66L73.6 65.6L72.6 63.2L71.4 61.5L70.9 60.1L70.6 59.8L70.2 59.3L70 59.2H69.9L68.8 58.6L68.1 58.1L67.7 58L67.4 57.8L67 57.3L66.7 56.7L66.6 56.3ZM86.7 3L86.9 3.9L86.7 4.7L86.2 5.4L85.9 6.10001V7.4L84.7 9.5L84.5 10.2L84.4 10.4L83.3 11.3L82.9 11.5L80 11.8L79.7 11.9L79.4 12.2L78.9 12.5L78.5 12.6L78.6 12.2L78.9 11.8L78.8 11.4L78.2 10.8L78 10.5L78.1 9.10001L78 8.2L77.8 7.7L77.5 7.5L77.1 7.3L77.3 6.9L78.1 6.10001L78.6 5.3L79.5 3.5L80.3 2.7L81.1 2.3L81.5 2L81.7 1.3L81.8 1.2L82.2 0.900002L82.4 0.800003L82.6 0.900002L82.8 1.10001L83.4 1.2L83.6 1L83.7 0.700005L84 0.200005L84.4 0L84.7 0.200005L85 0.5L85.4 1.5L85.6 1.8L85.9 1.9L86.7 3ZM41.4 25.6L41.6 25.8L41.3 26.2V26.3L41.2 26.7L40.7 26.1L40.6 26L40.5 25.9L40.6 25.7L40.8 25.5L40.9 25.4L41.1 25.5L41.2 25.6H41.4ZM80.4 71.7L81.2 71.8L81.3 72.1L81.2 72.4L80.9 72.6H80.5H80.3L80 72.5L79.7 72.3L79.6 72L79.7 71.7V71.5L79.2 71.2L79.1 71V70.9L79.2 70.8L79.4 70.7H79.6L79.7 70.9L79.8 71.1L79.9 71.3L80.3 71.5L80.4 71.7Z" fill="#C8A668"/>
</svg>
