<svg width="223" height="203" viewBox="0 0 223 203" fill="none" xmlns="http://www.w3.org/2000/svg">
<path d="M102 105.5L109.8 95.7L89.8999 88.6L89.3999 88.3V87.7L89.7999 86.8L90.2999 85.8L90.7999 85.1L91.2999 84.3999L93.0999 83L93.6999 82.2V82L93.5999 81.2V80.8999L93.7999 80.7L93.9999 80.6L94.2999 80.3999L97.8999 77.5H97.9999L98.5999 79.8999L99.0999 80.3999L99.9999 80.2L101.1 79L101.6 78.7L101.8 79.5L101.6 80.8L101.5 81L101.4 81.1L101.3 81.2L101.2 81.3L101.1 81.5L101 81.7L101.1 82.3L100.9 83.1V83.3999L101.6 83.6L101.8 83.8999L101.9 84.7V84.8L102 84.8999V85L102.1 85.3H102L102.2 85.5L102.3 85.6L102.5 85.8999L102.8 86L103.2 85.8999L103.8 85.3999V85.6L103.7 86V86.2V86.3L104 86.6L104.2 87.2L104.6 87.3H105.4L105.9 87.3999L106.4 87.8H106.7L110 88H110.4L110.9 88.3L111.3 88.3999L111.7 88.3L112.5 88L113.8 87.8999L114.2 87.7L114.5 87.6L114.8 87.3L115.7 86.3999L115.8 86.3L115.9 86V85.8L115.8 85.6L115.9 85.5L116.4 84.7L117.2 84.2L118.7 83.6L119.4 83.2L119.7 82.8L119.6 82.7L119.4 82.5L119.3 82.2V82.1L119.4 81.8999L119.5 81.8L119.6 81.7H119.7V81.6H119.9L120.3 81.7L120.7 81.5L121.2 80.8999L122.1 80.7L122.5 80.3999L122.8 80L123 79.6V79.2L122.8 78.5V78.3L123.3 77.8L123.5 77.5L123.6 77.1V76.2L123.7 76.1L124.1 75.8L124.3 75.6L124.6 75.7L124.8 74.8999L125 74.7H125.2L125.4 74.6L125.6 74.5V74.3L125.7 74.2L126 74.1L126.4 74L128.2 73.2L129 72.7L129.6 72L129.8 71.6L129.9 71.2L130 69.8L130.1 69.5L130.3 69.2L130.9 68.5L131.1 68.2L131.2 67.8V67.6L131.1 67.2L131 66.6L131.1 66.5L131.2 66.3L131.5 65.8999L131.8 65.5L132.3 65.2L132.8 65.1H133.8L134 65L134.6 64.7L134.8 64.6L134.9 64.8V65.1L134.8 65.3999L135 65.5H135.5L136.1 65.6L136.2 65.8L136.3 65.8999L136.4 65.8H136.7L136.8 65.7L137.1 65.8L137.8 66L138.2 65.6H138.5L138.9 65.8L139.1 65.8999L139.3 65.8L139.4 65.7L139.5 65.5H139.7L140.2 65.3999L140.4 65.3L141.4 64.6L142.6 64.3999L142.9 64.3L143 64.1V63.8999L143.1 63.7L143.7 63.3999L144.6 63.2L147.1 63.1L147.6 63L147.9 62.8L148.6 62.3999L148.7 62.1L148.5 61.7L148.1 61.3L147.9 61V60.8L148.1 60.7L148.2 60.5V60.2L148.1 59.8999L147.9 59.8L147.4 59.6L147.2 59.5L146.1 58.7L146.3 58.3999L146.4 58V57.1L146.5 56.8999L146.9 56.7L151 55.1L153.3 53.8L153.7 53.6L153.8 53.5L153.9 53.3999L154.2 53H154.3L154.6 52.8999L159.8 50.7L160.7 50.3999H161.5L162.4 50.7L162.5 50.8L163 51.3999H163.2L163.5 51.8L163.6 51.8999H163.9L164.1 52L165 52.8999L165.3 53.2L166.2 53.3L168.4 53.8999L170.9 55.1L174.3 56.1L175.7 56.3L176.1 56.5L177 56.7L178.4 57.8L179.7 59.3L180.5 59.8999L180.9 60H182.2L182.6 60.1L185.7 61.1L189.2 63.3L191.2 64L192.3 64.6H192.6L192.9 64.7L193.8 65.5L197 66.7L199.1 67.8999L199.9 68.2H200.7L204.6 67.8999L205.1 67.7L205.3 67.3L205.5 67.2L205.8 67.3999L206.3 67.6H206.4V67.3L206.5 67.2L206.7 67.3V67.3999V67.6L206.8 67.8L207.6 68.8L207.9 68.8999L209.1 69.3999L209.6 69.7L210 69.8999L210.3 69.7L210.6 69.8H210.8L210.9 69.6L211 69.3999L210.9 69.2L210.7 69L210.6 68.8999L210.9 68.7H211.1L213 69.3999L213.3 69.5L215.4 69.6L217.9 70.6L218.1 70.8L218.2 71.1L218.1 71.8L218 72L217.2 72.8999L217.3 73.1L217.5 73.3L217.7 73.3999L217.9 73.5L218 73.3L218.1 73.1V72.8999L218.3 72.8H218.4L218.8 73.1L218.9 73.2L219.1 73.1L219.6 73L219.8 72.8999H221.6L222.5 72.8H222.7V73.3999V76.8999V80.7L222.6 85.6L222.7 92.2V96.5V100.5V103.9V112.3V115.8V120.1V120.3V120.4V124.3V126.7V127.6V132.7V136.4V140.2V144.8V146.6V146.9L222.5 147.1L222.4 147.3V147.5H222.3V147.6V147.8H222.4L222.5 147.9V148V148.2L222.3 148.4L222.2 148.5V148.8H222.1H222H221.8H221.6V148.9H221.7L221.8 149H221.9V149.1L221.8 149.2H221.9V149.5H222.1H222.2L222.3 149.8L222.2 149.9V150.1L222.1 150.3H221.8L221.6 150.5V150.7V151.2L221.5 151.3L221.4 151.4H221.2L221.1 151.5V151.6L221.3 151.8V151.9L221.1 152.1H221L220.7 152.2L220.4 152.3L220.3 152.5L220.2 152.6L220.5 152.8V153.1V153.2V153.4L220.4 153.7V153.8L220.3 154L220.2 154.1V154.2V154.3V154.4L220.4 154.6L220.5 154.7L220.8 155L220.9 155.2V155.3L220.7 155.6L220.6 155.7L220.7 155.8V155.9L220.9 156.1L221.2 156.3V156.4L221.3 156.7L221.4 156.8V157.1L221.5 157.4L222 157.2V157.6L222.1 157.8V157.9L222.4 158.1H222.7V160.2V163.2V165.7V166.6V171.8V175.5V179.3V180.1V183.5V188.8V192.3V196V199.9V202.2L221.9 201.7L221.6 201.6L220.4 201L215.7 196.2L213.4 192.8L212.4 191.8L212.2 191.6L210.9 190.5L210.7 190.2L210.6 189.9L210.4 189.8L209.4 189.4L208.7 188.7L208.4 188.2L204 185L203.2 183.9L202.9 183.4L202.8 182.9L203 182.5L203.4 182.1L203.8 181.8H204.1H204.4L204.6 181.7V181.4L204.7 180.6L204.5 180V179.5L204.6 179L205.1 178.7L205.6 179L206 178.8L206.4 177.8L206.1 177.9L205.8 178.4L205.4 178.5H204.9L204.6 178.6L204.5 178.8L204.3 179.7L204.2 181L204.1 181.2L203.7 181.5L202.9 182L202.1 182.2L198.8 182.3L196.1 182.6L195.5 182.8L194.4 183.4L193.8 183.6L192.2 184L191.4 184.1L190.7 184L190 183.9L189.2 183.5L188.7 183L188.4 182.3V182.1V181.9L188.5 181.6L188.6 181.5V181.4L188.5 181V180.4L188.4 180.1L188 179.7L188.3 179.6L188.6 179.7L189 179.8L189.3 179.5L188.4 179.2L187.9 179.1L187.7 179.3V179.5L187.8 179.9V180.1L187.9 180.2H188.1L188.2 180.3V180.4V180.5L188.1 180.6V181.5L187.6 182L186.1 182.4L185.4 182.7L183.1 184.7L182.9 185L182.8 185.4V185.5L182.7 185.7L182.5 185.9L182.4 186H182.1L181.9 185.9L181.2 184.4L180.7 183.7L180.5 183.3L180.4 182.8L180.5 182.4L180.8 182.1L181.7 181.9L182.1 181.6L182.2 181.5L182.1 181.3V181.1L181.8 180.9V180.7L181.9 180.2V178.5L182 178.1L182.2 177.9L183 177.8L183.5 177.4L183.7 176.8L183.8 175.2L184.3 173.9L184.5 173.6L184.6 173.4L184.7 172.8L184.8 172.5L185 172.4L185.2 172.2L185.4 172L185.5 171.3L185 170.7L184.3 170.4L183.6 170.2H182.8L182.5 170L182.3 169.1L182.2 168.6L181.4 167.3L181 166.8L180.5 166.4L179 165.4L178.7 165.2L178.6 165.1L178.5 165L178.3 164.9H177.9L177.7 164.8H177.5L177.2 164.6L177 164.3L177.1 164.1L177.5 164L181.7 164.1L182.5 164.2L182.9 164.4L183.5 164.8L183.7 164.9L186.7 165L187.1 164.8L187.4 164.4L187.6 163.9L187.9 163.4L188.4 163.3V163.1L188 163L187.7 163.1L187.2 163.6L186.9 164L186.8 164.2H186.5H185.7L184.8 164.3H184.4L184 164L183 163.4L182.6 163.2H182.2L180.8 163.1L180.5 163L180 162.7L178.9 162.4L178.8 162.2L178.6 162.1L176.6 160.1L175.2 159L175 158.5L175.4 157.9L175.7 157.7H176H176.8H177.2L178 158.1H178.5L178.8 157.9L179.3 157.4L179.6 157.2L181.3 157.1L182 157H182.3H182.5L182.8 157.2H183L183.4 157.4L184 158.3L184.4 158.5L185 159L185.1 159.1L185.3 159.2L185.7 159.3L186 159.5H186.1L186.4 159.6L187.2 159.5L187.4 159.6L187.2 159.3L186.7 159.2H186.3L186.1 159.1L185.9 158.9L185 158.5L183.6 157.2L183 156.8L182.1 156.6L180.8 156.5L180.4 156.4L180.1 156.2L179.1 155.3L178.6 154.9L177.7 154.7L177.4 154.4L177.2 154L177.1 153.6L177.4 153H177.8L178.6 153.4L178.9 153.5L180.3 154.3L177.9 152.7L177.3 152.2L176.3 151L176.1 150.8L175.8 150.7L173.1 148.2L172.2 146.5L172 146L171.7 145.2L171.6 144.9V143.9V143.6L171.2 142.7V142.3L171.1 142L170.7 141.6L170.6 141.4V141.1L169.3 139.1L169 138.5L169.2 138L169.9 137.6L171.3 137.3L171.8 136.9L171.5 137L170.6 137.2H170.2L168 136.7L167.5 136.4L167.4 136.3L167.3 136.1L167.2 136L167 135.7L168.8 134.6L169.9 134.2L171 133.8L170.6 133.6L170.2 133.7L169.3 133.8H168.9L168.5 133.9L168.1 134.1L167.3 134.6L166.9 134.7L165.9 134.8L165.6 135H165.5V134.9L165.3 134.8L165.2 134.6V134.4V134.2L165 133.4L164.9 132.5V132L165 131.8L165.2 131.6L165.5 131.4L165.7 131.3L165.9 131.2H166V130.9H165.9L165.5 130.7H165.4L165.1 130.5V130.1L165.3 129.2V128.7V128.5L165.1 128.4L165 128.7L164.9 128.9L164.7 129L164.4 128.9L164.5 129.4L164.6 129.8L164.4 130L163.8 129.8L163.6 129.7L163 128.9L162.2 128L162 127.5L162.4 126.9L162 126.8L161 127.5H160.3L160.2 127.4L160.1 127.3L159.6 126.6H159.5L159.6 126.2L159.9 125.7L160.1 125.4L159.3 125.7L158.9 125.9L158.6 125.8L158.2 125.4L158 124.7L157.7 124.5L157.6 124.6L157.4 124.7H157.2L156.9 124.5L156.3 124.4L155.9 124.2L155.5 123.9L155.4 123.7L155.8 123.4V123.3L155.6 123.2L155.4 122.7L155.2 122.6L155.1 122.7L154.8 123.2L154.6 123.3H154.3L154.1 123.2L153.8 122.8L153.6 122.7L153.4 122.6L153.3 122.5V122.2L152.6 122.4L152.1 122.3L151.5 122L151.1 121.6L151.3 121.4L151.4 121.3V121.1V120.9H151.3L151 121.1L150.7 120.9L150.2 120.3V120.8L150 120.9L149.5 120.7L149.4 120.6V120.3L149.7 119.1H149.6L148.7 119.7L148.5 120L148.7 120.3L148.4 120.6L147.4 120.2L147.1 119.8L147 119.2L146.4 119.9L145.9 119.5L145.8 119.2L146 118.8L146.1 118.1H146L145.5 118.8L144.9 119.2L144.2 119.3L143.2 118.8L143 118.7V118.6L143.1 118.3L143.3 118.2L143.6 118.1L143.7 117.9L143.5 117.7L143 117.9L141.6 118.7L141.2 118.9L140.7 119L140.6 118.9L140.4 118.8L140.2 118.6L140.1 118.4L140.2 118H140.1L139.9 117.9L139.4 117.8L139.2 118H139L138.1 117.3L136.7 116.8L134.9 115.8L133.5 115.1L133 114.7L132.9 114.6H132.5L132.3 114.5L131.7 114.1L131.3 113.9H129.6L127.8 113.4L127.2 112.9V112.8H126.7L126.4 112.6L126.2 112.5L125.9 112.3L125.5 112.2H125.3L125 112.1L124.6 111.8L123.7 110.8L123.3 110.5L122.6 110.4H120.9L120.2 110.1L119.9 110.3L119.4 110.4L118.9 110.3L118.5 110.2H118.4L117.5 110.1L116.7 109.9L116.5 109.8L116.1 109.6L113.7 109.3L113.3 109.2L113 109L112.7 109.1L111.6 109.3L111.1 109.2L109.9 109.6H109L108.2 109.4L103.7 106.8L103.4 106.6L103.3 106.3L103.1 106L102.7 105.7L102.2 105.6L102 105.5ZM178.8 155.7L178.9 156L179.3 156.4L179.4 156.7L179.3 156.9L179.1 157.1L178.6 157.4L178.3 157.5L178 157.4L177.8 157.3L177.6 157.2L177.3 157.1L177.2 156.3L176.9 156.2L176.7 156.1L176.5 155.9L176.2 155.5L176.1 155.1V154.7L176.3 154.5L176.5 154.7L177 155.1L177.3 155.3L177.6 155.4H178.3L178.6 155.5L178.8 155.7ZM181.6 186.8L181.7 187.1L181.9 187.5L181.8 188L181.5 188.2L177.7 187.9L176.8 187.6L176.3 187.5H175.4L174.9 187.4L174.7 187L174.8 186.5L175 186.2L176.5 185.2L176.9 184.9L177 184.5V184.1L177.2 183.8L177.5 183.7L178.3 183.6L179.4 183.2L180 183.3L180.3 183.8L180.4 184.4V185.1L180.5 185.6L180.8 186L181.6 186.8ZM182.4 170.9L183.1 171.1L184.5 171.3L185.1 171.6L184.8 172L184.5 172.3L184.3 172.7L184 173.5L183.5 174.5L183.4 174.8L183.3 176.7L183.2 176.9L183 177.1L181.9 177.6L181.5 178L181.3 178.7L181.4 180.2L181.5 180.9L181.7 181.6H180.8L180.4 181.7L180 181.9L179.4 182.7L179.1 182.9L178.6 183.1H177.7L177.3 183.2L176.9 183.4L176.6 183.8L176.1 184.7L175.8 185.1L174.5 186.1L174.1 186.2L173.9 186.4L173.2 187.2L172.6 187.6L172 188L171.3 188.2L170.5 188.4H169.7L168.3 187.9L167.4 187.8L164.5 187.7L160.9 187.6L159.9 187.7L159.1 187.9L157.5 188.6H156.7V187.8L158.4 183L158.9 182.1L159 181.8L159.1 181.5L159.7 181.1L159.9 180.9L160.1 179.7L160.3 179.5L160.4 179.3L161.8 176.4L162.2 175.7L163.2 174.9L163.3 174.5L163.4 174.1L163.6 173.7L164 172.8L164.4 172.3L165.6 171.3L168.7 169.2L171.7 168.2L174.3 167.8L174.9 167.6L176.1 167.4L178 167.3L179.8 167.6L180.5 168.5L180.6 168.8L181.6 170.2L181.8 170.5L182.1 170.7L182.4 170.9ZM141.1 56.2L142.1 56.8V56.8999L141.9 57L141.7 57.2L141.6 57.3H140L139.3 57.3999H138.7L138.6 57.5V57.7L138.4 57.8999L138.2 58H137.8L137.6 58.2L137.5 58.3L137.3 58.3999H137.1L135.2 58.3H134.8V58.3999L135 58.5L135.1 58.7V58.8999H134.9H134.7L134.3 58.7H134.2H133.9L133.5 58.8H133.3H133.1L132.5 58.5H132.2L131.4 58.2L131 58.1L130.9 58.2L130.7 58.3L130.6 58.3999H130.4H130.2L130 58.5L129.9 58.6L129.8 58.8L129.7 59.1H129.6L129.5 58.8H129.3H129.1L128.9 58.8999L128.6 58.3999L128 58L126.4 57.7H126.2H125.8H125.6L125.4 57.6L125.2 57.3999L125 57.3H124.6L124.3 57.2L124 57.1L123.5 56.8L122.6 56.3999L122.4 56.3L122.2 56.1L121.9 56H121L120.7 55.8L120 55.5L119.3 55.3999H119.2L118.9 55.1L118.7 55H118.5L118.2 55.1H118L117.7 54.8H117.5H117.3L117 54.8999L116.7 55L116.5 54.8999L116 54.6H115.5L114.9 54.7L114.4 54.6L114.1 54.5L114 54.3V54.1L113.8 53.8H113.7H113.4H113.3L113.2 53.7V53.5L113.1 53.3H113L112.9 53.2L113.1 53L113.4 52.8999H113.6L113.7 52.8H114L116.1 53.2L120.1 53.5L121.4 53.8L122.3 53.8999L123.5 53.6L124.9 54L125.5 53.8L126.3 54.1L128.1 54L128.9 54.2L129 54.3L129.2 54.5L129.3 54.6H129.5H130L130.2 54.7L130.5 54.8999L130.9 55.1L131.6 55.3999L132 55.5L133.3 55.3L136.5 55.7L138.2 55.6H138.6L139.3 55.8999L139.7 56H140.4L140.7 56.1L141.1 56.2ZM110.2 50.5L110.4 50.6L110.6 50.7L110.8 50.8L111.1 50.7L110.7 51.2L110 51.3999L108.2 51.5L106.6 51.3999L106.4 51.2L106.5 50.8L106.7 50.5H107.1L107.5 50.7L108.6 50.5L109 50.7L109.3 50.8L110.2 50.5ZM104.5 41.5L104.4 41.8L104.3 42.1V42.7L103.7 43.6L103.4 43.7L103.1 43.8H102.4L102.1 43.7L101.8 43.5L101.6 43.2L101.3 42.5L100.8 42.1L100.6 41.6L100.9 41.1V41L101 40.6L101.1 40.3999L101.2 40.3V40.2L101.5 40L101.8 39.8999L102.1 39.8L103 40.1L103.3 40.3L103.4 40.3999V40.6L103.6 40.8999L103.7 41.1L103.6 41.3V41.6L103.5 41.8L103.2 42.2L103.1 42.5L103.4 42.7L103.8 42.5L104.1 41.6L104.5 41.5ZM131.7 43L131.9 43.2L131.8 43.5L131.6 43.8L131.2 43.8999L131 44L130.1 44.7L128.9 44.8999L128.5 45L128.3 45.2L127.9 45.3999L127.5 45.5H127.1L126.3 45.3999L125 44.6L124.1 44.3999L123.7 44.5L122.9 44.8H122.4L122 44.7L121.6 44.3999L121.3 44L121 43.6L120.9 43.2L121 42.1V41.8999L120.7 41.5L120.6 41.3999V41.2L120.3 40.5L120 38.6L119.7 37.8999L119.2 37.5L118.7 37.6L118.4 38L118.1 38.5L117.6 38.8999L117.2 38.8L114.1 36.3L114 36.5V36.8L114.2 37.2L113.6 37L112.9 36.3999L112.3 35.6L111.8 34.2V33.8999L112.2 33.7L112.4 33.8L112.7 34.1L112.9 34.3H113L113.2 34.2H113.4L113.5 34.3L113.7 34.3999L113.8 34.5L114.4 34.6L115.4 34.7H115.6L116.1 34.5L116.2 34.7L116.4 35.1L117.7 34.8L117.9 34.8999L118 35L118.1 35.3L118.2 35.6L118.3 35.7H118.5L118.7 35.6L118.9 35.5L119.5 35.8999L119.9 36.1L120.1 36L120.2 35.7L120.5 35.3999L120.9 35.2L121.3 35.1L121.7 35.2L122.2 35.6L123.6 37.1L125.2 38.2L125.6 38.6L125.8 39.1L126 39.3L126.1 39.5L126.4 39.7L126.5 39.8999V40.2L126.6 40.3999L126.9 40.7L127.2 40.8999L127.5 41.2L127.7 41.7L128 42.1L128.2 42.3999H128.4L128.7 42.2V42.1H129.2L129.7 42L130.2 42.2L130.4 42.6L130.6 42.8L131.7 43Z" fill="#C8A668"/>
<path d="M59.1 89.7L59.2 90L59.3 90.3V90.7L59.1 91L58.8 90.8L58.6 90.5L58.5 90.2L58.4 89.7L58.3 89.6H57.9L57.8 89.5L57.5 89.1L57.6 89L57.9 88.8L58.1 88.7L58.4 88.8L58.7 89.1L59.1 89.7ZM98 77.5H97.9L94.3 80.4L94 80.6L93.8 80.7L93.6 80.9V81.2L93.7 82V82.2L93.1 83L91.3 84.4L90.8 85.1L90.3 85.8L89.8 86.8L89.4 87.7V88.3L89.9 88.6L109.8 95.7L102 105.5H101.8L101 105.6L100.8 105.5L100.4 105.2L99.4 104.5L99.2 104.4V104.2L99.1 103.5V103.3L98.7 103.2H98.2L97.8 103.1L97.6 102.9L97.7 102.5L98.3 101.9L98.5 101.5V101.4L98.2 101.1L98.1 101V100.8L98.2 99.7L98.4 99.5L98.7 99.3H99.1H99.4L100.2 99.5L101.8 99.6L102.2 99.7L102.7 100L102.9 100.1L103.1 100L103.2 99.9L103.4 99.8H103.5L103.9 99.5V99.2L103.7 99.3L103.6 99.4L103.4 99.5H103.2L103 99.4V99.3V99.2V99.1L102.9 99H102.7H102.6L102.5 99.1H102.3H101.4L100 98.9L98.4 98.8H98.3L98.1 98.7L98 98.8L97.9 99L97.8 99.1L97.3 99.4L97 99.6L96.9 99.9L96.8 100.3L96.7 100.5L96.4 100.7L95.3 100.9L95.1 101L94.8 100.8L94.3 100.3L93.9 100.1L94.2 99.7L94 99.4L93.6 99L93.4 98.8L93.3 98.7L93 98.6H92.5L92.2 98.5L91.3 97.9L91.7 98.5L91.9 99L91.6 99.4H90.8V99.5L91 99.7L91.3 99.9L91.4 100.1L91.5 100.4L91.2 100.9H91L90.9 100.8L90.8 100.7L90.7 100.6L90.5 100.5L90.4 100.2L90.1 99.9L89.8 99.8H89.4L88.9 99.6L88.5 99.4L88.4 99.1L88.3 98.9L88.2 98.5V98.4L88.1 98.3L87.9 98.4L87.7 98.5L87.5 98.6L87.4 98.3L87.6 98L88.4 97.4L88.6 97.2L88.5 97.1L88.2 96.3L87.9 96L87.6 95.7L87.3 95.4L87.2 95.6V95.8V95.9L87.3 96.1L87.2 96.5V96.6L86.9 96.9L86.6 97L86.2 96.8L85.9 96.5L85.5 96.4L85.2 96.6L84.7 97.4L84.5 97.6L84.2 97.5L83.9 97.3L83 95.1L82.7 94.6L81.8 93.6L81.6 93.3V92.9V92.5L81.5 92.4L81.4 92.3L81.2 92.4L81 92.5L80.9 92.6L80.8 92.7L80.7 93.2L80.9 93.6L81.1 94.1L81.2 94.6L81.4 94.8V95H81.1H81L80.8 94.4L80.6 94.2L80.3 93.9L80.1 93.8L79.7 93.7L79.5 93.8L79.1 94H78.9L78.7 93.5L79 93.2V93V92.8L78.8 92.4L78.6 91.9L77.8 90.7L77.7 90.3V89.8L77.9 89.5L78.4 89.3L78.7 89.1L78.9 88.7L78.8 88.2L78.5 86.7V85.3L78.6 85L79 85.3L79.1 85.1V85V84.5L79.3 84.3H79.5L80 84.5L80.2 84.2L80.5 83.3L80.8 83.1L81.2 83L81.7 82.4L82.1 82.3L82.4 82.5L82.7 82.9L83 83.2L83.3 83L83.2 82.9L83.1 82.8V82.7V82.5L83 82.3H82.8L82.7 82.2L82.5 82.1L82.3 82L82.2 81.8L82.1 81.5L82 81.2V80.8L82.3 80.3L82.4 80V79.7L82.3 79.5L82.1 79.3L82 79.2L81.7 79.3H81.3L81.1 79.4L81.4 79.8L81.3 79.9L81.1 80.4L81 80.9L80.8 81L79.5 81.7L79.2 81.9L78.6 82.5L78.2 83.1L77.9 84.4L78.1 87.8L77.4 88.9L77.1 89L76 89.3L75.9 89.2L75.8 89.1L75.4 88.3H75.3L75.1 88.2V88.3L75.2 88.7V89.2L75.1 89.4L74.7 89.3V89.5L75.1 89.7L75.9 90L76.2 90.2L76.5 90.6L76.6 91L76.7 91.5L76.6 91.9L76.4 92.2L76 92.5L75.6 92.8L75.3 92.9L75 93L73.1 95L72.8 95.7L73 96.5L73.7 97.1L74 97.5L73.9 97.8L73.7 98L73.3 98.1L73.1 98.2L72.9 98.4L72.6 99L70.3 101.5L69.9 101.8L69.1 102H68.2L66.5 101.7H66L65.7 101.9L65.1 102.6L64.8 102.8L64.4 102.7L63.3 102.3H63.2L63.1 102.2L63 102.1L62.9 101.9V101.5L62.8 101.2L62.6 101L62.2 100.8L62 100.7L61.8 100.5L61.6 100L61.5 99.8L61.3 99.7L61.1 99.5L60.9 99.3L60.8 99.1L60.9 98.9L61.1 99L61.5 99.3V99V98.8L61.1 97.7L60.8 97.4L60.7 97.3V96.6V96.4L59.6 94.2V93.5L60.1 93.1L61 93.2L61.8 93.5L62.6 93.4L62.8 93.3V93.1V92.9L62.7 92.7L62.8 92.5L62.9 92.3L63.2 92L63.5 91.8L63.6 91.7L63.5 91.4L63.3 91.3L63.1 91.2L63 91.1L62.9 90.8L62.6 90.1L62.4 90H62L61.6 89.8L61.4 89.3L61.3 88.4L61.2 87.9L61.4 86.7L61.2 86.3L60.9 86.1L60.5 86L59.8 86.2H59.7L59.6 86.3V86.6L59.8 87L59.7 87.2L59.3 87.4H58.9L58.5 87.2L58.1 86.9L58 86.7L57.7 86.1L57.6 85.9L57.1 85.5V85.3L57.4 85.1L57.6 84.9V84.6L57.5 84.5L57 84.2H56.8L56.7 84.1L56.5 83.5L56.4 83.4L56.3 83.3L56.2 83L56.1 82.8L55.9 82.7L55.7 82.6L55.4 82.2L55.2 82.1H55L54.8 81.9L54.7 81.7L54.6 81.6L52.4 80.4L51.9 80.2L52 79.9L51.6 79.6L50.7 79.4H50.5H49.8H49.5L49.3 79.3L49.1 79.1L48.9 79L48.8 79.4L48.5 79.6H48.2L48 79.4L47.8 79.5H47.6H47.5L47.3 79.4L47.4 79.8L47.2 79.9L46.7 79.8L46.6 79.7L46.3 79L46 79.2L45.1 79L44.8 79.3H44.7V79L44.9 78.9L45.1 78.8L45.3 78.6L45.4 78.4L45.5 78.3L45.7 77.8H45.3L45 77.7V77.5H45.3L45.6 77.3L45.9 77.1L46.1 76.8L45.9 76.6L45.4 76.5L44.5 76.6L44.4 76.5L44.6 76.3L45.4 75.9H45.7L46.1 76L46.3 75.9L46.5 75.6L46.7 75.8L46.8 75.9L46.9 75.8L46.7 75.5L46.9 75.4L47.8 75.5L48.3 75.4L48.8 75.2L48.4 75L47.4 75.1V74.8L47.6 74.7L48.4 74.4H48.8L49 74.3H49.2H51.4H51.6L52.4 74.7H52.7H53.4H53.7L53.6 74.9L53.7 75.2L53.8 75.4L53.5 75.6H53.8L54.3 75.4H54.6V75.2L54.5 74.9L54.8 74.7H55.2L55.4 74.8L55.6 74.9L56 75H56.4L56.8 75.1L57.5 75.5L58.6 76.8L59.3 77H59.6L59.8 76.9L60.1 76.7L60.3 76.4L60.6 76.3L61.7 75.5L62.1 75.1L63 73.7L63.5 73.3L64 72.4L65.1 71.1L65.3 70.7L65.6 70.4L67.2 69.6L67.7 69.5H67.8H68L68.1 69.4L68.2 69.3L68.4 69.2L68.5 69.3H68.7L68.8 69.4L69.2 69.3L69.7 69.1H70.1L71.1 69.7L71.2 69.9L71.3 70.6L71.4 70.9L71.7 70.7H72L72.3 70.8L72.5 71L72.7 71.3V71.5L72.6 72.1V73.8L72.5 74.3L72.9 74.2L73 73.9L72.9 73.1L73 72.6L73.1 72.1L73.6 70.8L73.8 70.7H74V70.9V71.7L74.1 72.7L74 73.1L73.9 73.6L74.2 73.5L74.3 73.1L74.4 72.2V71.9L74.3 71.7L74.2 71.4L74.3 71.2L74.6 71.1L74.7 71.2L74.8 71.5L75 71.8L75.1 72.2L75.2 72.6L75.6 72.5V72.4V72.1L75.7 72H75.8H76H76.2L76.5 71.8L76.7 71.7L77 71.4L77.1 71.6H77.3H77.4H77.5H77.6L78.2 72L78.3 72.3V72.5V73.7V73.9L78.2 74.2L78.5 75.1L78.6 74.8L78.7 74.6L78.6 74.3V73.9L78.7 73.5L78.9 72.7L79 72.3V71.2L79.1 71L79.5 71.1L79.7 71.4L80.1 72.1L80.5 72.7L80.8 73.6L81 73.8L81.1 73.7L81.2 73.4V73L81.3 71.8L81.2 71.6V71.5L81 71.2L80.9 71.1V70.9V70.7L81 70.5L81.2 70.3L80.8 70.2H80.1L79.8 70L79.6 69.7L79.7 69.6L80.1 69.5H80.4L81.3 69.3H81.8L82 69.4L82.1 69.7L82.6 70.1L82.8 70.3H82.9L82.7 69.9L82.3 69.5L82.1 69L82.5 68.8L83.8 69L84.5 68.9L84.8 68.6H83.7H83.2L82.7 68.4V68.1L83.7 67.7L84 67.3L83.5 67.4L82.6 67.6H82.1V67.5L83 67.2L83.4 67L83.8 66.7L83.9 66.3V65.8V65.3L83.8 64.9L83.5 65.9L83.3 66.3L82.9 66H82.8L82.3 66.5L81.9 66.7L81.6 66.8L81.3 66.7L80.9 66.3L80.7 66.1L80.6 66L80.8 65.8L81 65.6L81.7 65.4L82 65.2L82.3 64.9L82.4 64.6L82.8 64.8L83.1 64.7L83.4 64.4L83.8 64.2L83.6 64.1L83.4 64.2L83 64.4H82.7V64.1L82.8 64L83.2 63.9L83.3 63.8L83.4 63.7L83.5 63.4V63.2L83.6 63H83.2H82.7L82.5 63.1H82.4L82.1 63H81.9L81.8 63.1L81.5 63.6L81.4 63.7L81.3 63.8H80.9H80.8L80.3 64.2H80.1L79.3 64.3L79 64.4L78.9 64.7L78.7 64.8L78.4 64.9L78.1 65.1L77.9 65.4V65.5L77.7 65.6L77.6 65.5L77.4 65.4L77.3 65.3L77.1 65.4L76.7 65.6L76.8 64.7L76.7 64.5L76.4 65.2L76.1 65.6L75.8 65.7L75.5 65.6L75.3 65L74.9 64.9V65.1L75.1 65.4H74.8L74.4 65.5L73.8 65.6L73 65.3L72.6 65.2L71.7 65.3H71.2L71 65.1L70.8 64.9L70.4 65L69.5 65.2L68.8 65.1L68.3 65.2L67.6 65.6L67.2 65.7H66.3L65.4 65.9L64.6 66.3L63.8 66.5L63 66.4L61.8 65.8L61.3 65.7L60.9 65.8L60.4 66L59 66.9L58.8 67L58.6 66.9L58.5 66.7L58.4 66.6L58.2 66.5L57.8 66.4L57.6 66L57.5 65.5L57.3 65.1L57.1 64.9L56.7 64.7L56.3 64.6L55.9 64.7L55.5 64.9L54.2 65.2L52.8 66L52.1 66.2L51.2 66.1L50.7 65.8L50.4 65.4L50.2 64.9L49.9 64.5L49.4 64.2L46.6 63L46.1 62.5V62.1L46.2 61.9L46.8 61.6L46.9 61.5L47 61.2L47.2 61L47.7 60.8L47.2 60.9L46.2 61.2H45.7L45.3 60.6L44.9 60.3L44.7 60.2L44.6 60V59.8L44.7 59.5V59.3L44.6 59.1H44.5H44.3L44.2 59L44 58.8V58.6V57.9V57.7V57.5L43.8 57L44.2 56.8L44.5 56.5L44.7 56.1L45 55.8L45.3 55.6L45.5 55.4L45.6 55.1L45.5 54.6H45.6L45.7 54.5H45.2L44.5 54.9L43.7 55.1H43.6L43.4 55L43.2 54.8V54.6L43.3 54.5L43.4 54.4L43.2 54.3L43.1 54.2L43 54.1L42.9 54L43.1 53.2V53L43.4 52.8L43.5 52.6H43.6L44.2 52.4H44.3L44.7 52L44.8 51.8H44.5L43.3 52.3L42.8 52.4L43 52.1L42.9 52H42.6L42.4 52.2L41.7 52.9L41.3 53.1L41.2 52.6L41.4 52V51.4L41.1 50.9L41 51.5L40.9 51.9L40.7 52.2L40.2 52.4H39.7L39.4 52.1V51.7L39.7 51.4L39.3 51.2L39 51.3L38.6 51.4L38.2 51.5L37.8 51.4L37.5 51.2L37.1 50.7L36.7 50.6L36.3 50.5H35.7H35.6L35.5 50.4H35.3H35.1L34.9 50.5L34.7 50.6L34.6 50.7L34.7 50.9L34.4 51L34.2 51.1L34 51L33.9 50.9L33.4 50.4L33.3 50.3V50.2L33.1 50.1V50L33.3 49.8L33.4 49.6L33.2 49.3L33 49.1L32.8 48.9L32.2 49.1L31.8 49L30.9 48.5L30.8 48.9L31.2 49.2L32 49.8L32.1 50.1L31.8 50.4L31.4 50.7L31.2 50.8L30.5 50.9L29.9 51.3L29.5 51.5L29.3 51.4L29.2 50.9L29.1 50.7L28.9 50.5L28.7 50.4L27.9 50.1L27.1 50L25.5 50.1H25L24.6 49.9L24.4 49.7V49.3L24.5 49.1L25.1 48.8L25.4 48.6L25.5 48.5L26 47V46.7V46.5H26.2V46.4L26.5 46L26.9 45.8L28.5 45.5L29 45.4L29.1 45.2L29.4 44.3L30 43.6L30.1 43.4V43.2L30.4 42.7L30.5 42.3L30.4 41.6L30.5 41.4L30.8 41.2L30.7 40.9L30.8 40.1L30.6 39.7H30.8L31.2 39.4L30.4 38.6L30.1 38.1L30.2 37.5L32 37L32.8 36.9L33.1 36.8L33.3 36.5L33.8 36.3L34.1 36.2H34.3L35.1 36.1L35.2 36L35.4 35.8H35.7H36L36.2 35.9L35.8 36.4L35.6 36.6V36.9L35.9 36.8L36.4 36.7L36.7 36.5L36.9 36.4L37.1 36.3L40.8 35.5L42.5 35H42.7L42.9 34.8L43.4 33.9L44.2 33L44.8 32.5L45.3 32.2L46.3 31.9L46.5 31.8L46.7 31.7L47 30.9L47.2 30.6L48.2 29.9H48.5L49.1 29.5L49.9 29.3L50.5 28.9H50.9L51.4 28.8L53 28.3L53.8 28.2L58.6 28.6L59.2 28.4L63.1 30.3H63.5H63.7L64.2 30.1H64.5V30.3V30.4L64.6 30.6L65 30.8L65.6 31.2L65.9 31.4H66.1H66.3H66.7L66.8 31.5L67.1 31.8H67.2L67.4 31.9L67.8 31.8H68L70.7 33.8L71.2 34.3L71.4 34.7L71.6 35L72.5 35.5L72.7 35.6L76 36L76.1 36.1H76.2L76.3 36.2H76.4L76.6 35.9L76.7 35.8L76.8 35.7H76.9L77.2 35.8L77.5 36L77.9 36.1L79.7 36.2L80 36.1L79.8 35.8L80 35.6L80.3 35.5H80.6L80.9 35.6L81 35.7L81.4 36H81.5L81.8 35.9L82.9 35.8H83.7L84 35.7L84.3 35.6L84.6 35.8L85.9 37L86.1 37.2L86.5 37.3L86.7 37.4L86.9 37.5L87.2 37.9L87.4 38.1L88 38.3L88.1 38.4V38.6L87.7 38.8L86.5 38.9L86.2 39L86.1 39.3V39.8L85.9 40.1H85.6L85.5 40.3L86.3 42L86.5 42.3L86.6 42.5L86.7 42.9L86.8 43.2L87 43.4L87.3 44L87.5 44.4L87.9 44.7L88.3 45L88.6 45.1L88.8 45.3L90 47.6L90.3 48L89.5 49.3L89.3 49.7V50.5L89.1 51.9L89 52.2L88.8 52.4L87.8 53.5L87.5 53.7L87.2 54L87.1 54.1H86.8L86.6 54.2L86.5 54.4V54.6V54.9L86.8 55.7L87.6 59.7L87.7 61.2V61.4V61.5L87.8 61.6V61.7V61.8H87.7H87.6H87.5L87.4 61.9L87.1 63.1V63.6L87.2 63.8L87.6 63.9L87.7 64.1L87.8 64.4L87.7 64.5V64.7V65V65.4L88 66L88.1 66.4L88 66.9L87.9 67L88 67.2L88.3 67.5L88.4 67.7V68L88.6 68.4L88.8 68.7L89 69L89.9 69.6L90.1 70.1L90.4 70.4L90.7 70.6L90.9 70.7L91.1 70.9L91.3 71.2L91.4 71.6L91.6 72.3L91.9 73.1V73.5L92.3 73.8L92.5 74.4L92.7 75.6L92.8 75.8L93.1 76L93.3 76.3L93.5 76.9L93.9 77.8V77.9H94.4L94.7 77.8L95.3 77.4L95.2 77.2L95 76.3L94.9 76.1L94.7 75.7L94.6 75.5V75.2V74.7V74.4L94.5 74.1L94.3 73.7L94.2 73.5L94.1 72.9V72.4L94.2 71.9L94.3 71.6L94.6 71.1L94.8 70.9L95.7 70.6L95.4 70.5L95.3 70.4V70.2L95.5 70L95.7 70.1L96.2 70.4L96.3 70.5L96.7 70.6L97.1 70.7L97.4 71L97.6 71.3L97.8 72L97.9 77.2L98 77.5ZM76 105.1L77 106.3L77.4 106.4L76.9 106.5L76.4 106L75.9 105.5L75.5 105.2L75.3 105.3L74.8 105.4H74.6H74.3L74.1 105.3L73.9 105.2L73.6 105L73.3 104.8L72.9 104.7L72.6 104.6L72.4 104.3L72.3 104.1L72.1 103.9H71.8L71.5 103.8L71.4 103.5L71.3 103.2V103L71.4 102.6L71.6 102.7L73 103.7H73.1H73.2L73.3 103.8L73.4 104.1H73.5L73.8 104.4L74 104.5L74.2 104.6H74.7L75.2 104.7L75.7 104.9L76 105.1ZM37.3 73.5L37.8 73.1L38.1 73H38.4L38.1 73.3L37.7 73.6L37.2 73.8L36.9 73.9L36.7 73.8L36.9 73.6L37.3 73.5ZM96.2 69.1L96.3 69.6L96.2 69.7L96 69.8H95.6L95.4 69.7L95.3 69.5L95.5 69.2L95.1 68.9V68.6L95.7 68.2L95.8 67.8L95.9 67.4L96 66.7L96.2 66.8V67L96.3 67.2L96.2 67.5V69.1ZM92.4 61H92.6L92.9 61.1L93.1 61.3L93.2 61.5V61.7L93.1 61.8L92.6 62.7L92.5 63.5L92.2 63.8L91.9 63.9L91.5 63.6L91.3 63.1V62.5L91.5 62L91.7 61.5L91.8 61.3L92 61.2L92.1 61H92.4ZM89.4 55.7L89.7 55.8V56.2L89.6 56.8L89.4 56.9L89.1 57.2L88.9 57.5L89.2 57.9L88.9 58.6L88.5 59.3L88.2 59.8L87.9 58.8V58.5L88.1 57.5L89.2 55.8L89.4 55.7ZM13.3 58.7L12.7 59.1L12.4 59.5L14.2 60.2L14.3 60.4L14.1 60.5H13.9L13.7 60.6L13.5 60.7L13.4 60.8L13.3 60.9L13.2 61L13 61.1H12.9L12.7 60.9L12.5 60.8H12.4L12.3 60.6L12.4 60.4L12.5 60.3L12.4 60.2V60L12.3 59.9L12.1 60.1L11.7 60.7L11.6 60.8L11.3 61L11.1 61.3L10.9 61.6L10.7 61.8L10 62H8.70001L8.10004 62.2L8 62.1L7.90002 61.9L7.70001 61.8H7.60004L7.79999 61.7H7.90002L7.29999 61.4L6.90002 61.3L5.90002 61.4L5 61H4.20001L4 60.9L3.70001 60.8L3.10004 60.5L2.79999 60.3L2.5 60.2L2.40002 60.1L2 59.7L1.90002 59.6L1 59.3L0.600037 59.1L0.299988 59L0 58.5L0.600037 58.2L3.10004 57.3L3.20001 57.2V57.1V57L3.60004 56.9L3.79999 56.8L4.40002 56.7L4.79999 56.5L5.90002 55.9L6.20001 55.8L6.70001 55.7L7.5 55.6L8.29999 55.4H8.79999L10 55.7L10.2 55.6L10.5 55.3L10.9 55L11.3 54.8L12 54.5H12.2H12.4L12.6 54.6L12.7 54.8L12.6 55.8L13.7 56.5L13.9 56.8L14.2 57.2L14.3 57.6V57.9L14.1 58H13.9V58.1L13.8 58.5L13.7 58.6H13.5L13.3 58.7ZM4.70001 44.3L4.90002 44.6L4.70001 44.8L4.20001 45.3V45.2L4.10004 45.1V45V44.8L3.29999 45.4L2.79999 45.7L2.29999 45.8L3.10004 45.3L3.20001 45.1L3.10004 45L2.90002 45.1L2.70001 45.2L2.60004 45.3H2.29999H0.900024L0.600037 45.1L0.700012 44.8L1 44.5L2.79999 43.9H3.20001L3.60004 44.1L4 44.2H4.40002L4.70001 44.3ZM26.5 41.1L26.6 41.2L26.8 41.5V41.7V42.6L26.1 45.6L25.7 46.4L25.6 46.8L25.5 47.2L25.4 47.7L25.1 48L24.7 48.1L24.4 48L24.1 47.6L23.8 47.4L23.6 47.5L23.3 47.6L23 47.8H22.7L22.5 47.6L22 46.9L21.9 46.7L21.4 46.3L20.9 46L20.6 45.8L20.5 45.5L20.4 45.4L20.5 45.1V45L20.4 44.9L20.3 44.8L20.2 44.7L20.1 44.4V44.2V44.1L19.9 43.9L19.7 43.7L19.5 43.6L19.4 43.5L19.2 43.2L19.7 42.9V42.5L19.5 42L19.2 41.6L18.5 40.9V40.6L19.1 40.2L21.3 39.7L22.1 39.3L22.8 39L23.3 38.9L23.7 39L24 39.3L24.1 39.6L24.2 39.8H24.3L24.6 39.6L25 39.5L25.9 39.4H26H26.1L26.3 39.6L26.5 39.8L26.9 40.4V40.6L26.6 40.9L26.5 41.1ZM23.8 36.7L23.9 36.8L23.8 36.9L23.5 37H23.4H23.3L23.1 37.1H23L22.9 37.3L23 37.5H23.1H23.3V37.7L23.2 37.8L23.1 37.9L22.9 38L22.4 38.2L21.8 38.5L21.5 38.6L20.7 38.7L17.9 39.3L16.4 39.4L15.7 39.6V39.4L15.9 39.3H16H15.6L15.3 39.2H15L14.9 39.6H14.8L14.6 39.3L14.3 39.4L13.5 39.7L13.7 39.4L14.1 39.2L14.3 39L14.2 38.6L14.5 38.3V37.5L14.8 37.2V37.5H14.9V37.3L15.1 37.1H15.3L15.6 37.2L15.4 37.7L15.9 37.9L16.5 37.8L16.8 37.2L17 37.3L17.1 37.5L17.2 37.6V37.8L17.8 37.4L18.1 37.3L18.4 37.4L18.3 37.5L18.6 37.6H18.8L18.9 37.4H19.1H19.4L19.8 37.6L20.1 37.7L20.6 37.5L21.1 37.3L21.5 37.2L21.8 37.5V37.3L21.7 37.1L21.8 36.9L21.5 36.5V36.3L21.7 36.4L21.8 36.5H22.2H22.5H22.6L22.9 36.4H23L23.2 36.5L23.5 36.7H23.8ZM19 29.9L19.2 30.2V30.5L19.1 30.8L18.6 31.5L18.3 31.8L17.4 32H17.1L16.9 31.8L17.2 31.7L17.5 31L17.4 30.5L16.8 30.7V30.8L16.7 31.1L16.6 31.2L16.5 31.3L16.2 31.4L16.1 31.5L15.9 31.6L14.8 31.7L14.9 31.5L15.2 31.4L15.4 31.3V31L15.1 31.1L14.9 31L14.7 30.8L14.6 30.5H14.8L14.9 30.6H15V30.7L15.2 30.5L15.4 30.2L15.6 30L15.7 30.1L15.8 30.5L16 30.6H16.2L16.5 30.5L16.7 30.3L16.9 30.1L17.1 29.9L17.6 29.8L17.7 29.7L17.8 29.6V29.5L18 29.4L18.1 29.5L18.4 29.6L18.9 29.8L19 29.9ZM31.3 26L31.5 26.3L32.1 26.8L32.2 27L32.1 27.2H31.7L31.6 27.4L31.5 27.7L31.3 27.8L31.1 28L31 28.3H30.9L30.7 28.2H30.6V28.6L30.4 28.9L30.1 29L29.7 28.8L29 28.2L28.5 27.9L28.3 28L28.2 27.9H27.6L27.5 27.8L27.4 27.7L27.1 27.8L26.8 27.9L25.9 28.6L25.8 28.3L25.7 28.2L25.3 28.3L25.2 28.4H25.1H25H24.8L24.6 28.2H24.5L24 27.6L23.5 27.2L23.4 27.1L23.6 27L23.3 26.5L23 26.3H22.7L22.1 26.2H21.8L21.6 26.1H21.4L21.3 25.8L21.4 25.5L21.3 25.1L21.2 24.9L20.1 23.9L19.9 23.6L19.8 23.2H19.6H19.5H19.2L19.3 23L19.4 22.9H19H18.5L18 23L17.8 23.2L18.2 23.3L18.4 23.4L18.6 23.6H18.2L18 23.8L18.1 24.1L18.8 24.4L19.1 24.7L19.8 25.6L20.2 26.4L20.3 26.8L20.5 27L21.3 27.4L21.7 27.6L21.8 27.3L21.9 27.1H22H22.9L23.2 27.2L23.3 27.3L23.4 27.5L23.5 27.6L23.7 27.7L23.8 27.8L24 28L24.2 28.4L24.4 28.6L24.2 28.7L24.1 28.8L23.9 29L23.8 29.2V29.3L23.6 29.5L22.7 29.8L21 30.1H20.6H20.1L19.8 29.8L19.6 29.4L19.1 28L19.3 27.9L19.4 27.6L19.3 27.3L19.2 27.1L17.7 27.5L17.1 27.9L16.8 28.7H16.9L17.1 28.6V28.9L16.7 29.8L16.6 29.9H16.5H16.4V29.6L16.7 29L16.3 28.9V28.6L16.4 28.2V27.8L16.3 27.6L16 27.3L15.8 27.1L15.9 26.9L16 26.8V26.6V26.4L15.7 26.3L15.2 26.4L14.6 26.7L14.4 26.9V27L14.2 26.9V26.7H14.1H13.7L13.5 26.6L13.4 26.5L13.2 26.8H13.1L13 26.6L12.9 26.5H12.3H11.9L11.8 26.4L11.7 26.3V26.1L11.6 26L11.4 25.9L10.9 25.8L10.2 25.5L9.90002 25.3L10.4 25.2H10.6L10.9 25.4L11.1 25.5L11.2 25.4H11.6V25.5L12.3 25.3H12.7L12.9 25.4L13.2 25.6H13.5L13.8 25.4L14 25.3L14.1 25H13.9L13.5 24.9L13.3 24.8L13.6 24.7L13.8 24.4V24.1L13.7 23.8L13.5 24.2L13.2 24.4H13V24H12.9L12.8 24.2H12.6H12.5L12.3 24.1L12.4 24.4L12.5 24.7L12.6 24.9L12.5 25.1L12.2 25L11.9 24.9L11.6 24.7L11.5 24.6L11.4 24.3L11.2 23.9L11.1 23.6L11.2 23.4L11.4 23.3H11.6L11.9 23.4L12 23.3L12.1 23.2L12.2 23.1L12.3 22.9L12.4 23.2L12.5 23.5V23.7L12.7 23.8L12.9 23.7V23.5L12.8 23.1L12.7 22.9L13.2 22.8L13.4 23L13.7 23.2L14.1 23.4L14 23V22.9H14.1V23L14.2 23.2L15.1 22.8L15.5 22.6L15.7 22.2L15.9 22.3L16.1 22.4L16.4 22.8V22.7L16.5 22.5L16.6 22.6V22.7L16.7 22.8V22.6L16.9 22.2L17 22.3L17.2 22.5L17.4 22.3H17.9L18.3 22.2H18.7L19.3 22H19.8L19.9 22.4L20.2 22.2L20.8 22.3L21.1 22.2L21 22.1L20.8 22L20.7 21.9H20.5L20.7 21.7L21 21.5L21.5 21.4H21.9L24.7 22.2V22.3L24.8 22.4L24.9 22.5L25 22.4L25.1 22.3L25.2 22.2L25.8 22.1H25.9H26.3H26.5L26.6 22.3L26.3 22.6H26.6L27.1 22.7L27.7 22.8H27.9L28.4 23L28.6 23.1L28.8 23.3L29 23.5L29.2 23.6L29.3 23.7L29.4 23.9L29.6 24H29.9L30 24.1H30.1H30.4H30.6L30.7 24.2L30.8 24.3L31.3 24.5L31.5 24.7L31.7 25.3L31.4 25.6L31.3 25.8V26ZM90.9 6.4L91.2 6.2H91.5L91.6 6.4L91.4 6.7L91.1 6.9L90.8 6.8L90.7 6.6L90.9 6.4ZM30.1 1.2V1L30.3 0.800003L30.2 1L30.1 1.2ZM30.5 0.199997L30.6 0L30.8 0.0999985V0.300003L30.7 0.5L30.4 0.699997V0.5L30.5 0.199997ZM76.7 70L76.9 70.1V70.6L76.5 71H76.1L76 70.9L75.3 70.5L75.1 70.3L75 70L74.8 69.7L74.7 69.4L75 69.3L75.6 69.6L75.9 69.8V69.7H76L76.3 69.8L76.5 70H76.7ZM3.70001 29.4L3.90002 29.5L4 29.8L3.90002 30.1L3.79999 30.2L3.70001 30.4L3.60004 30.8L3.40002 31.1L3.20001 31.3L2.90002 31.2L2.70001 30.8L2.5 30.5L2.60004 30.1V29.9L2.79999 29.8L2.90002 29.7L3.10004 29.5L3.5 29.4H3.70001Z" fill="#C8A668"/>
</svg>
