<svg width="166" height="258" viewBox="0 0 166 258" fill="none" xmlns="http://www.w3.org/2000/svg">
<path d="M43.4998 254.6H44.6998L45.2998 254.7L45.6998 255L45.4998 255.4L44.7998 255.6L44.1998 255.7L43.8998 255.5L43.5998 255.3L42.3998 255.1L41.9998 254.9L41.5998 255L41.1998 255.1L40.6998 255L40.3998 254.9L40.2998 254.7L40.1998 254.6L40.2998 254.4L40.3998 254.3L40.6998 254.1L41.0998 254.2L41.7998 254.5L43.4998 254.6ZM39.4998 250.5L39.7998 250.2L39.9998 250.1L40.0998 250.5L39.9998 250.8L39.8998 251.3L39.7998 251.6L39.1998 251.7H38.4998L38.0998 251.5L37.9998 251.8L37.7998 252L37.0998 251.6L36.7998 251.2L36.8998 250.9L36.3998 251L35.9998 250.8L35.6998 250.9L35.5998 250.5L35.6998 250.3L36.1998 250.6L36.6998 250.4L36.7998 249.9L36.6998 249.5L36.7998 249L37.0998 249.2H37.4998L37.9998 249.9L38.9998 250.3L39.2998 250.5H39.4998ZM45.9998 167.8L46.0998 167.7L45.8998 167.1L45.6998 166.6L45.4998 166.8H45.3998L45.2998 166.6L45.0998 166.1L44.9998 165.9L44.7998 166.1L44.6998 166.5L44.5998 166.6H44.3998L44.1998 166.4L44.0998 166.3L43.9998 166.1L44.0998 165.8H44.3998L44.6998 165.7L44.7998 165.2L45.1998 165.3L45.3998 165.2L45.6998 164.7L45.7998 164.8H45.8998L45.2998 163.6L44.9998 163.4H45.0998L44.8998 163.2L44.5998 163L44.3998 162.9L42.0998 162.5H41.7998L41.5998 162.6H41.3998L41.1998 162.4L40.9998 162.2L40.7998 162.1L40.5998 162H40.3998H39.8998L39.5998 162.1L39.3998 162.3L39.0998 162.4H38.5998L38.2998 162.5L37.2998 163.1H36.8998L36.4998 163.2L36.0998 163.3L35.8998 163.6L35.7998 163.9L35.5998 164.3L35.2998 164.6L30.2998 167.7L29.5998 168.3L29.0998 168.6L28.5998 168.7L28.6998 169L28.9998 169.3L29.0998 169.6V169.9L29.1998 170.1L29.2998 170.3L29.4998 170.4L29.6998 170.6L29.9998 171.6L30.1998 172L30.0998 172.1H29.9998L29.7998 172.4L30.1998 172.8L30.5998 173L31.4998 173.4L32.0998 173.7L32.1998 173.8L32.2998 174V174.3L32.4998 174.6L32.5998 174.7H32.9998L32.8998 174.9L32.5998 175.2L32.4998 175.5V175.7L32.5998 175.9V176.1L32.4998 176.4L32.3998 177.2V177.3L32.5998 177.7V178V178.2L32.4998 178.5L32.3998 179.5L32.4998 179.8L32.7998 180.7L32.8998 181.1V182.8L32.9998 182.9L33.2998 183.3L33.3998 184L33.0998 184.8L32.1998 186L31.8998 186.6L31.6998 187.3L31.4998 188V191.4L31.5998 191.7L31.9998 192.4L32.0998 192.7V193.5V193.7L31.9998 194.1V194.3V194.6L32.1998 195.2V195.9L31.6998 197.1L31.7998 197.8L32.2998 198.4L32.4998 198.8L32.3998 199.1L32.2998 199.4V199.9L32.3998 200.4L32.4998 200.8L32.6998 201.2L33.2998 201.8L33.4998 202.2L33.3998 202.4L33.1998 202.6L32.7998 202.9V203.1L32.3998 205V205.5L32.1998 205.8L31.7998 206H31.2998L30.9998 206.1L30.6998 206.7L30.5998 209.1L30.1998 211.5L29.9998 211.9L29.7998 212.2L30.5998 213.4L30.7998 213.8L30.9998 214.6L31.1998 214.9L32.0998 215.9L32.1998 216.2V216.6L33.0998 219.7L33.1998 220.5L33.2998 220.6L33.5998 221.2L33.6998 221.6L33.5998 221.7L33.0998 221.4L32.7998 221.5L32.0998 220.7L31.9998 220.5L31.8998 220.2L31.5998 219.6L31.3998 219.4H30.8998L30.3998 219.5L29.9998 219.8L29.4998 220L28.5998 220.1L28.4998 220.2L27.9998 220.5L27.6998 220.7L26.8998 220.9L26.4998 221.1L26.3998 221L26.2998 220.9H25.9998L24.7998 220.7L24.4998 220.6L24.2998 220.4H23.7998L23.1998 220.5H22.8998L22.5998 220.7L21.6998 221.6L21.5998 221.8L21.4998 222.2V222.4L21.0998 222.7L20.6998 223L19.9998 223.2H19.0998L18.1998 223.1L17.5998 222.7L17.4998 222.3V221.9L17.2998 221.5L16.7998 221.3L16.3998 221.6L16.1998 222L15.9998 222.3L15.6998 222L15.5998 221.8V221.3V221.1L15.3998 220.9L15.1998 220.7L15.0998 220.6L14.9998 220.3H14.6998L14.1998 220.4L13.7998 220.6L14.0998 221.1H13.5998L13.2998 220.9L13.1998 220.6L13.0998 220.2L13.1998 220L13.2998 219.8L13.3998 219.6L13.2998 219.4L13.1998 219.2L12.9998 218.8L12.2998 217.9L11.8998 217.1L11.7998 216.3L11.8998 215.3L12.0998 214.7L12.1998 213.4L12.2998 213L12.5998 212.3L12.7998 211.7L12.8998 211.5L12.9998 211.4L13.3998 211.2L13.5998 211.1L13.8998 210.7L13.9998 210.3L14.0998 209.6L14.2998 209L15.0998 207.6L15.1998 206.9L14.4998 204.4L14.5998 203.6L14.6998 203.5L14.9998 203.4L15.1998 203.2L15.3998 202.6L15.4998 202.3L16.2998 200.9L16.4998 200.6L16.7998 197.7L17.0998 196.4L17.1998 195.6V195.4L17.0998 195.1L16.9998 194.9V194.7L16.6998 194.4L16.5998 194.2L16.6998 193.8L17.0998 193L17.1998 192.6L16.9998 191.8L16.8998 191.6L16.7998 191.5V191.2L16.9998 190.9V190.7L17.0998 190.5L16.9998 190.2V189.9L17.4998 189.3L17.5998 189L17.1998 188.8L16.7998 188.9L16.5998 189.1V189.5L16.4998 189.9L16.3998 189.6L16.2998 188.8L15.9998 188.2L15.0998 186L14.5998 185.3L14.3998 184.5L13.7998 183.7V183.5L14.0998 182.8L14.2998 181.8L14.4998 181.4L14.7998 181L14.8998 180.7V180.4L14.5998 179.4L14.4998 179.3V179.2L14.2998 178L13.8998 176.9V176.6L13.7998 175.9L13.6998 175.1V175L13.4998 174.8L12.9998 174.3V174.1L12.8998 173.8L12.9998 173.6L13.0998 173.4L13.2998 173.3L13.4998 173.2L13.6998 173.3L13.9998 173.4H14.1998L14.4998 173.3L14.7998 173.2L15.4998 172.7L15.8998 172.5L16.2998 172.3L17.1998 172.1L17.3998 172L17.4998 171.8L17.2998 171.5L16.7998 170.8L15.4998 167.7L15.3998 167.4V167V166.6L15.4998 166.2V165.9V165.7L14.9998 164.8L15.2998 164.6H15.8998L16.1998 164.5L16.5998 164.6L17.3998 164.8H17.8998L19.1998 164.4L19.8998 164L20.1998 163.8L20.2998 163.5V163.4V163.2L20.0998 163.1L19.9998 163L19.8998 162.8L19.9998 162.5L20.0998 162.1V161.9L19.3998 161L19.2998 160.2L19.3998 159.7L19.2998 159.4L19.1998 159.2L18.9998 158.9L18.8998 158.7V158.5L19.1998 158L19.2998 157.6L19.1998 157.4L18.9998 157.1L18.7998 156.8L18.0998 156.2L17.7998 156.1L17.3998 155.9L17.1998 155.8L17.0998 155.6V155.3L17.1998 155L17.2998 154V153.6L17.5998 153.3L19.6998 151.4L19.8998 151.3H20.1998H20.3998L20.5998 151.2L20.8998 151L21.0998 150.7L21.9998 148.9L22.6998 148.6L23.8998 147.9L25.4998 147L25.8998 146.9H26.5998L27.6998 147L30.2998 147.8L30.8998 147.9L31.3998 147.8L31.4998 147.6L31.5998 147.5L31.7998 147L31.8998 146.8L32.0998 146.6H32.5998L32.9998 146.8L33.3998 147.1L35.4998 150.3L36.1998 151.1L36.8998 151.8L39.6998 154.1L40.4998 154.5L51.1998 156.7L52.1998 157L53.1998 157.5L53.5998 157.8L53.9998 158.1L55.0998 159.4L56.3998 160.4L56.8998 160.8L58.9998 161.9L59.3998 162.2L59.6998 162.6L59.8998 163L59.9998 163.5L60.0998 164V164.4L59.9998 164.8L59.8998 165.2L59.5998 165.6L56.4998 168.8L56.1998 169L54.8998 169.8L54.4998 169.9L54.2998 170H53.9998H53.6998L52.8998 169.5L51.2998 168.1L49.7998 167.2L49.4998 167H49.1998L48.7998 166.9H48.3998L47.5998 167.1L46.8998 167.3L45.9998 167.8ZM35.3998 227.9L35.4998 228.7L35.5998 229.6V230.4L35.4998 231.3L34.9998 232.5V233L35.0998 234L34.9998 234.8L34.8998 235.8L34.6998 236.1L34.4998 236.5V236.9V237.7L34.3998 238.1L34.2998 238.5L34.0998 238.6L33.8998 237.7L33.7998 237.1L33.6998 236.7L33.8998 234.6L33.7998 234.4L33.6998 234.3L33.3998 234.2L33.2998 234L33.3998 233.8L33.2998 233.6L33.0998 233L32.9998 232.8L33.0998 232.6L33.3998 232.2L33.4998 231.9V230.7L33.2998 228.7L33.3998 226L33.5998 225.1L33.8998 224.5L34.0998 224.4L34.1998 224.5L34.2998 224.6L34.3998 224.8V225.3L34.4998 225.6L34.6998 225.9L34.7998 226.2L34.8998 226.6L35.3998 227.9ZM59.7998 255.9L60.4998 255.7L60.8998 256.1L60.7998 256.8L60.3998 257.1L59.6998 257.3H59.2998L59.1998 256.9V256.6L59.3998 256.3L59.4998 256L59.7998 255.9Z" fill="#C8A668"/>
<path d="M105 228.4L105.1 228.8V229.3L104.8 229.7L104.5 229.5L104.4 229.3V228.9L104.3 228.6L104 228.5L103.5 228.3L103.3 228.2L103 227.8V227.4L103.1 227L103.3 226.5L103.4 226.7L104.4 227.4L104.6 227.6L104.8 228.1L105 228.4ZM99.3 219.4L99.7 219.6L99.9 220.1V220.6L99.9999 221.1L99.6 220.9L99.3 220.6L98.8 219.8L98.4 219.5L98.1 219.3L97.8 219L97.6 218.6H97.8L98.4 218.7L98.7 219L98.9999 219.3L99.3 219.4ZM94.6 214.1L94.9999 214.3H95.7L96.2 214.5L96.4999 215V216.1L96.4 216.5L96.1 216.7H95.6L95.2 216.5L94.9 216.2L94.2 214.7V214.2L94.6 214.1ZM70.4999 179.7L70.7 179.8L70.9 180.1L71.1 180.4V180.6H70.9999L70.6 180.7L70.2 180.9L69.9 181.1L69.7 180.7L69.9 180.3L70.1 179.9L70.4999 179.7ZM72.8 177.9L73.2 178.2L73.3 178.3V178.5L73.2 178.8L72.9999 179.1L72.7 179.2L72.4999 179L72.3 178.7L72.1 178.1V177.9V177.7V177.4L72.3 177.3V177.2H72.4L72.4999 177.3L72.6 177.4L72.7 177.7L72.8 177.9ZM45.9999 167.8L46.9 167.3L47.6 167.1L48.4 166.9H48.8L49.2 167H49.4999L49.8 167.2L51.3 168.1L52.9 169.5L53.7 170H53.9999H54.3L54.4999 169.9L54.9 169.8L56.2 169L57.6 169.2L59.8 169.3L60.4999 169.5L65.3 171.4H65.7L66.8 171.3L67.1 171.4H67.4999L67.8 171.6L68.2 171.8L69.9 173.1L70.8 174.3L70.4999 174.7L69.9999 175.8L70.1 176.3L70.4 176.4L71.2 176.8L71.4999 177L71.6 177.3L71.7 177.9L71.6 178.3L71.3 178.2L71.4 178L71.3 177.8L70.9999 177.6H70.6L70.7 177.4V177.3L70.4999 177L70.3 176.9L69.9 176.8L69.6 176.6V176.8L69.4999 177L69.3 177.1L69.1 177V177.4L69.3 177.7L69.4999 177.9L69.7 178.2L69.9 178.5V178.9L69.7 179.3L69.4 179.9L69.3 180.1H69.2L68.9999 180.3L68.7 180.4L68.3 180.5L68.1 180.6L67.9999 180.9L68.2 181.3L68.6 182L68.8 182.3L69.1 182.6L69.4 182.8H69.8L70.1 183L70.3 183.2L70.4999 183.5L70.7 183.8L71.1 184H71.6L72.4 183.9L72.8 184.1L73.1 184.4L73.4 185.2L74.6 186.7L74.9999 187L75.4 187.1H76.7H76.9L77.1 187.2L77.2 187.4L77.3 187.6V187.8L76.9 187.9L76.7 188L76.6 188.1L76.4999 188.5H76.2L75.7 188.6L75.3 188.7L74.9999 188.8V188.9L75.9999 189L76.4 189.1L76.8 189.3L77.1 189.5L77.2 189.9L77.3 190.2L77.2 191.1L77.3 191.4L77.4999 191.8L77.7 192.1L77.9999 192.2H78.1L78.2 192V191.8V191.7L78.7 192L79.4999 192.1H80.3L80.8 192L79.7 190.9L79.4 190.4L80.1 190.2L80.8 190.5L81.4 191.2L81.7 192.1L81.9999 193.3L82.1 193.7V194.1L81.8 194.7V195.1L81.9999 195.9V196.7L81.9 197.1L81.6 197.3H81.3L81.1 197.5L80.9999 197.8L80.8 198.1L80.4999 197.7L79.1 196.7L78.4 196L77.9 195.7L77.4 195.6L77.6 196L78.4 196.8L78.4999 197L78.7 197.3L78.8 197.5H78.9H79.2H79.3V197.7V197.8V197.9L79.4 198.2V198.3V198.7L79.3 198.9L79.1 199H78.9H78.7L78.2 198.4H77.9999L77.9 198.5V198.6L77.9999 198.8L77.8 199L77.6 198.9L77.4 198.5V198L76.8 197.5L75.9999 197.3L75.3 197.5L74.6 197.9L73.9 198L73.3 197.9L72.6 197.7L71.9 198.1L70.9999 198.4L70.2 198.6H68.9L68.7 198.7L68.6 198.8L68.2 199L68.1 199.1L67.6 199.2L67.3 199.5L67.1 199.6L66.4 199.7H66.2L65.8 200.2L65.4 200.9L65.1 201.8L64.9 202.6L64.9999 203.4L65.3 204.1L65.7 204.7L66.2 205.1L66.3 205.2L66.7 205.3V205.4L66.3 205.5L65.9 206L65.6 206.1H65.2L64.3 206.3L63.9 206.4L61.9 206.2L61.4999 206.1L60.9999 205.7L60.6 205.5H60.3L59.9999 205.6L59.4999 205.7L59.2 205.6H58.9999L58.9 205.8L58.7 205.9L58.4 206H58.3L57.9 205.7L57.3 205L56.9999 204.9L56.7 204.8L55.4999 204.3L55.3 204.1L54.3 202.8L54.2 202.6L54.1 202.5H53.9999L53.9 202.4L53.8 201.8V200.9L54.2 199.3L54.6 198.1L54.8 197.3L54.9 196.5L54.8 194.9L54.9 194.3V194.1V194L55.1 193.9H55.4L55.4999 194L55.4 194.2L55.3 194.4L55.9 194.1L56.4999 192.7L56.7 191.1L56.1 190.2L55.3 189.8L52.8 189.4L51.3 188.8V188.6L50.9999 188.3L50.9 188.1V187.9L50.8 187.7L50.4999 187.4L50.2 187.2H49.9999L49.7 187.4L49.4 187.5L49.2 187.3L49.3 186.9L49.4999 186.4L49.6 186.1L49.4 185.7L49.1 185.6H48.3L47.8 185.5L47.4999 185.4L46.4 184L42.2 180.3L41.8 179.5L41.7 178.9V178.7L41.8 178.4L41.9 178L41.9999 177.8L42.1 177.3L42.4999 176.9L42.9999 176.5L43.3 176.1L43.7 175.2L43.9 174.9L44.2 174.7H44.4L44.6 174.6L44.8 174.4V174.2L44.9 174.1L45.1 174L45.4 173.9L45.4999 173.8L45.6 173.4L45.8 172.3V171.9L45.7 171.4L45.6 171.1L45.4 171L45.3 170.9L45.4 170.6L45.7 170V169.7L45.8 169.4L45.9 169.1V168.3L45.9999 168.1V167.8ZM65.4 213.5V213.7H65.2L65.1 213.8L64.9999 214L65.1 214.6L65.2 217.8L64.9999 218.2L64.7 218.5H64.4L63.9999 218.4L63.7 218.5H63.4999L62.9 217.6L62.6 217.3L62.3 217.2H62.1L61.9999 217.1L61.8 217L61.7 216.8L61.4999 216.4L60.7 215.2L60.3 214.4L60.4 214.2V213.6L60.4999 213.4L60.7 213.2L60.8 212.9L60.9 212.7L60.9999 212.4L61.1 212.3L61.6 212.2L61.8 212.1V211.9L61.6 211.7L61.2 211.3L61.4 211L61.7 210.7L62.1 210.4L62.4 210.3L62.3 210.6V210.9L62.4999 211.1H62.9H62.9999L63.3 210.6H63.4999H63.7L63.8 210.8L63.9999 212L64.3 212.3L64.8 212.2L64.9999 212.5L65.2 212.7L65.4 213V213.5ZM79.4999 207.6V208V208.2L79.4 208.4H79.2L78.9999 208.3H78.8L78.7 208.5L78.6 208.7L78.4 209L77.2 210.3L76.8 210.8L76.1 212.4L75.9999 212.8L76.1 213H76.3H76.6L76.7 213.1V213.3L76.6 213.5L76.4 213.7L75.9 213.8L76.1 213.9L76.6 214.1L76.9 214.3L76.9999 214.4L77.1 214.7V215.1V215.6L76.9 216.1L76.7 216.3L76.4999 216L76.3 216.3L76.2 216.8L76.1 217.2V217.4L75.9 217.6H75.8L75.7 217.5V217.4L75.4999 217.5L75.3 217.7L74.9 217.8L74.8 216.9V216L74.7 215.5L74.6 215.3L74.4 215L74.2 214.9L73.9999 215.3L73.9 215.6L73.9999 216V216.2L73.7 216.8L73.4 217.1L72.9999 217.2L72.7 217L72.3 216.7L72.2 216.2L72.3 216L72.9999 215.6V215.5H72.7L72.4 215.4H72.2L71.9 215.6L71.8 215.8L71.7 216V216.6L71.6 216.9L71.3 217H70.3L70.1 216.9L69.8 216.8L69.6 216.6L69.8 216.4L69.6 216.1L69.4999 215.7L69.7 215.3L70.2 214.5L70.4 214.1V213.6L70.6 212.1L70.7 211.7L70.9 211.4L70.9999 211.3L71.6 211.2L71.7 211.1V211L72.1 210.5L71.9 210.2V209.8L71.7 208.8L71.4999 208.3L71.3 207.6L71.1 206.9L70.9 206.4L70.6 206.1V206L70.9 205.6L71.4 204.6L71.7 204.2L72.1 204L73.4 203.9L73.9999 203.8L74.6 203.5L75.9999 202.4L77.1 201.8L77.8 201.5L78.2 201.6L78.4999 201.9L78.7 202.2L78.9999 204.7V206.1L79.1 206.4L79.3 206.7L79.4 206.8V207L79.4999 207.3V207.6ZM86.9 213.7L87.6 214.2L87.9999 214.5L88.2 214.9L88.1 215.2L87.9 215.5L87.4 216L86.9999 216.7L86.8 216.9L85.9 217.1L85.2 217.5L84.8 217.7L84.4999 217.6L84.1 217.1L83.8 217L83.4 217.1L81.8 218.1L81.4 218.3L81.2 219.1L81.1 219.3L81.2 219.4H81.4L81.9 219.2H82.1L82.3 219.7L81.8 220.6L80.9 221.9L80.4999 222.7L80.2 222.9L79.7 223V222.9V222.4L79.6 222.2L79.4 222H79.3V222.1L78.9999 222.5V222.7H78.9L78.7 222.6V222.4V221.9V221.7H78.4L77.8 222.5L77.4999 222.7H76.9999L76.7 222.4L75.3 219.3L76.9 218L77.1 217.7L76.9999 217.4L76.6 217.3L76.7 217L77.2 216.3L77.4 215.7L77.4999 215.6H77.7H77.8L77.9999 215.3L78.4 214.5L78.6 214.3L78.9999 214.1L79.4999 214L79.9999 213.8L80.2 213.4V213.1L80.1 213L79.2 213.4L79.1 213.3L79.3 213L78.9999 212.8L79.1 212.5L79.4 212.1L79.4999 211.8V211.3V211L79.9 210.4L79.9999 210.1L79.9 209.8L79.8 209.7H79.4999L79.3 209.9H78.9999L79.2 209.5L80.3 208.6L80.4999 208.3L80.6 207.8V207.3V206.9L80.4999 206.7L80.4 206.5L80.3 206.3V206.1L80.4999 206H80.7L80.9 205.9L80.9999 205.6L80.9 202.3L80.9999 201.5L81.3 200.7L81.9 199.5L81.9999 199.1L82.1 198.8L82.4 198.6L84.3 197.1L84.7 197H85.3L85.6 197.1L85.1 197.8L85.2 198.1L85.6 198.4L86.8 199.5L87.1 199.8L87.7 200.6L87.8 201.1L87.9 201.5V201.7L87.7 202.1V202.3V202.5L87.8 202.6L87.9999 202.7L88.1 202.8L88.2 203.5V205.6L88.1 206.1L87.8 206L87.6 205.6L87.4999 204.8V204.7L87.3 204.4L87.2 204.3L86.9999 204.2L86.9 204V203.8V203.6L86.3 203.5L85.9999 204.6L85.4999 204.1H85.4L85.3 204.2L85.2 204.3L84.9 204.1L84.8 204.3V205.2L84.7 205.3L84.4 205.6L84.3 205.8L84.1 206.4V206.6L84.2 207.4V207.8L83.7 208.1L83.4 208.5L83.3 208.9L83.2 209.1V209.3L83.3 209.5L83.4 209.6V209.8L83.6 210.3V210.5V211L83.4999 211.3L82.9999 212.2L82.9 212.7V213L83.3 213.2L83.7 212.9L83.9999 212.5L84.3 212.1L84.8 212L85.1 212.1V212.3V212.5L85.2 212.6L85.9 212.8L85.9999 213.2L86.2 213.4L86.9 213.7ZM87.9 189.3L88.4999 189.7L88.9 190.4V191.2L88.6 191.8L87.8 193.1L87.2 193.8L86.6 194.1L85.6 194L84.8 193.6L84.1 192.8L83.4 192L83.3 191.5L83.1 190.7L82.9 190.3L83.1 190.1L83.6 189.7L83.9 189.5L84.2 189L84.4 188.9L84.8 189L85.1 189.1L85.4999 189.4L85.9 189.6H86.2L86.6 189.4L86.9999 189.3L87.4999 189.2L87.9 189.3ZM87.4 181V181.5H86.9999H86.6L86.4 181.8L86.3 182L85.8 181.8L85.4 181.5L85.2 181.3L85.1 181.1V180.9L85.3 180.8H85.4999L86.7 180.3L86.9999 180.4L87.2 180.6L87.4 181Z" fill="#C8A668"/>
<path d="M101.2 150.1L101.3 150.4L101.4 150.8L101.5 151L101.4 151.2H101.3L101.1 150.8L101 150.9H100.7L100.5 150.8L100.6 150.5L100.9 150L101 149.9L101.2 150.1ZM96.8999 148L96.9999 148.8V149.1H96.8999L96.7999 148.8L96.6999 148.5V147.8H96.8999V148ZM98.4999 148V148.1L98.5999 148.4V148.5L98.4999 148.6L97.9999 148.9L97.7999 148.5L97.9999 148L98.1999 147.8L98.4999 148ZM37.3999 89.0001L37.5999 89.1001L37.7999 89.2001L38.0999 89.6001H37.6999L37.0999 89.1001L36.5999 89.0001L36.7999 88.9001H36.9999H37.1999L37.3999 89.0001ZM31.9999 88.9001L32.2999 88.7001L32.4999 88.9001L32.5999 89.2001L32.4999 89.6001V89.7001L32.2999 89.8001L32.1999 89.9001L31.9999 90.0001L31.7999 89.8001V89.5001L31.8999 89.1001L31.9999 88.9001ZM56.1999 169L56.4999 168.8L59.5999 165.6L59.8999 165.2L59.9999 164.8L60.0999 164.4V164L59.9999 163.5L59.8999 163L59.6999 162.6L59.3999 162.2L58.9999 161.9L56.8999 160.8L56.3999 160.4L55.0999 159.4L53.9999 158.1L53.5999 157.8L53.1999 157.5L52.1999 157L51.1999 156.7L40.4999 154.5L39.6999 154.1L36.8999 151.8L36.1999 151.1L35.4999 150.3L33.3999 147.1L32.9999 146.8L32.5999 146.6H32.0999L31.8999 146.8L31.7999 147L31.5999 147.5L31.4999 147.6L31.3999 147.8L30.8999 147.9L30.2999 147.8L27.6999 147L26.5999 146.9H25.8999L25.4999 147L23.8999 147.9L22.6999 148.6L21.9999 148.9H21.6999L21.4999 148.8L21.2999 148.6L21.0999 148.3L20.9999 148V147.5V147.2L21.3999 146.2L21.4999 145.7V145.3L21.3999 145L20.9999 144.4L20.4999 143.8L19.9999 143.2L19.0999 142.1L18.8999 141.7L18.7999 141.2L18.4999 139.1L18.2999 138.6L17.9999 138.2L17.7999 138L17.4999 137.8L15.1999 136.9L14.7999 136.7L14.5999 136.5L14.3999 136.2V135.7L14.5999 135.1L14.8999 134.7L15.1999 134.4L16.3999 133.6L16.5999 133.3L16.6999 133L16.4999 132.4L16.0999 131L15.9999 130.5V129.9L16.0999 127.6L15.9999 126.8V126.7L16.0999 126.6L16.3999 126.4L16.5999 126L16.6999 125.9L17.2999 125.6L18.2999 124.8L17.7999 124.3L17.6999 124.2L17.7999 124L17.9999 123.9L18.4999 123.6L18.6999 123.4L19.0999 122.9L19.2999 122.8V122.9L19.5999 123.6L19.6999 124.1L20.3999 125.6L20.7999 126.7L21.0999 127.2L21.4999 127.5L21.7999 126.7L21.8999 126.3V125.8V125.7L21.6999 125.4V125.3V124.6V124.4L21.4999 124.1L21.0999 123.6L20.9999 123.4L20.8999 123.1L20.3999 122.2L20.1999 121.5V120.8L20.0999 120.6L19.7999 119.9V119.5L20.1999 115L20.3999 114.3L20.5999 114.1L20.7999 113.8L20.6999 113.3L20.5999 112.7L20.3999 112.3L19.8999 112.6H19.1999L18.5999 112.5L18.0999 112.2L17.7999 111.8L17.3999 111.2L17.1999 110.6L17.2999 110L17.5999 110.2H17.7999L17.9999 110.3V110.1V109.9L18.0999 109.7V109.6L18.5999 109.9L18.8999 110.2L19.4999 110.8L19.8999 111.5L20.1999 111.7L20.5999 111.9L20.8999 112H21.0999L21.1999 111.9L21.4999 111.4L21.6999 111L22.0999 109.3L22.2999 108.8L21.9999 108.1L20.4999 106.3L20.3999 106.1L20.2999 105.8V105.5L20.4999 105.3L21.6999 104.9L21.9999 104.5L21.8999 104.2L21.7999 103.9L21.6999 103.5L21.7999 103L22.1999 102.3L22.4999 101.9V101.7V101.3L22.5999 101.1L22.7999 100.9L22.9999 100.7L23.2999 100.6L23.4999 100.5L23.8999 100.3L24.7999 100.2L25.1999 100L25.3999 99.3001L25.2999 98.6001L25.0999 97.8001L24.9999 97.0001L25.0999 96.6001L25.1999 96.1001L25.4999 95.7001L25.7999 95.5001H25.9999L26.4999 95.4001H26.6999L26.8999 95.3001L28.1999 94.7001L28.6999 94.4001L28.9999 94.1001L29.1999 93.8001L29.3999 91.8001L29.5999 91.1001L30.0999 90.6001L30.8999 90.5001L31.2999 90.8001L31.3999 91.2001L31.2999 92.1001V93.0001L31.3999 93.3001L31.6999 93.1001H31.7999L31.9999 93.4001L32.1999 93.7001L32.4999 94.0001L32.8999 94.2001L33.4999 94.3001L33.7999 94.5001L33.9999 94.4001L34.0999 94.2001H34.1999H34.6999L34.9999 94.3001L35.2999 94.5001L35.5999 94.8001H35.7999L36.0999 94.4001L36.6999 93.8001L36.4999 93.3001L36.7999 92.4001L37.6999 91.1001L38.0999 90.6001L38.1999 90.5001L38.3999 90.6001L38.5999 90.8001L38.7999 90.9001L39.0999 90.8001L39.1999 90.7001L39.2999 90.2001L39.4999 90.0001L39.5999 89.9001L40.0999 89.8001L40.1999 89.7001L40.3999 89.4001V89.1001L40.2999 87.9001L40.3999 87.6001V87.5001V87.4001L40.5999 87.2001L40.6999 87.0001H40.7999L40.8999 86.6001V86.2001V85.4001L40.7999 84.7001V84.3001L40.9999 84.0001L41.1999 83.9001L41.6999 84.0001H41.7999L41.9999 83.9001L42.4999 83.4001V84.0001V84.3001L42.6999 84.2001L43.0999 83.8001L43.2999 83.6001H43.6999L45.4999 84.0001L45.8999 83.9001L46.9999 84.2001L47.4999 84.5001L47.8999 85.1001L49.5999 85.9001L50.5999 85.4001H50.9999H51.8999L52.1999 85.3001L52.6999 85.0001L53.0999 84.6001H53.2999L53.4999 84.7001L53.5999 84.8001L53.6999 85.1001V85.4001L53.5999 85.6001H53.3999L52.8999 85.8001H52.7999L52.8999 86.0001L52.9999 86.2001L53.0999 86.4001V86.6001V86.7001V86.9001L53.1999 87.1001L53.5999 87.5001V87.7001L53.7999 88.0001L54.7999 88.8001L55.0999 89.0001L55.8999 89.2001H56.7999L62.5999 88.5001L62.9999 88.6001L63.1999 89.5001L63.4999 89.9001L63.8999 90.0001H64.2999L64.5999 89.8001L65.0999 89.3001L65.3999 89.2001H65.7999L67.0999 89.7001H67.5999L67.8999 89.8001L67.9999 89.9001L67.8999 90.0001L66.8999 90.7001L64.9999 91.6001L63.9999 91.7001L61.8999 91.0001H61.5999L61.3999 90.9001H61.2999L60.9999 91.0001L58.5999 92.0001L57.2999 92.4001L56.7999 92.7001L56.3999 92.9001L55.1999 93.2001L54.3999 93.5001H54.0999H53.8999H53.6999L53.4999 93.4001L52.6999 93.2001H52.0999H51.7999L51.3999 93.3001L51.0999 93.4001L50.2999 93.9001L50.0999 94.1001L49.7999 94.3001L49.4999 94.8001L49.2999 95.1001L49.0999 95.7001L48.9999 95.9001L48.7999 96.1001L48.5999 96.2001L47.4999 96.7001L48.5999 97.8001L48.7999 98.2001L49.1999 98.5001L49.3999 98.6001L49.8999 98.7001L50.1999 98.8001L50.2999 98.9001H50.3999L50.5999 98.8001H50.6999H50.7999H50.8999L50.9999 99.0001L51.0999 99.3001V100.4V100.6L50.8999 101.1L50.6999 101L50.1999 100.8L49.9999 100.7H49.4999L48.6999 101L48.2999 101.1H47.8999L47.5999 101.2L47.2999 101.3L46.9999 101.6L46.7999 102L46.6999 102.1L46.4999 102.2H46.2999L45.5999 102L45.2999 101.9L44.6999 101.5L44.3999 101.3L44.0999 101.4L43.3999 101.7L42.1999 101.8H41.8999L41.5999 101.6L41.4999 101.5L41.3999 101.2L41.2999 101.1L41.1999 101L40.5999 100.9H40.4999L40.3999 100.7L40.2999 100.6L40.1999 100.5L39.8999 100.6L39.5999 100.7H39.3999L38.9999 100.5L38.3999 99.9001L37.9999 99.7001L34.4999 99.8001L34.1999 99.9001L32.5999 100.6L32.2999 100.7L31.9999 100.8L31.6999 101L31.4999 101.3L31.2999 101.5L30.7999 101.9L29.9999 102.7L28.7999 104.4L27.6999 105.7L27.1999 106.4L27.0999 106.6L26.9999 107.3L26.8999 107.5L26.5999 107.9L26.4999 108.3L26.3999 109.2L26.1999 110.1L25.9999 110.5L25.7999 110.9L25.0999 111.4L24.9999 111.6V111.8V112.3L24.8999 113.2L24.7999 113.7L24.5999 114L24.4999 114.4V114.9L24.8999 117.4L24.9999 117.8L25.5999 118.5L25.6999 119V119.2L25.4999 119.6V119.8V120L25.6999 120.4L25.9999 122.4L26.2999 123.2L29.3999 127.8L29.5999 128L30.4999 128.7L30.9999 128.8L31.3999 128.6L31.7999 128.2L32.1999 128L32.6999 128.1L32.9999 128.4L33.1999 128.8L33.3999 129.2L33.5999 129.3L33.7999 129.4H34.1999L34.3999 129.5L34.5999 129.7L34.7999 130.2L36.0999 132.1L36.1999 132.3V132.5L36.0999 132.7L35.9999 132.9L35.8999 133.1V133.2V133.5L35.7999 134L35.6999 134.3L35.8999 134.5L36.7999 135.5L36.9999 135.9L37.1999 136.7L37.3999 137.2L37.5999 137.6L37.8999 137.8L39.0999 137.3V137.1L40.4999 136.8L40.9999 136.7V136.8L40.8999 137.5L40.9999 137.6L41.2999 137.7L41.6999 137.8H42.1999L43.4999 137.7L43.8999 137.6L44.0999 137.5L44.2999 137.6L44.7999 138.1L44.9999 138.2L45.7999 138.3L46.3999 138L46.8999 137.5L47.5999 136.4L47.7999 136L47.8999 135.3L48.0999 134.4L48.1999 134L48.3999 133.8L48.6999 133.5L49.0999 133.2L49.3999 133.1L49.5999 132.9L49.7999 132.6L50.0999 132L50.5999 131.3L51.6999 130.4L52.7999 128.7L53.2999 128.1L54.1999 127.2L54.4999 127H54.8999H55.7999L55.8999 126.9V126.7V126.5L55.9999 126.3L56.0999 126.2L56.5999 126.1L56.7999 126L56.9999 126.1L57.1999 126.2H57.2999L57.3999 126.3V127.5V127.8L57.9999 128.2L58.1999 128.5L58.2999 128.6L58.4999 128.7H60.1999L60.9999 128.8L61.8999 129L62.5999 129.1L63.3999 128.9L64.0999 128.5L64.4999 128.4L64.9999 128.3L65.3999 128.4L65.7999 128.5H66.1999L66.6999 128.2L66.8999 127.8L67.0999 127.1L67.2999 126.4L67.1999 126L67.8999 125.4L68.1999 125.3L72.1999 125.2L72.9999 125.1L73.6999 125L75.0999 125.4L75.8999 125.3H75.9999L76.0999 125.2L76.1999 125.1H76.3999H76.6999L77.0999 125.4L77.5999 125.6L77.8999 125.7L78.2999 125.9H78.6999L79.6999 125.5L82.1999 125.3L82.4999 125.2L82.7999 125.1L83.0999 124.8V124.7L81.8999 124.4L81.7999 124.3L81.5999 124.1V124L81.2999 123.9L79.4999 123.8L79.2999 123.7L78.9999 123.6L78.7999 123.4L78.5999 123.2V123L78.9999 122.9L79.1999 123.1L79.4999 123L80.0999 122.6L80.1999 122.5L80.2999 122.4L80.3999 122.3L80.6999 122.5H80.7999L80.9999 122.4V122.3L82.7999 122.2L83.1999 122.1L83.3999 122.2H83.7999H84.0999L84.3999 122.1L84.5999 121.9L84.8999 121.4L85.0999 121.3L85.3999 121.2L88.5999 121.5L89.2999 121.8L90.5999 122.5L91.8999 122.9L92.0999 123.2L91.8999 123.4V123.5V123.6L92.0999 123.8V123.9L92.1999 124.1L92.2999 124.2L92.4999 124.3H92.6999L92.5999 124.7L92.8999 125.2L92.5999 125.9L92.6999 126.7L92.4999 127.1L91.9999 127.6L91.7999 127.9L91.5999 129.7L91.4999 130.1L90.8999 130.8L89.9999 131L89.1999 130.9L88.5999 130.5L88.0999 129.7L87.8999 129.5L87.7999 129.4L86.8999 128.7L86.7999 128.5L86.9999 128V127.8L86.8999 127.5L86.6999 127.3L86.1999 126.9L85.7999 126.7L85.0999 127.6H84.6999L84.0999 127.9L82.1999 128L81.3999 128.2L80.6999 128L80.1999 128.5L79.2999 130.4L79.1999 130.7L78.6999 131.2L78.5999 131.4L78.4999 131.6V131.7L78.3999 131.9V132.2L78.1999 132.3H77.9999L77.7999 132.4L77.1999 132.8L76.8999 133.2L76.6999 134.1L76.4999 134.3L75.6999 134.7L75.3999 135L74.5999 136.2L74.1999 136.5L73.9999 136.6V136.8L73.8999 137L73.6999 137.4L73.5999 137.5L72.0999 138.8L71.6999 139.5L71.3999 139.7L70.1999 140.4L68.6999 141.4L68.0999 142L67.6999 142.1H67.4999L67.2999 141.9L66.8999 141.7L66.5999 141.8L65.7999 142.2L65.3999 142.3H65.1999L64.7999 142.1L64.5999 142.2H64.4999L64.3999 142.3L64.2999 142.5L64.1999 142.6L63.5999 143L63.1999 143.1H62.9999L62.4999 143.3L62.1999 143.4L61.3999 143.2L61.2999 143.6L61.0999 143.7L60.7999 143.9L60.5999 144H60.3999L60.0999 144.2L59.9999 144.6L59.7999 145.3L59.2999 146.5L58.8999 147L58.4999 147.6L57.9999 148L57.3999 148.2L56.6999 148.3L55.4999 148.4H55.2999L54.9999 148.3L54.8999 148.1L54.7999 148L54.3999 147.5L54.2999 147.3H54.0999L53.9999 147.2L53.3999 147L53.0999 146.6V146.3V146.1L52.5999 145.9H51.6999H51.4999L51.2999 145.5L51.1999 145.4L50.4999 145.5L50.1999 146.2L50.2999 146.8L51.0999 146.6L51.1999 146.9L51.0999 147.3L50.8999 147.8L50.7999 148.2V148.4L50.9999 148.5L51.0999 148.7V149.6L51.2999 149.5L51.4999 149.3L51.5999 149.1L51.6999 148.9L51.7999 148.7L51.8999 148.4L51.9999 148.1L52.2999 148L52.4999 148.3L52.9999 149.4L53.5999 149.8L53.7999 150.2L53.9999 150.5L54.4999 150.4L54.8999 150.9L55.2999 152.4L55.6999 153L56.4999 153.3H57.3999L58.1999 153.4L58.8999 154L59.4999 154.6L60.5999 155.5L61.0999 156.1L61.3999 156.9L61.5999 157.3V157.7L61.7999 158L62.6999 158.9L63.3999 160L63.6999 160.7L64.2999 161.5L64.4999 162V162.4L64.3999 163.3V163.5L65.2999 164.5L65.7999 164.9L66.0999 165L66.7999 165.1L66.9999 165.2L67.0999 165.3V165.5L67.2999 165.6H67.4999L67.5999 165.8L67.6999 166.1L67.7999 166.5L67.8999 166.9L68.1999 167.1H68.9999L69.3999 167.2L69.7999 167.4L70.2999 168.1L69.8999 168.9L69.4999 169.6L69.5999 170.4L69.7999 170.5L70.2999 170.8L71.6999 172.2H71.8999L72.1999 172.1L72.3999 171.9H72.5999L72.6999 172.1L72.7999 172.4L72.8999 172.5L73.1999 172.7L73.3999 172.5L73.4999 172.6L73.3999 172.8L73.2999 173.1H73.1999L72.8999 173.2L72.6999 173.4V173.5L72.7999 173.8L72.6999 173.9V174.2V174.4L72.5999 174.5L72.2999 174.4H72.3999L72.2999 174.3L72.0999 174.2L71.8999 174.1L71.7999 174.2H71.6999V174.3L71.1999 173.9L70.7999 174.3L69.8999 173.1L68.1999 171.8L67.7999 171.6L67.4999 171.4H67.0999L66.7999 171.3L65.6999 171.4H65.2999L60.4999 169.5L59.7999 169.3L57.5999 169.2L56.1999 169ZM100.8 148.8L101 149.6L101.1 149.7L100.8 149.6L100.7 149.7L100.5 149.8L100.3 149.9L99.8999 149.8L99.5999 149.6L99.4999 149.4L99.1999 148.3L99.0999 147.7L99.4999 147.3L100.6 148.4L100.7 148.6L100.8 148.8ZM86.4999 145.1L86.6999 145.3L86.8999 145.8V146.3L86.6999 146.6L86.4999 146.8L86.1999 147L85.9999 147.2L85.8999 147.5L85.7999 147.7L85.5999 147.8H85.2999L85.1999 147.6L85.2999 146.6L85.3999 146.2L85.6999 145.4V145.2L85.7999 144.9L85.8999 144.8L86.1999 144.9L86.4999 145.1ZM93.7999 135.2L94.1999 135.3L94.4999 135.4L94.7999 135.6V136V136.4L94.4999 137.1L94.3999 137.5L94.4999 138.2L94.3999 138.3L94.2999 138.6L93.7999 139.1L92.9999 139.8L92.8999 139.9L92.4999 140H92.2999L91.9999 140.2L91.3999 139.9L90.9999 140.1L90.8999 139.4L90.7999 139L90.3999 138.9V138.8V138.6L90.2999 138.3L90.1999 138.2H89.8999L89.6999 138.3H89.5999L89.3999 138.5L88.9999 139.2L88.7999 140.1L88.8999 141.9L88.7999 142.3L88.6999 142.5L88.4999 142.4V142L88.3999 141.7L88.0999 141.8L87.3999 142.3H87.1999L87.0999 142.1L86.9999 141.9L86.2999 141.7L86.1999 141.6L86.0999 141.4L85.9999 141.2L86.0999 141L86.1999 140.9L86.4999 140.8L87.3999 140.3L87.4999 139.6L87.0999 137V136.4V136.2L86.9999 136.1L86.8999 135.9H86.7999L86.5999 136.4L86.2999 136.6L85.9999 136.7L85.7999 136.9L85.2999 137.8L85.1999 137.9L84.8999 138.1L84.7999 138.4L84.4999 139L84.1999 139.6L83.7999 140.1L82.2999 141.4L81.7999 141.7L81.3999 141.6L80.1999 138.8L80.0999 137.9V137.1L80.2999 136.2L80.5999 135.4L81.8999 133.6L82.1999 133.5L82.5999 133.6L83.2999 133.8L83.5999 133.9L83.7999 133.8L84.1999 133.4L84.4999 133.3L85.3999 133.2H86.0999L86.1999 133.3L86.3999 133.4L86.4999 133.6H86.7999L86.9999 133.5L87.0999 133.4V133.1L87.2999 132.9L87.4999 132.8L87.5999 132.9L87.6999 133L87.8999 133.1L88.7999 134.4L88.5999 134.6L88.3999 134.8L88.2999 134.9L87.9999 135L87.8999 135.1L87.7999 135.3V135.8L87.8999 136.1L87.9999 136.3L88.1999 136.4L88.3999 136.6V136.9V137.5L88.4999 137.8L88.8999 137.5L89.2999 137L89.7999 136.1L89.8999 136L90.0999 135.9L90.1999 135.8L90.4999 135.4L90.6999 134.8L90.8999 134.5L91.0999 134.4H91.4999H91.6999H91.7999L91.8999 134.3L91.9999 134.5V134.7L92.0999 134.9L92.3999 135.1L92.4999 135L92.5999 134.7L92.8999 134.6L93.0999 134.7L93.4999 135.1L93.7999 135.2ZM61.1999 118.2L61.9999 118.7L62.1999 118.9L62.2999 119.3L62.3999 119.5V119.8L62.2999 120.1L61.9999 120.3H61.6999L61.5999 120.2L61.0999 119.8L60.7999 119.6L61.0999 120.1L60.9999 120.3H60.7999H60.4999L60.1999 120L59.9999 119.9L59.0999 119.8L58.8999 119.7L58.6999 119.8L58.1999 120.8L57.9999 121L57.5999 121.1H57.2999L56.9999 121V120.7L57.1999 120.4L57.7999 119.5L57.9999 119.3L58.1999 119.1L58.8999 118.8L58.9999 118.7L59.1999 118.2L59.6999 118.6L60.0999 118.5L60.5999 118.3L61.1999 118.2ZM64.6999 116.8H64.9999L65.0999 117L65.1999 117.2V117.6L64.9999 118L64.5999 118.3H64.1999L63.7999 118.2L63.3999 118.4H62.7999L62.0999 118.3L61.5999 118L61.3999 117.7L61.2999 117.5L61.3999 117.3L61.4999 117L61.5999 116.8L61.7999 116.7L62.1999 116.8L62.2999 116.9H62.3999H62.5999V116.8V116.5L62.6999 116.4H63.3999L63.6999 116.5L64.1999 116.8H64.3999H64.6999ZM68.3999 115.1L68.4999 115.2L68.7999 115.3V115.4V115.6H68.6999H68.4999L68.3999 115.4H68.2999L68.0999 115.5L67.3999 115.2L66.9999 115V114.8L67.1999 114.4L67.5999 114.1L67.8999 114.3L67.5999 114.8H67.8999H68.0999L68.2999 114.9L68.3999 115.1ZM71.3999 115.4L71.2999 115.8L71.3999 116.2L71.4999 116.7L71.6999 116.9L71.4999 117.1L71.0999 116.6L70.4999 115.3L69.8999 114.9H69.7999L69.4999 115H69.3999H69.2999L68.9999 114.6L68.5999 114.3V114.2L68.6999 114L68.8999 114.1L69.3999 114.3H69.4999L69.5999 114.5H69.7999L70.5999 114.8L70.8999 114.9L71.1999 115.1L71.3999 115.4ZM55.6999 113.8L55.5999 113.1L56.0999 112.7H56.8999L57.1999 113.1L56.9999 113.7L56.6999 114.1L56.1999 114.2L55.6999 113.8ZM91.0999 143.3L91.2999 143.4L91.3999 143.6L91.4999 143.9L91.3999 144.1L91.1999 144.2L90.7999 144.5L90.5999 144.6L90.1999 145.3L89.7999 145.6L89.3999 145.5L89.1999 145.2L89.3999 144.8L90.3999 143.7L90.8999 143.4L90.9999 143.3H91.0999ZM66.8999 117.8L66.5999 118L66.3999 117.9L66.1999 117.8H65.9999L65.8999 117.9V118.2L65.7999 118.3L65.4999 118.1L65.2999 117.2V116.7L65.3999 116.1L65.5999 115.5L65.9999 115.4L66.0999 116.5L66.1999 116.6L66.6999 116.9L66.7999 117.1L66.8999 117.3L66.9999 117.6L66.8999 117.8ZM95.7999 141.9L95.9999 142.1L96.0999 142.4V142.7L95.9999 142.9L95.8999 143.3V143.6L95.7999 143.9L95.4999 144.1L95.2999 144.2L94.9999 144.3H94.7999H94.6999L94.4999 144.2L94.1999 144L94.0999 143.9L93.9999 144L93.7999 144.1L93.5999 144L93.4999 143.8V143.7L93.2999 143.2V142.8V142.6V142.3L93.3999 142.2V142.1L93.4999 141.9L93.5999 141.8V141.6L93.4999 141.5L93.3999 141.4L93.2999 141.3V141.1V141L93.3999 140.8L93.5999 140.4L93.7999 140.1L93.9999 140H94.1999L94.2999 139.9L94.1999 139.5H94.2999L94.4999 139.6L94.6999 139.8L94.9999 140.8L94.8999 141V141.1V141.5L95.0999 141.9H95.3999L95.5999 141.8L95.7999 141.9Z" fill="#C8A668"/>
<path d="M50.9 101.1L51.1 100.6V100.4V99.3001L51 99.0001L50.9 98.8001H50.8H50.7H50.6L50.4 98.9001H50.3L50.2 98.8001L49.9 98.7001L49.4 98.6001L49.2 98.5001L48.8 98.2001L48.6 97.8001L47.5 96.7001L48.6 96.2001L48.8 96.1001L49 95.9001L49.1 95.7001L49.3 95.1001L49.5 94.8001L49.8 94.3001L50.1 94.1001L50.3 93.9001L51.1 93.4001L51.4 93.3001L51.8 93.2001H52.1H52.7L53.5 93.4001L53.7 93.5001H53.9H54.1H54.4L55.2 93.2001L56.4 92.9001L56.8 92.7001L57.3 92.4001L58.6 92.0001L61 91.0001L61.3 90.9001H61.4L61.6 91.0001H61.9L64 91.7001L65 91.6001L66.9 90.7001L67.9 90.0001L68 89.9001L68.5 90.2001H68.8H69L69.3 90.1001H69.6H69.7L69.9 90.2001H70L70.2 90.0001H70.3H70.6L71.5 90.2001H71.9L72.8 90.0001H73.1L73.7 90.5001L74.5 90.8001L75.3 91.0001L76.4 91.1001L76.9 91.2001L77.2 91.5001L77.4 91.8001L77.5 92.0001L78 92.3001L78.7 92.5001L78.9 92.7001L79 92.8001L79.1 92.9001H79.3L79.5 93.0001L79.6 93.3001L80 93.5001L80.5 93.9001L80.9 94.0001L81.7 93.4001H82L82.3 93.2001L82.7 92.3001L82.8 92.2001L83 92.0001L83.1 91.9001V91.5001V91.3001L83.3 91.2001H83.7H84L85.3 91.7001L85.8 91.8001V92.0001L86.3 92.8001L86.8 93.1001L87 93.2001L87.9 93.7001L88.2 93.9001L88.3 94.0001V94.2001V94.7001L88.8 95.7001L89 95.9001L89.3 96.1001L89.9 96.5001L90.3 97.1001L92.6 98.1001L93 98.6001L93.4 99.2001L93.7 100.5L93.8 101.1V101.7L93.6 102.4L93.2 103.6L92.9 104.1H92.7L91.9 104.3H91.6L89.7 104.1L89 103.9L88.8 103.8H88.6L88.5 103.7L88.4 103.4H88.3L88.1 103.2L87.7 102.5L87.6 102.4H87.2H87.1V102.3L86.5 101.4L85.7 100.4L85.4 100H85.2L85 100.3L84.5 100.5L83.4 100.7L80.5 100.5L78.7 100.7H77.8L77.6 100.6L77.2 100L77 99.9001L77.1 100.5L77 100.7L76.8 100.8H76.4L76.1 100.7L75.9 100.5L75.6 100.4H75.3H70.5H70.3L69.9 100.6L69.7 100.7H68.2H68H67.8L67.5 100.9H67.4H67L66.2 100.7H64.9L64.5 100.8L64.2 101.2L63.8 101.4L62 101.6H61L60.2 101.8H59.9L59.7 101.7L58.8 100.3L58.5 100L58 99.9001H57.7L57.1 100H56.9L56.7 99.9001L56.5 99.7001L56.4 99.5001L56.2 99.3001L56.1 99.6001L56 99.7001H55.7H55.3H55.1L54.9 99.6001H54.8L54.6 99.9001L54.5 100.1V100.4L54.4 100.6L54.1 100.7H53.8H53.5L53.3 100.8L53.1 100.9L52.8 100.7H52.5L52.2 100.8L51.5 100.9L51.1 101L50.9 101.1Z" fill="#C8A668"/>
<path d="M92.8998 104.1L93.1998 103.6L93.5998 102.4L93.7998 101.7V101.1L93.6998 100.5L93.3998 99.2L92.9998 98.6L92.5998 98.1L90.2998 97.1L89.8998 96.5L89.2998 96.1L88.9998 95.9L88.7998 95.7L88.2998 94.7V94.2V94L88.1998 93.9L87.8998 93.7L86.9998 93.2L86.7998 93.1L86.2998 92.8L85.7998 92V91.8H86.0998L86.4998 91.6L87.3998 92L87.6998 91.9L87.5998 91.7L87.4998 91.2L87.5998 91L87.9998 91.3L88.3998 91.4L88.8998 91.2L89.2998 91.5L89.3998 91.7V91.8L89.4998 92L89.6998 92.1L89.8998 92.2H90.3998L90.5998 92.1H90.7998L90.9998 92L91.1998 91.9H91.4998H91.5998L91.6998 92.1H91.8998L92.0998 92L92.6998 92.4L94.1998 92.7L94.7998 93L94.9998 93.1L95.6998 92.8L95.9998 92.7L96.3998 92.8L97.1998 93.2L97.5998 93.4L100.3 93.8L101.7 93.6H101.9L102.3 93.8H102.4L102.6 93.6L102.7 93.5L102.6 93.3L102.4 93.2L102.7 93.1L103.5 92.8L103.8 92.5L106 91.6L106.7 91.5L107 91.3L107.4 90.8L108.1 90.5L109.4 90.1L109.9 89.7L110.2 89L110.5 87.7L110.8 87.1L111.1 86.9L111.4 86.8L111.7 86.6H112.1H113.4H113.8L114 86.5L114.1 86.3L114.3 86.2H114.5L114.7 86.3L114.8 86.5L114.9 86.6L115.1 86.7L115.4 86.6L115.7 86.2L115.8 85.7V85.4L115.7 85L115.3 84.9L114.6 85L114.2 84.7V84.2L114.3 83.7L114.5 83.3L115.6 82.5L115.7 82.3L115.9 82.2L117.3 82.5L117.8 82.4L118.1 82.2L118.6 81.6L119 81.4L119.8 81.3L120.2 81.2L120.5 80.8L120.4 80.4L120.1 80L119.9 79.6L120 79.1L120.2 78.8L122.2 77.3L122.4 77V76.9L122.8 77.1L122.9 77V76.3V76.1L123.1 76L123.5 75.8L123.9 75.7L124.1 75.9V76.7L124.3 77L124.7 77.1H125.1L126.4 76.9L126.9 77L127 77.2L126.7 78L126.8 78.9L127.2 79.4L127.7 79.7L128.2 80.1L128.4 80.9L127.8 81.4L126.9 81.7L126.3 82.1L125.7 82.8L125.3 83.5L124.1 87L123.2 88.6L122.5 89.4L121.9 90L121.8 90.2L121.6 90.7L121.5 90.8L121.4 91L120.7 91.3L120.1 91.5L119.9 91.6L119.8 91.8L119.5 92.3L119.3 92.4L118.8 92.5L118.4 92.8L117.7 93.5L117.1 94L116.8 94.3L116.6 94.8L116.3 95.2V95.5V95.7L116.2 95.9L116 96.2L115.3 96.8L115.1 97.2L115 97.4L114.9 97.6L115 97.8L115.1 97.9L115.2 98.1V98.4L115.1 98.5H114.7H114.5L114.4 98.6L113.6 99.7L113.5 100L113.8 100.1V100.3L113.4 100.4L113.2 100.7L112.9 101.3L112.3 101.2L111.9 101.4L111.4 101.6L111 101.8L110.6 101.9L110 102.3L107.6 102.8L106.6 102.9L105.8 102.6L105.6 102.7L105 103.3L104.5 103.1H104.3L104.1 103.2L103.8 103.5H103.6L102.3 103.6L101.9 103.7L101.1 103.9H100.9H100.2L99.8998 104.1L99.4998 104.3H99.3998L99.0998 104.2L98.8998 104.1H98.5998H98.1998L97.4998 104.4L96.8998 104.5L96.6998 104.6L96.3998 104.9H96.2998L96.0998 104.8L95.3998 104.3L95.1998 104.2L93.0998 104L92.8998 104.1ZM129.3 79.5H129.4V79.9L129.3 80.5V81.1L129.2 81.2L128.9 81.5V81.6L128.7 82.3L128.4 82.5L127.7 82.7H127.1L126.8 82.4L126.9 82.2L127.1 82.1L127.5 82L128.4 81.6L129.3 79.5ZM132 63L132.4 63.2L132.5 63.4L132.4 64.1L131.8 64.4L131.2 64.2L130.8 63.8L130.7 63.3L131 63L131.3 62.9H131.6L132 63ZM132.2 55L132.4 55.2V55.5L132.2 55.8L131.7 56.2L131.5 56.3V56.5L131.4 56.8L131.5 57.1L131.7 57.4L131.8 57.6V57.9V58.1L131.6 58.2H131.2L131 58L130.9 57.6V57.2L130.8 56.9L130.6 56.3L130.5 56L130.6 55.7L130.9 55L131.1 54.8L131.4 54.6H131.7L132 54.7L132.2 55ZM136.3 41.6L136.4 41.7L136.6 42V42.2V42.3L136.5 42.4L135.8 43H135.6H135.4L135.3 42.8V42.6L135.2 42.4L134.8 42.2L133.8 41.9L133.5 41.7L133.4 41.3L133.6 40.4L133.7 40.2V40.1V39.4V39.3L133.2 39.1L132.2 38.2L132 38L131.8 37.6L131.7 37.2V36.8L132.2 36.3L132.9 36.4L133.6 36.8L134 37.3L134.7 38.4L134.8 38.8V38.9V39V39.1V39.4L134.9 39.5L135.2 39.7L135.4 39.9L135.6 40.5L135.8 40.6L136.1 40.7H136.2V41.1L136.3 41.6ZM157.9 34L158.7 34.1L159.3 34.5L159.7 35.1L159.9 35.4L160.2 35.8L159.8 36.1L159.3 36.4L158.4 35.5L157.8 34.5L157.9 34ZM156.2 31.4L157.1 32.4L157.3 32.6V33L157.1 33.4L156.8 34L157 34.8H156.6L156.5 33.9L156.3 33.1L156.4 32.4L156 32L155.6 31.7L155.5 31.2L155.4 30.5V30.2L155.9 30.5L156.2 31.4ZM160.4 24.5L161 25L161.5 25.5L160.3 26.9L159.2 27.9V29.3V30.3L159 30.7L158.2 31.2L157.4 30.8L156.6 31L156.4 30.4L156.6 29.8L156.9 29.5L157.5 29.1L158.2 27.4L159.1 26.6L158.9 26.3L158.6 26.2L158.2 26.1L157.3 25.8L157.2 25.3L157.4 24.9L157.2 24.4L157.1 24.2V24L157 23.7V23.2L157.2 22.6L157.8 21.7L157.9 21.5V21.3V21.1L157.8 20.7L157.7 20.4L157.9 20.2L158.4 20.1H159L159.4 20.2L159.6 20.4L159.7 20.6V20.8L159.9 21L160.1 21.2H160.4H160.5L160.6 21.6L160.7 22L160.6 22.4L160.4 22.8L160.3 23.3L160.2 23.8L160.4 24.5ZM131.2 68.3L131.5 68.1V68.2V68.5L131.4 68.6H131.3H131.2L130.9 68.8H130.8L130.6 68.9L130.5 69.1L130.3 69.2H130.2L130.1 69V68.8L130.2 68.7L130.3 68.6L130.4 68.5H130.5V68.4L130.4 68.3V68.2V68.1H130.6L130.7 68.2H130.8L130.9 68.3H131.1H131.2ZM154.9 0.1L155.1 0V0.199999L155 0.299999L154.9 0.1ZM126.8 74.6L126.9 74.8V75L126.5 75.5L126.4 75.6V75.8H126.3L126.2 75.6L126.1 75.4L126 75.2L125.9 74.8V74.5V74.3L126 74.1L126.1 74L126.3 74.2L126.5 74.4L126.7 74.6H126.8ZM165.6 15.7L165.7 15.8L165.9 16.1L165.7 16.4L165.4 16.1V15.8L165.5 15.7H165.6Z" fill="#C8A668"/>
<path d="M22 148.9L21.1 150.7L20.9 151L20.6 151.2L20.4 151.3H20.2H19.9L19.7 151.4L17.6 153.3L17.3 153.6V154L17.2 155L17.1 155.3V155.6L17.2 155.8L17.4 155.9L17.8 156.1L18.1 156.2L18.8 156.8L19 157.1L19.2 157.4L19.3 157.6L19.2 158L18.9 158.5V158.7L19 158.9L19.2 159.2L19.3 159.4L19.4 159.7L19.3 160.2L19.4 161L20.1 161.9V162.1L20 162.5L19.9 162.8L20 163L20.1 163.1L20.3 163.2V163.4V163.5L20.2 163.8L19.9 164L19.2 164.4L17.9 164.8H17.4L16.6 164.6L16.2 164.5L15.9 164.6H15.3L15 164.8L15.5 165.7V165.9V166.2L15.4 166.6V167V167.4L15.5 167.7L16.8 170.8L17.3 171.5L17.5 171.8L17.4 172L17.2 172.1L16.3 172.3L15.9 172.5L15.5 172.7L14.8 173.2L14.5 173.3L14.2 173.4H14L13.7 173.3L13.5 173.2L13.3 173.3L13.1 173.4L13 173.6L12.9 173.8L13 174.1V174.3L13.5 174.8L13.7 175V175.1L13.8 175.9L13.9 176.6V176.9L14.3 178L14.5 179.2H14.4L14 179L13.8 178.9L13.3 179L12.7 178.7L12.1 178.3L11.6 178.1L10.9 178L10.7 178.1L10.5 178.2L10.4 178.4L9.60004 179L9.30005 179.2L8.90002 179.3L8.60004 179.2L8.30005 179.1H7.90002H7.60004L7.10004 179.5L6.70001 179.6L5.30005 179.7L4.70001 180L4.90002 180.7L4.60004 180.6L4.40002 180.3H4.20001L4 180.4L3.80005 180.9L3.60004 181L3.30005 180.8L3.10004 180.4L2.40002 178.4L2 177.7L1.80005 177.3L1.70001 176.9L1.60004 176.5L1.70001 176.1L1.80005 175.8L1.90002 175.4L1.5 174.7L1.30005 173.4L1.20001 173L1.10004 172.8L0.900024 172.7L0.700012 172.6L0.5 172.4L0.400024 172.2L0.300049 172L0.200012 171.6L0.100037 171.4L0.200012 171.2L0.5 170.9L0.600037 170.8H0.800049L1.30005 171H1.5L1.80005 170.9L1.90002 170.6V169L2.10004 168.5L2.40002 168.1L2.5 167.8L2.60004 167.3L2.5 167L2.40002 166.8L2.20001 166.7L2 166.6L1.5 166.4L1.10004 166.5L0.300049 166.8L0.200012 166.4L0 165.6V165.1V164.9L0.300049 164.5L0.400024 164.3V163.4L0.5 163.1L0.700012 162.6L0.900024 162.3L1.30005 162.1L1.60004 162.2L1.90002 162.5L2.20001 162.7L2.70001 162.8L3.10004 162.6L4 162L4.40002 161.6L4.90002 161.4L5.10004 161.2L5.20001 161L5.40002 160.3L5.70001 159.9L6.10004 159.7L6.40002 159.6L7.5 158.8L7.60004 158.5L7.5 157.3L7.40002 156.8L7.30005 154.8L7.40002 154.6L7.5 154.4L7.60004 154.1L7.40002 153.8L8.20001 152.7L8.40002 152.2L9 150L9.40002 149.4L10 149.1L10.5 149H10.8L11.1 149.1L11.4 149.2L11.6 149L11.8 148.5L12 146.8V146.5V146.4L11.9 146.3L11.7 146.1L11.4 145.8L11.3 145.5L10.9 143.7L10.8 142.9L10.9 142.5L11.3 141.7L11.4 141.3L10.9 140L10.8 139.8L10.6 138.1V138V137.9L10.7 137.7L10.8 137.5L11.3 137.1L11.4 136.9L11.3 136.5L11 135.6V134.9L11.3 134.2L11.7 133.7L12.2 133.3L12.3 133.1L12.5 132.9L12.7 132.6L12.9 132.5H13.3L13.5 132.2L13.7 131.9L13.9 131.1L14.2 130.4L14.3 129.3L14.5 128.9L14.7 128.7L14.8 128.4L15 127.6L15.2 127.2L15.4 127L16 126.7V126.8L16.1 127.6L16 129.9V130.5L16.1 131L16.5 132.4L16.7 133L16.6 133.3L16.4 133.6L15.2 134.4L14.9 134.7L14.6 135.1L14.4 135.7V136.2L14.6 136.5L14.8 136.7L15.2 136.9L17.5 137.8L17.8 138L18 138.2L18.3 138.6L18.5 139.1L18.8 141.2L18.9 141.7L19.1 142.1L20 143.2L20.5 143.8L21 144.4L21.4 145L21.5 145.3V145.7L21.4 146.2L21 147.2V147.5V148L21.1 148.3L21.3 148.6L21.5 148.8L21.7 148.9H22Z" fill="#C8A668"/>
</svg>
