<svg width="279" height="235" viewBox="0 0 279 235" fill="none" xmlns="http://www.w3.org/2000/svg">
<path d="M187.2 122.5H187.4L187.5 122.7V122.9V123L187.4 123.2L187.3 123.3H187.2H187L186.7 123.4L186.5 123.5L186 123.4L185.7 123.3L185.6 123L185.7 122.7L186 122.6L187.2 122.5ZM167.9 103.2L168.2 103.3V103.5V103.7V103.9L167.9 104.4L167.8 104.7L167.6 104.9L167.3 104.8L167.2 104.5L167.3 104.2L167.4 104L167.5 103.9L167.8 103.4L167.9 103.2ZM188.9 101.3L189.7 101.4L190 101.5V101.8L189.8 102H189.6L189 101.9H188.7L188.4 102L187.8 102.3V101.8L188.1 101.5L188.4 101.4L188.9 101.3ZM171.1 100.5L171.8 101L172.1 101.3L172.3 101.7V102H172H171.8L171.7 101.8L171.5 101.5L171.1 100.8V100.5ZM167.1 98.9001L167.3 99.1001L167.4 99.4001V99.7001L167.2 99.9001H167L166.7 99.8001L166.5 99.7001L166.4 99.5001L166.3 99.4001L166 99.2001V99.1001L166.9 98.9001H167.1ZM168.2 100.9L168.3 101.1V101.3V101.7L167.6 100.9L167.3 100.7L166.6 100.4L166.3 100.2V99.8001L166.4 100L167.6 100.4L167.8 100.5L167.9 100.6L168.1 100.8L168.2 100.9ZM174.1 99.6001L175 99.8001L175.7 100.2L176.2 100.9L176.6 101.5L176.5 101.8L176.4 101.9L176.2 101.8L176 101.7L175.6 101.1L175.5 100.9L174.8 100.6L174.7 100.5L174.6 100.3L174.1 99.7001V99.6001ZM167.6 101.8L167.9 102L168 102.2V102.4L167.4 103.6L167 104.1L166.5 104.3L166.1 104.1L165.9 103.7L165.7 103.3L165.5 103.1L164.8 102L164.7 101.6L164.6 101.2L164.7 101L164.9 100.5L165 99.9001L165.2 99.6001L165.6 99.5001L165.9 99.7001L166 100L166.2 100.4L166.4 100.7L167 100.9L167.2 101.1L167.6 101.8ZM173.8 100.3L174.1 100.5L174.4 101L174.5 101.5V101.9L174.4 102H174.3L174.2 101.9L173.8 101.6L173 101.2L172.7 100.8L172.4 100.4L172.3 99.8001L172.6 99.4001L172.8 99.5001L173.1 99.6001L173.3 99.7001L173.8 100.3ZM176.6 97.4001L176.8 97.6001L176.9 97.8001L177.1 98.1001L177 98.4001L176.9 98.5001L176.6 98.6001H176.4H176.2H176L174.9 98.0001L174.7 97.8001L174.5 97.5001V97.3001L174.6 97.1001H174.9L175.2 97.3001V97.1001L175.3 96.7001L175.6 97.1001L175.9 97.2001L176.6 97.4001ZM193.5 96.7001L193.7 96.8001L194.1 96.9001L194.4 97.0001L194.3 97.3001L194.4 97.4001L194.5 97.5001L194.6 97.7001V97.8001L194.5 98.0001L194.4 98.1001L194.3 98.2001H194.2L194.1 98.0001L194 97.8001V97.5001V97.4001L193.4 96.9001L193.5 96.7001ZM248.2 96.6001L248.6 96.8001L248.9 97.0001V97.1001L248.4 97.7001L248.1 97.9001L247.9 97.8001V97.7001L248 97.6001L248.1 97.5001V97.3001L248 97.2001H247.8H247.6L247.5 97.0001V96.8001L247.7 96.7001L247.9 96.6001H248.2ZM166.7 97.1001V97.2001V97.3001V97.4001L166.6 97.5001H166.3L166 97.4001L165.4 97.1001L165 97.3001L164.7 97.0001L164.2 96.1001V95.9001L164.3 95.5001L164.5 95.1001L164.7 95.0001L164.8 94.9001L165.2 94.7001H165.4L165.6 94.8001L165.7 94.9001L165.6 95.1001V95.4001L165.7 95.8001L165.8 96.1001L165.9 96.3001H166L166.3 96.4001H166.4L166.5 96.5001V96.6001V96.7001V96.8001V96.9001L166.6 97.0001L166.7 97.1001ZM180.6 94.2001L180.7 94.6001V95.0001L180.3 96.4001H180.1L179.8 96.1001V96.2001V96.3001V96.4001L179.9 96.6001L179.8 96.7001L179.7 96.8001L179.6 97.0001L179.5 97.1001V97.2001V97.5001L179.4 97.6001L179.2 97.5001H179.1L178.7 97.7001L178.3 97.5001L177.6 97.1001H177.5L177 97.2001L176.8 97.1001H176.7L176.1 96.3001L175.9 95.9001L175.8 95.6001L176 95.4001H176.2L176.5 95.8001H176.7L176.8 95.7001V95.5001L176.7 95.3001L176.6 94.9001V94.8001V94.7001L176.8 94.6001L177.1 94.5001L177.5 94.7001H177.6L177.9 94.5001L178.1 93.8001L178.3 93.6001L178.5 93.8001L179.1 94.5001L179.4 94.7001L179.5 94.5001V94.2001L179.4 94.0001L179.3 93.7001L179.5 93.6001H179.7H180L180.2 93.8001L180.4 93.9001L180.5 94.0001L180.6 94.2001ZM190.7 95.4001V95.8001L190.9 96.7001L190.6 97.2001L190.5 97.4001L190.6 97.8001L190.7 98.4001V98.5001L190.8 98.6001L190.7 98.8001L190.6 99.0001H190.3L190 99.1001L189.9 99.2001L189.8 99.4001V99.7001L189.6 100.6L188.9 100.7L187.3 100.1L187.4 99.8001L187.3 99.5001L187 99.2001L186.6 99.0001V98.9001H187.1H187.3L187.4 98.8001L187.3 98.6001L187.1 98.5001H186.6L186.2 98.4001L186 98.2001V98.0001L186.2 97.8001L186.9 97.7001L186.8 97.5001V97.3001L186.9 97.0001H187L187.2 96.8001L187.3 96.7001L187.1 96.6001L187 96.5001L186.8 96.3001L186.7 96.2001H186.4L186.2 96.3001L185.3 96.8001H185.1L184.6 96.9001H184.4L184.2 97.2001L183.9 97.3001H183.3H183.1L182.6 97.0001L182.5 96.6001V96.2001L182.3 95.8001V95.5001L182.8 95.2001L183.7 94.8001L184 94.7001L184.1 94.6001L184.3 94.3001L184.4 94.1001V93.9001L184.5 93.8001L184.8 93.7001L185.2 93.8001H185.4L185.5 93.6001L185.6 93.3001L185.9 93.4001L186.3 93.6001L187.1 93.8001H187.8L188.3 93.6001L189 93.2001L188.9 93.0001L189.1 92.9001L189.3 93.0001L189.4 93.4001L189.3 94.1001V94.5001L189.6 94.8001L190.5 95.3001L190.7 95.4001ZM278.7 67.0001L278.8 67.2001V67.3001L278.5 67.6001L278.1 67.7001L277.6 67.9001H277.1L276.8 67.7001L276.9 67.4001L277 67.3001L277.1 67.1001L276.7 66.9001H276.6L276.4 67.1001H276.3H276.2L276.1 67.0001L276 66.9001V66.8001V66.6001L276.3 66.5001L276.5 66.4001L276.8 66.5001L277 66.6001L277.4 66.8001L277.7 66.9001H278.5L278.7 67.0001ZM222.1 62.5001V62.8001L222 62.9001V63.0001L221.9 62.9001L221.6 62.5001L221.5 62.1001L221.3 61.8001L221.2 61.5001L221.3 61.3001H221.5L221.7 61.4001L221.9 61.6001L222 61.8001L222.1 62.5001ZM273.5 58.3001L273.7 57.7001H274.2L274.6 58.1001L274.3 58.7001V58.9001L274.5 59.7001L274.4 60.0001L274.3 60.1001L273.9 60.2001L273.7 60.3001V60.4001L273.5 60.7001V60.8001H273.2L273 60.6001L272.6 60.3001L272.3 60.1001L272.2 60.0001L272.1 59.8001H272.2L272.6 59.6001L272.9 59.3001L273.2 59.0001L273.4 58.8001V58.5001L273.5 58.3001ZM253 57.5001L253.1 57.9001V58.0001L252.2 58.2001H252L251.8 58.1001L251.9 57.5001L252.3 57.3001H252.8L253 57.5001ZM213.3 57.8001H213.6L214.2 58.0001L214.4 58.1001L214.2 58.4001H214.1V58.2001H214L213.5 59.7001L213.3 59.8001L213.1 59.6001H212.9L212.8 59.8001L211.9 60.1001L212 60.3001H212.1L212.2 60.4001H212.4H212.6V60.6001V60.7001L212.5 60.8001H212.3L212.1 60.9001H211.8H211.6L211.4 60.7001L211.3 60.5001V60.3001L211.2 60.0001L211.3 59.8001L211.5 59.3001L211.6 58.9001L211.8 58.4001V58.2001L211.6 58.0001L211.2 57.7001L211 57.5001L211.2 57.4001V57.1001V56.8001L211.1 56.6001L211.4 56.4001L211.5 56.8001L211.6 56.9001L212 57.1001H212.1V57.5001V57.8001V58.0001L212.4 58.1001H212.6L212.9 58.2001H213L213.1 58.1001L213.2 58.0001V57.9001L213.3 57.8001ZM222.9 54.2001V56.0001H222.8L222.4 55.5001L222 55.6001L221.9 55.5001L221.7 55.3001L221.4 55.2001L221.5 55.1001V55.0001V54.8001L221.6 54.7001L221.3 53.7001L221.4 53.3001H221.7H222L222.4 53.5001L222.7 53.9001L222.9 54.2001ZM222.6 50.6001L223 50.5001L223.1 50.7001L223 51.5001L223.1 52.2001L223 52.4001L222.9 52.5001H222.8V52.3001V52.0001H222.7L222.6 51.9001L222.5 52.0001V52.2001L222.7 52.7001L222.8 52.9001L222.9 53.0001L222.8 53.2001L221.8 52.6001H221.9V52.4001V52.1001L222.1 51.7001L222.2 51.3001L222.3 50.9001L222.6 50.6001ZM264.7 40.4001L264.9 40.2001V40.4001L264.5 41.5001L264.4 41.7001L263.6 42.8001L263.4 43.1001L263.3 43.4001L263.2 44.0001L263.1 44.2001L262.8 44.4001H262.5L261.8 44.3001L261.5 44.4001L261.2 44.5001L260.7 44.8001L260.5 44.9001L260.3 44.8001L259.6 44.4001L258.9 44.1001L258.7 44.0001L259.2 43.4001V43.2001L259.3 42.9001H259.4H259.6H259.7L260.1 42.8001L260.2 42.5001L260.3 42.2001L260.5 42.1001H260.8H261L261.3 42.2001L261.5 42.5001L262.1 43.1001L262.4 43.3001L262.3 43.0001L262 42.1001L261.9 42.0001L261.7 41.7001V41.6001H261.5H260.9H260.4L258.9 41.0001L258.2 40.9001L258 40.8001L257.9 40.6001L257.7 40.4001L257.4 39.8001V39.6001L257.3 39.3001V39.1001L257.1 39.0001L257 38.9001L256.9 38.8001V38.7001V38.2001V38.0001L256.7 37.9001L256.6 37.8001L256.5 37.7001L256.6 37.5001L256.8 37.3001L257.3 36.7001L257.5 36.6001L257.6 36.5001H257.8H258L258.1 36.4001L258.4 36.0001L258.5 35.9001H258.7L260.2 34.4001L260.4 33.9001L260.7 33.6001L261 33.3001L261.3 33.1001L261.6 33.4001L261.8 33.8001V34.8001L261.9 35.4001L262.2 35.7001L262.9 36.2001L264 37.6001L264.6 38.0001L264.7 38.1001V38.4001V38.9001L264.8 39.2001L264.6 39.4001L264.3 39.6001L264.1 39.8001L264 40.2001L264.2 40.1001H264.3L264.7 40.4001ZM256.9 22.6001L257.1 22.7001V22.8001L257 23.0001L256.9 23.2001L256.8 23.9001L256.7 24.2001L256.4 24.4001H256L255.8 24.3001L255.6 24.2001H255.5V24.1001L255.6 24.0001V23.9001L255.9 23.7001L256.2 23.5001L256.4 23.3001L256.5 23.1001V23.0001L256.6 22.8001L256.8 22.7001L256.9 22.6001ZM188.6 125L189.4 126L189.6 126.3L189.4 126.7L189 127L188.3 127.6L188.1 128L188 128.9L187.8 129.3H187.1L186.5 128.8L186 128.5L185.5 129.3L185.3 130L185.1 130.2H184.8L184.5 128.6L184.3 127.9L184.2 127.6H183.9L182.8 126.5L182.7 126.2L182.9 125.9L183.2 125.3L183.3 125.1L183.9 124.6L184.1 124.3L184.3 124H184.4L184.5 124.3L184.3 125.1L184.4 125.6H184.5L184.6 125.2L184.7 124.8H184.8L185.3 125.1L185.9 124.7L187 123.7L187.4 124L187.5 124.1L188 124.3L188.1 124.4L188.2 124.5L188.4 124.8L188.6 125ZM196.1 121.8L197.7 122.7L197.5 123L197.1 122.9L196.6 122.7L196.2 122.6L195.8 122.8L195.9 123L196.1 123.3L196.2 123.7L195.1 123.2H194.8L194.5 123.1L194.2 122.7L193.1 122.2L192.8 121.9L192.6 121.6L192.3 121.4L191.8 121.3H191L190.7 121.4L190.4 121.5L189.9 121.9H189.7H189.6L189.3 121.8L189.2 121.9L189 122L188.8 122.1L188.6 122.4L188.4 122.5H188.2L188.1 122.4L188 122.2L187.9 122.1L187.7 121.8L187.6 121.6H187.3L186.8 121.5H186.5L186.4 121.4L186.3 121.2V120.9L186.4 120.7V120.6L186.7 120.4L187.5 119.8L187.8 119.4L187.9 118.9L188.1 117.3L188.3 116.7L188.7 117.1L188.8 116.9L188.9 116.7V116.5L189 116.8L189.3 117L190 117.2L191.1 118.2L191.2 118.4L190.5 118.6V118.7L190.6 118.9L190.7 119L190.8 119.1L191.1 119L191.2 118.9H191.4L191.7 119L192.3 119.6L192.6 120.5L192.9 120.8L193.3 121L193.8 120.9L193.9 120.8V120.5L194 120L194.5 119.9L195.1 120.4L196.1 121.8ZM187.5 115.7L187.3 115.8L187.2 115.9H187L187.2 116.2L187.3 116.4V116.7H187.1L186.8 116.2L185.8 115.3L185.6 114.8H185.8L185.9 114.9L186.2 115L186.1 114.9L185.8 114.1L185.7 113.9L185.8 113.7L185.9 113.6L186 113.7L186.2 113.9L186.4 114.2L187.4 115.5L187.5 115.7ZM191.3 115.7L191.7 116.3L191.6 116.5L191.2 116.4L190.8 116.1L190.4 115.7L190.2 115.6L190.1 115.1L190 115L189.7 115.3L189.5 115.1L189.2 114.6L188.9 114.4V114.3V114L188.8 113.9H188.6H188.5H188.4L188.3 113.7L188.2 113.6L188.1 113.4V113.3L187.6 112.7L187.5 112.5L187.4 112.3L187.6 112.4L187.8 112.5L188.2 112.8V112.7L188.3 112.6H188.4L188.5 112.7L191.3 115.7ZM185.7 110.4L185.9 110.6L186 110.8V111.1L185.8 111.3H185.7H185.6L185.5 111.2V110.9L185.4 110.8H185.2L185.1 110.7L184.6 110L184.4 109.9H184.5L184.6 109.8H184.7H184.8L185.1 110.1L185.7 110.4ZM182 103.1L182.5 103.4L183.1 103.8L183.4 104.2L183.2 104.7L183 104.6L182.9 104.4L182.6 103.9L182.1 103.4L182 103.1ZM183.3 103.1L183.1 103.2H182.9H182.8L182.4 102.9H181.9L181.8 102.8L181.5 102.4L181.4 102L181.6 101.7L182 101.5L182.3 101.6H182.5L182.6 101.4L182.7 101.3H182.9L183.1 101.4L183.2 101.5V102V102.3L183.4 102.7L183.6 103.1H183.3ZM182.2 99.7001L182.5 99.8001L182.8 99.9001L183 100.2L182.8 100.5L182.7 100.7L182.4 100.9L181.4 101.3H181.2L181 101.2L180.9 100.9L180.8 100.4L180.6 100.1L180.4 100L179.8 99.9001L179.5 99.7001L179.7 99.4001L179.6 98.7001L179.7 98.4001L179.9 98.3001L180.2 98.5001L180.8 99.1001L180.9 99.3001L181 99.5001L181.1 99.6001L181.4 99.7001H182.2ZM192 102.3H192.4L192.6 102.5L192.5 102.8L192.3 103L192.2 102.8L192 102.5V102.3ZM190.7 100.4L190.8 100.6V100.7V100.9L190.7 101L190.6 101.1L190.4 101.2H190.2L190.1 101.1L190.2 101L190.3 100.7V100.3L190.5 100.2L190.7 100.4Z" fill="#C8A668"/>
<path d="M154.7 111.4L155 111.1L155.6 110.9L156.2 110.8L156.5 111L156.1 111.2L155.5 111.5L154.9 111.6L154.7 111.4ZM159.5 104.8L159.6 105.1V105.3V105.4L159.5 105.7L159.4 105.8L159.3 105.7L159.2 105.5L159.1 105.3L158.8 104.7V104.5L158.7 104.3V104.2V104.1L158.8 104L159 104.1L159.2 104.3L159.4 104.5L159.5 104.8ZM160.2 101.4L160.3 101.7L160.2 102.1L160 102.6L159.8 102.8H159.6L159.5 102.6V102.4L159.4 102.2L159.5 102.1V101.9L159.6 101.8L159.8 101.6L159.9 101.5L160 101.4H160.2ZM104.8 66.6001L106.1 70.5001L106.6 71.4001L107.2 72.1001L108.6 73.6001L109.7 74.5001L110.8 75.0001L111.8 74.9001L114.2 76.6001L114.7 76.8001L115.1 77.2001L115.2 77.3001L115.5 77.6001L115.8 78.1001L116.1 78.7001L116.2 79.2001L116.3 79.8001L116.5 80.4001L116.9 80.8001L117.3 81.0001L117.2 80.7001L117.3 80.3001V79.9001L117.1 79.4001L116.9 79.1001L116.7 78.6001L116.5 77.7001L116.1 76.8001L114.9 75.3001L114.5 74.4001L114.4 73.4001L114.7 72.6001L115.2 72.0001L116.1 71.7001L116.5 71.6001L119.4 71.8001L119.5 72.0001V72.8001L119.7 73.2001L122 74.7001L124.3 76.6001L124.6 77.1001L124.8 77.5001V77.9001V78.8001V79.2001L125.3 80.3001L125.8 82.0001L126.2 82.8001L126.8 83.3001L128.2 83.9001L128.8 84.1001L129.6 84.4001H130.1L131.7 84.1001H132.4L133.2 84.3001L133.8 84.6001L138.6 88.7001L140.5 89.7001L141 90.3001L141.2 91.2001L141.1 91.9001V92.4001L141.2 92.7001L141.6 92.8001L141.9 93.0001L142.1 93.4001V93.7001L142 95.3001V96.0001L142.3 96.9001L142.9 97.7001L144.5 99.0001L146.6 101.2L147.3 101.8L148.2 102.3L148.7 102.4L149.1 102.5L149.9 102.6L150.3 102.5L151 102.3H151.3L153.6 102.7L155.5 102.8L156.3 103.1L157 103.8L159 106.1L159.6 106.9L159.8 107.8L159.4 108.4L158.7 108.8L157.2 109.5L156.4 110.1L155.9 110.3L155.2 110.5L152.9 111.6L152.6 111.8L152.3 112L150.9 112.3L150.6 112.5L150.4 112.6L150.3 112.7L149.9 113.4L149.7 113.5L149.1 113.4L148.8 113.2L148.1 112.4L147.8 112.3L147.2 112.2H146.8H146.7L146.8 112.4H147H147.5L147.7 112.5L147.8 112.6L148 112.8L148.4 113.3L148.9 113.8L149.6 114L150.3 113.7L150.4 113.5L150.6 113.3L150.7 113.1L150.9 113L151.4 112.8L151.6 112.7L151.9 112.5L152.8 112.6H153.2L154.3 112.1L155.7 111.9L156 111.8L157.4 110.9L157.8 110.8L158.1 110.7L159.1 109.7L159.4 109.5L159.9 109.4L160.4 109.2H160.8L161.2 109.1L161.5 108.7L161.9 107.8L162.3 107.5L163.5 107.3L164 107L164.6 106.6L165.1 106.5L165.6 106.6L166.3 106.9L167.4 107.6L168.6 108.5L169.5 109.7L169.9 111L170.1 110.6L170.3 110.4L170.5 110.3H170.7L170.9 110.4L171.1 110.5L171.6 110.7L172 111L172.4 111.3L172.6 111.6L173 112.4L173.8 116.4L173.9 116.7H174V117L173.8 117.3L173.6 117.4H173.3L172.9 117.3L171.2 117.5H171.1V117.9L170.9 118H170.7L170.5 118.1H170.4L170.2 118L170 117.8L169.8 117.5L169.6 117.3H169.5L169.3 117.4L169.2 117.5L169.1 117.6V117.8L169.3 117.9H169.4L169.5 118V118.2L169.4 118.4V118.6L169.5 119L169.3 119.2L169 119.3L168.7 119.4H168L167.7 119.5L167.6 119.7L167.5 120.3L167.2 120.7L166.7 121.1L166.1 121.4L163.9 121.8L163.3 122.2H163.6L164.2 122.3H164.5H164.8L165.5 122L165.8 121.9L166.3 121.8L167 121.4L167.6 121.3L167.9 121.7L167.7 122.1L167 122.8L166.8 123.4L166.6 123.8L166 124L164.8 124.2V124.4L165.4 124.6L165.8 124.7L166.2 124.6L166.4 124.5H167.5H167.7L167.9 124.6L168 124.7L168.2 124.9L168.4 125H168.9L169.6 125.5L169.8 125.8L169.6 126.1L169.3 126.5L168.7 126.8L168.1 127L166.2 127.4L165.9 127.2L165.6 126.8L165.3 126L165.4 127.3L165.5 127.5L166 127.8L166.1 128L166.2 128.5L166 129.1L165.7 129.6L165.3 129.9V130.1L165.6 130.3V130.6L165.2 130.8L164.8 130.9L165 131.2L165.4 131.5L165.8 131.7L166.6 131.9H166.4L159.9 132.4L157.1 132.2H156.3L154.1 132.8L153.8 132.9L153.6 133.1L153.3 133.4L152.6 134.3L152.4 134.5L151.8 134.9L151.6 135L151.5 135.2L151.4 135.4L151.1 136L150.9 136.3L150.8 136.4L150.6 136.5L150 136.9L149.9 137.1L149.6 138.2L149.3 138.5L148.9 138.6L147.1 138.2L146.7 138.1L146.4 137.9L146.2 137.6L146.1 137.4L145.9 137.3L145.7 137.2L145.2 137.1L145.1 137L145 136.9V136.8L144.9 136.6L144.7 136.3L143.7 135.4L143.6 135.3L143.4 134.8L143.3 134.5L143.1 134.4L142.9 134.3L142.1 134.1L141.9 134L141.7 134.1H141.4L140.8 134.4H140.5L139.5 134.6L138.4 134.5L138.2 134.6H138L137.8 134.7L137.7 134.8L137.3 135.1L136.9 135.5L136.7 135.7L136.6 135.8L136.5 136.1L136.3 136.5L136.1 136.7L136 136.8L135.8 136.9L133.6 137.7L133.4 137.3L133.3 137.1L133.2 137L133.1 136.8L132.9 136.7L132.7 136.6L131.7 136.3L129.8 135.9L128.8 135.6L128.1 135.1L126.9 133.9L124.9 132.7L123 131L119.2 126.5L118.4 125.1L117.9 125L117.2 124.6L115.5 123.5L114.9 122.3L114.5 121.7L114.3 121.5L114.2 121.2L114.1 120.5L114 120.2L113.4 119.2L113.3 118.8V118.5L113.4 118.4L113.5 118.3L113.6 118.2H113.8L114.8 118.1H115L115.2 118L115.3 117.9V117.7L115.2 116.5V116L115.5 114.3V114L115.4 113.7L115.3 113.4L115.2 113.2L115 112.9L114.4 112.4V112.3L114.3 112.2L114.2 112.1L114.1 112L113.9 111.9L113.8 112L113.7 112.1H113.6L113.5 112L112.6 111.2L112.2 110.8L111.4 110.3L109.9 109.7L109.1 108.7L108.7 108.3L108.4 108.2H108L107.4 108.3H107.1L106.9 108.4L106.8 108.5L106.7 108.8L106.5 109H105.9L103.8 108.2L103.1 106.7L102.9 106.6L102.5 106.1L102.3 105.9L101.8 104.3V104.1L101.9 103.9L102 103.7L102.5 103.4L102.6 103.2L102.7 103.1V102.9V102.8L102.5 102.5L102 102.1V101.6V101.2L102.1 100.9L102.2 100.6L102.3 100.4L102.5 100.2L102.6 100.1L102.7 100L102.8 99.8001V99.6001V98.7001L102.9 97.4001V97.0001V96.7001L102.7 96.3001V96.0001L102.8 95.8001L103 94.9001L103.1 94.5001L103 94.2001L102.9 93.9001L102.8 93.7001L102.6 93.5001L102.4 93.4001L101.5 92.9001L101.4 92.7001L101.3 92.6001L101.2 92.4001V91.6001V91.4001L101.1 91.2001L100.9 91.0001L99.9999 90.2001L99.8999 90.1001V90.0001V89.8001L99.9999 89.7001L100.1 89.5001L100.3 89.4001L100.7 89.1001L104.6 87.4001L104.9 87.2001L105.5 87.0001L106.8 86.2001L107 86.0001L107.2 85.8001L107.3 85.5001L107.4 85.1001V84.7001L107.2 84.2001L106.4 82.5001L106 81.2001L105.8 80.9001L105.6 80.7001L104.8 80.1001L104.6 79.9001L104.5 79.6001L104.4 79.1001V78.3001L104.6 77.6001V77.5001L104.9 76.7001V76.1001L104.8 74.0001L104.5 72.8001L104.2 71.9001L104.1 71.3001V70.5001L104.4 67.7001L104.8 66.6001ZM163.7 104.7L163.8 105.2L163.9 105.7L163.8 106.3L163.5 106.5L161.8 106.8L161.6 106.9L161.3 107L161 106.8L160.7 106.5L160.6 106.1V105.8L161.1 104L161.5 103.4L162.1 103.1L162.5 103.2L162.8 103.4L163.1 103.7L163.3 104L163.6 104.3L163.7 104.7ZM158.9 101.4L159 101.6V101.7L159.1 101.8L158.9 102.1L158.8 102.9L158.6 103.2L158.5 103.3L158.3 103.4H158.1L158 103.3H157.9L157.6 102.8L156.5 101.9L155.8 101.5L155 101.3L153.3 101.5L152.9 101.4L152 101.2H151.6L150 101.6L149.2 101.7L148.4 101.5L147.4 100.8L147.2 100.7L146.2 99.8001V99.4001L146.5 99.0001L147 98.7001L147.8 98.5001L148.1 98.3001V97.9001L147.4 96.0001V95.2001L147.8 94.7001L148.6 94.6001L149.2 94.9001L150.2 96.0001L150.3 96.2001L150.4 96.5001L150.2 96.8001L150.1 97.1001L150.4 97.3001L150.9 97.4001H151.3H151.6L152.1 97.1001L152.4 97.0001H152.8L153.3 97.1001L153.6 97.3001L154.6 98.1001L156.1 98.8001L158.4 100.4L158.6 100.7L158.7 100.9L158.9 101.4ZM160.4 98.8001L161.2 99.3001L161.4 99.7001L161.2 100.1L160.4 100.6L159.6 100.5L157 98.8001L156.1 98.0001L155.8 97.8001L155.1 97.6001L154.8 97.5001L154.5 97.4001L154.2 97.2001L154 96.9001L153.8 96.7001L153.4 96.6001L152.2 96.7001L151.8 96.8001L151.4 97.1001L151 97.2001L150.5 97.1001V96.9001L150.8 96.5001L151.4 95.8001L151.7 95.5001L152 94.6001L152.3 94.3001L153.1 94.0001L154 94.1001L155.7 94.7001L157.3 95.5001L158.7 96.5001L159.5 97.3001L160.4 98.8001ZM147.5 92.6001L147.6 93.0001V93.5001L147 95.4001V95.8001V96.3001L147.3 97.4001L147.4 97.9001L147.3 98.1001H147.2H147L146.8 98.2001L146.2 98.7001L146.1 98.8001L145.5 98.6001L144.7 98.1001L143.4 96.6001L143.1 96.0001L142.9 95.7001L142.8 95.4001V94.9001L142.9 94.0001L143 93.3001L142.9 93.0001L142.6 92.6001L142.4 92.2001L142.2 91.8001L142.1 91.5001L142.2 91.3001L142.4 90.9001V90.7001L142.3 89.9001V89.5001L142.4 89.2001H142.7H143.2L143.9 89.3001L144.5 89.8001L145.6 91.0001L147.1 92.1001L147.4 92.4001L147.5 92.6001ZM148 90.1001L148.3 91.5001L148.2 91.9001L147.6 92.0001L146.7 91.4001L145.5 90.2001L144.7 89.2001L144.4 89.0001H144.2L143.8 88.8001L140.8 88.3001L140 87.9001L139.3 87.2001L138.7 86.5001L138.2 85.8001L138.3 85.2001L139.2 84.9001L139.6 85.0001L140.5 85.5001L140.8 85.7001L141.2 85.8001L141.6 86.0001L142.8 86.1001L144 86.3001H144.6H144.8L145.1 86.4001L145.4 86.6001L145.6 86.7001L147.3 87.1001L147.8 87.7001L148 88.6001V90.1001ZM132.6 76.4001L133.4 77.3001L133.6 77.9001L133.7 78.6001L133.6 79.0001L132.9 79.8001L132.8 80.3001L132.9 81.2001L132.8 81.5001L132.5 81.9001L131.5 82.6001L131.4 82.8001L131.2 83.1001L130.7 83.2001L130.2 83.3001H129.8L128.9 83.1001L128.1 82.8001L127.5 82.2001L127.1 81.4001L126.9 80.5001L126.7 80.1001L126.2 79.3001V78.9001L126.4 77.3001L126.6 76.7001L127.1 76.3001L127.8 76.1001L128.2 76.2001L128.9 76.4001H129.3L129.6 76.2001L130.5 75.2001L131.2 75.0001L131.9 75.4001L132.4 76.0001L132.6 76.4001ZM172 122.5L172.5 122.7L172.9 123.1L173.1 123.5L172.9 124H172.7H172H171.7L171.2 124.3L170.9 124.4H170.8L170.3 124.7L170 124.8L169.9 124.7L169.6 124.6L169.4 124.5L169.2 124.6L168.7 124.7L167.6 124.3L167.1 124.4L167 123.7L167.5 122.8L168.3 121.9L169 121.5L169.3 121.6L170.4 121.8L170.6 121.9L170.8 122.2L171.2 122.3L172 122.5Z" fill="#C8A668"/>
<path d="M133.6 137.7L135.8 136.9L136 136.8L136.1 136.7L136.3 136.5L136.5 136.1L136.6 135.8L136.7 135.7L136.9 135.5L137.3 135.1L137.7 134.8L137.8 134.7L138 134.6H138.2L138.4 134.5L139.5 134.6L140.5 134.4H140.8L141.4 134.1H141.7L141.9 134L142.1 134.1L142.9 134.3L143.1 134.4L143.3 134.5L143.4 134.8L143.6 135.3L143.7 135.4L144.7 136.3L144.9 136.6L145 136.8V136.9L145.1 137L145.2 137.1L145.7 137.2L145.9 137.3L146.1 137.4L146.2 137.6L146.4 137.9L146.7 138.1L147.1 138.2L148.9 138.6L149.3 138.5L149.6 138.2L149.9 137.1L150 136.9L150.6 136.5L150.8 136.4L150.9 136.3L151.1 136L151.4 135.4L151.5 135.2L151.6 135L151.8 134.9L152.4 134.5L152.6 134.3L153.3 133.4L153.6 133.1L153.8 132.9L154.1 132.8L156.3 132.2H157.1L159.9 132.4L166.4 131.9H166.6L166.8 132L167.1 132.1L167.2 132.3L167.1 132.6L166.8 132.9L166.7 133.2L167.5 133H168L168.4 133.3L168.6 133.5L168.9 134.2L169.1 134.4H169.2H169.4H169.5V134.5L169.6 134.6V134.7L169.8 134.8L169.9 135L170 135.1L170.5 135.3L170.6 135.5L170.7 135.7L170.8 135.8L171.5 135.9L171.8 136.1L172.3 136.6L172.6 136.7L173 136.8L173.4 136.9L173.6 137.1L173.8 137.4L174.2 138.1L174.3 138.4L174.5 137.5L174.9 137.2L175.3 136.9L175.7 136.7L176.6 136.5L176.8 136.4L178.1 137.1L178.5 137.3L178.8 137.4L179.8 137.5H180.2L181.5 138.2L181.9 138.3L182.7 138L182.9 137.9L184 137.6L185.2 137.5L185.3 137.7L185.8 139.4L185.6 140.7V141.5L185.8 142.1L185.9 142.3L186.5 142.9L186.6 143.1L186.7 144.4V147.4L186.9 148.2L187.2 149.1L187.9 150.5L188.2 151.4L187.9 151.6L187.8 151.5H187.5L187.3 151.4L186.7 151L186.2 150.6L185.8 150.5H185.6L185.4 150.7L185.3 150.8L185.1 151L184.6 152.4L184.4 152.6L184.1 152.8L182.4 153.3L181.1 153.4L180.2 153.3L176.9 152.5H176.1L175.5 152.6L168.5 156L168.2 156.3L168.4 156.6L168.2 159.1V159.7L168.4 160.1L168.5 160.3L168.8 160.5L168.9 160.6V160.7L168.8 160.8L168.6 161L168.3 161.1L167.9 161.2L167.2 161.3L167 161.4L166.9 161.6L166.8 161.8V162V162.2L167 163.1L167.1 163.6V163.8L167 163.9V164V164.1V164.3L167.1 164.4L167 164.5V164.6L166.8 164.7H166.6L166.2 164.5L163.9 162.3L163.8 162L163.6 161.5L163.3 160.8L163.1 160.5L162.8 160.3L162.5 160.2L162.2 160.4L161.8 161.2L161.4 161.6L161.3 162.1V162.3L161.4 162.6L161.6 162.8L161.8 163L161.9 163.3L162 163.6V163.8L161.9 164L161.6 164.2L160.8 164.5L160.4 164.6L159.9 164.4L158.8 164L158.2 164.2H157.7L157 164L156.4 163.9L155.8 163.7L155.4 163.6L155.2 163.7L155 163.9L154.8 164.2V164.6V164.8L154.9 165L155.1 165.2L155.2 165.3L155.3 165.6L155.2 165.8L153.8 167.9L153.6 168.2L153.2 168.5L152.9 168.7L152.7 168.8L152.5 168.7V168.6H152.4L152 169L151.6 169.2L150.7 169.7L150.4 170L150.2 170.3L150.1 170.5L149.9 170.7L149.6 170.9L148.4 171L148.1 171.1H147.8H147.4H147L146.5 170.9L146 170.7L145.1 170.1L144 169.9L143.3 169.3L142.8 170.2L141.7 170.9L141.3 171.1L140.5 171.2L140.3 171.4L139.5 172.2L139.3 172L138.8 171.9L138.5 171.8L138 171.5L137.4 171.2H137.1L137 171.3L136.6 171.4H136.4L136.2 171.3L135.8 170.8L135.5 170.6L135 170.5L134.7 170.4L133.7 169.8L132.9 169.3L132.3 168.6L131.9 167.9L131.2 167.3L131 166.8L130.9 166.6L130.6 166.3L130 166.1L129.7 165.9L129.5 165.6L129 163.6L128.7 163.1L128.6 162.8V162.7L128.5 162.6L128.3 162.4L127.9 162.2L127.5 161.8L127.3 161.6L127.1 161.5L127 161.4H126.7L125 162.6L124.3 160.2L123.5 158.3L123.2 157.8L123 157.6L122.4 157.1L122.1 156.7L121.8 156.2L121.2 155.1L120.9 154L120.7 152.9L120.6 150.8L121.4 151L121.7 150.9L122 151L122.4 151.3H122.8L126.3 150.8L126.6 151L127.2 151.1L127.5 151L127.8 150.8L128.3 150L128.6 149.6L129.4 148.9L131 147.6L131.5 147.2L131.7 146.8L131.9 146.2V146V145.9L131.7 145.7V145.5L131.9 145L132 144.7L131.6 143.6L131.7 143L131.8 142.6L132 142.4L132.1 142.3H132.3H132.5L133.2 142.2L133.7 141.9L134.1 141.6L134.6 141L134.8 140.6L135 140.2V139.9V139.8H134.9H134.8L134.7 139.9H134.5L134.1 139.7L133.9 139.5V139.1V138.6L133.8 138.2L133.6 137.7Z" fill="#C8A668"/>
<path d="M139.5 172.2L140.3 171.4L140.5 171.2L141.3 171.1L141.7 170.9L142.8 170.2L143.3 169.3L144 169.9L145.1 170.1L146 170.7L146.5 170.9L147 171.1H147.4H147.8H148.1L148.4 171L149.6 170.9L149.9 170.7L150.1 170.5L150.2 170.3L150.4 170L150.7 169.7L151.6 169.2L152 169L152.4 168.6H152.5V168.7L152.7 168.8L152.9 168.7L153.2 168.5L153.6 168.2L153.8 167.9L155.2 165.8L155.3 165.6L155.2 165.3L155.1 165.2L154.9 165L154.8 164.8V164.6V164.2L155 163.9L155.2 163.7L155.4 163.6L155.8 163.7L156.4 163.9L157 164L157.7 164.2H158.2L158.8 164L159.9 164.4L160.4 164.6L160.8 164.5L161.6 164.2L161.9 164L162 163.8V163.6L161.9 163.3L161.8 163L161.6 162.8L161.4 162.6L161.3 162.3V162.1L161.4 161.6L161.8 161.2L162.2 160.4L162.5 160.2L162.8 160.3L163.1 160.5L163.3 160.8L163.6 161.5L163.8 162L163.9 162.3L166.2 164.5L166.6 164.7H166.8L167 164.6V164.5L167.1 164.4L167 164.3V164.1V164V163.9L167.1 163.8V163.6L167 163.1L166.8 162.2V162V161.8L166.9 161.6L167 161.4L167.2 161.3L167.9 161.2L168.3 161.1L168.6 161L168.8 160.8L168.9 160.7V160.6L168.8 160.5L168.5 160.3L168.4 160.1L168.2 159.7V159.1L168.4 156.6L168.2 156.3L168.5 156L175.5 152.6L176.1 152.5H176.9L180.2 153.3L181.1 153.4L182.4 153.3L184.1 152.8L184.4 152.6L184.6 152.4L185.1 151L185.3 150.8L185.4 150.7L185.6 150.5H185.8L186.2 150.6L186.7 151L187.3 151.4L187.5 151.5H187.8L187.9 151.6L188.2 151.4L188.3 151.5V151.9V152.2V152.4L187.9 152.9L187.8 153.2L187.4 153.9L187.3 154.3V154.6V154.9L187.5 155.4L187.9 155.1L188.1 154.1L188.3 153.8L188.9 153.9L189.3 154.3L189.7 154.7L190 154.9L190.3 155.1L190.2 155.7L189.9 156.3L189.6 156.6L189.5 156.7L189.3 156.9L189.4 157.1L189.7 157L190 156.9L190.4 156.3L190.7 156.1L190.8 156.5V156.9V157.3L191.1 157.5H191.2L191.3 157.6H191.4V157.5H191.5V157.4L191.7 157.3H191.8L192.1 156.9L193 156.6L193.8 156.8L194.5 157.4L195 158.3L195.2 159.2L195 159.9L194.7 160.6L194.1 161.6L192.7 163.2L192.4 163.4L192.1 163.5H191.2L191 163.6L190.7 163.9L190 164.4L189.7 164.6L191.1 164H191.7L192.1 164.8V165.6V166.1L191.8 166.8V167.7L191.7 168L191.5 168.2L191.2 168.4L190.8 168.5L190.4 168.6L190.2 168.7L189.6 169.1L189 169.7L188.6 170.2L188.3 170.9V171.7V171.8L188.2 172L188.5 171.7L188.8 171.3L189.1 170.8L189.2 170.4L189.3 170.1L189.6 169.8L190.2 169.4L191.6 168.7L192.2 168.4L192.5 167.8L192.9 166.5V166.1V165.2L193 164.9L193.2 164.5L193.9 163.9L194.2 163.5L194.4 162.7L194.8 162.4L195.2 162.3L195.5 162.5L195.7 162.9V163.4V163.8L196.1 164.1V163.6L196.3 163.3L196.7 163.2L197.1 163.1L197.5 163.3L197.8 163.5L198.1 163.8L198.4 164L198.5 163.9L199 163.8H199.2L199.4 163.9L199.7 164.2H199.8L200.2 164.1L201.5 163.6L201.9 163.5H202.4L202.8 163.6L203.6 164L204 164.1H205L206.7 164.4H207.6L208.1 164.5L208.4 164.6V164.8H208.3H208.2H208.1L208.3 165L208.6 164.9L208.9 164.6L209.2 164.5H209.5L209.8 164.6L210 164.9V165.5L209.9 165.9L209.6 166.7L209.5 167.1V167.6L209.6 168L209.7 168.5L209.9 168.9L210.1 169.2L210.4 169.5L210.8 169.8L211.4 170L211.8 170.2H212H212.5H212.7L212.9 170.3L213.2 171L213.1 173.7L213.5 174.5L214.1 175.1L214.9 175.5L215.7 175.6H215.9L216.3 175.5H216.5H216.8L217.1 175.7L217.3 175.8L217.6 175.9L217.8 176.1L218.2 176.7L218.3 177.4V179L218.4 179.8L218.5 180L218.8 180.5V180.7V180.9L218.7 181.3V181.5L218.5 181.8L217.2 182.4L216.5 183L215.9 183.7L215.3 184.5L214.9 185.4L213.7 189.8L213.8 190.6L214.3 191.2L215.9 192.4L216.3 193V193.7L216 194.5L214.7 196.4L214.5 197L214.4 197.7L213.9 199.1V199.4L213.1 199L212.6 199.1L212.3 199.3H211.5L211.3 199.1L211.2 198.7L211.1 198.5L210.9 198.4H210.5L210.3 198.3V198V197.9V197.7L210.1 197.5L210 197.4H209.8L209.5 197.5L209.4 197.4V197.2L209.5 196.8L209.6 196.7V196.5L209.5 196.3L209.4 196.2L209.3 195.9L209.2 195.7L209 195.4L208.8 195.2L208.6 195L208.4 194.6L208.2 194.5H208L207.9 194.4L207.8 194.3V194.2V194L207.6 193.7L207.4 193.5L206.9 193.3L206.2 193.2L206 193L205.7 192.4L205.4 192.3L205.2 192.2H205L204.7 192.3H204.6H204.4L204.2 192.1L204 191.6L203.9 191.4H203.7L203.6 191.5L203.5 191.6V191.8L203.4 192V192.2V192.3L203.3 192.4L203.2 192.5L203.1 192.6V192.7V193V193.2L202.8 193.9L202.7 194L202.5 194.3L202.3 194.5H202H201.8L201.5 194.4H201.3L201.1 194.5L200.8 194.9L200.6 195L200.3 195.1L200.1 195.2L200 195.4V195.6V196V196.2L199.9 196.3L199.6 196.7V196.8V196.9V197L199.8 197.2V197.4L199.7 197.5L199.1 197.8L198.9 198L198.7 198.2L198.6 198.5L198.5 198.8L198.4 199L198.1 199.2L197.8 199.4L197.7 199.7L197 200L196 200.2L195.2 200.5L194.3 200.7L191 202.2L189.6 202.5H188.6L188.1 202.6L186.9 203.2L186.4 203.5L185.8 204.1L185.6 204.3L183.8 205L183.6 205.6L183.5 206.1L183.6 206.7L183.8 208.1V208.4V208.7L183.6 209L183.5 209.2L183.4 209.3L183.1 209.5L183 209.6V210L182.9 210.1V210.2V210.3L183.1 210.5L183.3 210.6V210.7L183.4 211.2V211.4L183.5 211.6L183.9 211.9L184 212.1L184.2 212.3H184.3L184.4 212.4V212.6V212.8L184.3 213L184.1 213.6L183.7 213.9L183.6 214L183.4 214.1H183.2L182.6 214H181.9L180.8 214.8L179.3 215.1H178.7L178.1 215H177.4L176.3 214.8H175.5L175.2 214.7L175 214.6V214.4L174.9 214.2L174.8 214V213.8L174.9 213.6V213.4L174.8 213.2L174.7 213.1L174.5 213L174.2 212.9L173.1 212.3L172.9 211.9L172.7 211.7L172.3 211.5L172.2 211.3V211.1L172.1 210.8L171.7 209L171.5 208.7L171.4 208.5L171.1 207.9L170.5 207.2L170.4 206.8L170.2 206.3L170.1 204.6L170 204.3L169.9 204L169.6 203.9L169.4 203.8H168.5H168.2L167.7 203.6L166.8 203L165.7 202.9L165 202.7L164.1 202.2L163.2 202L162.7 201.7L162.3 201.5H162.2L161.9 201.6L161.6 201.1L161.5 199.5L161.4 199.1L160.9 197.9L160.7 197.2L160.6 197.1L160.5 197L160.3 196.9L160.1 196.7H159.9H159.7H159.5H159L158.6 196.8H158.3H157.9L157.6 197L156.7 196.3L156.5 196.2L156.1 196.1L155.4 196.3L155.1 196.4L154.9 196.3L154 195.9L153.6 195.7L153.3 195.5L152.9 194.8L152.6 194.5L151.9 194.1L151.7 193.8L151.4 193.5L151.2 193.2L150.7 192.9L150.6 192.6L151.1 192.5L151.7 192.3L152 192.2L154.4 190L154.8 189.7L155.2 189.5L155.7 189.2L155.9 189V188.7L155.8 188.4L155.6 188.2V188V187.8H155.8L156.3 188L156.6 188.1H156.8L157.1 188H157.3L157.8 188.1L158.1 187.7L158.3 186.1L158.2 185.6V185.1L158.1 184.9L158 184.7L157.9 184.6L157.7 184.4L157.4 184.3L156.9 184.2L156.5 184.1L155.4 183.9L155.1 183.8L154 183.1L153.8 182.8L153.6 182.2L153.5 182.1L153.3 182L152.9 182.1L152.5 182.4L151.7 183L151 183.6L150.8 183.8L150.6 183.9L150.2 183.8L149.7 183.4H149.5L149.3 183.3L149.1 183.1L148.8 182.8L148.5 182.5L148.3 182.3L148.1 182L147.9 181.8L147.6 181.6H147.4L147.3 181.4L147.2 181.3V181.2L147.3 181.1L147.4 181L147.5 180.9L147.6 180.7V180L147.8 179.7V179.5V179.3L147.7 179.1L147.5 178.9L147.2 178.7L146.7 178.2L145.4 177.8H145.2H145.1L144.9 177.9L144.7 178.1L144.6 178.2H144.4L144.1 178.1L143.7 177.8H143.5H143.3H143.1L142.9 177.6L142.3 176.9V176.7L142.4 176.6H142.8H142.9V176.5L142.8 176L142.7 175.8L142.6 175.6L142.2 175.3L141.3 174.5L141.1 174.3L140.8 173.6L140.6 173.3L140.4 173.1L139.9 172.7L139.5 172.2Z" fill="#C8A668"/>
<path d="M173.1 212.3L174.2 212.9L174.5 213L174.7 213.1L174.8 213.2L174.9 213.4V213.6L174.8 213.8V214L174.9 214.2L175 214.4V214.6L175.2 214.7L175.5 214.8H176.3L177.4 215H178.1L178.7 215.1H179.3L180.8 214.8L181.9 214H182.6L183.2 214.1H183.4L183.6 214L183.7 213.9L184.1 213.6L184.3 213L184.4 212.8V212.6V212.4L184.3 212.3H184.2L184 212.1L183.9 211.9L183.5 211.6L183.4 211.4V211.2L183.3 210.7V210.6L183.1 210.5L182.9 210.3V210.2V210.1L183 210V209.6L183.1 209.5L183.4 209.3L183.5 209.2L183.6 209L183.8 208.7V208.4V208.1L183.6 206.7L183.5 206.1L183.6 205.6L183.8 205L185.6 204.3L185.8 204.1L186.4 203.5L186.9 203.2L188.1 202.6L188.6 202.5H189.6L191 202.2L194.3 200.7L195.2 200.5L196 200.2L197 200L197.7 199.7L197.8 199.4L198.1 199.2L198.4 199L198.5 198.8L198.6 198.5L198.7 198.2L198.9 198L199.1 197.8L199.7 197.5L199.8 197.4V197.2L199.6 197V196.9V196.8V196.7L199.9 196.3L200 196.2V196V195.6V195.4L200.1 195.2L200.3 195.1L200.6 195L200.8 194.9L201.1 194.5L201.3 194.4H201.5L201.8 194.5H202H202.3L202.5 194.3L202.7 194L202.8 193.9L203.1 193.2V193V192.7V192.6L203.2 192.5L203.3 192.4L203.4 192.3V192.2V192L203.5 191.8V191.6L203.6 191.5L203.7 191.4H203.9L204 191.6L204.2 192.1L204.4 192.3H204.6H204.7L205 192.2H205.2L205.4 192.3L205.7 192.4L206 193L206.2 193.2L206.9 193.3L207.4 193.5L207.6 193.7L207.8 194V194.2V194.3L207.9 194.4L208 194.5H208.2L208.4 194.6L208.6 195L208.8 195.2L209 195.4L209.2 195.7L209.3 195.9L209.4 196.2L209.5 196.3L209.6 196.5V196.7L209.5 196.8L209.4 197.2V197.4L209.5 197.5L209.8 197.4H210L210.1 197.5L210.3 197.7V197.9V198V198.3L210.5 198.4H210.9L211.1 198.5L211.2 198.7L211.3 199.1L211.5 199.3H212.3L212.6 199.1L213.1 199L213.9 199.4L213.6 201V201.7L213.7 202.2L213.9 202.7L214.2 203.3L214.4 203.9V204.3L214.7 204.5L214.9 204.7L215.2 205.4V205.3H215.3L215.4 205.6L215.3 206.4L215.5 207.1L215.3 207.5L215.1 207.9L215 208.2L215.1 208.6L215.4 209.6L215.1 209.7L214.9 210.1L214.7 211.8L214.6 212.7L214.7 213.1L215.4 214.4L215.5 215L215.2 215.6L214.9 216.3L214.6 217L214.5 218.6L214.6 220.3V221.2L214.1 222.8L214 223.7L214.1 225.4L214 225.9L213.8 226.7L214 227.9V228.7L213.9 229.1L213.5 230L213.4 230.4L213.2 231.9L213 232.6L212.6 233.1L212 233.8L211.9 233.9L211.7 233.8V233L211.6 232.7L211 232.4L209.4 232.2L209.1 231.8L209 230.3L208.7 229.6L208.3 229.2L208.2 229.3L208 229.6H207.9H207.7L207.5 229.5L207.4 229.4L207.3 229.3L207 229.2L206.4 228.5L205.4 227.7L204.9 227.2L203.6 225.4L203 225L202.4 225.3V225.6L202.6 226.4L202.4 226.8V226.9L202.2 227.4V227.5L202 227.6H201.8L201.5 227.4L201 227.7V228L201.2 228.4L201.4 228.9V229.4V229.6L201.6 229.8L201.7 229.9L201.8 230L201.5 230.2L201 230.4L200.5 230.6L200.6 230.9L201 231L201.5 231.1L201.7 231.2L201.5 231.5L201.1 231.7L200.7 231.8H200.1L199.8 231.7L198.9 231L195.5 229.5L194.3 228.5L193.3 228.2L192.9 227.9L191.7 226.6L191.5 226.4L191.2 226.2L190.4 226L190 225.9L189.8 225.6H189.7V225.7L189.8 226.1H189.3H188.9L188.6 226.2L188.3 226.5L188.2 226.9L188.3 227.3L191.3 232.2L191.5 232.9L191.6 233.8L191.8 234.2L191.9 234.4L191.8 234.6H191.5H188.8L188.6 234.4L188.7 233.7V233.2L188.4 232.9L187.4 232L187.2 231.8L186.9 231.7L186.7 231.5L186.6 231.1L185.3 229.9L185 229.8L183.6 228.9L183.5 228.6L183.9 228.2L183.7 227.8L182.8 226.9L182.4 226.6L182.2 226.5H182H181.8L181.6 226.3L181.5 226.2L181.4 225.9L181.2 225.7L180.6 225.5L180.2 225.3L179.9 225L178.5 223.2L177.6 222.3L177.5 222L177.7 221.6L177.8 221.4L177.5 221L177.2 220.7L177 220.6H176.5H176.1L175.8 220.5L175.6 220.1L175.7 219.9L175.9 219.6L176 219.3V218.9V218.7L175.9 218.6L175.6 218.2L174.4 217.5L173.9 217L173.6 216.7H173.2H172.7L172.5 216.6L172.3 216.5V216.3L172.5 215.7L172.4 215.6L172.3 215.5L172.1 215.4L171.9 215.2H171.6H171.4L171.2 215.4L170.9 215.7L170.4 214.8L170.1 214.5H170L170.3 214.3L170.6 214.2L171.3 213.7L171.8 213.4L172.5 212.9L173.1 212.3ZM194.2 231.2L194.4 231.5L194.5 231.7L194.4 232.3L194.3 232.4L193.9 232.3L193.3 231.8L193.1 231.5L193 231.3L192.9 231.1L193.1 230.9H193.3L193.7 231.1L194.1 231.2H194.2Z" fill="#C8A668"/>
<path d="M125 162.6L126.7 161.4H127L127.1 161.5L127.3 161.6L127.5 161.8L127.9 162.2L128.3 162.4L128.5 162.6L128.6 162.7V162.8L128.7 163.1L129 163.6L129.5 165.6L129.7 165.9L130 166.1L130.6 166.3L130.9 166.6L131 166.8L131.2 167.3L131.9 167.9L132.3 168.6L132.9 169.3L133.7 169.8L134.7 170.4L135 170.5L135.5 170.6L135.8 170.8L136.2 171.3L136.4 171.4H136.6L137 171.3L137.1 171.2H137.4L138 171.5L138.5 171.8L138.8 171.9L139.3 172L139.5 172.2L139.9 172.7L140.4 173.1L140.6 173.3L140.8 173.6L141.1 174.3L141.3 174.5L142.2 175.3L142.6 175.6L142.7 175.8L142.8 176L142.9 176.5V176.6H142.8H142.4L142.3 176.7V176.9L142.9 177.6L143.1 177.8H143.3H143.5H143.7L144.1 178.1L144.4 178.2H144.6L144.7 178.1L144.9 177.9L145.1 177.8H145.2H145.4L146.7 178.2L147.2 178.7L147.5 178.9L147.7 179.1L147.8 179.3V179.5V179.7L147.6 180V180.7L147.5 180.9L147.4 181L147.3 181.1L147.2 181.2V181.3L147.3 181.4L147.4 181.6H147.6L147.9 181.8L148.1 182L148.3 182.3L148.5 182.5L148.8 182.8L149.1 183.1L149.3 183.3L149.5 183.4H149.7L150.2 183.8L150.6 183.9L150.8 183.8L151 183.6L151.7 183L152.5 182.4L152.9 182.1L153.3 182L153.5 182.1L153.6 182.2L153.8 182.8L154 183.1L155.1 183.8L155.4 183.9L156.5 184.1L156.9 184.2L157.4 184.3L157.7 184.4L157.9 184.6L158 184.7L158.1 184.9L158.2 185.1V185.6L158.3 186.1L158.1 187.7L157.8 188.1L157.3 188H157.1L156.8 188.1H156.6L156.3 188L155.8 187.8H155.6V188V188.2L155.8 188.4L155.9 188.7V189L155.7 189.2L155.2 189.5L154.8 189.7L154.4 190L152 192.2L151.7 192.3L151.1 192.5L150.6 192.6L150.7 192.9L151.2 193.2L151.4 193.5L151.7 193.8L151.9 194.1L152.6 194.5L152.9 194.8L153.3 195.5L153.6 195.7L154 195.9L154.9 196.3L155.1 196.4L155.4 196.3L156.1 196.1L156.5 196.2L156.7 196.3L157.6 197L157.9 196.8H158.3H158.6L159 196.7H159.5H159.7H159.9H160.1L160.3 196.9L160.5 197L160.6 197.1L160.7 197.2L160.9 197.9L161.4 199.1L161.5 199.5L161.6 201.1L161.9 201.6L162.2 201.5H162.3L162.7 201.7L163.2 202L164.1 202.2L165 202.7L165.7 202.9L166.8 203L167.7 203.6L168.2 203.8H168.5H169.4L169.6 203.9L169.9 204L170 204.3L170.1 204.6L170.2 206.3L170.4 206.8L170.5 207.2L171.1 207.9L171.4 208.5L171.5 208.7L171.7 209L172.1 210.8L172.2 211.1V211.3L172.3 211.5L172.7 211.7L172.9 211.9L173.1 212.3L172.5 212.9L171.8 213.4L171.3 213.7L170.6 214.2L170.3 214.3L170 214.5L169.6 214.4L169.5 214.3L169 214.4L168.9 214.3H168.8V214.2L168.7 214.1L168.5 214L168.2 213.7L168 213.5L167.8 213.4L167.6 213.3H167.3H167.1L166.8 213.4L166.6 213.5L166.3 213.6L166.1 213.5L166 213.4L165.7 212.4L165.6 212.3L165.4 212.1L165 211.9L164.7 212.2L164.4 212L164.2 211.7L163.9 210.9L163.6 210.5L161.3 208.6L158.9 207.1L156.4 206.1L156 205.8L155.7 205L155.5 204.6L152 201.7L148.6 199.3L145.4 196.8L144.9 196.5L144.3 196.1L143.9 195.6L143.8 194.9V194.6L144.2 194L144.3 193.6L144.2 193.2L143.6 192.5L143.4 192.2L143.3 192V191.8L143.4 191.6V191.5L143.2 191.3L143.1 191.1L143 190.9L142.9 190.6V189.9L142.8 189.5L142.5 189.2L139.4 187.4L135.7 184.8L131 181.4L130.5 180.9L129.9 180L129.5 179.7L126.7 175L126.4 174.2L124.8 171.3L124.3 170.7L123.6 170.2L121.9 169.4L121.1 168.9L120.4 168.3L118.9 166.2L119.9 165.3L121.8 164L122.1 163.8L123.1 163.5L123.5 163.3L124.4 162.7L125 162.6ZM146.2 224.2L146.1 224.4L145.8 224.7L145.4 224.9L145.5 225.1L145.7 225.4L145.9 225.6L145.6 225.7L144.7 225.5L144.6 225.4L144.5 225.5H144.4H144.2H144V225.6L143.8 226.1L143.5 225.8L143.2 225.2L143 224.9L140.7 223.1L140.1 222.8L141.1 221.9L141.6 221.7L142.1 221.8L142.7 222.1L142.9 222.2H143.3L143.6 222.3L143.8 222.5L144.2 222.9L145.4 223.3L145.9 223.6L146.2 224.2Z" fill="#C8A668"/>
<path d="M102 102.1L102.5 102.5L102.7 102.8V102.9V103.1L102.6 103.2L102.5 103.4L102 103.7L101.9 103.9L101.8 104.1V104.3L102.3 105.9L102.5 106.1L102.9 106.6L103.1 106.7L103.8 108.2L105.9 109H106.5L106.7 108.8L106.8 108.5L106.9 108.4L107.1 108.3H107.4L108 108.2H108.4L108.7 108.3L109.1 108.7L109.9 109.7L111.4 110.3L112.2 110.8L112.6 111.2L113.5 112L113.6 112.1H113.7L113.8 112L113.9 111.9L114.1 112L114.2 112.1L114.3 112.2L114.4 112.3V112.4L115 112.9L115.2 113.2L115.3 113.4L115.4 113.7L115.5 114V114.3L115.2 116V116.5L115.3 117.7V117.9L115.2 118L115 118.1H114.8L113.8 118.2H113.6L113.5 118.3L113.4 118.4L113.3 118.5V118.8L113.4 119.2L114 120.2L114.1 120.5L114.2 121.2L114.3 121.5L114.5 121.7L114.9 122.3L115.5 123.5L117.2 124.6L117.9 125L118.4 125.1L119.2 126.5L123 131L124.9 132.7L126.9 133.9L128.1 135.1L128.8 135.6L129.8 135.9L131.7 136.3L132.7 136.6L132.9 136.7L133.1 136.8L133.2 137L133.3 137.1L133.4 137.3L133.6 137.7L133.8 138.2L133.9 138.6V139.1V139.5L134.1 139.7L134.5 139.9H134.7L134.8 139.8H134.9H135V139.9V140.2L134.8 140.6L134.6 141L134.1 141.6L133.7 141.9L133.2 142.2L132.5 142.3H132.3H132.1L132 142.4L131.8 142.6L131.7 143L131.6 143.6L132 144.7L131.9 145L131.7 145.5V145.7L131.9 145.9V146V146.2L131.7 146.8L131.5 147.2L131 147.6L129.4 148.9L128.6 149.6L128.3 150L127.8 150.8L127.5 151L127.2 151.1L126.6 151L126.3 150.8L122.8 151.3H122.4L122 151L121.7 150.9L121.4 151L120.6 150.8L120.7 152.9L120.9 154L121.2 155.1L121.8 156.2L122.1 156.7L122.4 157.1L123 157.6L123.2 157.8L123.5 158.3L124.3 160.2L125 162.6L124.4 162.7L123.5 163.3L123.1 163.5L122.1 163.8L121.8 164L119.9 165.3L118.9 166.2L118.7 165.9L116.9 163.3L115.2 160L115.1 159.8L115 159.5L115.3 159L116 158.3L116.1 157.4L116 156.6L115.8 155.8L115.7 154.9L115.6 154.5L115.2 154.1L114.1 153L113.9 152.8L113.8 152.6L113.7 152.2L112.8 150.7L111.8 149.6L111.5 149.1L111.4 148.6L111.2 147.8L111.1 146.9L110.9 146.7L110.2 146L109.9 145.7L110 145.6L110.1 145.4V145.1L109.9 145V144.9L110 144.8L110.1 144.7L110 143.9L109.9 143.4L109.7 143.2L109.3 143.1L108.5 142.6L108.1 142.5L108 142.4L107.8 142.2L107.7 142.1L107.6 142.2L107.5 142.3L107 142.4L106.8 142.3L106.6 142.1L106.7 142L107 141.7L107.1 141.5L107.2 141.4V141L107 140.7L106.2 140L105.9 140.1L105.8 139.9L105.9 139.5V139.3L106 139.2H106.1L106.2 139.1V139V138.8L105.9 138.3H106.1L106.3 138.2L106.6 138.3H106.8V138.2L106.9 138L106.8 137.8V137.7H106.3L106.1 137.5L105.6 136.4L105.4 135.1L105.1 134.1L104.6 133.3L101.8 130.3L101.2 129.7L100.4 128.1L99.3 126.8L98.6001 126.1L97.2 125.2L97 125L96.8 124.5L96.4 124.2L95.5 123.7L95.1001 123.3L94.9 122.9L94.8 122.5V122V121.6L94.6001 121.4L94.4 121.2L94.2 121L94 120.7L93.8 120.5V120.2L93.7 119.8L93.8 119.4L93.9 119L94 118.6L93.9 118.2L93.6001 117.7L92.5 116.7L91.3 115.5L90.9 115.2L89.4 114.3L88.5 114L87.7 113.9H87.3H86.9L86.6001 113.7L86.3 113.4L85.9 112.7L85.6001 112.4L85.1001 112.3L84.7 112.4L84 112.8H83.6001H83.4H83.2L83 112.7L82.8 112.5L82.6001 112.3H82.5H82.4H82.2H82L81.8 112.1L84.1001 109.7L85.6001 107.8L85.8 107.5L86 107.4L86.6001 107.3L87.2 107.2H87.6001L88.1001 107L89.5 106.1L90 106H90.4L90.7 106.1L91.2 106.4H91.4L91.6001 106.5H91.8L91.9 106.6L92 106.7L92.2 107.1L92.4 107.2L92.6001 107.3L92.8 107.4H94H94.2L94.3 107.5L94.4 107.7L94.9 107.9H95.2L95.5 107.8L96.4 107.5L96.6001 107.3L96.8 107.2L96.9 106.7L97 106.5V106.2V106L96.9 105.9L96.4 104.9L96.1001 104.5L96 104.2L95.9 104L95 103.1L94.9 102.8L94.7 102.1L94.6001 101.9L94.5 101.7L94.4 101.6L94.3 101.5L93.9 101.4L93.7 101.3L93.6001 101.2L93.5 100.9L93.4 100.8L93.2 100.7L93.1001 100.6L92.9 100.3L92.7 99.9001V99.7001L92.8 99.6001H92.9H93L93.7 100L93.9 100.1H94.2L94.5 100.2L94.8 100.1H94.9L95.2 99.9001L95.7 100L96.6001 100.4L97.4 100.6L97.7 100.7L98 100.9L98.7 101.1L99.5 101.3L99.7 101.5L99.9 101.6L100.4 102L100.7 102.2L101 102.3L101.3 102.4L101.5 102.3H101.8L102 102.1ZM108.6 178.9V179.3L108.8 179.5L109.2 180L109.1 180.1L108.6 180L108.4 179.7L108.3 179.2L108.6 178.9ZM106.5 180.1L106.7 180.7L107 181.2L107.8 182.2L108.1 182.7L107.7 183.1L107.5 182.9L107.1 182.5L106.9 182.3L106.7 182.2L106.2 182L106.1 181.9V181.8V181.4L106 181.3L105.9 181.2H105.8H105.7L105.3 180.9L105.1 180.7V180.4H105.3V180.5L105.4 180.6L105.5 180.7H105.6L105.7 180.6L105.6 180.4L105.4 180.1L105.3 179.7V179.5L105.4 179.2V179L104.4 178L104.1 177.9H103.7H103.5L103.6 177.5L103.4 177.4L102.8 176.6L102.7 176.4L102.6 176.2L102.3 175.8V175.6V175.3L102.5 175.1V174.9V174.4L102.1 173.1V172.6L102.3 172.3L103.1 172L103.3 172.1L103.5 172.2L103.6 172.4L104 172.9L104.2 173L104.3 173.1L104.5 173.2L105.6 174.4L106.2 174.8L106.8 175.8L107.8 176.8L107.9 177.2V177.5L107.8 177.8L108 178.2L107.9 178.7L107.8 179.1L107.4 179L107.2 179.1L107 179.2L106.8 179.1L106.6 179L106.2 179.3L106.1 179.5L106.3 179.6H106.5L106.6 179.8L106.5 179.9V180.1ZM102.7 170.4V170.7L102.8 171L102.9 171.3L102.8 171.6L102.6 171.7L102 171.8L101.7 172L101.6 172.2L101.5 172.7L101.3 172.9L100.9 173.1L100.4 173L99.9 172.8L99.6001 172.7L99.5 172.9L99.4 173.2L99.2 173.3L98.9 173.2L98.7 172.9V172.2L98.6001 171.8L98.3 171.9L98.4 171.4L98.6001 170.3V169.7L98.5 169.3L98.3 169L97.9 168.9L98.1001 168.6V168.5L97.9 168.2L97.8 167.7V167.6L97.9 166.9L98.1001 166.5L98.3 166.3L98.7 166.4L98.9 166.7L99 167L99.2 167.1L100.3 168.1L100.7 168.6L100.9 168.7L101.6 168.9L101.9 169.1L102 169.5L102.1 169.7L102.6 170.1L102.7 170.4ZM95.1001 162.5L95.6001 163.3L95.8 163.7V164.1V164L95.7 164.2H95.6001L95.4 164.1L95.3 163.7L95.1001 163.6H94.6001L94.4 163.5L94.2 163.4L94.1001 163.2L93.9 163H93.6001H93.2L92.9 162.9L92.6001 162.6L92.4 162.3L92.1001 162.1L91.6001 161.9L90.9 162L90.8 161.9L90.7 161.7L90.9 161.5L91 161.3L90.8 161.1L90.6001 161.2L90.5 161.1V160.9H90.3L90.2 161.1L90 160.9L89.8 160.3L89.3 159.8V159.6V159.3H89.5L89.7 159.4L90 159.3L89.9 159.1L89.7 158.7V157.9L90 157.3L90.6001 157H91.3L91.5 157.2L91.7 157.5L91.9 157.8L92.3 157.9L92.5 158L92.7 158.4L92.8 159.2L93.1001 159.8L94.2 161.4V161.5L94.1001 161.7L94.2 161.8V161.9H94.4L94.9 162.3L95.1001 162.5ZM84.2 149.5L84.5 149.8L84.6001 150.5V151.1L84.2 151.5L84 150.1L83.8 149.8L83.3 149.1L83 149.2L82.9 149.3H82.8L83 149.5L83.7 151.1L83.9 151.9V152.2L83.6001 152.3H83.4L82.9 152.1L82.4 152.2L82.1 152.3L81.7 152.4L81.5 152.6L81.2 152.8L80.8 152.7L78.5 151.5L78 151L76.8 150.5L76.5 150.3L75.7 149.2L75.6 149.1L75.4 149L75.3 148.9L75.5 148.2L75.1 147.4L71.9 142.8L71.6 142.6L71.5 142.5V142.4V142.2V142.1L71.2 141.4L71 141.3L70.8 140.8L70.9 140.4L71.4 139.6L71.8 138.8L71.9 138.3V137.9V137V136.5L72.1 136.2L72.3 136L72.6 135.9L73 135.8H73.3H73.6L74.2 136H74.6L74.9 135.9L75.4 135.5L75.7 135.4L76.5 135.2H76.8L76.7 135.6L77.2 135.7L77.6 136.1L77.7 136.6L77.6 137L77.5 136.8L77.3 136.7H77.2H76.9L77.1 137L77.3 137.2L77.4 137.5L77.5 137.9L77.6 138.2L77.9 138.4L78.2 138.6L78.4 138.8L78.6 139.1L78.8 139.8L79 140L79.3 140.3L79.5 140.5V140.7V141L79.6 141.1H79.7L80.1 141.5L80.2 141.7V141.9H80.1L79.9 142.1V142.3L80 142.4L80.4 142.5L80.5 142.8L80.7 143.5L81.1 144.2L81.7 144.6L82.1 145.1V145.9L81.9 145.8L81.4 145.4H81.3L81.4 145.8L81.7 146.2L82.4 146.9L82.5 147H82.7L82.8 147.1L82.9 147.4V147.9L83 148.2L83.2 148.4H83.4H83.8L84 148.5L84.2 148.8L84.3 149.2L84.2 149.5Z" fill="#C8A668"/>
<path d="M104.8 66.6001L104.4 67.7001L104.1 70.5001V71.3001L104.2 71.9001L104.5 72.8001L104.8 74.0001L104.9 76.1001V76.7001L104.6 77.5001V77.6001L104.4 78.3001V79.1001L104.5 79.6001L104.6 79.9001L104.8 80.1001L105.6 80.7001L105.8 80.9001L106 81.2001L106.4 82.5001L107.2 84.2001L107.4 84.7001V85.1001L107.3 85.5001L107.2 85.8001L107 86.0001L106.8 86.2001L105.5 87.0001L104.9 87.2001L104.6 87.4001L100.7 89.1001L100.3 89.4001L100.1 89.5001L100 89.7001L99.9 89.8001V90.0001V90.1001L100 90.2001L100.9 91.0001L101.1 91.2001L101.2 91.4001V91.6001V92.4001L101.3 92.6001L101.4 92.7001L101.5 92.9001L102.4 93.4001L102.6 93.5001L102.8 93.7001L102.9 93.9001L103 94.2001L103.1 94.5001L103 94.9001L102.8 95.8001L102.7 96.0001V96.3001L102.9 96.7001V97.0001V97.4001L102.8 98.7001V99.6001V99.8001L102.7 100L102.6 100.1L102.5 100.2L102.3 100.4L102.2 100.6L102.1 100.9L102 101.2V101.6V102.1L101.8 102.3H101.5L101.3 102.4L101 102.3L100.7 102.2L100.4 102L99.9 101.6L99.7 101.5L99.5 101.3L98.7 101.1L98 100.9L97.7 100.7L97.4 100.6L96.6 100.4L95.7 100L95.2 99.9001L94.9 100.1H94.8L94.5 100.2L94.2 100.1H93.9L93.7 100L93 99.6001H92.9H92.8L92.7 99.7001V99.9001L92.9 100.3L93.1 100.6L93.2 100.7L93.4 100.8L93.5 100.9L93.6 101.2L93.7 101.3L93.9 101.4L94.3 101.5L94.4 101.6L94.5 101.7L94.6 101.9L94.7 102.1L94.9 102.8L95 103.1L95.9 104L96 104.2L96.1 104.5L96.4 104.9L96.9 105.9L97 106V106.2V106.5L96.9 106.7L96.8 107.2L96.6 107.3L96.4 107.5L95.5 107.8L95.2 107.9H94.9L94.4 107.7L94.3 107.5L94.2 107.4H94H92.8L92.6 107.3L92.4 107.2L92.2 107.1L92 106.7L91.9 106.6L91.8 106.5H91.6L91.4 106.4H91.2L90.7 106.1L90.4 106H90L89.5 106.1L88.1 107L87.6 107.2H87.2L86.6 107.3L86 107.4L85.8 107.5L85.6 107.8L84.1 109.7L81.8 112.1L81.6 112L81.5 111.9L81.6 111.7L81.8 111.4L81.9 111.2V110.8L81.8 110.5L81.4 110.4L81 110.3L81.4 109.4V109L81.3 107.5L81.2 107.1L81 106.8L80.8 106.9L80.7 106.6L80.9 105.7L80.8 105.2L80.6 104.8L80.3 104.6L79.8 104.9L79.6 104.3L79.8 102.5L79.6 101.8L78.9 100.9L78.8 100.8L78.4 100.7V100.4V99.6001L78.3 98.9001L77.2 95.0001L75.9 91.9001L75.6 91.4001V91.2001V91.0001L75.7 90.7001V90.5001V90.3001L74.8 89.5001L74.6 89.2001L74.4 88.4001L74.3 88.0001L74.2 87.6001V87.5001L74 87.4001L73.8 87.3001L73.6 87.2001H73.5L73.4 87.0001L73.3 86.6001L73.1 86.2001V86.1001L73.4 86.0001L73.5 86.1001L73.7 86.2001L73.8 86.3001V86.5001L73.9 86.7001L74.2 86.5001L74.6 85.7001L74.8 85.5001L75.2 85.1001L75.3 84.9001V84.2001L75.2 83.8001L75 83.7001H74.6L74.5 83.5001L74.6 83.3001L74.5 82.9001L74.3 82.5001L74.1 82.2001L73.4 81.7001L73.2 81.8001L73.1 81.9001V82.2001H73.2L73.4 82.4001V82.5001L73.3 82.7001V82.8001L73.1 83.0001L72.7 82.8001L72.1 82.2001L70.4 79.8001L69.6 78.8001L67.8 77.7001L67.5 77.6001L67.1 77.5001H66.7H66.3H66V77.4001L65.9 77.1001V77.0001L65.8 76.9001L65.6 76.8001H65.2H64.7H64.4L64.2 76.6001L64.1 76.1001L63.9 75.8001L63.2 75.4001L62.1 74.4001L61 73.8L61.5 71.4001L61.6 71.1001L61.4 70.3001L61.1 69.6001L61 69.1001L60.8 69.0001L60.6 68.9001L60.4 68.8001H60.3L60.1 68.5001L59.7 67.1001L59.5 66.2001V65.9001L59.6 65.7001L59.7 65.3001L59.8 65.1001V64.8001V64.6001L60.2 64.4001L60.4 64.2001L60.5 64.0001L60.4 63.9001L60.2 63.5001L60 62.9001L59.9 62.5001L60 62.2001L60.1 62.0001L60.2 61.8001V61.5001L60 61.2001L59.8 61.1001L59.4 61.0001L59.1 60.9001L58.9 60.7001L58.4 59.9001L58.2 59.8001L57.8 59.7001L57.5 59.6001L57.3 59.4001V59.3001L57.2 59.0001L57.3 58.2001L57 56.6001L56.9 56.3001V56.2001L57 56.1001H57.1L57.4 56.2001H57.6L57.8 56.1001L57.9 55.4001V55.2001L57.8 55.0001L57.3 54.3001L57.2 54.1001L57.1 53.7001L57 53.5001L56.9 53.3001L56.8 53.2001L56.5 52.9001L56.3 52.7001L56.5 52.5001L56.8 52.4001L58.1 52.1001L58.5 51.8001L58.8 51.2001L58.6 50.6001L58.4 50.5001L57.6 50.0001L57.5 49.7001L57.3 49.5001L57.2 49.2001L57.1 48.9001V48.7001L57.3 48.4001V48.2001V48.0001L56.9 47.7001L56.8 47.5001L56.7 47.0001L56.6 46.8001L56.5 46.7001L56.3 46.6001L56.2 46.5001L55.9 46.3001L55.8 46.0001L55.5 44.9001L55.3 44.5001L54.7 43.7001L54.6 43.4001V43.2001L54.8 43.0001L54.9 42.9001L55 42.8001L56.6 41.5001L56.9 41.0001V40.8001L56.8 40.6001V40.2001L56.9 39.6001L57.3 39.9001H57.5H57.7L57.8 39.7001V39.5001L58 39.3001L58.2 39.1001L58.8 38.7001L59.1 38.3001L59.2 38.0001L59.3 37.7001L59.4 37.3001L59.5 36.9001V36.7001L59.7 35.9001L59.9 35.2001L60.1 34.3001L60.3 34.1001L60.5 33.9001V33.7001V33.5001L60.3 33.2001V33.0001L60.5 32.9001H61.1L61.3 32.8001L61.6 32.7001L61.8 32.3001H61.9L62.6 32.1001H62.8L64.3 32.2001V33.7001L64.2 33.9001L63.8 34.2001L62.9 34.5001L62.7 34.6001L62.6 34.8001V35.1001V35.8001L63 35.3001L63.3 35.1001L63.7 35.0001L63.8 34.9001L64.1 34.5001H64.2V34.4001L65 36.2001L65.1 36.4001L66.2 36.2001H66.6L67.1 36.4001L67.8 36.8001L68.2 36.9001L68.5 37.0001L68.9 37.7001L69.1 37.9001H69.4L69.8 37.8001L70.1 37.9001L70.3 38.6001L70.5 38.9001L70.8 39.1001L71.1 39.2001L72.4 39.6001L72.9 40.4001V41.2001L73.1 41.8001L74.8 43.4001L76.8 44.3001L78 44.5001L78.4 44.7001L79 45.2001L79.3 45.3001L79.9 45.4001L80.3 45.7001L80.8 46.2001L82.4 46.9001L84.2 48.2001L86.1 49.7001L86.4 49.9001L87.1 50.0001L87.4 50.2001L87.8 50.6001L88.3 50.9001L88.5 51.1001L88.7 51.6001L88.8 51.9001L89.3 52.4001L89.9 52.9001L90.5 53.2001L92.4 53.7001L93 54.0001H93.4L93.7 54.2001L94.3 55.4001L95.3 56.3001L95.7 56.8001L95.8 57.5001L96.4 57.4001L96.8 57.8001L97.2 58.2001L97.7 58.5001L98.2 58.8001L98.4 59.5001L98.6 61.7001L98.5 62.0001L98.4 62.3001L98.2 62.5001L98 62.8001L97.9 63.2001V63.3001L97.7 63.6001V63.8001L97.8 63.9001L98 64.0001H98.1L98.3 64.1001L98.4 64.3001V64.4001L98.3 64.5001V64.6001L98.8 65.3001L98.7 65.5001L98.8 65.6001H98.9L99 65.5001L99.1 65.3001V65.2001L99 65.1001L98.9 64.9001V64.3001L98.8 64.1001L98.2 63.8001L98.1 63.6001L98.3 63.3001L99 63.1001L99.7 63.2001L100.1 63.9001V64.2001V64.7001V65.0001L100.3 65.6001L100.4 65.9001L100.5 66.3001L100.8 66.8001L101.1 67.1001L101.3 66.9001V66.6001L101 65.9001L100.9 65.6001V64.8001L101 64.4001L101.2 64.1001L101.4 63.8001L101.7 63.6001L102.1 63.5001H102.6L102.8 63.6001V63.7001V63.9001L102.9 64.1001L103 64.2001L103.4 64.4001L103.5 64.5001L103.6 64.6001V65.1001L103.7 65.3001L103.9 65.6001V65.7001L104 65.9001L104.5 66.2001L104.7 66.3001L104.8 66.4001V66.6001ZM69 126.2V126.5V126.7L68.8 127L68.7 127.2L68.9 127.4L69 127.7V128L68.9 128.3H68.8V128.2V128.1L68.7 128V127.9L68.5 128.1H68.4H68.3L68.1 128L68.3 127.8L68.2 127.6L67.9 127.5L67.6 127.6L67.5 127.9L67.4 128.2V128.6V128.7L66.8 128.5L65.3 127.7L64.5 127.5L64.7 127.4L64.9 127.3L65 127.2H65.2L65.5 127.4H65.7L65.8 127.1L66.2 125.9L66.3 125.5L66.2 124.6V124.2L66.3 124L66.7 123.5L66.9 123.3L67.1 123.2H67.2L67.4 123.1L67.5 123V122.8L67.3 122.2L67.5 121.9L67.8 122L68 122.2L68.8 123.6L69.1 124.3L68.9 124.8L69.1 125.1L69.2 125.5L69.1 125.9L69 126.2ZM68.5 120.3L68.9 121.1L69.6 121.9L70.1 122.6L70 123.4V123.3L69.9 123.5L69.8 123.7L69.7 123.9L69.8 124.1L69.9 124.4V124.7H69.7L69.2 123.4L67.1 120.4L66.8 119.9L66.2 118.6L65.8 118L65.6 117.8L65.3 117.7L65 117.5L64.9 117.3L65.1 117.2L65.5 117L66.2 116.9L67.1 117.3L67.8 118.1L68.3 119.2L68.5 120.3ZM70 83.8001L70.3 84.0001L70.7 84.4001L70.9 84.8001L70.5 84.9001L70.1 85.0001H69.5L68.9 84.9001L68.2 84.6001H68L67.7 84.5001L67.6 84.3001L67.5 84.0001L67.6 83.7001L67.9 83.4001L68.2 83.3001L68.5 83.4001L68.7 83.7001L69 84.2001L69.3 84.4001L69.5 84.3001L69.7 84.0001L70 83.8001ZM57.6 97.4001L57.8 97.6001L57.7 98.1001L57.4 98.8001V98.6001L57.1 99.2001L57 99.8001L57.1 101V101.3L56.9 101.8L56.8 102.9L56.7 104.4L56.6 104.8L55.6 106L55.5 106.1L55.3 106L55.1 105.9L54.6 105.5L54.4 105.9H54.1L53.6 105.5V105.6L53.4 105.8H53.2L53 105.5L52.9 105.4L52.8 105.3H52.7L52.9 104.8L52.8 104.4L52.5 104.1L52.3 103.8V103.5V103L52.2 102.8L52.1 102.6L51.8 101.9L51.7 101.7L51.4 100.8L50.6 100.1L48.9 99.0001L49 98.7001L48.7 98.5001L48.3 98.4001H47.9H47.1L46.9 98.3001L47 97.8001L46.9 97.0001L46.6 96.2001L45.6 94.6001L45.4 94.0001V93.9001L45.2 93.7001L45 93.6001L44.8 93.4001L44.6 92.9001L44.3 92.7001V92.5001L44.2 92.2001L44.1 92.1001L44 92.0001L43.9 91.9001L43.7 91.8001L43.5 91.7001L43.3 91.6001L43 91.5001L42.9 91.3001L42.7 90.8001L42.6 90.6001L41.8 89.8001L41.4 89.5001L40.9 89.3001L40.6 89.5001L40.5 89.1001L40.8 88.9001L41.4 88.7001H41.8L42 88.8001L42.2 88.9001L42.4 89.1001L42.5 89.2001L42.6 89.1001H42.8L43.3 89.2001L43.9 89.1001L44.4 89.0001L44.7 88.7001L45.6 88.0001L45.8 87.7001L45.9 87.4001L45.8 86.9001L45.9 86.7001L46.2 86.6001L46.7 87.1001L47 87.3001L47.3 87.2001L47.5 87.1001L47.7 87.2001L47.9 87.5001V87.8001L48 87.9001H48.1H48.4H48.6H48.8H48.9V88.0001L49 88.2001V88.3001L49.5 88.8001L49.6 88.9001L49.7 89.0001L49.8 89.4001L49.9 89.6001L51 90.6001L51.2 91.0001L51.5 91.8001L53 93.7001L53.4 93.9001L54.2 94.1001L54.6 94.3001L54.9 94.5001L55.1 94.7001L55.5 95.2001L55.6 95.4001L55.7 95.7001L55.8 96.0001L56.1 96.1001H56.5L56.9 96.2001L57.1 96.5001L57.5 97.3001L57.6 97.4001ZM69.9 114L70.7 113.7H71.4L72.4 113.8L73.2 113.7L73.7 113.8H74.2L75 113.9L75.6 114.3L75.9 115L75.7 115.4H74.9H74.1L73.4 115.7H72.7L71.9 115.5L71.3 115.4H70.4L69.7 115.3L69.5 114.9L69.4 114.2L69.9 114Z" fill="#C8A668"/>
<path d="M64.3 32.2L62.8 32.1H62.6L61.9 32.3H61.8L61.6 32.7L61.3 32.8L61.1 32.9H60.5L60.3 33V33.2L60.5 33.5V33.7V33.9L60.3 34.1L60.1 34.3L59.9 35.2L59.7 35.9L59.5 36.7V36.9L59.4 37.3L59.3 37.7L59.2 38L59.1 38.3L58.8 38.7L58.2 39.1L58 39.3L57.8 39.5V39.7L57.7 39.9H57.5H57.3L56.9 39.6L56.8 40.2V40.6L56.9 40.8V41L56.6 41.5L55 42.8L54.9 42.9L54.8 43L54.6 43.2V43.4L54.7 43.7L55.3 44.5L55.5 44.9L55.8 46L55.9 46.3L56.2 46.5L56.3 46.6L56.5 46.7L56.6 46.8L56.7 47L56.8 47.5L56.9 47.7L57.3 48V48.2V48.4L57.1 48.7V48.9L57.2 49.2L57.3 49.5L57.5 49.7L57.6 50L58.4 50.5L58.6 50.6L58.8 51.2L58.5 51.8L58.1 52.1L56.8 52.4L56.5 52.5L56.3 52.7L56.5 52.9L56.8 53.2L56.9 53.3L57 53.5L57.1 53.7L57.2 54.1L57.3 54.3L57.8 55L57.9 55.2V55.4L57.8 56.1L57.6 56.2H57.4L57.1 56.1H57L56.9 56.2V56.3L57 56.6L57.3 58.2L57.2 59L57.3 59.3V59.4L57.5 59.6L57.8 59.7L58.2 59.8L58.4 59.9L58.9 60.7L59.1 60.9L59.4 61L59.8 61.1L60 61.2L60.2 61.5V61.8L60.1 62L60 62.2L59.9 62.5L60 62.9L60.2 63.5L60.4 63.9L60.5 64L60.4 64.2L60.2 64.4L59.8 64.6V64.8V65.1L59.7 65.3L59.6 65.7L59.5 65.9V66.2L59.7 67.1L60.1 68.5L60.3 68.8H60.4L60.6 68.9L60.8 69L61 69.1L61.1 69.6L61.4 70.3L61.6 71.1L61.5 71.4L61 73.8L60.8 73.7L58.7 72.7L58.2 72.2H57.7L56.7 72.6L56.4 72.7L56.1 72.6L55.7 72.3L55.4 72.4L55.3 72.3L55.1 72.2L55 72.1H54.8L54.5 72.2H54.2L54 72L53.2 70.7L52.6 70.1L52.4 69.8L52.3 69.4V67.1L52 64.3L51.3 60.8L51.2 60.4L51 60.3L50.7 60.2L49.8 60L48.8 59.5L48.4 59.4L48 59.3L47.6 59.2L47.3 58.9L45.8 57.1L45.5 56.5L45.2 55.9L44.9 54.2L44.6 53.5L44 53H43.3L42.9 52.9L42.7 52.7L42.5 52.5L39.6 47.4L39.3 46.9L37.7 45.8L37.4 45.2L37.1 44.6L37 44.2L36.7 44.1L36.6 44L36.1 43.8V43.6H35.9L35.7 43.5L35.5 43.4L34.9 43L34.5 42.9L30.6 43L29.8 42.8L29 42.3L28 41.4L25 37.4L23.7 36.1L23.6 36L23.5 35.7L23.4 35.5L23.3 35.4L22.9 35.3L22.8 35.2L22.6 35.1H22.4H22.2L22.1 35.2H22L21.7 35L20.8 33.9L20.5 33.7L20.1 33.6L19.7 33.5L17.6 31.1L15.8 29.4L15.7 29.1L14.7 28.3L14.1 27.4L12.7 26.4L11.9 25.5L11.5 25.3L11.1 25.4L10.9 25.3L10.8 25.1V25L11 24.8L11.1 24.7L11 24.6H10.9H10.8L10.7 24.5L10.1 24.1L9.9 23.8L9.4 22.8L9 22.3L8.8 22.1L8.4 21.9L8.3 21.7L8.1 21.5V21.4V21.3V21.1L8 20.8L7.7 20.3L7.6 19.9L7.3 19.4L7.2 18.9L6.6 17.4L6.4 17L6.1 16.7L5.9 16.4L5.8 16L5.6 15.8L5.2 15.7L5.6 15.1L5.7 14.7L5.5 14.3L5.1 13.9L4.8 13.7L4.6 13.5V13.3L4.5 13L4.4 12.7L4.3 12.5L4.1 12.4L3.6 12.3L3.8 12L4.1 11.6L4.3 11.3V11L4.6 10.6L4.7 10.2V9.9L4.6 9.7L4.3 9.2L4.6 9L4.4 8.7L4.1 8.4L4.2 8.1L3.7 7.5L3.6 7.3L3.9 6.7L4.1 6.6L4.4 6.7L4.7 6.6H4.9L5 6.7H5.2L5.4 6.6L5.7 6.3L5.9 6.2L6.3 5.9H6.5H6.8L7 5.8L7.9 5.2L8.2 5.1L8.6 5.2L9.1 5.7L9.5 5.9L9.6 6.1H9.8L10 6L10.3 5.7L11.1 5.6L11.8 5.7L14.8 6.6L16.3 7.6L16.6 7.7L17 7.8L17.3 7.9L17.4 8.3L17.6 9.2L18.1 9.9L20.6 11.9L21.2 12.2L22 12.5L25.2 13L25.5 13.1L26.3 13.5L26.6 13.6L27.5 13.8H28L28.4 13.6L28.7 13.4L29.1 13.5L29.5 13.8L29.9 13.9L30.7 14L32.3 13.8L33 13.6L35 12.9L35.9 12.5L36.3 12.6L37.2 12.9H37.4L37.7 12.8L38.7 12.7L39.9 13.1L40.7 13.4L41.4 13.9L42.2 14.2L42.5 14.7L42.7 14.9L43.1 15L43.7 15.2L44.6 15L49.1 13.1L49.7 13.3L52.4 16.6L55.7 19.3L56.5 19.7L56.9 20L57.2 20.3L58.2 21.9L58.3 22.3L58.5 23.9L58.7 24.5L59.2 25.4V25.6V26.1L59 26.6L58.9 27L59 27.1L59.6 27H59.8L60 27.3L60.1 27L60.2 26.9L60.5 27.1L60.6 27.2L60.7 27.3L60.8 27.4H60.9L61.1 27.3H61.3H61.8L62.2 27.6L62.5 27.9L62.7 28.3H62.8L62.9 28.2L63 28.1H63.1L63.4 28.3L63.8 28.9L64.1 29.1L64.3 29.4L64.5 29.5V29.7L64.6 30.7L64.3 32.1V32.2ZM42.2 76.4L42.1 76.5L41.7 76.8L41.6 76.9L41.7 77.1L41.5 77.3L41.3 77.2L40.6 75.8L40.8 75.9L41 75.6L41.1 75.5L41.2 75.4L41.6 75.3L41.9 75.4L42.1 75.7L42.2 76.1V76.4ZM32.2 75L32.5 75.1L32.7 75.3L32.8 75.5L32.6 75.8L32.2 76.1L31.8 76.2L31.5 76V75.4L31.6 75.2L31.7 75H31.9H32.2ZM45.8 74.6L45.9 75L46 75.5V75.9V76.4V76.6L45.9 76.7L45.8 76.8L45.6 76.9V76.6V76.4H45.3L45.1 76.2L45 75.8L44.8 75.5L43.9 74.6L43.7 74.4L43.4 74.1L41.3 73.3L41.4 73.2L41.7 73.1L42.6 72.9H42.7L42.8 73L42.9 73.1L43 73.4H43.4L43.6 73.3L43.9 73.1L44.1 73H44.5H44.8L45 73.2L44.8 73.4L45.3 73.9L45.6 74L45.7 74.2L45.8 74.6ZM29 69.3L28.9 69.7L29 70.1V70.4H28.5H28.7L28 70.7L27.8 70.8H27.6L26.8 70.3L26.4 70.5H26.1L25.8 70.4L25.6 70.2L25.7 70.1L25.9 69.8L26 69.7L25.5 69.5L25.1 68.9L24.2 68.7L20.8 66.1L20.3 65.8L19.9 65.7H19.7H19.2L19.1 65.6L18.9 65.4H18.8L18.7 65.5V65.6L18.6 65.7H18.4L18.3 65.8H18.1L17.7 65.5L17.3 65.4L17.2 65.3L17.1 65.1V64.9L17 64.8L16.8 64.6H15.3L15.2 64.5L15.3 64.2L15.4 63.8L15.3 63.6L14.7 63.2L14.8 62.9L14.5 62.7L14.2 62.6L14.3 62.4V62.2L14.1 62.1L13.7 62.2L13.5 62.1L13.4 61.9V61.5L13.5 61.1L13.8 60.9H14.9L15.1 60.8L15.2 60.6L15.1 60.5L14.9 60.4V60.2L15 59.8V59.6L15.2 59.2L15.3 59.1L15.4 58.9L15.6 59L15.7 59.2L15.8 59.3L17.2 59.4L17.7 59.6V60.3L17.3 60L17.2 60.1V60.8L17.8 60.5L18.1 60.8L18.8 61.2L19.1 61.9L19.5 62.2L20 62.3L21.3 62.6L21.6 62.7L22 63L22.1 63.4L21.5 64.2V64.6L21.8 64.4H22L22.2 64.5L22.4 64.6L22.6 64.7H22.7V64.6V64.5L22.4 64.3L22.3 64.1H22.6L24.3 65.7L24.6 65.8L25.2 66.2H25.5L25.8 66.3L26.1 66.6L26.6 67.2L26.7 67.5L26.8 67.9L26.9 68.2L27.2 68.3L27.3 68.1V67.8V67.2L27.6 67.5H27.7L27.9 67.4L28.3 67.8L28.7 68.9L29 69.3ZM3.2 5.6L3.5 6H3.3H3.1L2.9 6.1L2.8 6.3L2.6 6.1H2.3H2.1L1.9 6V5.7L2 5.6L2.3 5.4L2.4 5.3L2.5 4.9L2.8 5.1L3.2 5.6ZM2 4L2.2 4.2L2.3 4.4V4.6L2.1 4.8L1.6 4.5L0.900002 5.1L0.799999 4.8V4.7L0.900002 4.5H0.700001L0.599998 4.4L0.700001 4.3L0.799999 4.2V4.1L0.700001 3.9V3.8L0.900002 3.7V3.6L0.700001 3.5H0.5H0.400002L0.200001 3.6L0 3.5V3.3L0.200001 3.1L0.400002 3L0.900002 3.1L1.3 3.4L1.7 3.8L2.1 4.1L2 4ZM6.5 0.299999L6.7 0.5L7.3 1.4V2.1H7.1V1.9L7 1.8L6.7 1.7V2.3L6.6 2.5L6.4 2.6H6L5.7 2.5L5.4 2.3L5.1 2.1L5 1.8L4.8 1.4L4.7 1.1L4.3 0.799999L4.1 0.5L3.9 0.199999V0H4.4L4.6 0.0999985L4.8 0.299999L5.1 0.799999L5.3 1.1L5.6 1L5.8 0.799999L5.9 0.5L6.1 0.299999H6.5Z" fill="#C8A668"/>
<path d="M235.2 175.1L235.4 175.5L234.9 176.4L235 176.8L234.4 177L234.3 177.1L233.4 176.8L233.1 176.7L232.3 176L231.6 175.8V175.6L231.8 175.4H231.9L232 175H232.1L232.5 174.6L232.9 174.4L233.3 174.3L233.6 174.6L233.9 174.7L234.9 174.9L235.2 175.1ZM239 173.7V174.2L238.8 174.6L238.7 174.7L238.4 174.6L238.2 174.5L237.9 174.4L237.7 174.3L237.4 174.1L237.7 173.7L237.9 173.3L238.2 173.2V173.1L238.3 173L238.5 172.9L238.6 173L238.7 173.3L239 173.7ZM244.9 173.9L245 173.5L245.5 173.2L246.1 173L246.6 172.9L246.8 173V173.3L246.9 173.4L247 173.6L246.8 174L246.6 174.5L246.2 174.8L245.5 175L245.2 175.4L244.9 175.3L244.3 174.6L243.8 174.2L243.9 174L244.3 174.2L244.6 174L244.9 173.9ZM262.6 173.5L262.5 173.8L262.3 174.1L262.2 174.3L262.1 174.5L261.9 175L261.1 176.1L260.9 176.6V176.8L261 177.1V177.3L260.9 177.5L260.8 177.8L260.7 178V178.1L260.6 178.2L260.5 178.4V178.6V178.7L260.9 179L261 179.2H260.5L259.8 179.5L259.4 179.6H259L258.6 179.7L258.4 179.9L258.3 180.3V181L258.1 181.1H257.5L257.1 181.2L256.7 181.3L256.4 181.2L256.2 180.8V179.9L256.1 179.5L255.7 179.1L254.6 178.2H254.7V178.1L254.6 177.9L254.5 177.7L254.3 177.5H254.1L254 177.6L253.7 177.7L253.4 177.8V178.1L253.7 178.6V179.4L253.2 179.8L251.9 180.4H250.6L250.1 181.1L249.5 181.3L249 181L248.8 180.6L249 180L249.7 179.1V179V178.9L249.6 178.8L249.5 178.7L249.4 178.6L248.9 178.1L248.8 178V177.7V177.5V177.3L248.7 177.1L248.6 176.9L248.5 176.7V176.4L248.6 176.2L249 175.8L249.1 175.6V174.9L249 174.8H248.7L248.2 175L248 175.1L247.9 174.8V174.6L248.1 174.4L248.3 174.2H248.6L249 173.9L249.1 173.4L249 172.8L248.8 172.2L249 172.1L249.4 171.9L249.6 171.7L249.7 171.5V170.2L250 168.3L250.3 167.8L251.1 167.6H251.4L252 167.8H252.3L252.6 167.6L253.2 167.2L253.5 167.1L253.8 167.6L254.5 167.9H255.2L255.6 167.8L256.6 168L256.9 168.2L257.1 168.4L257.5 169.4H257.6L257.7 168.9L257.9 168.6L258.1 168.5L258.8 168.7L258.9 168.8L259.1 169.2L259.2 169.3H259.5L259.8 169.6L260 169.9V170.2L260.4 170L260.7 170.1L262.1 171.7L262.3 172.4L262.6 173.1V173.5ZM232.5 167.8H233.4L233.7 167.9V168.2L233.6 168.3H233.5H233.3H233.1L232.4 168.7H232.2L231.9 168.8L231.5 169.1L230.6 170.5L229.4 173.9L229.2 174.7L229.4 175.3L230.1 175.8H230.3H230.6L230.8 175.9L231 176.1L231.1 176.2L231.2 176.4H231.5L231.9 176.6L232 176.9V177.2L231.9 177.5L232 177.8L232.1 177.9L232 178.1L231.8 178L231.7 178.1L231.5 178.3H231.2H231.1L231 178.2H230.8L230.5 178.4L230.4 178.3L230.3 178.2L230.2 178.1L229.2 177.9L228.6 178L228.5 178.5L228.3 178.4L228.2 178.3L227.8 178.6L227.5 178.4L227.3 177.9L227.2 177.5L227.1 177.3L226.9 177.1L226.5 176.8L226.3 176.6L226.1 176.1L225.9 175.9L225.5 175.8H224.6L224.2 175.7L223.2 174.8L219.1 173.3L218.7 173.2L217.3 173.1L217 172.9L215.7 170.9L215.4 170L215.3 169.1L215.5 168.3L215.9 167.4L216.2 166.6L215.9 165.7L215.2 165.3L214.5 165L213.9 164.5L213.7 163.6L213.8 163V162.8V162.6L213.6 162.3L213.5 161.9L213.3 161.5V161.3V160.7L213.2 160.1L213.1 159.8L212.9 159.7L212.6 159.5L212.3 159.4L211.1 159.2H211L210.8 159H210.7H210.6L210.4 159.1H210.3L209.7 159H209.5L209.2 158.7L208.9 158.2L208.7 158L208.2 158.3L207.2 158.6L206.8 158.8L206.4 159.1H206.2H205.8H204.5L203.5 159.4L203.4 159.3L203.3 159.2L202.9 158.6L202.8 158.4L202 158.1L201.7 158L201 158.1H200.7L200.4 158.3L200 157.6V156.8L200.2 156L200.5 155.4L201.1 155L203.4 154.2L204.9 153.2L205.4 152.4L205.3 151.5L204.5 151L204.1 150.7L204.3 150.6L204.4 150.5V150.3L204.3 149.9L204.4 149.7L204.6 149.6H204.8L205 149.5L205.1 149.3L205.2 149L205.3 148.9H205.4H205.6H205.8L206.6 148L206.8 147.9L207.7 148L208.1 147.9L208.3 147.8L208.4 147.6L208.7 147.4L209.2 147.3L209.6 147.6L209.7 148.1L209.8 148.6L209.9 149L210.3 149.4L210.8 149.7L211.4 149.9L211.2 150.2L210.4 150.9L210.3 151.2L210.6 151.5L211 151.9L211.2 152L211.6 152.2H211.9L212.1 152.1L212.5 152L212.6 152.1L212.8 152.5L212.9 152.6H213H213.6L213.4 152.2L213.1 151.8L212.5 151.2L212.3 150.8V150.4L212.5 149.7L212.4 149.6L212.1 149.1L212 148.9V148.6L211.9 148.4L211.8 148.1L211.7 147.8L211.5 147.6L211.2 147.4L211.7 147.3H213.5L214 147.1L214.8 146.6H215.2L215.6 146.7L215.7 146.9L215.8 147.2L216.1 147.5L216.2 147.6H216.4H216.9H217L217.9 148.3L218.1 148.4L218.2 148.6L218.1 148.8L217.9 149V149.3V150.1L218 150.3L218.1 150.5L218.3 150.6L218.4 150.7L218.5 150.9L218.6 151.2L218.7 151.4L218.8 151.5H219L219.1 151.7V151.8V152.1L219.2 152.3L219.4 152.4H219.6L219.8 152.5V152.7L219.7 152.9V153.1L220.7 154.3L220.8 154.5L220.7 154.7L220.5 156V156.8L221.2 160.2L222.5 163.6L223 164.5L223.6 165.2L224.3 165.8L224.6 166L225.1 166.2L225.5 166.3L225.7 166.1L226 166L228.2 166.8L230.8 167.2L232.1 167.7L232.5 167.8Z" fill="#C8A668"/>
</svg>
