<svg width="208" height="256" viewBox="0 0 208 256" fill="none" xmlns="http://www.w3.org/2000/svg">
<g clip-path="url(#clip0_268_6)">
<path d="M108.003 211.67C106.58 211.854 105.335 213.218 105.951 214.618C105.915 215.063 106.084 215.475 106.424 215.84C106.89 216.341 107.594 216.592 108.27 216.573C109.656 216.534 111.063 215.443 111.004 213.964C110.942 212.409 109.451 211.483 108.003 211.67Z" fill="#C8A668"/>
<path d="M202.411 184.876C201.839 188.213 200.689 191.373 199.164 194.361C198.411 191.824 197.21 189.432 195.567 187.265C195.487 187.159 195.397 187.075 195.304 187.001C196.746 185.146 198.039 183.175 199.155 181.106C199.172 181.082 199.184 181.053 199.198 181.026C200.312 178.953 201.262 176.792 202.009 174.559C202.786 177.888 203.02 181.327 202.411 184.876ZM194.098 202.238C193.922 202.315 193.744 202.416 193.567 202.546C190.498 204.771 187.104 206.536 183.534 207.766C183.824 204.447 183.468 201.15 182.425 197.933C186.654 195.678 190.424 192.64 193.591 189.063C195.495 191.71 196.721 194.641 197.203 197.803C196.244 199.33 195.201 200.809 194.098 202.238ZM171.209 225.41C169.432 224.937 167.693 224.345 165.999 223.654C168.968 221.6 170.96 218.558 171.742 215.047C175.885 215.049 180.011 214.438 183.966 213.241C179.768 217.275 175.328 221.231 171.209 225.41ZM150.786 227.243C149.696 225.671 148.7 224.047 147.796 222.379C150.034 222.358 152.181 221.712 154.058 220.349C154.176 220.264 154.267 220.167 154.347 220.065C158.444 223.175 163.038 225.632 167.952 227.243H150.786ZM162.192 236.111H147.37C146.196 234.937 145.023 233.762 143.848 232.587H164.782C163.872 233.734 163.01 234.909 162.192 236.111ZM157.989 243.681H154.933C153.302 242.048 151.67 240.415 150.039 238.783H160.488C159.556 240.358 158.721 241.989 157.989 243.681ZM124.813 250.657C124.807 250.415 124.768 250.161 124.685 249.892C124.32 248.713 123.954 247.532 123.589 246.352H150.052L153.533 249.837C154.198 250.501 154.962 250.701 155.673 250.593C155.675 250.615 155.679 250.635 155.681 250.657H124.813ZM121.246 238.783H142.489L147.383 243.681H122.762C122.257 242.048 121.751 240.415 121.246 238.783ZM119.327 232.587H136.299L139.82 236.111H120.419C120.055 234.937 119.691 233.762 119.327 232.587ZM104 250.657H88.666C89.11 249.222 89.5541 247.787 89.9982 246.352H104H118.002C118.446 247.787 118.89 249.222 119.334 250.657H104ZM68.1802 236.111L71.7014 232.587H88.6726C88.3089 233.762 87.9447 234.937 87.5811 236.111H68.1802ZM85.2379 243.681H60.6171L65.5108 238.783H86.7541C86.2489 240.415 85.7431 242.048 85.2379 243.681ZM83.315 249.892C83.2318 250.161 83.1933 250.415 83.1867 250.657H52.3188C52.3216 250.635 52.3246 250.615 52.3276 250.593C53.0384 250.701 53.8024 250.501 54.4666 249.837L57.9477 246.352H84.4109C84.0456 247.532 83.6803 248.713 83.315 249.892ZM50.0113 243.681C49.2793 241.989 48.4436 240.358 47.512 238.783H57.961C56.3296 240.415 54.6984 242.048 53.0671 243.681H50.0113ZM45.8081 236.111C44.9904 234.909 44.1282 233.734 43.2186 232.587H64.1515C62.978 233.762 61.8039 234.937 60.6298 236.111H45.8081ZM53.6531 220.065C53.7328 220.167 53.824 220.264 53.9415 220.349C55.8188 221.712 57.9659 222.358 60.2039 222.379C59.3009 224.047 58.3042 225.671 57.2144 227.243H40.0475C44.9621 225.632 49.556 223.175 53.6531 220.065ZM24.034 213.241C27.9886 214.438 32.1155 215.049 36.2577 215.047C37.0402 218.558 39.0319 221.6 42.0016 223.654C40.3068 224.345 38.5681 224.937 36.7911 225.41C32.672 221.231 28.2316 217.275 24.034 213.241ZM14.4335 202.546C14.2553 202.416 14.0777 202.315 13.9019 202.238C12.7989 200.809 11.7563 199.33 10.7969 197.803C11.2792 194.641 12.5046 191.71 14.4093 189.063C17.5764 192.64 21.3465 195.678 25.5748 197.933C24.5322 201.15 24.1757 204.447 24.4665 207.766C20.8962 206.536 17.5023 204.771 14.4335 202.546ZM5.58882 184.876C4.97994 181.327 5.21384 177.888 5.99124 174.559C6.73779 176.792 7.68809 178.953 8.80136 181.026C8.81601 181.053 8.82786 181.082 8.84466 181.106C9.9608 183.175 11.2538 185.146 12.6964 187.001C12.6027 187.075 12.5128 187.159 12.4327 187.265C10.7902 189.432 9.58879 191.824 8.83568 194.361C7.31085 191.373 6.16166 188.213 5.58882 184.876ZM13.1727 158.624C14.4192 156.547 15.6711 154.472 16.9249 152.399C16.6069 157.186 16.8114 161.995 17.6923 166.757C17.7352 166.989 17.7837 167.22 17.8304 167.451C14.3714 169.976 11.6627 173.28 9.87529 177.143C8.83491 174.804 8.01894 172.359 7.45454 169.845C8.94692 165.94 11.0276 162.199 13.1727 158.624ZM24.961 184.163C22.7274 185.954 21.03 188.187 19.9768 190.829C16.5515 187.851 13.6721 184.275 11.4643 180.313C12.841 176.336 15.2605 172.901 18.4983 170.293C19.8298 175.212 22.0135 179.973 24.961 184.163ZM23.4109 144.075C25.7887 146.662 29.5295 147.657 33.1427 146.778C34.8922 146.352 36.4411 145.588 37.8423 144.606C37.48 149.508 38.5818 154.458 41.2142 158.641C40.9743 161.686 39.1711 164.466 35.6701 165.319C32.9435 165.982 30.1284 164.632 28.7741 162.199C27.387 159.707 28.8481 153.951 32.4264 156.451C33.8396 157.438 35.1722 155.121 33.7736 154.144C29.8327 151.391 25.5092 155.215 25.4051 159.401C25.3035 163.491 28.5777 167.207 32.5165 168.004C36.8461 168.88 41.3651 166.173 43.1227 162.221C43.2236 161.994 43.3117 161.765 43.3947 161.535C44.184 162.415 45.0545 163.244 46.0136 164.008C54.8511 171.046 69.4 168.816 74.5377 158.205C76.1746 154.824 76.3829 151.074 75.5118 147.592C76.1922 145.82 77.3267 144.243 78.9597 143.17C80.6115 142.085 83.3773 141.591 84.4968 143.752C85.3216 145.343 83.3613 147.131 82.1476 145.651C81.0561 144.321 79.1784 146.222 80.26 147.54C81.9123 149.555 85.093 149.086 86.6114 147.138C88.4191 144.82 86.9861 141.631 84.6704 140.295C81.4958 138.464 77.6848 140.236 75.4517 142.723C75.1922 143.012 74.9531 143.314 74.7239 143.621C74.7046 143.362 74.611 143.098 74.4165 142.852C73.0876 141.175 72.3151 139.143 72.2352 136.999C72.1983 136.002 72.2991 134.982 72.5972 134.028C72.6969 133.65 72.8363 133.287 73.0148 132.942C73.0947 133.742 73.5741 134.489 74.5906 134.851C77.6005 135.925 79.5107 132.119 77.5206 129.933C74.665 126.798 70.8942 130.381 70.0237 133.318C69.5278 134.99 69.4446 136.696 69.6942 138.35C67.0501 136.192 63.7328 134.883 60.0287 134.998C56.5957 135.104 56.5924 140.447 60.0287 140.341C64.7532 140.195 68.7361 143.662 70.2011 148.04C71.5989 152.217 70.2562 156.42 67.092 159.284C67.903 155.313 66.5631 150.909 62.8017 148.781C59.9284 147.156 55.81 147.738 54.4754 151.089C53.3392 153.941 55.6679 157.187 58.7505 156.865C60.4447 156.688 60.4568 154.015 58.7505 154.193C56.9356 154.383 56.3626 152.483 57.5219 151.256C58.4607 150.262 60.0414 150.397 61.1626 150.922C62.7742 151.677 63.892 153.241 64.3747 154.916C65.0694 157.328 64.5807 159.836 63.1648 161.777C56.2673 164.692 48.5032 161.23 44.9123 154.333C42.188 149.101 42.5665 143.292 44.9223 138.274C45.5978 140.979 47.4877 143.328 50.3287 143.958C52.0053 144.33 52.7148 141.753 51.0383 141.381C48.1624 140.745 46.9353 137.596 47.4208 134.888C47.4863 134.523 47.5806 134.168 47.694 133.819C48.9842 132.197 50.4963 130.74 52.174 129.52C54.6334 127.731 57.3191 126.435 60.1279 125.584C59.6078 126.571 59.3505 127.688 59.459 128.867C59.6546 130.987 61.086 132.922 63.254 133.259C65.4964 133.607 67.7521 132.249 68.2193 129.99C68.5669 128.309 65.9934 127.597 65.6452 129.279C65.302 130.941 63.2717 131.036 62.4348 129.715C61.6204 128.428 62.281 126.704 63.2821 125.77C63.9604 125.137 64.7493 124.738 65.5951 124.492C72.5923 123.77 79.9288 125.446 86.2092 128.921C85.6412 129.199 85.0831 129.595 84.5431 130.132C81.4539 133.203 83.9569 139.009 88.4897 137.597C90.1271 137.087 89.4241 134.509 87.78 135.021C85.8423 135.624 85.2605 133.217 86.4307 132.022C87.3139 131.119 88.7056 131.009 89.8648 131.319C89.9332 131.337 89.9987 131.361 90.0659 131.382C94.597 134.693 98.294 139.033 100.477 144.117C100.449 144.351 100.421 144.585 100.392 144.818C99.3579 146.103 98.3034 147.371 97.2009 148.603C96.6642 149.203 96.1194 149.795 95.5689 150.382C95.5833 150.247 95.6009 150.113 95.6097 149.976C95.8329 146.59 94.4786 143.331 91.6279 141.438C90.191 140.484 88.856 142.799 90.2808 143.745C94.3596 146.453 93.2202 151.04 91.1321 154.834C88.5282 157.292 85.7938 159.607 82.9509 161.78C83.8913 159.128 84.0015 156.185 83.1051 153.359C82.5867 151.724 80.0104 152.427 80.5316 154.069C81.9531 158.551 80.3415 163.518 76.417 166.173C76.211 166.312 76.0688 166.482 75.9713 166.665C73.8055 168.051 71.5923 169.365 69.3229 170.585C67.5818 171.52 65.751 172.515 63.8617 173.436C61.3505 173.235 59.0155 172.311 57.0635 170.666C55.7566 169.565 53.8602 171.447 55.1759 172.556C56.5764 173.735 58.1125 174.636 59.7593 175.243C57.7312 176.021 55.664 176.62 53.5934 176.889C53.0778 173.683 51.7209 170.609 48.2209 169.759C44.5211 168.86 40.4933 171.422 41.1844 175.532C41.5463 177.684 42.9881 179.362 44.8061 180.508C45.4578 188.201 52.4213 193.441 59.5158 192.774C54.6488 194.252 49.3555 194.052 44.4296 192.463C42.3308 190.984 40.7899 188.766 40.2391 186.179C39.4656 182.547 41.1986 178.873 40.2073 175.237C38.4447 168.773 29.5764 168.961 28.7751 175.841C28.5763 177.548 31.2478 177.529 31.4444 175.841C31.7616 173.117 34.9199 172.102 36.7226 174.137C37.6931 175.232 37.8821 176.796 37.8829 178.202C37.8846 181.141 37.0215 183.95 37.6652 186.889C37.8999 187.961 38.2807 188.979 38.7745 189.932C36.873 188.82 35.0926 187.486 33.497 185.948C22.2599 175.121 20.467 158.727 23.4109 144.075ZM28.868 132.837C30.965 134.877 33.8467 136.033 36.7004 134.441C39.7205 132.756 40.0874 127.9 36.6739 126.401C35.1143 125.716 33.7572 128.018 35.3267 128.708C37.5075 129.665 36.2267 132.195 34.2993 132.449C32.6362 132.666 31.3015 131.733 30.2893 130.522C35.942 121.327 41.6133 112.143 47.2475 102.939C49.7562 98.8409 52.2648 94.7425 54.7736 90.6447C55.7153 93.1555 57.8144 94.7536 60.221 95.3773C57.4232 98.7874 56.1004 103.247 57.583 107.479C57.1362 107.954 56.5742 108.314 55.8624 108.476C53.9368 108.916 52.0627 107.132 53.4395 105.34C54.487 103.977 52.1673 102.648 51.1347 103.991C48.959 106.824 51.1863 110.802 54.5041 111.19C56.1863 111.386 57.6376 110.866 58.7896 109.932C58.8535 110.03 58.9163 110.13 58.9835 110.228C61.2006 113.468 64.8386 115.381 68.7835 114.79C69.0518 114.75 69.3151 114.696 69.5763 114.635C70.1614 114.885 70.7107 115.205 71.1818 115.646C72.0848 116.49 72.6418 118.335 71.9058 119.278C67.6182 118.983 63.3174 119.375 59.2557 120.489C59.0227 120.397 58.7935 120.292 58.572 120.167C57.5009 119.562 56.4794 118.514 56.5351 117.204C56.5858 116.005 57.6001 114.86 58.8959 115.2C60.5615 115.638 61.2656 113.06 59.6056 112.624C55.8392 111.635 52.8788 115.611 54.1788 119.084C54.5758 120.143 55.1715 120.966 55.9009 121.602C53.3652 122.594 50.9583 123.891 48.7566 125.522C46.5027 126.086 44.2243 126.004 42.488 124.267C41.0344 122.813 40.6883 120.408 41.7985 118.651C42.329 117.811 43.3878 116.818 44.4234 116.652C45.474 116.482 46.4396 117.417 47.2723 117.932C48.7386 118.84 50.0776 116.528 48.6195 115.625C47.2194 114.758 46.0422 113.584 44.3236 113.93C42.8679 114.222 41.5099 114.98 40.4738 116.043C38.4818 118.086 37.973 121.136 39.0282 123.762C40.3179 126.972 42.7551 128.184 45.5086 128.313C44.34 129.482 43.2547 130.767 42.2682 132.172C40.45 134.762 39.1788 137.65 38.4626 140.642C37.3823 141.695 36.1857 142.618 34.8111 143.314C31.2 145.144 25.9155 144.846 24.22 140.544C24.21 140.518 24.1953 140.499 24.1842 140.474C25.7424 137.927 27.305 135.382 28.868 132.837ZM57.1505 86.8805C57.6596 85.5438 60.1207 84.4519 60.8794 86.253C61.5372 87.8158 64.1196 87.1248 63.4529 85.5427C62.751 83.8751 61.2822 82.8593 59.6265 82.7165C61.3532 79.8958 63.0794 77.0757 64.8061 74.2556C66.648 76.9743 70.1416 77.7634 73.2198 76.7752C74.7432 76.286 76.0148 75.4076 77.114 74.3212C77.9162 76.7283 79.7018 78.7935 82.3431 79.7227C85.5966 80.8669 86.9822 75.7032 83.7624 74.5705C82.1558 74.0052 81.6456 71.8491 82.0611 70.3491C82.623 68.3209 84.8175 67.3674 86.7602 67.2345C88.0908 67.1435 89.3177 67.3994 90.4428 67.9001C90.2671 67.9873 90.0907 68.0816 89.9122 68.1935C86.1255 70.5669 87.4737 76.1912 91.6869 77.025C93.3679 77.3575 94.0802 74.7817 92.3965 74.4486C89.1486 73.8062 90.2428 69.3913 93.2957 70.2824C93.5794 70.3651 93.8411 70.4826 94.0869 70.6243C95.3408 71.9753 96.3882 73.5724 97.2323 75.1219C97.2455 75.1517 97.2598 75.1826 97.2731 75.2124C97.3006 75.2719 97.3348 75.3199 97.3667 75.3717C97.5226 75.664 97.6714 75.9546 97.813 76.2403C99.8879 80.4418 100.897 84.983 101.291 89.6372V95.385C100.406 94.6615 99.4113 94.0328 98.3111 93.5244C96.7601 92.8075 95.4059 95.1109 96.964 95.8311C98.7287 96.6467 100.189 97.8246 101.291 99.2308V100.74C101.164 102.722 100.991 104.692 100.804 106.634C98.2554 102.089 94.8466 98.0524 90.6246 94.9102C90.3133 94.6786 89.9949 94.4547 89.6731 94.2341C89.2334 93.4637 88.8571 92.6641 88.5921 91.8132C88.012 89.946 88.056 87.4027 89.9244 86.2497C91.65 85.1854 94.7199 86.8221 92.8814 88.74C91.6918 89.9813 93.5772 91.8722 94.7689 90.6293C96.4962 88.8271 96.4224 85.83 94.4632 84.1718C92.4621 82.4788 89.4351 82.9746 87.6125 84.6824C85.2142 86.929 85.0627 89.474 85.8946 92.0322C84.4092 91.3065 82.8561 90.7004 81.2649 90.2361C81.1674 89.9951 80.979 89.7784 80.6699 89.6245C78.6671 88.6303 76.1437 87.5031 75.0787 85.3993C74.6165 84.4872 74.4865 83.3093 74.8517 82.3382C75.4319 80.7941 75.9151 81.2193 77.0104 81.9627C78.4374 82.931 79.7713 80.6149 78.3575 79.656C76.5812 78.4505 75.4369 77.6779 73.6551 79.3604C72.5405 80.4131 71.9923 82.02 71.9801 83.5305C71.9609 85.9651 73.2077 87.7832 74.9107 89.2104C72.1724 89.1282 69.4369 89.5275 66.8441 90.5366C65.2816 91.1443 63.8155 92.0217 62.5113 93.0915C61.0122 93.0518 59.5196 92.4981 58.4409 91.4587C57.2915 90.3519 56.5516 88.4549 57.1505 86.8805ZM72.6126 61.5022C72.9812 63.0005 73.6898 64.4056 74.7641 65.5537C75.5415 66.3853 76.4787 67.0244 77.4941 67.4728C76.9994 68.5315 76.7178 69.6642 76.6523 70.8063C75.8501 71.8943 74.9245 72.8737 73.7741 73.5867C71.6396 74.9107 68.3697 75.0067 66.9295 72.6393C66.7273 72.3062 66.4507 72.1237 66.1565 72.0487C68.3085 68.5332 70.4606 65.0177 72.6126 61.5022ZM74.9856 58.4472C75.0066 58.108 75.0539 57.7567 75.1223 57.4027C76.0545 55.879 76.9873 54.3554 77.92 52.8317C78.1834 52.668 78.4638 52.5312 78.7619 52.4264C79.8644 52.0399 81.3834 52.1441 82.2192 53.0551C83.1343 54.0532 82.8451 55.6022 81.7084 56.2347C80.2054 57.0713 81.5531 59.378 83.0561 58.5414C86.2803 56.747 86.1023 52.0735 82.9481 50.284C81.9597 49.7232 80.9393 49.4971 79.9421 49.5291C83.5553 43.6264 87.1685 37.7231 90.7816 31.8209C92.6444 30.2697 95.0367 29.7006 97.4339 30.2857C99.1056 30.6937 99.8119 28.1168 98.1436 27.7098C96.516 27.3122 94.8769 27.3084 93.3265 27.6635C94.7034 25.4147 96.0797 23.1659 97.4565 20.9171C97.462 20.9342 97.4642 20.9507 97.4703 20.9678C98.1557 23.038 99.3755 25.0281 100.322 26.9891C100.645 27.6574 100.968 28.3264 101.291 28.9947V34.9134C98.2113 32.2902 93.3326 31.3814 90.1166 34.2787C87.2676 36.8457 86.8004 42.2919 90.4423 44.4199C93.4505 46.1779 97.9089 44.5556 98.597 41.0356C98.9254 39.3537 96.3524 38.6396 96.0229 40.3254C95.4808 43.0997 91.3783 43.14 90.6098 40.455C89.6913 37.245 92.8246 34.9002 95.7397 35.1947C98.4549 35.4693 100.194 36.8799 101.291 38.8442V47.9172C99.7474 46.6704 97.781 45.873 95.5519 45.7423C93.8329 45.6419 93.8444 48.3142 95.5519 48.4141C98.1193 48.564 100.187 49.9703 101.291 51.9593V71.195C100.166 69.4243 98.8356 67.7639 97.2505 66.2535C95.391 64.4817 93.0241 63.1229 90.5244 62.4237C89.4032 61.1432 88.5982 59.6603 88.4968 57.8963C88.3965 56.1564 89.3789 53.9346 91.2781 53.531C93.1601 53.1317 94.8356 54.8605 94.1287 56.7211C93.5172 58.3325 96.0984 59.0229 96.7028 57.4314C97.6461 54.9477 96.218 52.1694 93.8108 51.1625C91.4582 50.1787 88.8858 51.2303 87.3574 53.1494C84.9696 56.1471 85.4368 59.1971 87.0864 61.9031C84.2522 61.8502 81.4622 62.7595 79.2313 64.9846C79.1652 65.0502 79.1085 65.1214 79.0451 65.1886C76.5966 64.1982 74.8027 61.457 74.9856 58.4472ZM91.2164 168.329C89.2511 170.221 87.2032 172.026 85.0809 173.739C83.1332 173.144 81.6374 171.685 80.9823 169.769C81.1757 169.637 81.3729 169.512 81.5657 169.38C83.7971 167.851 85.9646 166.235 88.0698 164.544C88.7739 166.064 89.8494 167.374 91.2164 168.329ZM97.2841 161.931C95.9574 163.465 94.5794 164.955 93.1596 166.402C91.7866 165.569 90.7436 164.342 90.2197 162.776C91.8263 161.416 93.3943 160.011 94.9194 158.562C95.7078 159.685 96.4956 160.808 97.2841 161.931ZM101.291 151.988V156.984C100.564 157.945 99.819 158.892 99.0576 159.825C98.3232 158.779 97.5888 157.733 96.8543 156.686C98.3788 155.164 99.8593 153.598 101.291 151.988ZM97.9601 119.444C97.1937 117.423 94.9981 116.582 93.0103 117.51C90.4963 118.683 90.3073 121.834 90.6169 124.231C90.6681 124.631 90.7343 125.027 90.8103 125.419C86.7503 122.879 82.2335 121.044 77.5553 120.062C76.5928 119.86 75.6231 119.693 74.6501 119.56C75.0661 118.432 75.0865 117.131 74.5823 115.923C74.13 114.84 73.4484 114.011 72.6253 113.367C74.5344 112.161 75.9922 110.307 76.6528 108.037C77.617 104.724 72.4639 103.323 71.5047 106.617C70.7229 109.305 67.3361 110.367 65.0298 108.891C62.2827 107.132 61.7125 103.439 63.0105 100.626C64.7637 96.8265 68.4468 95.0927 72.3785 94.6902C71.6093 95.6795 71.1609 96.8993 71.2507 98.3215C71.4496 101.454 74.7785 103.374 77.5542 101.94C79.0831 101.15 77.7311 98.8459 76.2071 99.6334C74.5217 100.504 73.6 98.3308 74.0854 97.0096C74.5432 95.7655 75.6809 95.117 76.8919 94.7701C77.9266 94.9063 78.9338 95.1159 79.8809 95.3883C85.5624 97.0233 90.4698 100.963 93.9243 105.7C94.1926 106.068 94.4444 106.443 94.6951 106.817C91.71 105.395 87.9943 105.132 85.3393 107.343C82.9046 109.369 81.8175 113.321 84.2241 115.81C86.1663 117.819 89.634 118.05 91.5337 115.906C92.6703 114.623 90.7883 112.728 89.6461 114.017C88.1293 115.73 85.4461 114.239 85.5563 112.123C85.6963 109.42 88.5624 108.156 90.9277 108.439C94.1629 108.826 96.7072 110.99 98.267 113.731C100.449 119.385 101.26 125.509 101.291 131.676V132.521C101.286 133.317 101.265 134.113 101.236 134.908C99.2488 132.269 96.8929 129.909 94.2808 127.863C93.7359 126.488 93.3519 125.028 93.2048 123.568C93.1282 122.811 93.0632 121.97 93.2753 121.233C93.3971 120.809 94.8637 118.776 95.3866 120.155C95.991 121.749 98.5706 121.053 97.9601 119.444ZM70.7752 175.864C73.4804 174.449 76.1256 172.918 78.6925 171.276C79.4947 173.137 80.9013 174.662 82.671 175.617C81.9762 176.14 81.2765 176.656 80.5668 177.159C78.995 178.272 77.3399 179.385 75.6121 180.382C75.4622 180.224 75.2644 180.094 75.0005 180.023C72.9035 179.456 71.3774 177.891 70.7752 175.864ZM64.0524 183.975C61.3565 183.96 58.7169 183.202 56.5907 181.731C57.9698 181.399 59.3251 180.957 60.637 180.456C63.2546 179.455 65.827 178.324 68.3515 177.09C69.0804 179.193 70.6281 180.933 72.5989 181.944C69.8926 183.176 67.0347 183.991 64.0524 183.975ZM67.9267 209.03V227.243H60.4216C64.037 221.674 66.5708 215.49 67.9267 209.03ZM65.6413 206.762C64.8595 211.23 63.4865 215.567 61.5659 219.672C61.5047 219.673 61.4452 219.671 61.3813 219.68C59.3676 219.964 57.4442 219.437 55.7698 218.362C59.6458 215.057 63.0017 211.139 65.6413 206.762ZM43.3536 214.431C46.8166 213.824 50.1491 212.749 53.2879 211.276C54.2047 212.432 55.5026 213.27 56.9544 213.65C53.4536 217.191 49.3647 220.145 44.8909 222.355C44.8034 222.268 44.7043 222.186 44.5787 222.116C41.7792 220.57 39.732 218.011 38.9417 214.956C40.417 214.86 41.8901 214.688 43.3536 214.431ZM36.4576 199.09C36.6703 197.824 37.2781 196.689 38.2034 195.816C38.5523 195.99 38.9048 196.159 39.2613 196.321C43.3324 198.17 47.7771 199.108 52.1981 199.119C47.0146 200.171 41.6303 200.184 36.4576 199.09ZM47.1305 207.968C46.0672 206.296 45.5859 204.498 45.6686 202.544C51.2271 202.38 56.7549 201.113 61.8353 198.791C57.7533 202.969 52.6699 206.129 47.1305 207.968ZM64.329 203.742C62.8193 206.519 61.0078 209.113 58.9488 211.49C58.7494 211.325 58.4926 211.212 58.1775 211.188C57.2089 211.112 56.3692 210.673 55.7378 210.021C58.8453 208.3 61.7328 206.184 64.329 203.742ZM47.712 181.816C48.1737 181.953 48.6367 182.062 49.0934 182.139C49.2378 182.163 49.3826 182.181 49.5273 182.2C52.2979 186.244 57.086 188.588 61.9378 189.17C62.1372 189.194 62.3361 189.206 62.535 189.223C56.3318 191.925 49.2137 188.336 47.712 181.816ZM22.1744 192.602C22.9882 190.101 24.4829 187.902 26.5532 186.275C29.1561 189.504 32.2493 192.313 35.7898 194.475C34.8147 195.6 34.1497 196.963 33.8604 198.442C31.7886 197.843 29.7627 197.063 27.8125 196.087C25.8224 195.091 23.9389 193.92 22.1744 192.602ZM27.9993 199.118C32.7508 201.236 37.8617 202.361 43.003 202.536C42.8992 204.711 43.4033 206.85 44.4684 208.741C43.6309 208.949 42.7864 209.132 41.9344 209.279C37.0122 210.13 32.0008 209.841 27.2278 208.599C26.7868 205.391 27.0627 202.226 27.9993 199.118ZM86.6517 227.243H84.4252V203.564C85.2208 203.879 86.0483 204.112 86.8864 204.254C86.7376 204.577 86.65 204.954 86.65 205.388V227.206C86.65 227.219 86.6517 227.231 86.6517 227.243ZM92.342 238.783H115.658C116.164 240.415 116.669 242.048 117.175 243.681H104H90.8257C91.331 242.048 91.8362 240.415 92.342 238.783ZM114.831 236.111H93.169C93.5326 234.937 93.8962 233.762 94.2599 232.587H104H113.74C114.104 233.762 114.467 234.937 114.831 236.111ZM116.013 227.243H91.9866C91.9866 227.231 91.9883 227.219 91.9883 227.206V205.823C95.9921 202.652 99.9959 199.479 104 196.307C108.004 199.479 112.008 202.652 116.012 205.823V227.206C116.012 227.219 116.013 227.231 116.013 227.243ZM119.398 201.738C114.476 197.838 109.555 193.939 104.633 190.039C104.427 189.877 104.215 189.749 104 189.653C103.785 189.749 103.573 189.877 103.367 190.039C98.4455 193.939 93.5238 197.838 88.602 201.738C86.9101 201.698 85.2737 201.223 83.8715 200.312C88.3536 196.985 92.8351 193.659 97.3171 190.332C97.5116 190.281 97.7056 190.187 97.8868 190.027C98.0758 189.86 98.2527 189.685 98.4268 189.508C100.285 188.129 102.142 186.75 104 185.371C105.858 186.75 107.715 188.129 109.573 189.508C109.747 189.685 109.924 189.86 110.114 190.027C110.294 190.187 110.488 190.281 110.683 190.332C115.165 193.659 119.646 196.985 124.128 200.312C122.726 201.223 121.09 201.698 119.398 201.738ZM121.114 204.254C121.952 204.112 122.779 203.879 123.575 203.564V227.243H121.348C121.348 227.231 121.35 227.219 121.35 227.206V205.388C121.35 204.954 121.262 204.577 121.114 204.254ZM127.227 183.465C129.572 184.986 132.109 186.385 134.764 187.435C134.747 187.564 134.735 187.698 134.735 187.839V188.998C134.723 189.129 134.725 189.263 134.735 189.396V227.243H126.244V202.27C126.244 202.211 126.233 202.158 126.227 202.103C128.312 200.583 129.855 198.39 130.222 195.737C130.539 193.441 129.722 190.954 127.446 190.034C125.49 189.244 123.036 189.841 122.13 191.856C121.43 193.412 123.73 194.772 124.435 193.205C125.311 191.256 127.467 192.864 127.627 194.355C127.79 195.881 127.022 197.415 126.085 198.561C125.999 198.436 125.894 198.317 125.755 198.213C120.975 194.664 116.194 191.116 111.413 187.567C111.348 187.499 111.288 187.429 111.226 187.36C112.844 187.609 114.493 187.283 115.948 186.042C118.666 183.726 118.005 179.122 114.48 178.061C112.831 177.564 112.126 180.142 113.77 180.637C116.253 181.384 114.573 184.284 112.785 184.68C111.464 184.974 110.239 184.524 109.168 183.795C107.972 180.345 108.209 176.284 107.871 172.69C107.513 168.89 106.588 165.028 104 162.297C101.412 165.028 100.487 168.89 100.13 172.69C99.7909 176.284 100.028 180.345 98.8323 183.795C97.7607 184.524 96.5359 184.974 95.2152 184.68C93.4274 184.284 91.7469 181.384 94.2301 180.637C95.8736 180.142 95.1689 177.564 93.5205 178.061C89.9949 179.122 89.3337 183.726 92.0516 186.042C93.5072 187.283 95.1563 187.609 96.7744 187.36C96.7122 187.429 96.6516 187.499 96.5871 187.567C91.8064 191.116 87.0257 194.664 82.2451 198.213C82.1057 198.317 82.001 198.436 81.915 198.561C80.9779 197.415 80.2098 195.881 80.3735 194.355C80.5332 192.864 82.6891 191.256 83.5657 193.205C84.2698 194.772 86.5696 193.412 85.8704 191.856C84.9641 189.841 82.5101 189.244 80.5547 190.034C78.2776 190.954 77.4611 193.441 77.7784 195.737C78.1448 198.39 79.6881 200.583 81.7729 202.103C81.7668 202.158 81.7564 202.211 81.7564 202.27V227.243H73.265V189.396C73.2754 189.263 73.2765 189.129 73.265 188.998V187.839C73.265 187.698 73.2529 187.564 73.2358 187.435C75.8914 186.385 78.428 184.986 80.7735 183.465C89.6169 177.731 97.4356 170.437 104 162.177C110.564 170.437 118.383 177.731 127.227 183.465ZM106.709 151.988C108.141 153.598 109.621 155.164 111.146 156.686C110.411 157.733 109.677 158.779 108.942 159.825C108.181 158.892 107.436 157.945 106.709 156.984V151.988ZM106.709 131.676C106.74 125.509 107.551 119.385 109.733 113.731C111.293 110.99 113.837 108.826 117.072 108.439C119.438 108.156 122.304 109.42 122.444 112.123C122.554 114.239 119.871 115.73 118.354 114.017C117.212 112.728 115.33 114.623 116.466 115.906C118.366 118.05 121.834 117.819 123.776 115.81C126.182 113.321 125.095 109.369 122.661 107.343C120.006 105.132 116.29 105.395 113.305 106.817C113.556 106.443 113.807 106.068 114.076 105.7C117.53 100.963 122.438 97.0233 128.119 95.3883C129.066 95.1159 130.073 94.9063 131.108 94.7701C132.319 95.117 133.457 95.7655 133.915 97.0096C134.4 98.3308 133.478 100.504 131.793 99.6334C130.269 98.8459 128.917 101.15 130.446 101.94C133.222 103.374 136.55 101.454 136.749 98.3215C136.839 96.8993 136.391 95.6795 135.622 94.6902C139.554 95.0927 143.236 96.8265 144.989 100.626C146.288 103.439 145.717 107.132 142.97 108.891C140.664 110.367 137.277 109.305 136.495 106.617C135.536 103.323 130.383 104.724 131.347 108.037C132.008 110.307 133.466 112.161 135.375 113.367C134.552 114.011 133.87 114.84 133.418 115.923C132.914 117.131 132.934 118.432 133.35 119.56C132.377 119.693 131.407 119.86 130.445 120.062C125.766 121.044 121.25 122.879 117.19 125.419C117.266 125.027 117.332 124.631 117.383 124.231C117.693 121.834 117.504 118.683 114.99 117.51C113.002 116.582 110.806 117.423 110.04 119.444C109.429 121.053 112.009 121.749 112.613 120.155C113.137 118.776 114.603 120.809 114.725 121.233C114.937 121.97 114.872 122.811 114.795 123.568C114.648 125.028 114.264 126.488 113.719 127.863C111.107 129.909 108.751 132.269 106.764 134.908C106.735 134.113 106.714 133.317 106.709 132.521V131.676ZM106.709 99.2308C107.811 97.8246 109.271 96.6467 111.036 95.8311C112.594 95.1109 111.24 92.8075 109.689 93.5244C108.589 94.0328 107.594 94.6615 106.709 95.385V89.6372C107.103 84.983 108.112 80.4418 110.187 76.2403C110.329 75.9546 110.477 75.664 110.633 75.3717C110.665 75.3199 110.699 75.2719 110.727 75.2124C110.74 75.1826 110.754 75.1517 110.768 75.1219C111.612 73.5724 112.659 71.9753 113.913 70.6243C114.159 70.4826 114.421 70.3651 114.704 70.2824C117.757 69.3913 118.852 73.8062 115.603 74.4486C113.92 74.7817 114.632 77.3575 116.313 77.025C120.526 76.1912 121.875 70.5669 118.088 68.1935C117.909 68.0816 117.733 67.9873 117.557 67.9001C118.682 67.3994 119.909 67.1435 121.24 67.2345C123.183 67.3674 125.377 68.3209 125.939 70.3491C126.354 71.8491 125.844 74.0052 124.238 74.5705C121.018 75.7032 122.403 80.8669 125.657 79.7227C128.298 78.7935 130.084 76.7283 130.886 74.3212C131.985 75.4076 133.257 76.286 134.78 76.7752C137.859 77.7634 141.352 76.9743 143.194 74.2556C144.921 77.0757 146.647 79.8958 148.373 82.7165C146.718 82.8593 145.249 83.8751 144.547 85.5427C143.88 87.1248 146.463 87.8158 147.121 86.253C147.879 84.4519 150.34 85.5438 150.849 86.8805C151.448 88.4549 150.708 90.3519 149.559 91.4587C148.48 92.4981 146.988 93.0518 145.489 93.0915C144.185 92.0217 142.718 91.1443 141.156 90.5366C138.563 89.5275 135.828 89.1282 133.089 89.2104C134.792 87.7832 136.039 85.9651 136.02 83.5305C136.008 82.02 135.46 80.4131 134.345 79.3604C132.564 77.6779 131.419 78.4505 129.643 79.656C128.229 80.6149 129.563 82.931 130.99 81.9627C132.085 81.2193 132.568 80.7941 133.148 82.3382C133.514 83.3093 133.384 84.4872 132.922 85.3993C131.856 87.5031 129.333 88.6303 127.33 89.6245C127.021 89.7784 126.833 89.9951 126.735 90.2361C125.144 90.7004 123.591 91.3065 122.105 92.0322C122.938 89.474 122.786 86.929 120.387 84.6824C118.565 82.9746 115.538 82.4788 113.537 84.1718C111.578 85.83 111.504 88.8271 113.231 90.6293C114.423 91.8722 116.308 89.9813 115.119 88.74C113.28 86.8221 116.351 85.1854 118.076 86.2497C119.944 87.4027 119.988 89.946 119.408 91.8132C119.143 92.6641 118.767 93.4637 118.327 94.2341C118.005 94.4547 117.687 94.6786 117.376 94.9102C113.153 98.0524 109.745 102.089 107.196 106.634C107.009 104.692 106.836 102.722 106.709 100.74V99.2308ZM106.709 51.9593C107.813 49.9703 109.881 48.564 112.448 48.4141C114.156 48.3142 114.167 45.6419 112.448 45.7423C110.219 45.873 108.253 46.6704 106.709 47.9172V38.8442C107.806 36.8799 109.545 35.4693 112.26 35.1947C115.176 34.9002 118.309 37.245 117.39 40.455C116.622 43.14 112.519 43.0997 111.977 40.3254C111.648 38.6396 109.075 39.3537 109.403 41.0356C110.091 44.5556 114.55 46.1779 117.558 44.4199C121.2 42.2919 120.732 36.8457 117.883 34.2787C114.667 31.3814 109.789 32.2902 106.709 34.9134V28.9947C107.032 28.3264 107.355 27.6574 107.678 26.9891C108.624 25.0281 109.844 23.038 110.53 20.9678C110.536 20.9507 110.538 20.9342 110.543 20.9171C111.92 23.1659 113.297 25.4147 114.673 27.6635C113.123 27.3084 111.484 27.3122 109.856 27.7098C108.188 28.1168 108.894 30.6937 110.566 30.2857C112.963 29.7006 115.356 30.2697 117.218 31.8209C120.832 37.7231 124.445 43.6264 128.058 49.5291C127.061 49.4971 126.04 49.7232 125.052 50.284C121.898 52.0735 121.72 56.747 124.944 58.5414C126.447 59.378 127.795 57.0713 126.292 56.2347C125.155 55.6022 124.866 54.0532 125.781 53.0551C126.617 52.1441 128.136 52.0399 129.238 52.4264C129.536 52.5312 129.817 52.668 130.08 52.8317C131.013 54.3554 131.946 55.879 132.878 57.4027C132.946 57.7567 132.993 58.108 133.014 58.4472C133.197 61.457 131.403 64.1982 128.955 65.1886C128.892 65.1214 128.835 65.0502 128.769 64.9846C126.538 62.7595 123.748 61.8502 120.914 61.9031C122.563 59.1971 123.031 56.1471 120.643 53.1494C119.114 51.2303 116.542 50.1787 114.189 51.1625C111.782 52.1694 110.354 54.9477 111.297 57.4314C111.902 59.0229 114.483 58.3325 113.871 56.7211C113.165 54.8605 114.84 53.1317 116.722 53.531C118.621 53.9346 119.603 56.1564 119.503 57.8963C119.402 59.6603 118.597 61.1432 117.476 62.4237C114.976 63.1229 112.609 64.4817 110.75 66.2535C109.164 67.7639 107.834 69.4243 106.709 71.195V51.9593ZM135.387 61.5022C137.539 65.0177 139.691 68.5332 141.844 72.0487C141.549 72.1237 141.273 72.3062 141.071 72.6393C139.63 75.0067 136.36 74.9107 134.226 73.5867C133.076 72.8737 132.15 71.8943 131.348 70.8063C131.282 69.6642 131.001 68.5315 130.506 67.4728C131.521 67.0244 132.458 66.3853 133.236 65.5537C134.31 64.4056 135.019 63.0005 135.387 61.5022ZM153.226 90.6447C155.735 94.7425 158.244 98.8409 160.752 102.939C166.387 112.143 172.058 121.327 177.711 130.522C176.698 131.733 175.364 132.666 173.701 132.449C171.773 132.195 170.492 129.665 172.674 128.708C174.243 128.018 172.886 125.716 171.326 126.401C167.913 127.9 168.28 132.756 171.299 134.441C174.153 136.033 177.035 134.877 179.132 132.837C180.695 135.382 182.258 137.927 183.816 140.474C183.805 140.499 183.79 140.518 183.78 140.544C182.084 144.846 176.8 145.144 173.189 143.314C171.815 142.618 170.618 141.695 169.538 140.642C168.821 137.65 167.55 134.762 165.732 132.172C164.745 130.767 163.66 129.482 162.491 128.313C165.245 128.184 167.682 126.972 168.972 123.762C170.027 121.136 169.518 118.086 167.526 116.043C166.49 114.98 165.132 114.222 163.676 113.93C161.958 113.584 160.781 114.758 159.381 115.625C157.923 116.528 159.262 118.84 160.728 117.932C161.56 117.417 162.526 116.482 163.577 116.652C164.612 116.818 165.671 117.811 166.201 118.651C167.312 120.408 166.966 122.813 165.512 124.267C163.776 126.004 161.497 126.086 159.243 125.522C157.042 123.891 154.635 122.594 152.099 121.602C152.829 120.966 153.424 120.143 153.821 119.084C155.121 115.611 152.161 111.635 148.394 112.624C146.734 113.06 147.438 115.638 149.104 115.2C150.4 114.86 151.414 116.005 151.465 117.204C151.521 118.514 150.499 119.562 149.428 120.167C149.207 120.292 148.977 120.397 148.744 120.489C144.683 119.375 140.382 118.983 136.094 119.278C135.358 118.335 135.915 116.49 136.818 115.646C137.289 115.205 137.839 114.885 138.424 114.635C138.685 114.696 138.948 114.75 139.217 114.79C143.161 115.381 146.799 113.468 149.016 110.228C149.084 110.13 149.146 110.03 149.21 109.932C150.362 110.866 151.814 111.386 153.496 111.19C156.814 110.802 159.041 106.824 156.865 103.991C155.833 102.648 153.513 103.977 154.561 105.34C155.937 107.132 154.063 108.916 152.138 108.476C151.426 108.314 150.864 107.954 150.417 107.479C151.9 103.247 150.577 98.7874 147.779 95.3773C150.186 94.7536 152.285 93.1555 153.226 90.6447ZM184.589 144.075C187.533 158.727 185.74 175.121 174.503 185.948C172.908 187.486 171.127 188.82 169.226 189.932C169.719 188.979 170.1 187.961 170.335 186.889C170.979 183.95 170.115 181.141 170.117 178.202C170.118 176.796 170.307 175.232 171.277 174.137C173.08 172.102 176.238 173.117 176.556 175.841C176.752 177.529 179.424 177.548 179.225 175.841C178.424 168.961 169.555 168.773 167.793 175.237C166.801 178.873 168.534 182.547 167.761 186.179C167.21 188.766 165.669 190.984 163.571 192.463C158.644 194.052 153.351 194.252 148.484 192.774C155.579 193.441 162.543 188.201 163.194 180.508C165.012 179.362 166.454 177.684 166.816 175.532C167.507 171.422 163.479 168.86 159.779 169.759C156.279 170.609 154.922 173.683 154.406 176.889C152.336 176.62 150.269 176.021 148.241 175.243C149.888 174.636 151.424 173.735 152.824 172.556C154.14 171.447 152.243 169.565 150.937 170.666C148.984 172.311 146.65 173.235 144.138 173.436C142.249 172.515 140.418 171.52 138.677 170.585C136.408 169.365 134.195 168.051 132.029 166.665C131.931 166.482 131.789 166.312 131.583 166.173C127.658 163.518 126.047 158.551 127.469 154.069C127.99 152.427 125.413 151.724 124.895 153.359C123.998 156.185 124.109 159.128 125.049 161.78C122.206 159.607 119.472 157.292 116.868 154.834C114.78 151.04 113.64 146.453 117.719 143.745C119.145 142.799 117.809 140.484 116.372 141.438C113.521 143.331 112.167 146.59 112.39 149.976C112.399 150.113 112.417 150.247 112.431 150.382C111.881 149.795 111.336 149.203 110.799 148.603C109.697 147.371 108.642 146.103 107.608 144.818C107.579 144.585 107.551 144.351 107.523 144.117C109.706 139.033 113.403 134.693 117.934 131.382C118.001 131.361 118.067 131.337 118.135 131.319C119.294 131.009 120.686 131.119 121.569 132.022C122.74 133.217 122.158 135.624 120.22 135.021C118.576 134.509 117.873 137.087 119.51 137.597C124.043 139.009 126.546 133.203 123.457 130.132C122.917 129.595 122.359 129.199 121.791 128.921C128.071 125.446 135.408 123.77 142.405 124.492C143.251 124.738 144.04 125.137 144.718 125.77C145.719 126.704 146.38 128.428 145.565 129.715C144.728 131.036 142.698 130.941 142.355 129.279C142.007 127.597 139.433 128.309 139.781 129.99C140.248 132.249 142.504 133.607 144.746 133.259C146.914 132.922 148.345 130.987 148.541 128.867C148.65 127.688 148.392 126.571 147.872 125.584C150.681 126.435 153.367 127.731 155.826 129.52C157.504 130.74 159.016 132.197 160.306 133.819C160.42 134.168 160.514 134.523 160.579 134.888C161.065 137.596 159.838 140.745 156.962 141.381C155.285 141.753 155.995 144.33 157.671 143.958C160.512 143.328 162.402 140.979 163.077 138.274C165.433 143.292 165.812 149.101 163.088 154.333C159.497 161.23 151.733 164.692 144.835 161.777C143.419 159.836 142.931 157.328 143.625 154.916C144.108 153.241 145.226 151.677 146.837 150.922C147.959 150.397 149.539 150.262 150.478 151.256C151.637 152.483 151.064 154.383 149.25 154.193C147.543 154.015 147.555 156.688 149.25 156.865C152.332 157.187 154.661 153.941 153.524 151.089C152.19 147.738 148.072 147.156 145.198 148.781C141.437 150.909 140.097 155.313 140.908 159.284C137.744 156.42 136.401 152.217 137.799 148.04C139.264 143.662 143.247 140.195 147.971 140.341C151.408 140.447 151.404 135.104 147.971 134.998C144.267 134.883 140.95 136.192 138.306 138.35C138.555 136.696 138.472 134.99 137.976 133.318C137.106 130.381 133.335 126.798 130.479 129.933C128.489 132.119 130.4 135.925 133.409 134.851C134.426 134.489 134.905 133.742 134.986 132.942C135.164 133.287 135.303 133.65 135.403 134.028C135.701 134.982 135.802 136.002 135.765 136.999C135.685 139.143 134.912 141.175 133.584 142.852C133.389 143.098 133.295 143.362 133.276 143.621C133.047 143.314 132.808 143.012 132.548 142.723C130.315 140.236 126.504 138.464 123.33 140.295C121.014 141.631 119.581 144.82 121.389 147.138C122.907 149.086 126.088 149.555 127.74 147.54C128.822 146.222 126.944 144.321 125.852 145.651C124.639 147.131 122.678 145.343 123.503 143.752C124.623 141.591 127.389 142.085 129.04 143.17C130.673 144.243 131.808 145.82 132.488 147.592C131.617 151.074 131.825 154.824 133.462 158.205C138.6 168.816 153.149 171.046 161.987 164.008C162.945 163.244 163.816 162.415 164.605 161.535C164.688 161.765 164.777 161.994 164.877 162.221C166.635 166.173 171.154 168.88 175.483 168.004C179.422 167.207 182.697 163.491 182.595 159.401C182.491 155.215 178.167 151.391 174.226 154.144C172.828 155.121 174.161 157.438 175.574 156.451C179.152 153.951 180.613 159.707 179.226 162.199C177.872 164.632 175.056 165.982 172.33 165.319C168.829 164.466 167.026 161.686 166.786 158.641C169.418 154.458 170.52 149.508 170.158 144.606C171.559 145.588 173.108 146.352 174.858 146.778C178.471 147.657 182.211 146.662 184.589 144.075ZM180.188 196.087C178.237 197.063 176.211 197.843 174.14 198.442C173.85 196.963 173.185 195.6 172.21 194.475C175.751 192.313 178.844 189.504 181.447 186.275C183.517 187.902 185.012 190.101 185.826 192.602C184.061 193.92 182.178 195.091 180.188 196.087ZM166.066 209.279C165.214 209.132 164.369 208.949 163.531 208.741C164.597 206.85 165.101 204.711 164.997 202.536C170.138 202.361 175.249 201.236 180.001 199.118C180.937 202.226 181.213 205.391 180.772 208.599C175.999 209.841 170.988 210.13 166.066 209.279ZM151.046 213.65C152.497 213.27 153.795 212.432 154.712 211.276C157.851 212.749 161.183 213.824 164.647 214.431C166.11 214.688 167.583 214.86 169.058 214.956C168.268 218.011 166.221 220.57 163.421 222.116C163.296 222.186 163.196 222.268 163.109 222.355C158.635 220.145 154.546 217.191 151.046 213.65ZM146.619 219.68C146.555 219.671 146.495 219.673 146.434 219.672C144.513 215.567 143.14 211.23 142.359 206.762C144.998 211.139 148.354 215.057 152.23 218.362C150.556 219.437 148.632 219.964 146.619 219.68ZM140.073 209.03C141.43 215.49 143.963 221.674 147.578 227.243H140.073V209.03ZM145.465 189.223C145.664 189.206 145.863 189.194 146.062 189.17C150.914 188.588 155.702 186.244 158.473 182.2C158.617 182.181 158.762 182.163 158.907 182.139C159.363 182.062 159.826 181.953 160.288 181.816C158.787 188.336 151.668 191.925 145.465 189.223ZM152.262 210.021C151.631 210.673 150.791 211.112 149.823 211.188C149.507 211.212 149.251 211.325 149.051 211.49C146.992 209.113 145.181 206.519 143.671 203.742C146.267 206.184 149.155 208.3 152.262 210.021ZM155.802 199.119C160.223 199.108 164.668 198.17 168.739 196.321C169.095 196.159 169.448 195.99 169.796 195.816C170.722 196.689 171.33 197.824 171.542 199.09C166.37 200.184 160.986 200.171 155.802 199.119ZM162.331 202.544C162.414 204.498 161.933 206.296 160.869 207.968C155.33 206.129 150.247 202.969 146.165 198.791C151.245 201.113 156.773 202.38 162.331 202.544ZM139.648 177.09C142.174 178.324 144.746 179.455 147.363 180.456C148.675 180.957 150.03 181.399 151.409 181.731C149.283 183.202 146.643 183.96 143.948 183.975C140.966 183.991 138.107 183.176 135.401 181.944C137.372 180.933 138.92 179.193 139.648 177.09ZM129.308 171.276C131.874 172.918 134.52 174.449 137.225 175.864C136.623 177.891 135.096 179.456 132.999 180.023C132.736 180.094 132.538 180.224 132.388 180.382C130.661 179.385 129.005 178.272 127.433 177.159C126.724 176.656 126.024 176.14 125.329 175.617C127.099 174.662 128.505 173.137 129.308 171.276ZM114.84 166.402C113.421 164.955 112.043 163.465 110.716 161.931C111.504 160.808 112.293 159.685 113.081 158.562C114.606 160.011 116.174 161.416 117.781 162.776C117.256 164.342 116.213 165.569 114.84 166.402ZM119.93 164.544C122.035 166.235 124.203 167.851 126.434 169.38C126.627 169.512 126.824 169.637 127.018 169.769C126.363 171.685 124.867 173.144 122.919 173.739C120.797 172.026 118.749 170.221 116.784 168.329C118.151 167.374 119.226 166.064 119.93 164.544ZM189.502 170.293C192.74 172.901 195.159 176.336 196.536 180.313C194.328 184.275 191.449 187.851 188.023 190.829C186.97 188.187 185.272 185.954 183.039 184.163C185.986 179.973 188.17 175.212 189.502 170.293ZM190.308 166.757C191.189 161.995 191.393 157.186 191.075 152.399C192.329 154.472 193.581 156.547 194.827 158.624C196.973 162.199 199.053 165.94 200.546 169.845C199.981 172.359 199.165 174.804 198.125 177.143C196.337 173.28 193.629 169.976 190.17 167.451C190.216 167.22 190.265 166.989 190.308 166.757ZM204.244 164.821C199.872 155.218 193.584 146.347 188.087 137.366C182.29 127.896 176.493 118.426 170.696 108.955C159.101 90.0144 147.507 71.0737 135.912 52.1325C125.275 34.7552 114.638 17.3773 104 -1.01421e-05C93.3623 17.3773 82.725 34.7552 72.0876 52.1325C60.4932 71.0737 48.8988 90.0144 37.3045 108.955C31.5073 118.426 25.7101 127.896 19.9129 137.366C14.4157 146.347 8.12858 155.218 3.7561 164.821C-0.0466204 173.173 -1.3284 182.105 1.6305 190.94C4.50891 199.535 10.2606 206.865 16.4968 213.295C28.2105 225.374 44.4231 235.997 47.4795 253.788C47.6545 254.806 48.8677 255.749 49.899 255.753C50.2289 255.909 50.6149 256 51.0598 256H104H156.94C157.385 256 157.771 255.909 158.101 255.753C159.133 255.749 160.346 254.806 160.52 253.788C163.577 235.997 179.79 225.374 191.503 213.295C197.739 206.865 203.491 199.535 206.37 190.94C209.328 182.105 208.047 173.173 204.244 164.821Z" fill="#C8A668"/>
<path d="M99.9965 211.67C98.5491 211.483 97.0576 212.409 96.9959 213.964C96.937 215.443 98.3436 216.534 99.7298 216.573C100.406 216.592 101.11 216.341 101.576 215.84C101.916 215.475 102.085 215.063 102.049 214.618C102.665 213.218 101.42 211.854 99.9965 211.67Z" fill="#C8A668"/>
</g>
<defs>
<clipPath id="clip0_268_6">
<rect width="208" height="256" fill="white"/>
</clipPath>
</defs>
</svg>
